G04 DipTrace Beta 2.3.5.2*
%INLulfroMiniBrush-v2.GTS*%
%MOIN*%
%ADD22R,0.0354X0.0276*%
%ADD23R,0.0276X0.0354*%
%ADD26R,0.0394X0.0433*%
%ADD27R,0.0433X0.0394*%
%ADD28R,0.0315X0.0315*%
%ADD31R,0.0472X0.0217*%
%ADD37R,0.058X0.011*%
%ADD38R,0.011X0.058*%
%ADD48O,0.0158X0.0375*%
%ADD50O,0.0375X0.0158*%
%ADD52R,0.126X0.0512*%
%ADD56R,0.0453X0.0296*%
%FSLAX44Y44*%
G04*
G70*
G90*
G75*
G01*
%LNTopMask*%
%LPD*%
G36*
X3954Y8240D2*
X4158Y8445D1*
X3742D1*
Y8035D1*
X4158D1*
X3954Y8240D1*
G37*
G36*
X4807D2*
X4603Y8035D1*
X5019D1*
Y8445D1*
X4603D1*
X4807Y8240D1*
G37*
G36*
X4517Y8035D2*
X4244D1*
X4040Y8240D1*
X4244Y8445D1*
X4517D1*
X4721Y8240D1*
X4517Y8035D1*
G37*
G36*
X841Y3678D2*
X289D1*
X272D1*
X255Y3681D1*
X237Y3686D1*
X221Y3692D1*
X205Y3700D1*
X190Y3710D1*
X176Y3721D1*
X164Y3734D1*
X152Y3748D1*
X143Y3762D1*
X135Y3778D1*
X128Y3795D1*
X124Y3812D1*
X121Y3830D1*
X120Y3847D1*
Y4398D1*
X121Y4415D1*
X124Y4433D1*
X128Y4450D1*
X135Y4467D1*
X143Y4483D1*
X152Y4497D1*
X164Y4511D1*
X176Y4524D1*
X190Y4535D1*
X205Y4545D1*
X221Y4553D1*
X237Y4559D1*
X255Y4564D1*
X272Y4567D1*
X289Y4568D1*
X841D1*
X858Y4567D1*
X875Y4564D1*
X893Y4559D1*
X909Y4553D1*
X925Y4545D1*
X940Y4535D1*
X954Y4524D1*
X966Y4511D1*
X978Y4497D1*
X987Y4483D1*
X995Y4467D1*
X1002Y4450D1*
X1006Y4433D1*
X1009Y4415D1*
X1010Y4398D1*
Y3847D1*
X1009Y3830D1*
X1006Y3812D1*
X1002Y3795D1*
X995Y3778D1*
X987Y3762D1*
X978Y3748D1*
X966Y3734D1*
X954Y3721D1*
X940Y3710D1*
X925Y3700D1*
X909Y3692D1*
X893Y3686D1*
X875Y3681D1*
X858Y3678D1*
X841D1*
G37*
G36*
X1010Y5398D2*
Y4847D1*
X1009Y4830D1*
X1006Y4812D1*
X1002Y4795D1*
X995Y4778D1*
X987Y4762D1*
X978Y4748D1*
X966Y4734D1*
X954Y4721D1*
X940Y4710D1*
X925Y4700D1*
X909Y4692D1*
X893Y4686D1*
X875Y4681D1*
X858Y4678D1*
X841D1*
X289D1*
X272D1*
X255Y4681D1*
X237Y4686D1*
X221Y4692D1*
X205Y4700D1*
X190Y4710D1*
X176Y4721D1*
X164Y4734D1*
X152Y4748D1*
X143Y4762D1*
X135Y4778D1*
X128Y4795D1*
X124Y4812D1*
X121Y4830D1*
X120Y4847D1*
Y5398D1*
X121Y5415D1*
X124Y5433D1*
X128Y5450D1*
X135Y5467D1*
X143Y5483D1*
X152Y5497D1*
X164Y5511D1*
X176Y5524D1*
X190Y5535D1*
X205Y5545D1*
X221Y5553D1*
X237Y5559D1*
X255Y5564D1*
X272Y5567D1*
X289Y5568D1*
X841D1*
X858Y5567D1*
X875Y5564D1*
X893Y5559D1*
X909Y5553D1*
X925Y5545D1*
X940Y5535D1*
X954Y5524D1*
X966Y5511D1*
X978Y5497D1*
X987Y5483D1*
X995Y5467D1*
X1002Y5450D1*
X1006Y5433D1*
X1009Y5415D1*
X1010Y5398D1*
G37*
G36*
X289Y5678D2*
X841D1*
X858D1*
X875Y5681D1*
X893Y5686D1*
X909Y5692D1*
X925Y5700D1*
X940Y5710D1*
X954Y5721D1*
X966Y5734D1*
X978Y5748D1*
X987Y5762D1*
X995Y5778D1*
X1002Y5795D1*
X1006Y5812D1*
X1009Y5830D1*
X1010Y5847D1*
Y6398D1*
X1009Y6415D1*
X1006Y6433D1*
X1002Y6450D1*
X995Y6467D1*
X987Y6483D1*
X978Y6497D1*
X966Y6511D1*
X954Y6524D1*
X940Y6535D1*
X925Y6545D1*
X909Y6553D1*
X893Y6559D1*
X875Y6564D1*
X858Y6567D1*
X841Y6568D1*
X289D1*
X272Y6567D1*
X255Y6564D1*
X237Y6559D1*
X221Y6553D1*
X205Y6545D1*
X190Y6535D1*
X176Y6524D1*
X164Y6511D1*
X152Y6497D1*
X143Y6483D1*
X135Y6467D1*
X128Y6450D1*
X124Y6433D1*
X121Y6415D1*
X120Y6398D1*
Y5847D1*
X121Y5830D1*
X124Y5812D1*
X128Y5795D1*
X135Y5778D1*
X143Y5762D1*
X152Y5748D1*
X164Y5734D1*
X176Y5721D1*
X190Y5710D1*
X205Y5700D1*
X221Y5692D1*
X237Y5686D1*
X255Y5681D1*
X272Y5678D1*
X289D1*
G37*
G36*
X1010Y6847D2*
Y7398D1*
X1009Y7415D1*
X1006Y7433D1*
X1002Y7450D1*
X995Y7467D1*
X987Y7483D1*
X978Y7497D1*
X966Y7511D1*
X954Y7524D1*
X940Y7535D1*
X925Y7545D1*
X909Y7553D1*
X893Y7559D1*
X875Y7564D1*
X858Y7567D1*
X841Y7568D1*
X289D1*
X272Y7567D1*
X255Y7564D1*
X237Y7559D1*
X221Y7553D1*
X205Y7545D1*
X190Y7535D1*
X176Y7524D1*
X164Y7511D1*
X152Y7497D1*
X143Y7483D1*
X135Y7467D1*
X128Y7450D1*
X124Y7433D1*
X121Y7415D1*
X120Y7398D1*
Y6847D1*
X121Y6830D1*
X124Y6812D1*
X128Y6795D1*
X135Y6778D1*
X143Y6762D1*
X152Y6748D1*
X164Y6734D1*
X176Y6721D1*
X190Y6710D1*
X205Y6700D1*
X221Y6692D1*
X237Y6686D1*
X255Y6681D1*
X272Y6678D1*
X289D1*
X841D1*
X858D1*
X875Y6681D1*
X893Y6686D1*
X909Y6692D1*
X925Y6700D1*
X940Y6710D1*
X954Y6721D1*
X966Y6734D1*
X978Y6748D1*
X987Y6762D1*
X995Y6778D1*
X1002Y6795D1*
X1006Y6812D1*
X1009Y6830D1*
X1010Y6847D1*
G37*
G36*
X2905Y8844D2*
Y9396D1*
X2906Y9413D1*
X2909Y9430D1*
X2913Y9448D1*
X2920Y9464D1*
X2928Y9480D1*
X2937Y9495D1*
X2949Y9509D1*
X2961Y9521D1*
X2975Y9533D1*
X2990Y9542D1*
X3006Y9550D1*
X3022Y9557D1*
X3040Y9561D1*
X3057Y9564D1*
X3074Y9565D1*
X3626D1*
X3643Y9564D1*
X3660Y9561D1*
X3678Y9557D1*
X3694Y9550D1*
X3710Y9542D1*
X3725Y9533D1*
X3739Y9521D1*
X3751Y9509D1*
X3763Y9495D1*
X3772Y9480D1*
X3780Y9464D1*
X3787Y9448D1*
X3791Y9430D1*
X3794Y9413D1*
X3795Y9396D1*
Y8844D1*
X3794Y8827D1*
X3791Y8810D1*
X3787Y8792D1*
X3780Y8776D1*
X3772Y8760D1*
X3763Y8745D1*
X3751Y8731D1*
X3739Y8719D1*
X3725Y8707D1*
X3710Y8698D1*
X3694Y8690D1*
X3678Y8683D1*
X3660Y8679D1*
X3643Y8676D1*
X3626Y8675D1*
X3074D1*
X3057Y8676D1*
X3040Y8679D1*
X3022Y8683D1*
X3006Y8690D1*
X2990Y8698D1*
X2975Y8707D1*
X2961Y8719D1*
X2949Y8731D1*
X2937Y8745D1*
X2928Y8760D1*
X2920Y8776D1*
X2913Y8792D1*
X2909Y8810D1*
X2906Y8827D1*
X2905Y8844D1*
G37*
G36*
X4626Y8675D2*
X4074D1*
X4057Y8676D1*
X4040Y8679D1*
X4022Y8683D1*
X4006Y8690D1*
X3990Y8698D1*
X3975Y8707D1*
X3961Y8719D1*
X3949Y8731D1*
X3937Y8745D1*
X3928Y8760D1*
X3920Y8776D1*
X3913Y8792D1*
X3909Y8810D1*
X3906Y8827D1*
X3905Y8844D1*
Y9396D1*
X3906Y9413D1*
X3909Y9430D1*
X3913Y9448D1*
X3920Y9464D1*
X3928Y9480D1*
X3937Y9495D1*
X3949Y9509D1*
X3961Y9521D1*
X3975Y9533D1*
X3990Y9542D1*
X4006Y9550D1*
X4022Y9557D1*
X4040Y9561D1*
X4057Y9564D1*
X4074Y9565D1*
X4626D1*
X4643Y9564D1*
X4660Y9561D1*
X4678Y9557D1*
X4694Y9550D1*
X4710Y9542D1*
X4725Y9533D1*
X4739Y9521D1*
X4751Y9509D1*
X4763Y9495D1*
X4772Y9480D1*
X4780Y9464D1*
X4787Y9448D1*
X4791Y9430D1*
X4794Y9413D1*
X4795Y9396D1*
Y8844D1*
X4794Y8827D1*
X4791Y8810D1*
X4787Y8792D1*
X4780Y8776D1*
X4772Y8760D1*
X4763Y8745D1*
X4751Y8731D1*
X4739Y8719D1*
X4725Y8707D1*
X4710Y8698D1*
X4694Y8690D1*
X4678Y8683D1*
X4660Y8679D1*
X4643Y8676D1*
X4626Y8675D1*
G37*
G36*
X4905Y9396D2*
Y8844D1*
X4906Y8827D1*
X4909Y8810D1*
X4913Y8792D1*
X4920Y8776D1*
X4928Y8760D1*
X4937Y8745D1*
X4949Y8731D1*
X4961Y8719D1*
X4975Y8707D1*
X4990Y8698D1*
X5006Y8690D1*
X5022Y8683D1*
X5040Y8679D1*
X5057Y8676D1*
X5074Y8675D1*
X5626D1*
X5643Y8676D1*
X5660Y8679D1*
X5678Y8683D1*
X5694Y8690D1*
X5710Y8698D1*
X5725Y8707D1*
X5739Y8719D1*
X5751Y8731D1*
X5763Y8745D1*
X5772Y8760D1*
X5780Y8776D1*
X5787Y8792D1*
X5791Y8810D1*
X5794Y8827D1*
X5795Y8844D1*
Y9396D1*
X5794Y9413D1*
X5791Y9430D1*
X5787Y9448D1*
X5780Y9464D1*
X5772Y9480D1*
X5763Y9495D1*
X5751Y9509D1*
X5739Y9521D1*
X5725Y9533D1*
X5710Y9542D1*
X5694Y9550D1*
X5678Y9557D1*
X5660Y9561D1*
X5643Y9564D1*
X5626Y9565D1*
X5074D1*
X5057Y9564D1*
X5040Y9561D1*
X5022Y9557D1*
X5006Y9550D1*
X4990Y9542D1*
X4975Y9533D1*
X4961Y9521D1*
X4949Y9509D1*
X4937Y9495D1*
X4928Y9480D1*
X4920Y9464D1*
X4913Y9448D1*
X4909Y9430D1*
X4906Y9413D1*
X4905Y9396D1*
G37*
G36*
X6074Y8675D2*
X6626D1*
X6643Y8676D1*
X6660Y8679D1*
X6678Y8683D1*
X6694Y8690D1*
X6710Y8698D1*
X6725Y8707D1*
X6739Y8719D1*
X6751Y8731D1*
X6763Y8745D1*
X6772Y8760D1*
X6780Y8776D1*
X6787Y8792D1*
X6791Y8810D1*
X6794Y8827D1*
X6795Y8844D1*
Y9396D1*
X6794Y9413D1*
X6791Y9430D1*
X6787Y9448D1*
X6780Y9464D1*
X6772Y9480D1*
X6763Y9495D1*
X6751Y9509D1*
X6739Y9521D1*
X6725Y9533D1*
X6710Y9542D1*
X6694Y9550D1*
X6678Y9557D1*
X6660Y9561D1*
X6643Y9564D1*
X6626Y9565D1*
X6074D1*
X6057Y9564D1*
X6040Y9561D1*
X6022Y9557D1*
X6006Y9550D1*
X5990Y9542D1*
X5975Y9533D1*
X5961Y9521D1*
X5949Y9509D1*
X5937Y9495D1*
X5928Y9480D1*
X5920Y9464D1*
X5913Y9448D1*
X5909Y9430D1*
X5906Y9413D1*
X5905Y9396D1*
Y8844D1*
X5906Y8827D1*
X5909Y8810D1*
X5913Y8792D1*
X5920Y8776D1*
X5928Y8760D1*
X5937Y8745D1*
X5949Y8731D1*
X5961Y8719D1*
X5975Y8707D1*
X5990Y8698D1*
X6006Y8690D1*
X6022Y8683D1*
X6040Y8679D1*
X6057Y8676D1*
X6074Y8675D1*
G37*
G36*
X4815Y274D2*
Y1226D1*
X4816Y1243D1*
X4819Y1260D1*
X4823Y1278D1*
X4830Y1294D1*
X4838Y1310D1*
X4847Y1325D1*
X4859Y1339D1*
X4871Y1351D1*
X4885Y1363D1*
X4900Y1372D1*
X4916Y1380D1*
X4932Y1387D1*
X4950Y1391D1*
X4967Y1394D1*
X4984Y1395D1*
X5936D1*
X5953Y1394D1*
X5970Y1391D1*
X5988Y1387D1*
X6004Y1380D1*
X6020Y1372D1*
X6035Y1363D1*
X6049Y1351D1*
X6061Y1339D1*
X6073Y1325D1*
X6082Y1310D1*
X6090Y1294D1*
X6097Y1278D1*
X6101Y1260D1*
X6104Y1243D1*
X6105Y1226D1*
Y274D1*
X6104Y257D1*
X6101Y240D1*
X6097Y222D1*
X6090Y206D1*
X6082Y190D1*
X6073Y175D1*
X6061Y161D1*
X6049Y149D1*
X6035Y137D1*
X6020Y128D1*
X6004Y120D1*
X5988Y113D1*
X5970Y109D1*
X5953Y106D1*
X5936Y105D1*
X4984D1*
X4967Y106D1*
X4950Y109D1*
X4932Y113D1*
X4916Y120D1*
X4900Y128D1*
X4885Y137D1*
X4871Y149D1*
X4859Y161D1*
X4847Y175D1*
X4838Y190D1*
X4830Y206D1*
X4823Y222D1*
X4819Y240D1*
X4816Y257D1*
X4815Y274D1*
G37*
G36*
X4605D2*
Y1226D1*
X4604Y1243D1*
X4601Y1260D1*
X4597Y1278D1*
X4590Y1294D1*
X4582Y1310D1*
X4573Y1325D1*
X4561Y1339D1*
X4549Y1351D1*
X4535Y1363D1*
X4520Y1372D1*
X4504Y1380D1*
X4488Y1387D1*
X4470Y1391D1*
X4453Y1394D1*
X4436Y1395D1*
X3484D1*
X3467Y1394D1*
X3450Y1391D1*
X3432Y1387D1*
X3416Y1380D1*
X3400Y1372D1*
X3385Y1363D1*
X3371Y1351D1*
X3359Y1339D1*
X3347Y1325D1*
X3338Y1310D1*
X3330Y1294D1*
X3323Y1278D1*
X3319Y1260D1*
X3316Y1243D1*
X3315Y1226D1*
Y274D1*
X3316Y257D1*
X3319Y240D1*
X3323Y222D1*
X3330Y206D1*
X3338Y190D1*
X3347Y175D1*
X3359Y161D1*
X3371Y149D1*
X3385Y137D1*
X3400Y128D1*
X3416Y120D1*
X3432Y113D1*
X3450Y109D1*
X3467Y106D1*
X3484Y105D1*
X4436D1*
X4453Y106D1*
X4470Y109D1*
X4488Y113D1*
X4504Y120D1*
X4520Y128D1*
X4535Y137D1*
X4549Y149D1*
X4561Y161D1*
X4573Y175D1*
X4582Y190D1*
X4590Y206D1*
X4597Y222D1*
X4601Y240D1*
X4604Y257D1*
X4605Y274D1*
G37*
G36*
X555Y3171D2*
X760Y2967D1*
Y3513D1*
X350D1*
Y2967D1*
X555Y3171D1*
G37*
G36*
X350Y2608D2*
Y2881D1*
X555Y3085D1*
X760Y2881D1*
Y2608D1*
X350D1*
G37*
D22*
X1910Y7020D3*
Y7532D3*
X2005Y4050D3*
Y3538D3*
D23*
X9070Y2600D3*
X8558D3*
X6570Y2610D3*
X7082D3*
D22*
X9290Y4870D3*
Y4358D3*
D23*
X6950Y4040D3*
X7462D3*
X8744Y6776D3*
X9256D3*
D22*
X9240Y6100D3*
Y5588D3*
X7420Y3090D3*
Y3602D3*
D26*
X6002Y1935D3*
Y2604D3*
D27*
Y3122D3*
X6672D3*
D23*
X6350Y6550D3*
X6862D3*
D22*
X2460Y7010D3*
Y7522D3*
D23*
X6030Y3650D3*
X6542D3*
D28*
X8090Y2600D3*
X7499D3*
X5810Y7680D3*
X6401D3*
D56*
X7475Y9275D3*
Y8527D3*
X8381Y8901D3*
X2125Y8450D3*
Y9198D3*
X1219Y8824D3*
X7425Y1175D3*
Y427D3*
X8331Y801D3*
X2200Y450D3*
Y1198D3*
X1294Y824D3*
D31*
X9003Y3185D3*
Y3559D3*
Y3933D3*
X7979D3*
Y3185D3*
D52*
X3378Y2122D3*
X3377Y3070D3*
G36*
X8706Y8627D2*
X9534D1*
Y7799D1*
X8706D1*
Y8627D1*
G37*
G36*
X9530Y8696D2*
X8702D1*
Y9524D1*
X9530D1*
Y8696D1*
G37*
G36*
X76Y8637D2*
X904D1*
Y7809D1*
X76D1*
Y8637D1*
G37*
G36*
X900Y8706D2*
X72D1*
Y9534D1*
X900D1*
Y8706D1*
G37*
G36*
X9504Y993D2*
X8676D1*
Y1821D1*
X9504D1*
Y993D1*
G37*
G36*
X8680Y924D2*
X9508D1*
Y96D1*
X8680D1*
Y924D1*
G37*
G36*
X954Y1043D2*
X126D1*
Y1871D1*
X954D1*
Y1043D1*
G37*
G36*
X130Y974D2*
X958D1*
Y146D1*
X130D1*
Y974D1*
G37*
D50*
X8605Y4910D3*
Y5107D3*
Y5304D3*
Y5501D3*
Y5697D3*
Y5894D3*
D48*
X8349Y6150D3*
X8152D3*
X7955D3*
X7759D3*
X7562D3*
X7365D3*
D50*
X7109Y5894D3*
Y5697D3*
Y5501D3*
Y5304D3*
Y5107D3*
Y4910D3*
D48*
X7365Y4654D3*
X7562D3*
X7759D3*
X7955D3*
X8152D3*
X8349D3*
D23*
X7700Y7730D3*
X8212D3*
X4960Y7680D3*
X5472D3*
D22*
X6440Y4100D3*
Y4612D3*
Y5350D3*
Y5862D3*
D23*
X3770Y7680D3*
X4282D3*
X6800Y7125D3*
X6288D3*
X7620Y1800D3*
X8132D3*
D22*
X1320Y2190D3*
Y2702D3*
D23*
X877Y2185D3*
X366D3*
X2420Y7940D3*
X1908D3*
D22*
X6800Y625D3*
Y1137D3*
D23*
X2299Y1997D3*
X1787D3*
X7694Y7234D3*
X8206D3*
X3380Y7670D3*
X2868D3*
X7100Y1810D3*
X6588D3*
X2299Y2498D3*
X1787D3*
G36*
X8441Y3170D2*
X8237Y2965D1*
X8783D1*
Y3375D1*
X8237D1*
X8441Y3170D1*
G37*
G36*
X7878Y3375D2*
X8151D1*
X8355Y3170D1*
X8151Y2965D1*
X7878D1*
Y3375D1*
G37*
G36*
X4502Y2963D2*
Y2971D1*
X4500Y2979D1*
X4496Y2986D1*
X4491Y2993D1*
X4485Y2999D1*
X4479Y3004D1*
X4471Y3007D1*
X4463Y3009D1*
X4456Y3010D1*
X4174D1*
X4167Y3009D1*
X4159Y3007D1*
X4151Y3004D1*
X4145Y2999D1*
X4139Y2993D1*
X4134Y2986D1*
X4130Y2979D1*
X4128Y2971D1*
Y2963D1*
Y2907D1*
Y2899D1*
X4130Y2891D1*
X4134Y2884D1*
X4139Y2877D1*
X4145Y2871D1*
X4151Y2866D1*
X4159Y2863D1*
X4167Y2861D1*
X4174Y2860D1*
X4456D1*
X4463Y2861D1*
X4471Y2863D1*
X4479Y2866D1*
X4485Y2871D1*
X4491Y2877D1*
X4496Y2884D1*
X4500Y2891D1*
X4502Y2899D1*
Y2907D1*
Y2963D1*
G37*
G36*
Y2767D2*
Y2774D1*
X4500Y2782D1*
X4496Y2790D1*
X4491Y2796D1*
X4485Y2802D1*
X4479Y2807D1*
X4471Y2810D1*
X4463Y2813D1*
X4456D1*
X4174D1*
X4167D1*
X4159Y2810D1*
X4151Y2807D1*
X4145Y2802D1*
X4139Y2796D1*
X4134Y2790D1*
X4130Y2782D1*
X4128Y2774D1*
Y2767D1*
Y2710D1*
Y2702D1*
X4130Y2694D1*
X4134Y2687D1*
X4139Y2680D1*
X4145Y2674D1*
X4151Y2669D1*
X4159Y2666D1*
X4167Y2664D1*
X4174Y2663D1*
X4456D1*
X4463Y2664D1*
X4471Y2666D1*
X4479Y2669D1*
X4485Y2674D1*
X4491Y2680D1*
X4496Y2687D1*
X4500Y2694D1*
X4502Y2702D1*
Y2710D1*
Y2767D1*
G37*
G36*
Y2570D2*
Y2577D1*
X4500Y2585D1*
X4496Y2593D1*
X4491Y2599D1*
X4485Y2605D1*
X4479Y2610D1*
X4471Y2614D1*
X4463Y2616D1*
X4456D1*
X4174D1*
X4167D1*
X4159Y2614D1*
X4151Y2610D1*
X4145Y2605D1*
X4139Y2599D1*
X4134Y2593D1*
X4130Y2585D1*
X4128Y2577D1*
Y2570D1*
Y2513D1*
Y2505D1*
X4130Y2497D1*
X4134Y2490D1*
X4139Y2483D1*
X4145Y2477D1*
X4151Y2472D1*
X4159Y2469D1*
X4167Y2467D1*
X4174Y2466D1*
X4456D1*
X4463Y2467D1*
X4471Y2469D1*
X4479Y2472D1*
X4485Y2477D1*
X4491Y2483D1*
X4496Y2490D1*
X4500Y2497D1*
X4502Y2505D1*
Y2513D1*
Y2570D1*
G37*
G36*
Y2373D2*
Y2380D1*
X4500Y2388D1*
X4496Y2396D1*
X4491Y2403D1*
X4485Y2409D1*
X4479Y2413D1*
X4471Y2417D1*
X4463Y2419D1*
X4456Y2420D1*
X4174D1*
X4167Y2419D1*
X4159Y2417D1*
X4151Y2413D1*
X4145Y2409D1*
X4139Y2403D1*
X4134Y2396D1*
X4130Y2388D1*
X4128Y2380D1*
Y2373D1*
Y2316D1*
Y2309D1*
X4130Y2301D1*
X4134Y2293D1*
X4139Y2286D1*
X4145Y2280D1*
X4151Y2276D1*
X4159Y2272D1*
X4167Y2270D1*
X4174Y2269D1*
X4456D1*
X4463Y2270D1*
X4471Y2272D1*
X4479Y2276D1*
X4485Y2280D1*
X4491Y2286D1*
X4496Y2293D1*
X4500Y2301D1*
X4502Y2309D1*
Y2316D1*
Y2373D1*
G37*
G36*
Y2176D2*
Y2183D1*
X4500Y2191D1*
X4496Y2199D1*
X4491Y2206D1*
X4485Y2212D1*
X4479Y2216D1*
X4471Y2220D1*
X4463Y2222D1*
X4456Y2223D1*
X4174D1*
X4167Y2222D1*
X4159Y2220D1*
X4151Y2216D1*
X4145Y2212D1*
X4139Y2206D1*
X4134Y2199D1*
X4130Y2191D1*
X4128Y2183D1*
Y2176D1*
Y2119D1*
Y2112D1*
X4130Y2104D1*
X4134Y2096D1*
X4139Y2089D1*
X4145Y2084D1*
X4151Y2079D1*
X4159Y2075D1*
X4167Y2073D1*
X4174Y2072D1*
X4456D1*
X4463Y2073D1*
X4471Y2075D1*
X4479Y2079D1*
X4485Y2084D1*
X4491Y2089D1*
X4496Y2096D1*
X4500Y2104D1*
X4502Y2112D1*
Y2119D1*
Y2176D1*
G37*
G36*
X5289Y2119D2*
X5290Y2112D1*
X5292Y2104D1*
X5295Y2096D1*
X5300Y2089D1*
X5306Y2084D1*
X5313Y2079D1*
X5320Y2075D1*
X5328Y2073D1*
X5336Y2072D1*
X5617D1*
X5624Y2073D1*
X5632Y2075D1*
X5640Y2079D1*
X5647Y2084D1*
X5653Y2089D1*
X5657Y2096D1*
X5661Y2104D1*
X5663Y2112D1*
X5664Y2119D1*
Y2176D1*
X5663Y2183D1*
X5661Y2191D1*
X5657Y2199D1*
X5653Y2206D1*
X5647Y2212D1*
X5640Y2216D1*
X5632Y2220D1*
X5624Y2222D1*
X5617Y2223D1*
X5336D1*
X5328Y2222D1*
X5320Y2220D1*
X5313Y2216D1*
X5306Y2212D1*
X5300Y2206D1*
X5295Y2199D1*
X5292Y2191D1*
X5290Y2183D1*
X5289Y2176D1*
Y2119D1*
G37*
G36*
Y2316D2*
X5290Y2309D1*
X5292Y2301D1*
X5295Y2293D1*
X5300Y2286D1*
X5306Y2280D1*
X5313Y2276D1*
X5320Y2272D1*
X5328Y2270D1*
X5336Y2269D1*
X5617D1*
X5624Y2270D1*
X5632Y2272D1*
X5640Y2276D1*
X5647Y2280D1*
X5653Y2286D1*
X5657Y2293D1*
X5661Y2301D1*
X5663Y2309D1*
X5664Y2316D1*
Y2373D1*
X5663Y2380D1*
X5661Y2388D1*
X5657Y2396D1*
X5653Y2403D1*
X5647Y2409D1*
X5640Y2413D1*
X5632Y2417D1*
X5624Y2419D1*
X5617Y2420D1*
X5336D1*
X5328Y2419D1*
X5320Y2417D1*
X5313Y2413D1*
X5306Y2409D1*
X5300Y2403D1*
X5295Y2396D1*
X5292Y2388D1*
X5290Y2380D1*
X5289Y2373D1*
Y2316D1*
G37*
G36*
Y2513D2*
X5290Y2505D1*
X5292Y2497D1*
X5295Y2490D1*
X5300Y2483D1*
X5306Y2477D1*
X5313Y2472D1*
X5320Y2469D1*
X5328Y2467D1*
X5336Y2466D1*
X5617D1*
X5624Y2467D1*
X5632Y2469D1*
X5640Y2472D1*
X5647Y2477D1*
X5653Y2483D1*
X5657Y2490D1*
X5661Y2497D1*
X5663Y2505D1*
X5664Y2513D1*
Y2570D1*
X5663Y2577D1*
X5661Y2585D1*
X5657Y2593D1*
X5653Y2599D1*
X5647Y2605D1*
X5640Y2610D1*
X5632Y2614D1*
X5624Y2616D1*
X5617D1*
X5336D1*
X5328D1*
X5320Y2614D1*
X5313Y2610D1*
X5306Y2605D1*
X5300Y2599D1*
X5295Y2593D1*
X5292Y2585D1*
X5290Y2577D1*
X5289Y2570D1*
Y2513D1*
G37*
G36*
Y2710D2*
X5290Y2702D1*
X5292Y2694D1*
X5295Y2687D1*
X5300Y2680D1*
X5306Y2674D1*
X5313Y2669D1*
X5320Y2666D1*
X5328Y2664D1*
X5336Y2663D1*
X5617D1*
X5624Y2664D1*
X5632Y2666D1*
X5640Y2669D1*
X5647Y2674D1*
X5653Y2680D1*
X5657Y2687D1*
X5661Y2694D1*
X5663Y2702D1*
X5664Y2710D1*
Y2767D1*
X5663Y2774D1*
X5661Y2782D1*
X5657Y2790D1*
X5653Y2796D1*
X5647Y2802D1*
X5640Y2807D1*
X5632Y2810D1*
X5624Y2813D1*
X5617D1*
X5336D1*
X5328D1*
X5320Y2810D1*
X5313Y2807D1*
X5306Y2802D1*
X5300Y2796D1*
X5295Y2790D1*
X5292Y2782D1*
X5290Y2774D1*
X5289Y2767D1*
Y2710D1*
G37*
G36*
Y2907D2*
X5290Y2899D1*
X5292Y2891D1*
X5295Y2884D1*
X5300Y2877D1*
X5306Y2871D1*
X5313Y2866D1*
X5320Y2863D1*
X5328Y2861D1*
X5336Y2860D1*
X5617D1*
X5624Y2861D1*
X5632Y2863D1*
X5640Y2866D1*
X5647Y2871D1*
X5653Y2877D1*
X5657Y2884D1*
X5661Y2891D1*
X5663Y2899D1*
X5664Y2907D1*
Y2963D1*
X5663Y2971D1*
X5661Y2979D1*
X5657Y2986D1*
X5653Y2993D1*
X5647Y2999D1*
X5640Y3004D1*
X5632Y3007D1*
X5624Y3009D1*
X5617Y3010D1*
X5336D1*
X5328Y3009D1*
X5320Y3007D1*
X5313Y3004D1*
X5306Y2999D1*
X5300Y2993D1*
X5295Y2986D1*
X5292Y2979D1*
X5290Y2971D1*
X5289Y2963D1*
Y2907D1*
G37*
G36*
X5241Y2049D2*
Y3034D1*
X4551D1*
Y2049D1*
X5241D1*
G37*
G36*
X5079Y1773D2*
Y3309D1*
X4929D1*
Y1773D1*
X5079D1*
G37*
G36*
X4863D2*
Y3309D1*
X4712D1*
Y1773D1*
X4863D1*
G37*
D37*
X2378Y6498D3*
Y6301D3*
Y6104D3*
Y5907D3*
Y5710D3*
Y5513D3*
Y5316D3*
Y5120D3*
Y4923D3*
Y4726D3*
Y4529D3*
Y4332D3*
D38*
X2955Y3755D3*
X3152D3*
X3349D3*
X3545D3*
X3742D3*
X3939D3*
X4136D3*
X4333D3*
X4530D3*
X4726D3*
X4923D3*
X5120D3*
D37*
X5698Y4332D3*
Y4529D3*
Y4726D3*
Y4923D3*
Y5120D3*
Y5316D3*
Y5513D3*
Y5710D3*
Y5907D3*
Y6104D3*
Y6301D3*
Y6498D3*
D38*
X5120Y7075D3*
X4923D3*
X4726D3*
X4530D3*
X4333D3*
X4136D3*
X3939D3*
X3742D3*
X3545D3*
X3349D3*
X3152D3*
X2955D3*
G36*
X1910Y5962D2*
Y6238D1*
X1240D1*
Y5962D1*
X1910D1*
G37*
G36*
Y5490D2*
Y5765D1*
X1240D1*
Y5490D1*
X1910D1*
G37*
G36*
Y5017D2*
Y5293D1*
X1240D1*
Y5017D1*
X1910D1*
G37*
M02*
