G04 DipTrace Beta 2.3.5.2*
%INLulfroMiniBrush-v2.G3L*%
%MOIN*%
%ADD13C,0.015*%
%ADD16C,0.01*%
%ADD17C,0.008*%
%ADD18C,0.007*%
%ADD39C,0.018*%
%FSLAX44Y44*%
G04*
G70*
G90*
G75*
G01*
%LNInner2*%
%LPD*%
X565Y6123D2*
D13*
X895D1*
X2103D1*
X3950Y7970D1*
X4630D1*
X4880D1*
X5200Y7650D1*
Y3600D1*
X5615Y3185D1*
X885Y6120D2*
X895Y6123D1*
X4630Y7940D2*
Y7970D1*
X4600Y7680D2*
D16*
X4435D1*
X3320Y6565D1*
Y5120D1*
X2920Y4720D1*
X6730Y2240D2*
D17*
X6005D1*
X4790Y3455D1*
Y5940D1*
X4150Y6580D1*
X4130Y6560D1*
X955Y3450D2*
D13*
X1205D1*
X1405Y3650D1*
X2335D1*
X5690Y3685D2*
X6440Y2935D1*
X8003D1*
X2170Y6750D2*
X2350D1*
X3775Y8175D1*
X6110Y6490D2*
X6252Y6632D1*
Y7398D1*
X5475Y8175D1*
X3775D1*
X9250Y6350D2*
X9022Y6122D1*
X6503D1*
X6135Y6490D1*
X6110D1*
X9250Y6350D2*
X8878Y5978D1*
Y5247D1*
X9025Y5100D1*
X9300D1*
X9253Y5053D1*
Y3560D1*
X9065Y3373D1*
X8128D1*
X8003Y3248D1*
Y2935D1*
X6943Y1875D1*
X5900D1*
X5550Y2225D1*
X4650D1*
X3225Y3650D1*
X2335D1*
D39*
X8578Y3048D3*
X600Y2475D3*
X7275Y6460D3*
X4970Y4530D3*
X4600Y7680D3*
X2920Y4720D3*
X6730Y2240D3*
X4130Y6560D3*
X3690Y5660D3*
X8152Y4350D3*
X4585Y4330D3*
X5850Y7225D3*
X3775Y8175D3*
X2170Y6750D3*
X6110Y6490D3*
X5690Y3685D3*
X8003Y2935D3*
X9300Y5100D3*
X955Y3450D3*
X2335Y3650D3*
X4190Y3185D3*
X5615D3*
X3752Y6623D3*
X9250Y6350D3*
X7975Y6390D3*
X5075Y9407D3*
X5625D3*
Y8832D3*
X5075D3*
X4630Y7940D3*
X7710Y8030D3*
X6850Y3600D3*
X3720Y5905D3*
X3075Y7975D3*
X9250Y5350D3*
X3715Y5335D3*
X6555Y5100D3*
X6125Y4100D3*
X8350Y4175D3*
X1800Y3050D3*
X4335Y4230D3*
X790Y1735D3*
X540D3*
X290D3*
Y1535D3*
X540D3*
X790D3*
Y1235D3*
X290D3*
X1800Y9425D3*
X2025D3*
X1800Y9200D3*
X1875Y950D3*
X2450Y8950D3*
X1800Y8975D3*
X7565Y6623D3*
X2025Y8975D3*
X240Y7945D3*
X490D3*
X740D3*
Y8145D3*
X490D3*
X240D3*
Y8445D3*
X740D3*
X8870Y7935D3*
X9120D3*
X9370D3*
Y8135D3*
X9120D3*
X8870D3*
Y8435D3*
X9370D3*
X9340Y1685D3*
X9090D3*
X8840D3*
Y1485D3*
X9090D3*
X9340D3*
Y1185D3*
X8840D3*
X2450Y9200D3*
X2225Y9425D3*
X2450D3*
X2225Y8975D3*
X1875Y1200D3*
X7100Y200D3*
Y450D3*
X2525Y1200D3*
X7750Y425D3*
X7100Y675D3*
X7525Y200D3*
X1875Y1425D3*
X7300Y200D3*
X7750Y675D3*
X7525D3*
X7300D3*
X7750Y200D3*
X3460Y938D3*
Y1250D3*
X3773D3*
X4148D3*
X4460D3*
Y938D3*
X3460Y563D3*
Y250D3*
X3773D3*
X4148D3*
X4460D3*
Y563D3*
X4960Y1250D3*
X5210D3*
X5460D3*
X5710D3*
X5960D3*
Y1000D3*
Y750D3*
Y500D3*
Y250D3*
X5710D3*
X5460D3*
X5210D3*
X4960D3*
Y500D3*
Y750D3*
Y1000D3*
X5773Y1063D3*
X5148D3*
Y438D3*
X5773D3*
X2900Y5950D3*
X7140Y8755D3*
X2900Y6250D3*
X4900Y6200D3*
X7365Y8755D3*
X7590D3*
X7815D3*
X2300Y950D3*
X7815Y8280D3*
X7590D3*
X2075Y950D3*
X7140Y8530D3*
Y8280D3*
X7365D3*
X7815Y8530D3*
X2525Y1425D3*
X2300D3*
X2075D3*
X2525Y950D3*
X5350Y1775D3*
X5550D3*
X2950Y2600D3*
X3300D3*
X3650D3*
X2100Y2900D3*
X1500Y3150D3*
X3750Y4325D3*
X4075Y4625D3*
X4475Y4900D3*
X8690Y4248D3*
X9003D3*
X7050Y3700D3*
Y3475D3*
X250Y7650D3*
X550D3*
X900D3*
X2190Y7497D3*
X315Y6873D3*
X815D3*
Y7372D3*
X315D3*
X4015Y9127D3*
X4675D3*
X4345Y9437D3*
Y8797D3*
X565Y6440D3*
X885Y6120D3*
X565Y5800D3*
X245Y6120D3*
X995Y9396D2*
D18*
X2810D1*
X4889D2*
X5811D1*
X6890D2*
X8607D1*
X995Y9328D2*
X2810D1*
X4889D2*
X5811D1*
X6890D2*
X8607D1*
X995Y9259D2*
X2810D1*
X4889D2*
X5811D1*
X6890D2*
X8607D1*
X995Y9190D2*
X2810D1*
X4889D2*
X5811D1*
X6890D2*
X8607D1*
X995Y9122D2*
X2810D1*
X4889D2*
X5811D1*
X6890D2*
X8607D1*
X995Y9053D2*
X2810D1*
X4889D2*
X5811D1*
X6890D2*
X8607D1*
X995Y8984D2*
X2810D1*
X4889D2*
X5811D1*
X6890D2*
X8607D1*
X995Y8915D2*
X2810D1*
X4889D2*
X5811D1*
X6890D2*
X8607D1*
X995Y8847D2*
X2810D1*
X4889D2*
X5811D1*
X6890D2*
X8607D1*
X995Y8778D2*
X2819D1*
X4881D2*
X5819D1*
X6881D2*
X8607D1*
X993Y8709D2*
X2849D1*
X4851D2*
X5849D1*
X6851D2*
X8608D1*
X996Y8641D2*
X2911D1*
X3789D2*
X3911D1*
X4789D2*
X5911D1*
X6789D2*
X8617D1*
X998Y8572D2*
X8612D1*
X998Y8503D2*
X8612D1*
X998Y8435D2*
X8612D1*
X998Y8366D2*
X3717D1*
X3833D2*
X8612D1*
X998Y8297D2*
X3613D1*
X5618D2*
X8612D1*
X998Y8229D2*
X3563D1*
X5687D2*
X8612D1*
X998Y8160D2*
X2999D1*
X3151D2*
X3495D1*
X5756D2*
X8612D1*
X998Y8091D2*
X2908D1*
X3242D2*
X3426D1*
X5825D2*
X8612D1*
X998Y8023D2*
X2876D1*
X3274D2*
X3357D1*
X5892D2*
X8612D1*
X998Y7954D2*
X2872D1*
X5162D2*
X5431D1*
X5961D2*
X8612D1*
X998Y7885D2*
X2892D1*
X5231D2*
X5500D1*
X6030D2*
X8612D1*
X998Y7816D2*
X2950D1*
X5298D2*
X5568D1*
X6099D2*
X8612D1*
X961Y7748D2*
X3083D1*
X3994D2*
X4273D1*
X4793D2*
X4837D1*
X5361D2*
X5637D1*
X6168D2*
X8639D1*
X142Y7679D2*
X3014D1*
X3925D2*
X4204D1*
X4805D2*
X4906D1*
X5387D2*
X5706D1*
X6236D2*
X9458D1*
X142Y7610D2*
X2945D1*
X3856D2*
X4135D1*
X4792D2*
X4974D1*
X5389D2*
X5774D1*
X6305D2*
X9458D1*
X142Y7542D2*
X2876D1*
X3787D2*
X4067D1*
X4748D2*
X5010D1*
X5389D2*
X5843D1*
X6374D2*
X9458D1*
X142Y7473D2*
X2808D1*
X3718D2*
X3998D1*
X4458D2*
X5010D1*
X5389D2*
X5911D1*
X6426D2*
X9458D1*
X142Y7404D2*
X2739D1*
X3650D2*
X3929D1*
X4390D2*
X5010D1*
X5389D2*
X5760D1*
X5941D2*
X5980D1*
X6443D2*
X9458D1*
X142Y7336D2*
X2670D1*
X3581D2*
X3860D1*
X4321D2*
X5010D1*
X5389D2*
X5679D1*
X6020D2*
X6049D1*
X6443D2*
X9458D1*
X142Y7267D2*
X2602D1*
X3512D2*
X3792D1*
X4252D2*
X5010D1*
X5389D2*
X5650D1*
X6443D2*
X9458D1*
X142Y7198D2*
X2533D1*
X3443D2*
X3724D1*
X4183D2*
X5010D1*
X5389D2*
X5648D1*
X6443D2*
X9458D1*
X142Y7130D2*
X2465D1*
X3375D2*
X3655D1*
X4115D2*
X5010D1*
X5389D2*
X5669D1*
X6030D2*
X6064D1*
X6443D2*
X9458D1*
X142Y7061D2*
X2396D1*
X3307D2*
X3586D1*
X4046D2*
X5010D1*
X5389D2*
X5733D1*
X5967D2*
X6063D1*
X6443D2*
X9458D1*
X142Y6992D2*
X2327D1*
X3238D2*
X3517D1*
X3977D2*
X5010D1*
X5389D2*
X6063D1*
X6443D2*
X9458D1*
X142Y6924D2*
X2069D1*
X3169D2*
X3448D1*
X3908D2*
X5010D1*
X5389D2*
X6063D1*
X6443D2*
X9458D1*
X142Y6855D2*
X1996D1*
X3100D2*
X3380D1*
X3839D2*
X5010D1*
X5389D2*
X6063D1*
X6443D2*
X9458D1*
X142Y6786D2*
X1968D1*
X3031D2*
X3311D1*
X3870D2*
X5010D1*
X5389D2*
X6063D1*
X6443D2*
X9458D1*
X142Y6717D2*
X1968D1*
X2963D2*
X3242D1*
X3932D2*
X4004D1*
X4256D2*
X5010D1*
X5389D2*
X6063D1*
X6443D2*
X9458D1*
X142Y6649D2*
X226D1*
X904D2*
X1993D1*
X2894D2*
X3179D1*
X4314D2*
X5010D1*
X5389D2*
X5986D1*
X6443D2*
X7209D1*
X7341D2*
X9458D1*
X1028Y6580D2*
X2062D1*
X2826D2*
X3156D1*
X4366D2*
X5010D1*
X5389D2*
X5928D1*
X6435D2*
X7111D1*
X7439D2*
X9458D1*
X1078Y6511D2*
X2226D1*
X2757D2*
X3155D1*
X3496D2*
X3582D1*
X4434D2*
X5010D1*
X5389D2*
X5907D1*
X6397D2*
X7077D1*
X7473D2*
X9129D1*
X9372D2*
X9458D1*
X1101Y6443D2*
X2157D1*
X2688D2*
X3155D1*
X3485D2*
X3664D1*
X3842D2*
X3964D1*
X4503D2*
X5010D1*
X5389D2*
X5911D1*
X6448D2*
X7071D1*
X7479D2*
X9069D1*
X9432D2*
X9458D1*
X1105Y6374D2*
X2089D1*
X2620D2*
X3155D1*
X3485D2*
X4056D1*
X4572D2*
X5010D1*
X5389D2*
X5943D1*
X6516D2*
X7090D1*
X7460D2*
X9009D1*
X1105Y6305D2*
X2020D1*
X2551D2*
X3155D1*
X3485D2*
X4209D1*
X4640D2*
X5010D1*
X5389D2*
X6033D1*
X6585D2*
X7145D1*
X7405D2*
X8940D1*
X2482Y6237D2*
X3155D1*
X3485D2*
X4277D1*
X4709D2*
X5010D1*
X5389D2*
X6123D1*
X9419D2*
X9457D1*
X2413Y6168D2*
X3155D1*
X3485D2*
X4346D1*
X4778D2*
X5010D1*
X5389D2*
X6191D1*
X9334D2*
X9458D1*
X2344Y6099D2*
X3155D1*
X3485D2*
X3677D1*
X3763D2*
X4415D1*
X4847D2*
X5010D1*
X5389D2*
X6260D1*
X9264D2*
X9458D1*
X2276Y6031D2*
X3155D1*
X3485D2*
X3561D1*
X3880D2*
X4484D1*
X4913D2*
X5010D1*
X5389D2*
X6329D1*
X9196D2*
X9458D1*
X2197Y5962D2*
X3155D1*
X3485D2*
X3524D1*
X3916D2*
X4553D1*
X4943D2*
X5010D1*
X5389D2*
X6409D1*
X9128D2*
X9458D1*
X1105Y5893D2*
X3155D1*
X3485D2*
X3516D1*
X3925D2*
X4621D1*
X4945D2*
X5010D1*
X5389D2*
X8688D1*
X9068D2*
X9458D1*
X1104Y5825D2*
X3155D1*
X3485D2*
X3532D1*
X3907D2*
X4635D1*
X4945D2*
X5010D1*
X5389D2*
X8688D1*
X9068D2*
X9458D1*
X1088Y5756D2*
X3155D1*
X3485D2*
X3511D1*
X3870D2*
X4635D1*
X4945D2*
X5010D1*
X5389D2*
X8688D1*
X9068D2*
X9458D1*
X1048Y5687D2*
X3155D1*
X3893D2*
X4635D1*
X4945D2*
X5010D1*
X5389D2*
X8688D1*
X9068D2*
X9458D1*
X979Y5618D2*
X3155D1*
X3890D2*
X4635D1*
X4945D2*
X5010D1*
X5389D2*
X8688D1*
X9068D2*
X9458D1*
X1055Y5550D2*
X3155D1*
X3485D2*
X3519D1*
X3861D2*
X4635D1*
X4945D2*
X5010D1*
X5389D2*
X8688D1*
X9068D2*
X9458D1*
X1091Y5481D2*
X3155D1*
X3485D2*
X3575D1*
X3855D2*
X4635D1*
X4945D2*
X5010D1*
X5389D2*
X8688D1*
X9068D2*
X9458D1*
X1104Y5412D2*
X3155D1*
X3485D2*
X3526D1*
X3904D2*
X4635D1*
X4945D2*
X5010D1*
X5389D2*
X8688D1*
X9068D2*
X9458D1*
X1105Y5344D2*
X3155D1*
X3485D2*
X3511D1*
X3919D2*
X4635D1*
X4945D2*
X5010D1*
X5389D2*
X8688D1*
X9068D2*
X9458D1*
X1105Y5275D2*
X3155D1*
X3485D2*
X3519D1*
X3911D2*
X4635D1*
X4945D2*
X5010D1*
X5389D2*
X6456D1*
X6654D2*
X8688D1*
X9399D2*
X9458D1*
X1105Y5206D2*
X3155D1*
X3485D2*
X3557D1*
X3872D2*
X4635D1*
X4945D2*
X5010D1*
X5389D2*
X6382D1*
X6729D2*
X8693D1*
X1105Y5138D2*
X3108D1*
X3485D2*
X3696D1*
X3734D2*
X4635D1*
X4945D2*
X5010D1*
X5389D2*
X6354D1*
X6756D2*
X8724D1*
X1105Y5069D2*
X3039D1*
X3476D2*
X4635D1*
X4945D2*
X5010D1*
X5389D2*
X6353D1*
X6758D2*
X8791D1*
X1105Y5000D2*
X2970D1*
X3430D2*
X4635D1*
X4945D2*
X5010D1*
X5389D2*
X6377D1*
X6732D2*
X8859D1*
X1105Y4932D2*
X2901D1*
X3361D2*
X4635D1*
X4945D2*
X5010D1*
X5389D2*
X6445D1*
X6666D2*
X8947D1*
X1105Y4863D2*
X2777D1*
X3293D2*
X4635D1*
X4945D2*
X5010D1*
X5389D2*
X9062D1*
X1100Y4794D2*
X2729D1*
X3225D2*
X4635D1*
X4945D2*
X5010D1*
X5389D2*
X9062D1*
X1073Y4726D2*
X2715D1*
X3156D2*
X4635D1*
X5389D2*
X9062D1*
X1021Y4657D2*
X2726D1*
X3114D2*
X4635D1*
X5389D2*
X9062D1*
X1021Y4588D2*
X2766D1*
X3074D2*
X4635D1*
X5389D2*
X9062D1*
X1073Y4519D2*
X4522D1*
X5389D2*
X8044D1*
X8261D2*
X9062D1*
X1100Y4451D2*
X4422D1*
X5389D2*
X7975D1*
X8329D2*
X9062D1*
X1105Y4382D2*
X4202D1*
X5389D2*
X7950D1*
X8354D2*
X9062D1*
X1105Y4313D2*
X4149D1*
X4945D2*
X5010D1*
X5389D2*
X7951D1*
X8498D2*
X9062D1*
X1105Y4245D2*
X4131D1*
X4945D2*
X5010D1*
X5389D2*
X5983D1*
X6266D2*
X7978D1*
X8541D2*
X9062D1*
X1105Y4176D2*
X4138D1*
X4945D2*
X5010D1*
X5389D2*
X5935D1*
X6315D2*
X8052D1*
X8555D2*
X9062D1*
X1105Y4107D2*
X4173D1*
X4497D2*
X4635D1*
X4945D2*
X5010D1*
X5389D2*
X5920D1*
X6330D2*
X8158D1*
X8543D2*
X9062D1*
X1105Y4039D2*
X4278D1*
X4392D2*
X4635D1*
X4945D2*
X5010D1*
X5389D2*
X5930D1*
X6320D2*
X8199D1*
X8500D2*
X9062D1*
X1105Y3970D2*
X4635D1*
X4945D2*
X5010D1*
X5389D2*
X5969D1*
X6281D2*
X9062D1*
X1105Y3901D2*
X4635D1*
X4945D2*
X5010D1*
X5389D2*
X9062D1*
X1104Y3833D2*
X1393D1*
X3237D2*
X4635D1*
X4945D2*
X5010D1*
X5389D2*
X5551D1*
X5829D2*
X9062D1*
X1091Y3764D2*
X1254D1*
X3377D2*
X4635D1*
X4945D2*
X5010D1*
X5389D2*
X5502D1*
X5878D2*
X9062D1*
X1055Y3695D2*
X1185D1*
X3445D2*
X4635D1*
X4945D2*
X5010D1*
X5389D2*
X5486D1*
X5945D2*
X9062D1*
X3513Y3627D2*
X4635D1*
X4945D2*
X5010D1*
X5438D2*
X5494D1*
X6014D2*
X9054D1*
X142Y3558D2*
X783D1*
X3582D2*
X4635D1*
X4945D2*
X5015D1*
X5507D2*
X5532D1*
X6083D2*
X8985D1*
X142Y3489D2*
X754D1*
X3651D2*
X4635D1*
X4971D2*
X5048D1*
X5576D2*
X5620D1*
X6152D2*
X7978D1*
X9427D2*
X9457D1*
X142Y3420D2*
X753D1*
X1441D2*
X3189D1*
X3720D2*
X4639D1*
X5040D2*
X5114D1*
X5645D2*
X5690D1*
X6219D2*
X7911D1*
X9378D2*
X9458D1*
X142Y3352D2*
X776D1*
X1372D2*
X3258D1*
X3788D2*
X4077D1*
X4303D2*
X4677D1*
X5109D2*
X5183D1*
X5728D2*
X5758D1*
X6288D2*
X7846D1*
X9309D2*
X9458D1*
X142Y3283D2*
X842D1*
X1287D2*
X3327D1*
X3857D2*
X4011D1*
X4369D2*
X4746D1*
X5178D2*
X5252D1*
X5794D2*
X5827D1*
X6357D2*
X7817D1*
X9241D2*
X9458D1*
X142Y3214D2*
X1683D1*
X1917D2*
X3396D1*
X3926D2*
X3987D1*
X4393D2*
X4815D1*
X5246D2*
X5321D1*
X5817D2*
X5895D1*
X6426D2*
X7813D1*
X9164D2*
X9458D1*
X142Y3146D2*
X1620D1*
X1980D2*
X3463D1*
X4391D2*
X4883D1*
X5315D2*
X5388D1*
X5816D2*
X5964D1*
X6495D2*
X7813D1*
X8193D2*
X8399D1*
X8756D2*
X9458D1*
X142Y3077D2*
X1597D1*
X2003D2*
X3532D1*
X4362D2*
X4952D1*
X5384D2*
X5442D1*
X5787D2*
X6033D1*
X8193D2*
X8375D1*
X8780D2*
X9458D1*
X142Y3008D2*
X1600D1*
X2000D2*
X3601D1*
X4286D2*
X5021D1*
X5453D2*
X5520D1*
X5711D2*
X6102D1*
X8193D2*
X8377D1*
X8779D2*
X9458D1*
X142Y2940D2*
X1629D1*
X1971D2*
X3670D1*
X4200D2*
X5090D1*
X5522D2*
X6170D1*
X8207D2*
X8405D1*
X8750D2*
X9458D1*
X142Y2871D2*
X1709D1*
X1890D2*
X3739D1*
X4269D2*
X5159D1*
X5589D2*
X6238D1*
X8197D2*
X8482D1*
X8674D2*
X9458D1*
X142Y2802D2*
X3807D1*
X4338D2*
X5227D1*
X5658D2*
X6307D1*
X8156D2*
X9458D1*
X142Y2734D2*
X3876D1*
X4407D2*
X5295D1*
X5727D2*
X7535D1*
X8067D2*
X9458D1*
X142Y2665D2*
X539D1*
X662D2*
X3945D1*
X4475D2*
X5364D1*
X5796D2*
X7468D1*
X7998D2*
X9458D1*
X142Y2596D2*
X437D1*
X763D2*
X4014D1*
X4544D2*
X5433D1*
X5865D2*
X7399D1*
X7929D2*
X9458D1*
X142Y2528D2*
X402D1*
X798D2*
X4082D1*
X4613D2*
X5502D1*
X5933D2*
X7330D1*
X7860D2*
X9458D1*
X142Y2459D2*
X397D1*
X804D2*
X4150D1*
X4682D2*
X5570D1*
X6002D2*
X7261D1*
X7792D2*
X9458D1*
X142Y2390D2*
X414D1*
X786D2*
X4219D1*
X6071D2*
X6595D1*
X6866D2*
X7192D1*
X7723D2*
X9458D1*
X142Y2321D2*
X469D1*
X731D2*
X4288D1*
X6917D2*
X7124D1*
X7654D2*
X9458D1*
X142Y2253D2*
X4357D1*
X6935D2*
X7055D1*
X7586D2*
X9458D1*
X142Y2184D2*
X4426D1*
X6927D2*
X6986D1*
X7517D2*
X9458D1*
X142Y2115D2*
X4494D1*
X6891D2*
X6917D1*
X7449D2*
X9458D1*
X142Y2047D2*
X4603D1*
X7380D2*
X9458D1*
X142Y1978D2*
X5532D1*
X7311D2*
X9458D1*
X1031Y1909D2*
X5601D1*
X7242D2*
X9458D1*
X1048Y1841D2*
X5669D1*
X7173D2*
X8590D1*
X1048Y1772D2*
X5737D1*
X7105D2*
X8582D1*
X1048Y1703D2*
X5830D1*
X7011D2*
X8582D1*
X1048Y1635D2*
X8582D1*
X1048Y1566D2*
X8582D1*
X1048Y1497D2*
X8582D1*
X1048Y1429D2*
X4868D1*
X5052D2*
X5118D1*
X5302D2*
X5368D1*
X5552D2*
X5618D1*
X5802D2*
X5869D1*
X6052D2*
X8582D1*
X1048Y1360D2*
X4789D1*
X6131D2*
X8582D1*
X1048Y1291D2*
X4759D1*
X6160D2*
X8582D1*
X1048Y1222D2*
X4757D1*
X6163D2*
X8582D1*
X1048Y1154D2*
X4780D1*
X6140D2*
X8582D1*
X1048Y1085D2*
X4775D1*
X6145D2*
X8582D1*
X1037Y1016D2*
X4756D1*
X6164D2*
X8582D1*
X1053Y948D2*
X4763D1*
X6158D2*
X8595D1*
X1053Y879D2*
X4797D1*
X6123D2*
X8585D1*
X1053Y810D2*
X4765D1*
X6155D2*
X8585D1*
X1053Y742D2*
X4755D1*
X6165D2*
X8585D1*
X1053Y673D2*
X4770D1*
X6149D2*
X8585D1*
X1053Y604D2*
X4785D1*
X6135D2*
X8585D1*
X1053Y536D2*
X4758D1*
X6161D2*
X8585D1*
X1053Y467D2*
X4758D1*
X6161D2*
X8585D1*
X1053Y398D2*
X4784D1*
X6136D2*
X8585D1*
X1053Y330D2*
X4772D1*
X6148D2*
X8585D1*
X1053Y261D2*
X4755D1*
X6165D2*
X8585D1*
X1053Y192D2*
X4764D1*
X6156D2*
X8585D1*
X815Y3590D2*
X269Y3591D1*
X232Y3596D1*
X195Y3608D1*
X166Y3622D1*
X137Y3640D1*
X135Y3642D1*
Y1959D1*
X934Y1958D1*
X968Y1953D1*
X999Y1936D1*
X1023Y1911D1*
X1039Y1874D1*
X1042Y1816D1*
Y1063D1*
X1033Y1023D1*
X1030Y1010D1*
X1043Y977D1*
X1045Y919D1*
Y135D1*
X4800D1*
X4785Y157D1*
X4772Y190D1*
X4764Y224D1*
X4762Y259D1*
X4767Y293D1*
X4778Y327D1*
X4794Y357D1*
X4807Y374D1*
X4785Y407D1*
X4772Y440D1*
X4764Y474D1*
X4762Y509D1*
X4767Y543D1*
X4778Y577D1*
X4794Y607D1*
X4807Y624D1*
X4785Y657D1*
X4772Y690D1*
X4764Y724D1*
X4762Y759D1*
X4767Y793D1*
X4778Y827D1*
X4794Y857D1*
X4807Y874D1*
X4785Y907D1*
X4772Y940D1*
X4764Y974D1*
X4762Y1009D1*
X4767Y1043D1*
X4778Y1077D1*
X4794Y1107D1*
X4807Y1124D1*
X4785Y1157D1*
X4772Y1190D1*
X4764Y1224D1*
X4762Y1259D1*
X4767Y1293D1*
X4778Y1327D1*
X4794Y1357D1*
X4815Y1385D1*
X4841Y1408D1*
X4871Y1427D1*
X4904Y1440D1*
X4938Y1447D1*
X4973D1*
X5007Y1442D1*
X5040Y1431D1*
X5071Y1414D1*
X5084Y1403D1*
X5121Y1427D1*
X5154Y1440D1*
X5188Y1447D1*
X5223D1*
X5257Y1442D1*
X5290Y1431D1*
X5321Y1414D1*
X5334Y1403D1*
X5371Y1427D1*
X5404Y1440D1*
X5438Y1447D1*
X5473D1*
X5507Y1442D1*
X5540Y1431D1*
X5571Y1414D1*
X5584Y1403D1*
X5621Y1427D1*
X5654Y1440D1*
X5688Y1447D1*
X5723D1*
X5757Y1442D1*
X5790Y1431D1*
X5821Y1414D1*
X5834Y1403D1*
X5871Y1427D1*
X5904Y1440D1*
X5938Y1447D1*
X5973D1*
X6007Y1442D1*
X6040Y1431D1*
X6071Y1414D1*
X6098Y1392D1*
X6121Y1365D1*
X6139Y1335D1*
X6151Y1302D1*
X6158Y1250D1*
X6155Y1215D1*
X6146Y1181D1*
X6131Y1150D1*
X6113Y1126D1*
X6139Y1085D1*
X6151Y1052D1*
X6158Y1000D1*
X6155Y965D1*
X6146Y931D1*
X6131Y900D1*
X6113Y876D1*
X6139Y835D1*
X6151Y802D1*
X6158Y750D1*
X6155Y715D1*
X6146Y681D1*
X6131Y650D1*
X6113Y626D1*
X6139Y585D1*
X6151Y552D1*
X6158Y500D1*
X6155Y465D1*
X6146Y431D1*
X6131Y400D1*
X6113Y376D1*
X6139Y335D1*
X6151Y302D1*
X6158Y250D1*
X6155Y215D1*
X6146Y181D1*
X6131Y150D1*
X6120Y135D1*
X8593D1*
X8592Y904D1*
X8601Y944D1*
X8604Y957D1*
X8591Y990D1*
X8588Y1048D1*
Y1801D1*
X8594Y1835D1*
X8610Y1866D1*
X8636Y1890D1*
X8673Y1906D1*
X8731Y1908D1*
X9465D1*
Y4990D1*
X9435Y4957D1*
Y3560D1*
X9432Y3525D1*
X9422Y3492D1*
X9406Y3461D1*
X9382Y3431D1*
X9194Y3243D1*
X9167Y3221D1*
X9137Y3204D1*
X9103Y3194D1*
X9065Y3190D1*
X8716Y3189D1*
X8738Y3163D1*
X8756Y3132D1*
X8768Y3100D1*
X8775Y3048D1*
X8772Y3013D1*
X8763Y2979D1*
X8748Y2947D1*
X8728Y2919D1*
X8703Y2894D1*
X8674Y2875D1*
X8642Y2861D1*
X8608Y2852D1*
X8573Y2850D1*
X8538Y2854D1*
X8505Y2863D1*
X8474Y2879D1*
X8446Y2900D1*
X8422Y2926D1*
X8403Y2955D1*
X8389Y2987D1*
X8381Y3021D1*
X8380Y3056D1*
X8384Y3091D1*
X8395Y3124D1*
X8411Y3155D1*
X8442Y3191D1*
X8260Y3190D1*
X8202D1*
X8185Y3143D1*
Y3010D1*
X8193Y2987D1*
X8200Y2935D1*
X8197Y2900D1*
X8188Y2866D1*
X8173Y2835D1*
X8153Y2806D1*
X8128Y2782D1*
X8099Y2762D1*
X8080Y2754D1*
X7072Y1746D1*
X7045Y1724D1*
X7014Y1707D1*
X6981Y1696D1*
X6943Y1692D1*
X5900D1*
X5865Y1696D1*
X5832Y1705D1*
X5801Y1722D1*
X5771Y1746D1*
X5475Y2042D1*
X4650D1*
X4615Y2046D1*
X4582Y2055D1*
X4551Y2072D1*
X4521Y2096D1*
X3150Y3467D1*
X2410D1*
X2366Y3455D1*
X2331Y3452D1*
X2296Y3456D1*
X2260Y3467D1*
X1481D1*
X1334Y3321D1*
X1307Y3299D1*
X1277Y3282D1*
X1243Y3271D1*
X1205Y3267D1*
X1031D1*
X986Y3255D1*
X951Y3252D1*
X916Y3256D1*
X882Y3266D1*
X851Y3282D1*
X823Y3303D1*
X799Y3328D1*
X780Y3357D1*
X767Y3390D1*
X759Y3424D1*
X757Y3459D1*
X762Y3493D1*
X773Y3527D1*
X789Y3557D1*
X816Y3590D1*
X6070Y6296D2*
X6037Y6306D1*
X6006Y6322D1*
X5978Y6343D1*
X5954Y6368D1*
X5935Y6397D1*
X5922Y6430D1*
X5914Y6464D1*
X5912Y6499D1*
X5917Y6533D1*
X5928Y6567D1*
X5944Y6597D1*
X5965Y6625D1*
X5991Y6648D1*
X6032Y6671D1*
X6070Y6708D1*
Y7323D1*
X5505Y7887D1*
X5399Y7993D1*
X5115Y7992D1*
X5329Y7779D1*
X5351Y7752D1*
X5368Y7722D1*
X5379Y7688D1*
X5383Y7650D1*
Y3676D1*
X5690Y3368D1*
X5726Y3349D1*
X5753Y3327D1*
X5776Y3300D1*
X5794Y3270D1*
X5806Y3237D1*
X5813Y3185D1*
X5810Y3150D1*
X5801Y3116D1*
X5786Y3085D1*
X5765Y3056D1*
X5740Y3032D1*
X5711Y3012D1*
X5680Y2998D1*
X5646Y2990D1*
X5611Y2987D1*
X5576Y2991D1*
X5542Y3001D1*
X5511Y3017D1*
X5483Y3038D1*
X5459Y3063D1*
X5440Y3092D1*
X5434Y3107D1*
X5071Y3471D1*
X5049Y3498D1*
X5032Y3528D1*
X5021Y3562D1*
X5017Y3600D1*
Y4338D1*
X4966Y4332D1*
X4939Y4335D1*
X4938Y4120D1*
Y3515D1*
X5117Y3337D1*
X6066Y2388D1*
X6599D1*
X6641Y2417D1*
X6674Y2430D1*
X6708Y2437D1*
X6743D1*
X6777Y2432D1*
X6810Y2421D1*
X6841Y2404D1*
X6868Y2382D1*
X6891Y2355D1*
X6909Y2325D1*
X6921Y2292D1*
X6928Y2240D1*
X6925Y2205D1*
X6916Y2171D1*
X6901Y2140D1*
X6880Y2111D1*
X6855Y2087D1*
X6826Y2067D1*
X6805Y2058D1*
X6868D1*
X7110Y2301D1*
X7561Y2752D1*
X6440D1*
X6405Y2756D1*
X6372Y2765D1*
X6341Y2782D1*
X6311Y2806D1*
X5614Y3503D1*
X5586Y3517D1*
X5558Y3538D1*
X5534Y3563D1*
X5515Y3592D1*
X5502Y3625D1*
X5494Y3659D1*
X5492Y3694D1*
X5497Y3728D1*
X5508Y3762D1*
X5524Y3792D1*
X5545Y3820D1*
X5571Y3843D1*
X5601Y3862D1*
X5634Y3875D1*
X5668Y3882D1*
X5703D1*
X5737Y3877D1*
X5770Y3866D1*
X5801Y3849D1*
X5828Y3827D1*
X5851Y3800D1*
X5872Y3761D1*
X6516Y3117D1*
X7819Y3118D1*
X7820Y3248D1*
X7823Y3282D1*
X7833Y3316D1*
X7849Y3347D1*
X7873Y3377D1*
X7998Y3502D1*
X8025Y3524D1*
X8056Y3541D1*
X8089Y3551D1*
X8128Y3555D1*
X8990D1*
X9070Y3636D1*
Y4917D1*
X9025D1*
X8990Y4921D1*
X8957Y4930D1*
X8926Y4947D1*
X8896Y4971D1*
X8748Y5118D1*
X8726Y5145D1*
X8709Y5176D1*
X8699Y5209D1*
X8695Y5247D1*
Y5940D1*
X6503D1*
X6468Y5943D1*
X6434Y5953D1*
X6403Y5969D1*
X6373Y5993D1*
X6071Y6296D1*
X2261Y3833D2*
X2279Y3840D1*
X2313Y3847D1*
X2348D1*
X2382Y3842D1*
X2410Y3832D1*
X3225Y3833D1*
X3260Y3829D1*
X3293Y3820D1*
X3324Y3803D1*
X3354Y3779D1*
X3998Y3135D1*
X3994Y3159D1*
X3992Y3194D1*
X3997Y3228D1*
X4008Y3262D1*
X4024Y3292D1*
X4045Y3320D1*
X4071Y3343D1*
X4101Y3362D1*
X4134Y3375D1*
X4168Y3382D1*
X4203D1*
X4237Y3377D1*
X4270Y3366D1*
X4301Y3349D1*
X4328Y3327D1*
X4351Y3300D1*
X4369Y3270D1*
X4381Y3237D1*
X4388Y3185D1*
X4385Y3150D1*
X4376Y3116D1*
X4361Y3085D1*
X4340Y3056D1*
X4315Y3032D1*
X4286Y3012D1*
X4255Y2998D1*
X4221Y2990D1*
X4186Y2987D1*
X4139Y2994D1*
X4725Y2408D1*
X5550D1*
X5585Y2404D1*
X5618Y2395D1*
X5649Y2378D1*
X5677Y2356D1*
X5678Y2358D1*
X4685Y3350D1*
X4664Y3378D1*
X4649Y3410D1*
X4642Y3455D1*
Y4141D1*
X4616Y4135D1*
X4581Y4132D1*
X4546Y4136D1*
X4513Y4146D1*
X4506Y4130D1*
X4485Y4101D1*
X4460Y4077D1*
X4431Y4057D1*
X4400Y4043D1*
X4366Y4035D1*
X4331Y4032D1*
X4296Y4036D1*
X4262Y4046D1*
X4231Y4062D1*
X4203Y4083D1*
X4179Y4108D1*
X4160Y4137D1*
X4147Y4170D1*
X4139Y4204D1*
X4137Y4239D1*
X4142Y4273D1*
X4153Y4307D1*
X4169Y4337D1*
X4190Y4365D1*
X4216Y4388D1*
X4246Y4407D1*
X4279Y4420D1*
X4313Y4427D1*
X4348D1*
X4382Y4422D1*
X4406Y4414D1*
X4419Y4437D1*
X4440Y4465D1*
X4466Y4488D1*
X4496Y4507D1*
X4529Y4520D1*
X4563Y4527D1*
X4598D1*
X4642Y4519D1*
Y5880D1*
X4463Y6058D1*
X4157Y6364D1*
X4126Y6362D1*
X4091Y6366D1*
X4057Y6376D1*
X4026Y6392D1*
X3998Y6413D1*
X3974Y6438D1*
X3955Y6467D1*
X3942Y6500D1*
X3934Y6543D1*
X3923Y6522D1*
X3903Y6494D1*
X3878Y6469D1*
X3849Y6450D1*
X3817Y6436D1*
X3783Y6427D1*
X3748Y6425D1*
X3713Y6429D1*
X3680Y6438D1*
X3649Y6454D1*
X3621Y6475D1*
X3597Y6501D1*
X3578Y6530D1*
X3564Y6562D1*
X3560Y6582D1*
X3477Y6499D1*
X3478Y6355D1*
Y5120D1*
X3474Y5085D1*
X3463Y5052D1*
X3436Y5013D1*
X3115Y4692D1*
X3106Y4651D1*
X3091Y4620D1*
X3070Y4591D1*
X3045Y4567D1*
X3016Y4547D1*
X2985Y4533D1*
X2951Y4525D1*
X2916Y4522D1*
X2881Y4526D1*
X2847Y4536D1*
X2816Y4552D1*
X2788Y4573D1*
X2764Y4598D1*
X2745Y4627D1*
X2732Y4660D1*
X2724Y4694D1*
X2722Y4729D1*
X2727Y4763D1*
X2738Y4797D1*
X2754Y4827D1*
X2775Y4855D1*
X2801Y4878D1*
X2831Y4897D1*
X2864Y4910D1*
X2893Y4915D1*
X3162Y5185D1*
Y6565D1*
X3166Y6600D1*
X3177Y6633D1*
X3204Y6672D1*
X4320Y7788D1*
X4105Y7787D1*
X4025D1*
X2232Y5993D1*
X2205Y5971D1*
X2174Y5954D1*
X2141Y5944D1*
X2103Y5940D1*
X1098Y5939D1*
X1097Y5826D1*
X1091Y5789D1*
X1080Y5753D1*
X1066Y5724D1*
X1046Y5692D1*
X1020Y5664D1*
X996Y5642D1*
X966Y5622D1*
X996Y5603D1*
X1024Y5578D1*
X1045Y5554D1*
X1066Y5522D1*
X1081Y5487D1*
X1091Y5457D1*
X1097Y5420D1*
X1098Y5363D1*
X1097Y4826D1*
X1091Y4789D1*
X1080Y4753D1*
X1066Y4724D1*
X1046Y4692D1*
X1020Y4664D1*
X996Y4642D1*
X966Y4622D1*
X996Y4603D1*
X1024Y4578D1*
X1045Y4554D1*
X1066Y4522D1*
X1081Y4487D1*
X1091Y4457D1*
X1097Y4420D1*
X1098Y4363D1*
X1097Y3826D1*
X1091Y3789D1*
X1080Y3753D1*
X1066Y3724D1*
X1046Y3692D1*
X1020Y3664D1*
X997Y3643D1*
X1030Y3632D1*
X1011Y3655D1*
X1008Y3652D1*
X1030Y3633D1*
X1129D1*
X1276Y3779D1*
X1303Y3801D1*
X1333Y3818D1*
X1367Y3829D1*
X1405Y3833D1*
X2259D1*
X3795Y6815D2*
X3833Y6803D1*
X3864Y6786D1*
X3891Y6764D1*
X3913Y6738D1*
X3931Y6707D1*
X3943Y6675D1*
X3949Y6641D1*
X3964Y6667D1*
X3985Y6695D1*
X4011Y6718D1*
X4041Y6737D1*
X4074Y6750D1*
X4108Y6757D1*
X4143D1*
X4177Y6752D1*
X4210Y6741D1*
X4241Y6724D1*
X4268Y6702D1*
X4291Y6675D1*
X4309Y6645D1*
X4317Y6621D1*
X4895Y6045D1*
X4916Y6017D1*
X4931Y5985D1*
X4938Y5940D1*
Y4725D1*
X4983Y4727D1*
X5016Y4722D1*
X5017Y5070D1*
Y7574D1*
X4804Y7788D1*
X4765Y7787D1*
X4779Y7765D1*
X4791Y7732D1*
X4798Y7680D1*
X4795Y7645D1*
X4786Y7611D1*
X4771Y7580D1*
X4750Y7551D1*
X4725Y7527D1*
X4696Y7507D1*
X4665Y7493D1*
X4631Y7485D1*
X4596Y7482D1*
X4561Y7486D1*
X4527Y7496D1*
X4492Y7515D1*
X4274Y7296D1*
X3794Y6816D1*
X3915Y5870D2*
X3906Y5836D1*
X3891Y5805D1*
X3870Y5776D1*
X3859Y5765D1*
X3881Y5712D1*
X3888Y5660D1*
X3885Y5625D1*
X3876Y5591D1*
X3861Y5560D1*
X3840Y5531D1*
X3814Y5506D1*
X3853Y5477D1*
X3876Y5450D1*
X3894Y5420D1*
X3906Y5387D1*
X3913Y5335D1*
X3910Y5300D1*
X3901Y5266D1*
X3886Y5235D1*
X3865Y5206D1*
X3840Y5182D1*
X3811Y5162D1*
X3780Y5148D1*
X3746Y5140D1*
X3711Y5137D1*
X3676Y5141D1*
X3642Y5151D1*
X3611Y5167D1*
X3583Y5188D1*
X3559Y5213D1*
X3540Y5242D1*
X3527Y5275D1*
X3519Y5309D1*
X3517Y5344D1*
X3522Y5378D1*
X3533Y5412D1*
X3549Y5442D1*
X3570Y5470D1*
X3591Y5488D1*
X3558Y5513D1*
X3534Y5538D1*
X3515Y5567D1*
X3502Y5600D1*
X3494Y5634D1*
X3492Y5669D1*
X3497Y5703D1*
X3508Y5737D1*
X3524Y5767D1*
X3553Y5802D1*
X3545Y5812D1*
X3532Y5845D1*
X3524Y5879D1*
X3522Y5914D1*
X3527Y5948D1*
X3538Y5982D1*
X3554Y6012D1*
X3575Y6040D1*
X3601Y6063D1*
X3631Y6082D1*
X3664Y6095D1*
X3698Y6102D1*
X3733D1*
X3767Y6097D1*
X3800Y6086D1*
X3831Y6069D1*
X3858Y6047D1*
X3881Y6020D1*
X3899Y5990D1*
X3911Y5957D1*
X3918Y5905D1*
X3915Y5870D1*
X3126Y7785D2*
X3106Y7780D1*
X3071Y7777D1*
X3036Y7781D1*
X3002Y7791D1*
X2971Y7807D1*
X2943Y7828D1*
X2919Y7853D1*
X2900Y7882D1*
X2887Y7915D1*
X2879Y7949D1*
X2877Y7984D1*
X2882Y8018D1*
X2893Y8052D1*
X2909Y8082D1*
X2930Y8110D1*
X2956Y8133D1*
X2986Y8152D1*
X3019Y8165D1*
X3053Y8172D1*
X3088D1*
X3122Y8167D1*
X3155Y8156D1*
X3186Y8139D1*
X3213Y8117D1*
X3236Y8090D1*
X3254Y8060D1*
X3266Y8027D1*
X3273Y7975D1*
X3270Y7940D1*
X3265Y7924D1*
X3593Y8252D1*
X3609Y8282D1*
X3630Y8310D1*
X3656Y8333D1*
X3686Y8352D1*
X3719Y8365D1*
X3753Y8372D1*
X3788D1*
X3822Y8367D1*
X3850Y8357D1*
X5475Y8358D1*
X5510Y8354D1*
X5543Y8345D1*
X5574Y8328D1*
X5604Y8304D1*
X6382Y7527D1*
X6404Y7500D1*
X6421Y7469D1*
X6431Y7436D1*
X6435Y7398D1*
Y6632D1*
X6432Y6598D1*
X6422Y6564D1*
X6406Y6533D1*
X6381Y6502D1*
X6579Y6304D1*
X6958Y6305D1*
X7151D1*
X7119Y6338D1*
X7100Y6367D1*
X7087Y6400D1*
X7079Y6434D1*
X7077Y6469D1*
X7082Y6503D1*
X7093Y6537D1*
X7109Y6567D1*
X7130Y6595D1*
X7156Y6618D1*
X7186Y6637D1*
X7219Y6650D1*
X7253Y6657D1*
X7288D1*
X7322Y6652D1*
X7355Y6641D1*
X7386Y6624D1*
X7413Y6602D1*
X7436Y6575D1*
X7454Y6545D1*
X7466Y6512D1*
X7473Y6460D1*
X7470Y6425D1*
X7461Y6391D1*
X7446Y6360D1*
X7425Y6331D1*
X7398Y6305D1*
X8947D1*
X9068Y6427D1*
X9084Y6457D1*
X9105Y6485D1*
X9131Y6508D1*
X9161Y6527D1*
X9194Y6540D1*
X9228Y6547D1*
X9263D1*
X9297Y6542D1*
X9330Y6531D1*
X9361Y6514D1*
X9388Y6492D1*
X9411Y6465D1*
X9429Y6435D1*
X9441Y6402D1*
X9448Y6350D1*
X9445Y6315D1*
X9436Y6281D1*
X9421Y6250D1*
X9400Y6221D1*
X9375Y6197D1*
X9346Y6177D1*
X9327Y6169D1*
X9060Y5901D1*
Y5322D1*
X9100Y5283D1*
X9225D1*
X9244Y5290D1*
X9278Y5297D1*
X9313D1*
X9347Y5292D1*
X9380Y5281D1*
X9411Y5264D1*
X9438Y5242D1*
X9465Y5208D1*
X9464Y7712D1*
X8726D1*
X8692Y7717D1*
X8661Y7734D1*
X8637Y7759D1*
X8621Y7796D1*
X8618Y7854D1*
Y8607D1*
X8627Y8647D1*
X8630Y8660D1*
X8617Y8693D1*
X8615Y8751D1*
Y9466D1*
X7400Y9465D1*
X6873Y9464D1*
X6880Y9433D1*
X6883Y9401D1*
Y8839D1*
X6879Y8802D1*
X6872Y8771D1*
X6858Y8736D1*
X6840Y8702D1*
X6820Y8677D1*
X6794Y8650D1*
X6763Y8628D1*
X6735Y8612D1*
X6700Y8598D1*
X6663Y8590D1*
X6631Y8587D1*
X6069D1*
X6032Y8591D1*
X6001Y8598D1*
X5966Y8612D1*
X5932Y8630D1*
X5907Y8650D1*
X5880Y8676D1*
X5858Y8707D1*
X5842Y8735D1*
X5828Y8770D1*
X5820Y8807D1*
X5817Y8839D1*
Y9401D1*
X5821Y9438D1*
X5827Y9465D1*
X4872D1*
X4878Y9441D1*
X4882Y9416D1*
X4883Y9325D1*
X4882Y8824D1*
X4876Y8787D1*
X4865Y8750D1*
X4851Y8721D1*
X4831Y8690D1*
X4805Y8661D1*
X4781Y8640D1*
X4750Y8619D1*
X4715Y8604D1*
X4684Y8594D1*
X4647Y8588D1*
X4590Y8587D1*
X4054Y8588D1*
X4017Y8594D1*
X3980Y8605D1*
X3951Y8619D1*
X3920Y8639D1*
X3891Y8665D1*
X3870Y8689D1*
X3850Y8719D1*
X3830Y8689D1*
X3805Y8661D1*
X3781Y8640D1*
X3750Y8619D1*
X3715Y8604D1*
X3684Y8594D1*
X3647Y8588D1*
X3590Y8587D1*
X3054Y8588D1*
X3017Y8594D1*
X2980Y8605D1*
X2951Y8619D1*
X2920Y8639D1*
X2891Y8665D1*
X2870Y8689D1*
X2849Y8720D1*
X2834Y8755D1*
X2824Y8786D1*
X2818Y8823D1*
X2817Y8880D1*
X2818Y9416D1*
X2824Y9453D1*
X2827Y9465D1*
X987D1*
X988Y8726D1*
X979Y8686D1*
X976Y8673D1*
X989Y8640D1*
X992Y8582D1*
Y7829D1*
X986Y7795D1*
X970Y7764D1*
X944Y7740D1*
X907Y7724D1*
X849Y7722D1*
X134D1*
X135Y7015D1*
Y6603D1*
X156Y6618D1*
X190Y6635D1*
X226Y6647D1*
X257Y6653D1*
X295Y6655D1*
X856D1*
X888Y6651D1*
X924Y6641D1*
X959Y6626D1*
X987Y6609D1*
X1016Y6586D1*
X1042Y6558D1*
X1060Y6531D1*
X1077Y6498D1*
X1090Y6462D1*
X1096Y6430D1*
X1098Y6392D1*
Y6305D1*
X1315D1*
X2027D1*
X2290Y6568D1*
X2246Y6567D1*
X2201Y6555D1*
X2166Y6552D1*
X2131Y6556D1*
X2097Y6566D1*
X2066Y6582D1*
X2038Y6603D1*
X2014Y6628D1*
X1995Y6657D1*
X1982Y6690D1*
X1974Y6724D1*
X1972Y6759D1*
X1977Y6793D1*
X1988Y6827D1*
X2004Y6857D1*
X2025Y6885D1*
X2051Y6908D1*
X2081Y6927D1*
X2114Y6940D1*
X2148Y6947D1*
X2183D1*
X2217Y6942D1*
X2245Y6932D1*
X2274Y6933D1*
X3125Y7783D1*
X6750Y5065D2*
X6741Y5031D1*
X6726Y5000D1*
X6705Y4971D1*
X6680Y4947D1*
X6651Y4927D1*
X6620Y4913D1*
X6586Y4905D1*
X6551Y4902D1*
X6516Y4906D1*
X6482Y4916D1*
X6451Y4932D1*
X6423Y4953D1*
X6399Y4978D1*
X6380Y5007D1*
X6367Y5040D1*
X6359Y5074D1*
X6357Y5109D1*
X6362Y5143D1*
X6373Y5177D1*
X6389Y5207D1*
X6410Y5235D1*
X6436Y5258D1*
X6466Y5277D1*
X6499Y5290D1*
X6533Y5297D1*
X6568D1*
X6602Y5292D1*
X6635Y5281D1*
X6666Y5264D1*
X6693Y5242D1*
X6716Y5215D1*
X6734Y5185D1*
X6746Y5152D1*
X6753Y5100D1*
X6750Y5065D1*
X6320Y4065D2*
X6311Y4031D1*
X6296Y4000D1*
X6275Y3971D1*
X6250Y3947D1*
X6221Y3927D1*
X6190Y3913D1*
X6156Y3905D1*
X6121Y3902D1*
X6086Y3906D1*
X6052Y3916D1*
X6021Y3932D1*
X5993Y3953D1*
X5969Y3978D1*
X5950Y4007D1*
X5937Y4040D1*
X5929Y4074D1*
X5927Y4109D1*
X5932Y4143D1*
X5943Y4177D1*
X5959Y4207D1*
X5980Y4235D1*
X6006Y4258D1*
X6036Y4277D1*
X6069Y4290D1*
X6103Y4297D1*
X6138D1*
X6172Y4292D1*
X6205Y4281D1*
X6236Y4264D1*
X6263Y4242D1*
X6286Y4215D1*
X6304Y4185D1*
X6316Y4152D1*
X6323Y4100D1*
X6320Y4065D1*
X8545Y4140D2*
X8536Y4106D1*
X8521Y4075D1*
X8500Y4046D1*
X8475Y4022D1*
X8446Y4002D1*
X8415Y3988D1*
X8381Y3980D1*
X8346Y3977D1*
X8311Y3981D1*
X8277Y3991D1*
X8246Y4007D1*
X8218Y4028D1*
X8194Y4053D1*
X8175Y4082D1*
X8162Y4115D1*
X8154Y4152D1*
X8113Y4156D1*
X8080Y4166D1*
X8048Y4182D1*
X8020Y4203D1*
X7997Y4228D1*
X7977Y4257D1*
X7964Y4290D1*
X7956Y4324D1*
X7955Y4359D1*
X7959Y4393D1*
X7970Y4427D1*
X7986Y4457D1*
X8008Y4485D1*
X8034Y4508D1*
X8063Y4527D1*
X8096Y4540D1*
X8130Y4547D1*
X8165D1*
X8200Y4542D1*
X8233Y4531D1*
X8263Y4514D1*
X8290Y4492D1*
X8313Y4465D1*
X8331Y4435D1*
X8343Y4402D1*
X8348Y4373D1*
X8397Y4367D1*
X8430Y4356D1*
X8461Y4339D1*
X8488Y4317D1*
X8511Y4290D1*
X8529Y4260D1*
X8541Y4227D1*
X8548Y4175D1*
X8545Y4140D1*
X1995Y3015D2*
X1986Y2981D1*
X1971Y2950D1*
X1950Y2921D1*
X1925Y2897D1*
X1896Y2877D1*
X1865Y2863D1*
X1831Y2855D1*
X1796Y2852D1*
X1761Y2856D1*
X1727Y2866D1*
X1696Y2882D1*
X1668Y2903D1*
X1644Y2928D1*
X1625Y2957D1*
X1612Y2990D1*
X1604Y3024D1*
X1602Y3059D1*
X1607Y3093D1*
X1618Y3127D1*
X1634Y3157D1*
X1655Y3185D1*
X1681Y3208D1*
X1711Y3227D1*
X1744Y3240D1*
X1778Y3247D1*
X1813D1*
X1847Y3242D1*
X1880Y3231D1*
X1911Y3214D1*
X1938Y3192D1*
X1961Y3165D1*
X1979Y3135D1*
X1991Y3102D1*
X1998Y3050D1*
X1995Y3015D1*
X795Y2440D2*
X786Y2406D1*
X771Y2375D1*
X750Y2346D1*
X725Y2322D1*
X696Y2302D1*
X665Y2288D1*
X631Y2280D1*
X596Y2277D1*
X561Y2281D1*
X527Y2291D1*
X496Y2307D1*
X468Y2328D1*
X444Y2353D1*
X425Y2382D1*
X412Y2415D1*
X404Y2449D1*
X402Y2484D1*
X407Y2518D1*
X418Y2552D1*
X434Y2582D1*
X455Y2610D1*
X481Y2633D1*
X511Y2652D1*
X544Y2665D1*
X578Y2672D1*
X613D1*
X647Y2667D1*
X680Y2656D1*
X711Y2639D1*
X738Y2617D1*
X761Y2590D1*
X779Y2560D1*
X791Y2527D1*
X798Y2475D1*
X795Y2440D1*
X5975Y2058D2*
X6600D1*
X6598Y2092D1*
X6005D1*
X5970Y2096D1*
X5938Y2108D1*
X5900Y2135D1*
X5678Y2358D1*
X5754Y2280D1*
X5975Y2058D1*
X5969Y2097D1*
X5936Y2109D1*
X5907Y2129D1*
X6045Y7190D2*
X6036Y7156D1*
X6021Y7125D1*
X6000Y7096D1*
X5975Y7072D1*
X5946Y7052D1*
X5915Y7038D1*
X5881Y7030D1*
X5846Y7027D1*
X5811Y7031D1*
X5777Y7041D1*
X5746Y7057D1*
X5718Y7078D1*
X5694Y7103D1*
X5675Y7132D1*
X5662Y7165D1*
X5654Y7199D1*
X5652Y7234D1*
X5657Y7268D1*
X5668Y7302D1*
X5684Y7332D1*
X5705Y7360D1*
X5731Y7383D1*
X5761Y7402D1*
X5794Y7415D1*
X5828Y7422D1*
X5863D1*
X5897Y7417D1*
X5930Y7406D1*
X5961Y7389D1*
X5988Y7367D1*
X6011Y7340D1*
X6029Y7310D1*
X6041Y7277D1*
X6048Y7225D1*
X6045Y7190D1*
G36*
X840Y3698D2*
X290D1*
X274D1*
X259Y3701D1*
X244Y3705D1*
X229Y3710D1*
X215Y3718D1*
X202Y3726D1*
X190Y3736D1*
X179Y3747D1*
X169Y3759D1*
X160Y3773D1*
X153Y3786D1*
X147Y3801D1*
X143Y3816D1*
X141Y3832D1*
X140Y3848D1*
Y4398D1*
X141Y4413D1*
X143Y4429D1*
X147Y4444D1*
X153Y4459D1*
X160Y4473D1*
X169Y4486D1*
X179Y4498D1*
X190Y4509D1*
X202Y4519D1*
X215Y4527D1*
X229Y4535D1*
X244Y4540D1*
X259Y4544D1*
X274Y4547D1*
X290Y4548D1*
X840D1*
X856Y4547D1*
X871Y4544D1*
X886Y4540D1*
X901Y4535D1*
X915Y4527D1*
X928Y4519D1*
X940Y4509D1*
X951Y4498D1*
X961Y4486D1*
X970Y4473D1*
X977Y4459D1*
X983Y4444D1*
X987Y4429D1*
X989Y4413D1*
X990Y4398D1*
Y3848D1*
X989Y3832D1*
X987Y3816D1*
X983Y3801D1*
X977Y3786D1*
X970Y3773D1*
X961Y3759D1*
X951Y3747D1*
X940Y3736D1*
X928Y3726D1*
X915Y3718D1*
X901Y3710D1*
X886Y3705D1*
X871Y3701D1*
X856Y3698D1*
X840D1*
G37*
G36*
X990Y5398D2*
Y4848D1*
X989Y4832D1*
X987Y4816D1*
X983Y4801D1*
X977Y4786D1*
X970Y4773D1*
X961Y4759D1*
X951Y4747D1*
X940Y4736D1*
X928Y4726D1*
X915Y4718D1*
X901Y4710D1*
X886Y4705D1*
X871Y4701D1*
X856Y4698D1*
X840D1*
X290D1*
X274D1*
X259Y4701D1*
X244Y4705D1*
X229Y4710D1*
X215Y4718D1*
X202Y4726D1*
X190Y4736D1*
X179Y4747D1*
X169Y4759D1*
X160Y4773D1*
X153Y4786D1*
X147Y4801D1*
X143Y4816D1*
X141Y4832D1*
X140Y4848D1*
Y5398D1*
X141Y5413D1*
X143Y5429D1*
X147Y5444D1*
X153Y5459D1*
X160Y5473D1*
X169Y5486D1*
X179Y5498D1*
X190Y5509D1*
X202Y5519D1*
X215Y5527D1*
X229Y5535D1*
X244Y5540D1*
X259Y5544D1*
X274Y5547D1*
X290Y5548D1*
X840D1*
X856Y5547D1*
X871Y5544D1*
X886Y5540D1*
X901Y5535D1*
X915Y5527D1*
X928Y5519D1*
X940Y5509D1*
X951Y5498D1*
X961Y5486D1*
X970Y5473D1*
X977Y5459D1*
X983Y5444D1*
X987Y5429D1*
X989Y5413D1*
X990Y5398D1*
G37*
G36*
X290Y5698D2*
X840D1*
X856D1*
X871Y5701D1*
X886Y5705D1*
X901Y5710D1*
X915Y5718D1*
X928Y5726D1*
X940Y5736D1*
X951Y5747D1*
X961Y5759D1*
X970Y5773D1*
X977Y5786D1*
X983Y5801D1*
X987Y5816D1*
X989Y5832D1*
X990Y5848D1*
Y6398D1*
X989Y6413D1*
X987Y6429D1*
X983Y6444D1*
X977Y6459D1*
X970Y6473D1*
X961Y6486D1*
X951Y6498D1*
X940Y6509D1*
X928Y6519D1*
X915Y6527D1*
X901Y6535D1*
X886Y6540D1*
X871Y6544D1*
X856Y6547D1*
X840Y6548D1*
X290D1*
X274Y6547D1*
X259Y6544D1*
X244Y6540D1*
X229Y6535D1*
X215Y6527D1*
X202Y6519D1*
X190Y6509D1*
X179Y6498D1*
X169Y6486D1*
X160Y6473D1*
X153Y6459D1*
X147Y6444D1*
X143Y6429D1*
X141Y6413D1*
X140Y6398D1*
Y5848D1*
X141Y5832D1*
X143Y5816D1*
X147Y5801D1*
X153Y5786D1*
X160Y5773D1*
X169Y5759D1*
X179Y5747D1*
X190Y5736D1*
X202Y5726D1*
X215Y5718D1*
X229Y5710D1*
X244Y5705D1*
X259Y5701D1*
X274Y5698D1*
X290D1*
G37*
G36*
X990Y6848D2*
Y7398D1*
X989Y7413D1*
X987Y7429D1*
X983Y7444D1*
X977Y7459D1*
X970Y7473D1*
X961Y7486D1*
X951Y7498D1*
X940Y7509D1*
X928Y7519D1*
X915Y7527D1*
X901Y7535D1*
X886Y7540D1*
X871Y7544D1*
X856Y7547D1*
X840Y7548D1*
X290D1*
X274Y7547D1*
X259Y7544D1*
X244Y7540D1*
X229Y7535D1*
X215Y7527D1*
X202Y7519D1*
X190Y7509D1*
X179Y7498D1*
X169Y7486D1*
X160Y7473D1*
X153Y7459D1*
X147Y7444D1*
X143Y7429D1*
X141Y7413D1*
X140Y7398D1*
Y6848D1*
X141Y6832D1*
X143Y6816D1*
X147Y6801D1*
X153Y6786D1*
X160Y6773D1*
X169Y6759D1*
X179Y6747D1*
X190Y6736D1*
X202Y6726D1*
X215Y6718D1*
X229Y6710D1*
X244Y6705D1*
X259Y6701D1*
X274Y6698D1*
X290D1*
X840D1*
X856D1*
X871Y6701D1*
X886Y6705D1*
X901Y6710D1*
X915Y6718D1*
X928Y6726D1*
X940Y6736D1*
X951Y6747D1*
X961Y6759D1*
X970Y6773D1*
X977Y6786D1*
X983Y6801D1*
X987Y6816D1*
X989Y6832D1*
X990Y6848D1*
G37*
G36*
X2925Y8845D2*
Y9395D1*
X2926Y9411D1*
X2928Y9426D1*
X2932Y9441D1*
X2938Y9456D1*
X2945Y9470D1*
X2954Y9483D1*
X2964Y9495D1*
X2975Y9506D1*
X2987Y9516D1*
X3000Y9525D1*
X3014Y9532D1*
X3029Y9538D1*
X3044Y9542D1*
X3059Y9544D1*
X3075Y9545D1*
X3625D1*
X3641Y9544D1*
X3656Y9542D1*
X3671Y9538D1*
X3686Y9532D1*
X3700Y9525D1*
X3713Y9516D1*
X3725Y9506D1*
X3736Y9495D1*
X3746Y9483D1*
X3755Y9470D1*
X3762Y9456D1*
X3768Y9441D1*
X3772Y9426D1*
X3774Y9411D1*
X3775Y9395D1*
Y8845D1*
X3774Y8829D1*
X3772Y8814D1*
X3768Y8799D1*
X3762Y8784D1*
X3755Y8770D1*
X3746Y8757D1*
X3736Y8745D1*
X3725Y8734D1*
X3713Y8724D1*
X3700Y8715D1*
X3686Y8708D1*
X3671Y8702D1*
X3656Y8698D1*
X3641Y8696D1*
X3625Y8695D1*
X3075D1*
X3059Y8696D1*
X3044Y8698D1*
X3029Y8702D1*
X3014Y8708D1*
X3000Y8715D1*
X2987Y8724D1*
X2975Y8734D1*
X2964Y8745D1*
X2954Y8757D1*
X2945Y8770D1*
X2938Y8784D1*
X2932Y8799D1*
X2928Y8814D1*
X2926Y8829D1*
X2925Y8845D1*
G37*
G36*
X4625Y8695D2*
X4075D1*
X4059Y8696D1*
X4044Y8698D1*
X4029Y8702D1*
X4014Y8708D1*
X4000Y8715D1*
X3987Y8724D1*
X3975Y8734D1*
X3964Y8745D1*
X3954Y8757D1*
X3945Y8770D1*
X3938Y8784D1*
X3932Y8799D1*
X3928Y8814D1*
X3926Y8829D1*
X3925Y8845D1*
Y9395D1*
X3926Y9411D1*
X3928Y9426D1*
X3932Y9441D1*
X3938Y9456D1*
X3945Y9470D1*
X3954Y9483D1*
X3964Y9495D1*
X3975Y9506D1*
X3987Y9516D1*
X4000Y9525D1*
X4014Y9532D1*
X4029Y9538D1*
X4044Y9542D1*
X4059Y9544D1*
X4075Y9545D1*
X4625D1*
X4641Y9544D1*
X4656Y9542D1*
X4671Y9538D1*
X4686Y9532D1*
X4700Y9525D1*
X4713Y9516D1*
X4725Y9506D1*
X4736Y9495D1*
X4746Y9483D1*
X4755Y9470D1*
X4762Y9456D1*
X4768Y9441D1*
X4772Y9426D1*
X4774Y9411D1*
X4775Y9395D1*
Y8845D1*
X4774Y8829D1*
X4772Y8814D1*
X4768Y8799D1*
X4762Y8784D1*
X4755Y8770D1*
X4746Y8757D1*
X4736Y8745D1*
X4725Y8734D1*
X4713Y8724D1*
X4700Y8715D1*
X4686Y8708D1*
X4671Y8702D1*
X4656Y8698D1*
X4641Y8696D1*
X4625Y8695D1*
G37*
G36*
X4925Y9395D2*
Y8845D1*
X4926Y8829D1*
X4928Y8814D1*
X4932Y8799D1*
X4938Y8784D1*
X4945Y8770D1*
X4954Y8757D1*
X4964Y8745D1*
X4975Y8734D1*
X4987Y8724D1*
X5000Y8715D1*
X5014Y8708D1*
X5029Y8702D1*
X5044Y8698D1*
X5059Y8696D1*
X5075Y8695D1*
X5625D1*
X5641Y8696D1*
X5656Y8698D1*
X5671Y8702D1*
X5686Y8708D1*
X5700Y8715D1*
X5713Y8724D1*
X5725Y8734D1*
X5736Y8745D1*
X5746Y8757D1*
X5755Y8770D1*
X5762Y8784D1*
X5768Y8799D1*
X5772Y8814D1*
X5774Y8829D1*
X5775Y8845D1*
Y9395D1*
X5774Y9411D1*
X5772Y9426D1*
X5768Y9441D1*
X5762Y9456D1*
X5755Y9470D1*
X5746Y9483D1*
X5736Y9495D1*
X5725Y9506D1*
X5713Y9516D1*
X5700Y9525D1*
X5686Y9532D1*
X5671Y9538D1*
X5656Y9542D1*
X5641Y9544D1*
X5625Y9545D1*
X5075D1*
X5059Y9544D1*
X5044Y9542D1*
X5029Y9538D1*
X5014Y9532D1*
X5000Y9525D1*
X4987Y9516D1*
X4975Y9506D1*
X4964Y9495D1*
X4954Y9483D1*
X4945Y9470D1*
X4938Y9456D1*
X4932Y9441D1*
X4928Y9426D1*
X4926Y9411D1*
X4925Y9395D1*
G37*
G36*
X6075Y8695D2*
X6625D1*
X6641Y8696D1*
X6656Y8698D1*
X6671Y8702D1*
X6686Y8708D1*
X6700Y8715D1*
X6713Y8724D1*
X6725Y8734D1*
X6736Y8745D1*
X6746Y8757D1*
X6755Y8770D1*
X6762Y8784D1*
X6768Y8799D1*
X6772Y8814D1*
X6774Y8829D1*
X6775Y8845D1*
Y9395D1*
X6774Y9411D1*
X6772Y9426D1*
X6768Y9441D1*
X6762Y9456D1*
X6755Y9470D1*
X6746Y9483D1*
X6736Y9495D1*
X6725Y9506D1*
X6713Y9516D1*
X6700Y9525D1*
X6686Y9532D1*
X6671Y9538D1*
X6656Y9542D1*
X6641Y9544D1*
X6625Y9545D1*
X6075D1*
X6059Y9544D1*
X6044Y9542D1*
X6029Y9538D1*
X6014Y9532D1*
X6000Y9525D1*
X5987Y9516D1*
X5975Y9506D1*
X5964Y9495D1*
X5954Y9483D1*
X5945Y9470D1*
X5938Y9456D1*
X5932Y9441D1*
X5928Y9426D1*
X5926Y9411D1*
X5925Y9395D1*
Y8845D1*
X5926Y8829D1*
X5928Y8814D1*
X5932Y8799D1*
X5938Y8784D1*
X5945Y8770D1*
X5954Y8757D1*
X5964Y8745D1*
X5975Y8734D1*
X5987Y8724D1*
X6000Y8715D1*
X6014Y8708D1*
X6029Y8702D1*
X6044Y8698D1*
X6059Y8696D1*
X6075Y8695D1*
G37*
G36*
X4585Y275D2*
Y1225D1*
X4584Y1241D1*
X4582Y1256D1*
X4578Y1271D1*
X4572Y1286D1*
X4565Y1300D1*
X4556Y1313D1*
X4546Y1325D1*
X4535Y1336D1*
X4523Y1346D1*
X4510Y1355D1*
X4496Y1362D1*
X4481Y1368D1*
X4466Y1372D1*
X4451Y1374D1*
X4435Y1375D1*
X3485D1*
X3469Y1374D1*
X3454Y1372D1*
X3439Y1368D1*
X3424Y1362D1*
X3410Y1355D1*
X3397Y1346D1*
X3385Y1336D1*
X3374Y1325D1*
X3364Y1313D1*
X3355Y1300D1*
X3348Y1286D1*
X3342Y1271D1*
X3338Y1256D1*
X3336Y1241D1*
X3335Y1225D1*
Y275D1*
X3336Y259D1*
X3338Y244D1*
X3342Y229D1*
X3348Y214D1*
X3355Y200D1*
X3364Y187D1*
X3374Y175D1*
X3385Y164D1*
X3397Y154D1*
X3410Y145D1*
X3424Y138D1*
X3439Y132D1*
X3454Y128D1*
X3469Y126D1*
X3485Y125D1*
X4435D1*
X4451Y126D1*
X4466Y128D1*
X4481Y132D1*
X4496Y138D1*
X4510Y145D1*
X4523Y154D1*
X4535Y164D1*
X4546Y175D1*
X4556Y187D1*
X4565Y200D1*
X4572Y214D1*
X4578Y229D1*
X4582Y244D1*
X4584Y259D1*
X4585Y275D1*
G37*
G36*
X8726Y8607D2*
X9514D1*
Y7819D1*
X8726D1*
Y8607D1*
G37*
G36*
X9510Y8716D2*
X8722D1*
Y9504D1*
X9510D1*
Y8716D1*
G37*
G36*
X96Y8617D2*
X884D1*
Y7829D1*
X96D1*
Y8617D1*
G37*
G36*
X880Y8726D2*
X92D1*
Y9514D1*
X880D1*
Y8726D1*
G37*
G36*
X9484Y1013D2*
X8696D1*
Y1801D1*
X9484D1*
Y1013D1*
G37*
G36*
X8700Y904D2*
X9488D1*
Y116D1*
X8700D1*
Y904D1*
G37*
G36*
X934Y1063D2*
X146D1*
Y1851D1*
X934D1*
Y1063D1*
G37*
G36*
X150Y954D2*
X938D1*
Y166D1*
X150D1*
Y954D1*
G37*
M02*
