G04 DipTrace Beta 2.3.5.2*
%INLulfroMiniBrush-v2.GBO*%
%MOIN*%
%ADD29C,0.0154*%
%ADD42C,0.0197*%
%ADD69C,0.0062*%
%ADD70C,0.0046*%
%ADD71C,0.0087*%
%ADD72C,0.0109*%
%FSLAX44Y44*%
G04*
G70*
G90*
G75*
G01*
%LNBottom BottomSilk*%
%LPD*%
X1922Y7259D2*
D69*
X1941Y7297D1*
X1979Y7335D1*
X2017Y7354D1*
X2094D1*
X2132Y7335D1*
X2170Y7297D1*
X2190Y7259D1*
X2209Y7201D1*
Y7105D1*
X2190Y7048D1*
X2170Y7010D1*
X2132Y6972D1*
X2094Y6952D1*
X2017D1*
X1979Y6972D1*
X1941Y7010D1*
X1922Y7048D1*
Y7105D1*
X2017D1*
X1530Y7354D2*
Y6952D1*
X1798Y7354D1*
Y6952D1*
X1407Y7354D2*
Y6952D1*
X1273D1*
X1215Y6972D1*
X1177Y7010D1*
X1158Y7048D1*
X1139Y7105D1*
Y7201D1*
X1158Y7259D1*
X1177Y7297D1*
X1215Y7335D1*
X1273Y7354D1*
X1407D1*
X1627Y6344D2*
X1818D1*
X1837Y6172D1*
X1818Y6191D1*
X1760Y6210D1*
X1703D1*
X1646Y6191D1*
X1607Y6153D1*
X1588Y6095D1*
Y6057D1*
X1607Y6000D1*
X1646Y5961D1*
X1703Y5942D1*
X1760D1*
X1818Y5961D1*
X1837Y5981D1*
X1856Y6019D1*
X1465Y6344D2*
X1312Y5942D1*
X1159Y6344D1*
X1838Y5153D2*
X1666D1*
X1609Y5172D1*
X1589Y5191D1*
X1570Y5229D1*
Y5268D1*
X1589Y5306D1*
X1609Y5325D1*
X1666Y5344D1*
X1838D1*
Y4942D1*
X1704Y5153D2*
X1570Y4942D1*
X1447Y5344D2*
X1179Y4942D1*
Y5344D2*
X1447Y4942D1*
X1674Y4324D2*
Y3922D1*
X1808Y4324D2*
X1540D1*
X1417D2*
X1149Y3922D1*
Y4324D2*
X1417Y3922D1*
X6480Y7671D2*
D70*
X6509Y7642D1*
X6523Y7599D1*
Y7542D1*
X6509Y7499D1*
X6480Y7470D1*
X6452D1*
X6423Y7484D1*
X6409Y7499D1*
X6394Y7527D1*
X6365Y7613D1*
X6351Y7642D1*
X6337Y7656D1*
X6308Y7671D1*
X6265D1*
X6236Y7642D1*
X6222Y7599D1*
Y7542D1*
X6236Y7499D1*
X6265Y7470D1*
X6365Y7763D2*
Y7893D1*
X6380Y7935D1*
X6394Y7950D1*
X6423Y7964D1*
X6466D1*
X6494Y7950D1*
X6509Y7935D1*
X6523Y7893D1*
Y7763D1*
X6222D1*
X6523Y8243D2*
Y8057D1*
X6222D1*
Y8243D1*
X6380Y8057D2*
Y8172D1*
X6523Y8336D2*
X6222D1*
X6523Y8537D2*
X6322Y8336D1*
X6394Y8408D2*
X6222Y8537D1*
X3289Y7665D2*
Y7795D1*
X3304Y7837D1*
X3318Y7852D1*
X3347Y7866D1*
X3390D1*
X3418Y7852D1*
X3433Y7837D1*
X3447Y7795D1*
Y7665D1*
X3146D1*
X3289Y7959D2*
Y8088D1*
X3304Y8131D1*
X3318Y8145D1*
X3347Y8160D1*
X3390D1*
X3418Y8145D1*
X3433Y8131D1*
X3447Y8088D1*
Y7959D1*
X3146D1*
Y8482D2*
X3447D1*
X3146Y8367D1*
X3447Y8252D1*
X3146D1*
X4373Y7657D2*
X4072Y7771D1*
X4373Y7886D1*
X4302Y8194D2*
X4330Y8180D1*
X4359Y8151D1*
X4373Y8122D1*
Y8065D1*
X4359Y8036D1*
X4330Y8008D1*
X4302Y7993D1*
X4259Y7979D1*
X4187D1*
X4144Y7993D1*
X4115Y8008D1*
X4086Y8036D1*
X4072Y8065D1*
Y8122D1*
X4086Y8151D1*
X4115Y8180D1*
X4144Y8194D1*
X4302Y8502D2*
X4330Y8488D1*
X4359Y8459D1*
X4373Y8430D1*
Y8373D1*
X4359Y8344D1*
X4330Y8315D1*
X4302Y8301D1*
X4259Y8287D1*
X4187D1*
X4144Y8301D1*
X4115Y8315D1*
X4086Y8344D1*
X4072Y8373D1*
Y8430D1*
X4086Y8459D1*
X4115Y8488D1*
X4144Y8502D1*
X5392Y7905D2*
X5420Y7890D1*
X5449Y7862D1*
X5463Y7833D1*
Y7776D1*
X5449Y7747D1*
X5420Y7718D1*
X5392Y7704D1*
X5349Y7689D1*
X5277D1*
X5234Y7704D1*
X5205Y7718D1*
X5176Y7747D1*
X5162Y7776D1*
Y7833D1*
X5176Y7862D1*
X5205Y7890D1*
X5234Y7905D1*
X5277D1*
Y7833D1*
X5463Y8198D2*
X5162D1*
X5463Y7997D1*
X5162D1*
X5463Y8291D2*
X5162D1*
Y8391D1*
X5176Y8434D1*
X5205Y8463D1*
X5234Y8478D1*
X5277Y8492D1*
X5349D1*
X5392Y8478D1*
X5420Y8463D1*
X5449Y8434D1*
X5463Y8391D1*
Y8291D1*
X1316Y1623D2*
D71*
Y1278D1*
X1488Y1450D2*
X1144D1*
X8339Y1598D2*
Y1253D1*
X8511Y1425D2*
X8167D1*
X8341Y8398D2*
Y8053D1*
X8513Y8225D2*
X8169D1*
X1291Y8323D2*
Y7978D1*
X1463Y8150D2*
X1119D1*
X1313Y721D2*
D72*
Y445D1*
X8313Y646D2*
Y370D1*
X8338Y9221D2*
Y8945D1*
X1288Y9271D2*
Y8995D1*
X6378Y1989D2*
D29*
Y1387D1*
X6679Y1688D2*
X6077D1*
X3396Y1663D2*
D42*
X2898D1*
X7092Y6073D2*
D72*
Y5369D1*
X6690D1*
X6474Y5838D2*
Y5503D1*
X6441Y5403D1*
X6373Y5369D1*
X6273D1*
X6206Y5403D1*
X6105Y5503D1*
Y5838D2*
Y5369D1*
X5889Y6073D2*
Y5369D1*
X5405Y6073D2*
X5472D1*
X5539Y6039D1*
X5573Y5939D1*
Y5369D1*
X5673Y5838D2*
X5439D1*
X5189D2*
Y5369D1*
Y5637D2*
X5155Y5738D1*
X5089Y5805D1*
X5021Y5838D1*
X4921D1*
X4538D2*
X4604Y5805D1*
X4671Y5738D1*
X4705Y5637D1*
Y5570D1*
X4671Y5470D1*
X4604Y5403D1*
X4538Y5369D1*
X4437D1*
X4370Y5403D1*
X4303Y5470D1*
X4269Y5570D1*
Y5637D1*
X4303Y5738D1*
X4370Y5805D1*
X4437Y5838D1*
X4538D1*
X7749Y4894D2*
D69*
Y4492D1*
X7576D1*
X7519Y4512D1*
X7500Y4531D1*
X7481Y4569D1*
Y4626D1*
X7500Y4665D1*
X7519Y4684D1*
X7576Y4703D1*
X7519Y4722D1*
X7500Y4741D1*
X7481Y4779D1*
Y4818D1*
X7500Y4856D1*
X7519Y4875D1*
X7576Y4894D1*
X7749D1*
Y4703D2*
X7576D1*
X7357Y4760D2*
Y4492D1*
Y4645D2*
X7338Y4703D1*
X7300Y4741D1*
X7261Y4760D1*
X7204D1*
X7080D2*
Y4569D1*
X7061Y4512D1*
X7023Y4492D1*
X6965D1*
X6927Y4512D1*
X6870Y4569D1*
Y4760D2*
Y4492D1*
X6536Y4703D2*
X6555Y4741D1*
X6612Y4760D1*
X6670D1*
X6727Y4741D1*
X6746Y4703D1*
X6727Y4665D1*
X6689Y4645D1*
X6593Y4626D1*
X6555Y4607D1*
X6536Y4569D1*
Y4550D1*
X6555Y4512D1*
X6612Y4492D1*
X6670D1*
X6727Y4512D1*
X6746Y4550D1*
X6412Y4894D2*
Y4492D1*
Y4684D2*
X6355Y4741D1*
X6316Y4760D1*
X6259D1*
X6221Y4741D1*
X6202Y4684D1*
Y4492D1*
X6078Y4645D2*
X5849D1*
Y4684D1*
X5868Y4722D1*
X5887Y4741D1*
X5925Y4760D1*
X5983D1*
X6021Y4741D1*
X6059Y4703D1*
X6078Y4645D1*
Y4607D1*
X6059Y4550D1*
X6021Y4512D1*
X5983Y4492D1*
X5925D1*
X5887Y4512D1*
X5849Y4550D1*
X5496Y4894D2*
Y4492D1*
Y4703D2*
X5534Y4741D1*
X5572Y4760D1*
X5630D1*
X5668Y4741D1*
X5706Y4703D1*
X5725Y4645D1*
Y4607D1*
X5706Y4550D1*
X5668Y4512D1*
X5630Y4492D1*
X5572D1*
X5534Y4512D1*
X5496Y4550D1*
X5118Y3848D2*
D70*
Y3547D1*
X4989D1*
X4946Y3561D1*
X4931Y3576D1*
X4917Y3604D1*
Y3647D1*
X4931Y3676D1*
X4946Y3690D1*
X4989Y3705D1*
X4946Y3719D1*
X4931Y3734D1*
X4917Y3762D1*
Y3791D1*
X4931Y3819D1*
X4946Y3834D1*
X4989Y3848D1*
X5118D1*
Y3705D2*
X4989D1*
X4825Y3748D2*
Y3547D1*
Y3662D2*
X4810Y3705D1*
X4781Y3734D1*
X4753Y3748D1*
X4709D1*
X4545D2*
X4574Y3734D1*
X4603Y3705D1*
X4617Y3662D1*
Y3633D1*
X4603Y3590D1*
X4574Y3561D1*
X4545Y3547D1*
X4502D1*
X4473Y3561D1*
X4445Y3590D1*
X4430Y3633D1*
Y3662D1*
X4445Y3705D1*
X4473Y3734D1*
X4502Y3748D1*
X4545D1*
X4294Y3848D2*
Y3604D1*
X4280Y3561D1*
X4251Y3547D1*
X4223D1*
X4337Y3748D2*
X4237D1*
X4130D2*
Y3547D1*
Y3662D2*
X4116Y3705D1*
X4087Y3734D1*
X4058Y3748D1*
X4015D1*
X3851D2*
X3879Y3734D1*
X3908Y3705D1*
X3922Y3662D1*
Y3633D1*
X3908Y3590D1*
X3879Y3561D1*
X3851Y3547D1*
X3808D1*
X3779Y3561D1*
X3750Y3590D1*
X3736Y3633D1*
Y3662D1*
X3750Y3705D1*
X3779Y3734D1*
X3808Y3748D1*
X3851D1*
X3643D2*
Y3547D1*
Y3690D2*
X3600Y3734D1*
X3571Y3748D1*
X3528D1*
X3499Y3734D1*
X3485Y3690D1*
Y3547D1*
X3393Y3848D2*
X3378Y3834D1*
X3364Y3848D1*
X3378Y3863D1*
X3393Y3848D1*
X3378Y3748D2*
Y3547D1*
X3099Y3705D2*
X3127Y3734D1*
X3156Y3748D1*
X3199D1*
X3228Y3734D1*
X3256Y3705D1*
X3271Y3662D1*
Y3633D1*
X3256Y3590D1*
X3228Y3561D1*
X3199Y3547D1*
X3156D1*
X3127Y3561D1*
X3099Y3590D1*
X2848Y3705D2*
X2862Y3734D1*
X2906Y3748D1*
X2949D1*
X2992Y3734D1*
X3006Y3705D1*
X2992Y3676D1*
X2963Y3662D1*
X2891Y3647D1*
X2862Y3633D1*
X2848Y3604D1*
Y3590D1*
X2862Y3561D1*
X2906Y3547D1*
X2949D1*
X2992Y3561D1*
X3006Y3590D1*
M02*
