G04 DipTrace Beta 2.3.5.2*
%INLulfroMiniBrush-v2.GBS*%
%MOIN*%
%FSLAX44Y44*%
G04*
G70*
G90*
G75*
G01*
%LNBotMask*%
%LPD*%
G36*
X841Y3678D2*
X289D1*
X272D1*
X255Y3681D1*
X237Y3686D1*
X221Y3692D1*
X205Y3700D1*
X190Y3710D1*
X176Y3721D1*
X164Y3734D1*
X152Y3748D1*
X143Y3762D1*
X135Y3778D1*
X128Y3795D1*
X124Y3812D1*
X121Y3830D1*
X120Y3847D1*
Y4398D1*
X121Y4415D1*
X124Y4433D1*
X128Y4450D1*
X135Y4467D1*
X143Y4483D1*
X152Y4497D1*
X164Y4511D1*
X176Y4524D1*
X190Y4535D1*
X205Y4545D1*
X221Y4553D1*
X237Y4559D1*
X255Y4564D1*
X272Y4567D1*
X289Y4568D1*
X841D1*
X858Y4567D1*
X875Y4564D1*
X893Y4559D1*
X909Y4553D1*
X925Y4545D1*
X940Y4535D1*
X954Y4524D1*
X966Y4511D1*
X978Y4497D1*
X987Y4483D1*
X995Y4467D1*
X1002Y4450D1*
X1006Y4433D1*
X1009Y4415D1*
X1010Y4398D1*
Y3847D1*
X1009Y3830D1*
X1006Y3812D1*
X1002Y3795D1*
X995Y3778D1*
X987Y3762D1*
X978Y3748D1*
X966Y3734D1*
X954Y3721D1*
X940Y3710D1*
X925Y3700D1*
X909Y3692D1*
X893Y3686D1*
X875Y3681D1*
X858Y3678D1*
X841D1*
G37*
G36*
X1010Y5398D2*
Y4847D1*
X1009Y4830D1*
X1006Y4812D1*
X1002Y4795D1*
X995Y4778D1*
X987Y4762D1*
X978Y4748D1*
X966Y4734D1*
X954Y4721D1*
X940Y4710D1*
X925Y4700D1*
X909Y4692D1*
X893Y4686D1*
X875Y4681D1*
X858Y4678D1*
X841D1*
X289D1*
X272D1*
X255Y4681D1*
X237Y4686D1*
X221Y4692D1*
X205Y4700D1*
X190Y4710D1*
X176Y4721D1*
X164Y4734D1*
X152Y4748D1*
X143Y4762D1*
X135Y4778D1*
X128Y4795D1*
X124Y4812D1*
X121Y4830D1*
X120Y4847D1*
Y5398D1*
X121Y5415D1*
X124Y5433D1*
X128Y5450D1*
X135Y5467D1*
X143Y5483D1*
X152Y5497D1*
X164Y5511D1*
X176Y5524D1*
X190Y5535D1*
X205Y5545D1*
X221Y5553D1*
X237Y5559D1*
X255Y5564D1*
X272Y5567D1*
X289Y5568D1*
X841D1*
X858Y5567D1*
X875Y5564D1*
X893Y5559D1*
X909Y5553D1*
X925Y5545D1*
X940Y5535D1*
X954Y5524D1*
X966Y5511D1*
X978Y5497D1*
X987Y5483D1*
X995Y5467D1*
X1002Y5450D1*
X1006Y5433D1*
X1009Y5415D1*
X1010Y5398D1*
G37*
G36*
X289Y5678D2*
X841D1*
X858D1*
X875Y5681D1*
X893Y5686D1*
X909Y5692D1*
X925Y5700D1*
X940Y5710D1*
X954Y5721D1*
X966Y5734D1*
X978Y5748D1*
X987Y5762D1*
X995Y5778D1*
X1002Y5795D1*
X1006Y5812D1*
X1009Y5830D1*
X1010Y5847D1*
Y6398D1*
X1009Y6415D1*
X1006Y6433D1*
X1002Y6450D1*
X995Y6467D1*
X987Y6483D1*
X978Y6497D1*
X966Y6511D1*
X954Y6524D1*
X940Y6535D1*
X925Y6545D1*
X909Y6553D1*
X893Y6559D1*
X875Y6564D1*
X858Y6567D1*
X841Y6568D1*
X289D1*
X272Y6567D1*
X255Y6564D1*
X237Y6559D1*
X221Y6553D1*
X205Y6545D1*
X190Y6535D1*
X176Y6524D1*
X164Y6511D1*
X152Y6497D1*
X143Y6483D1*
X135Y6467D1*
X128Y6450D1*
X124Y6433D1*
X121Y6415D1*
X120Y6398D1*
Y5847D1*
X121Y5830D1*
X124Y5812D1*
X128Y5795D1*
X135Y5778D1*
X143Y5762D1*
X152Y5748D1*
X164Y5734D1*
X176Y5721D1*
X190Y5710D1*
X205Y5700D1*
X221Y5692D1*
X237Y5686D1*
X255Y5681D1*
X272Y5678D1*
X289D1*
G37*
G36*
X1010Y6847D2*
Y7398D1*
X1009Y7415D1*
X1006Y7433D1*
X1002Y7450D1*
X995Y7467D1*
X987Y7483D1*
X978Y7497D1*
X966Y7511D1*
X954Y7524D1*
X940Y7535D1*
X925Y7545D1*
X909Y7553D1*
X893Y7559D1*
X875Y7564D1*
X858Y7567D1*
X841Y7568D1*
X289D1*
X272Y7567D1*
X255Y7564D1*
X237Y7559D1*
X221Y7553D1*
X205Y7545D1*
X190Y7535D1*
X176Y7524D1*
X164Y7511D1*
X152Y7497D1*
X143Y7483D1*
X135Y7467D1*
X128Y7450D1*
X124Y7433D1*
X121Y7415D1*
X120Y7398D1*
Y6847D1*
X121Y6830D1*
X124Y6812D1*
X128Y6795D1*
X135Y6778D1*
X143Y6762D1*
X152Y6748D1*
X164Y6734D1*
X176Y6721D1*
X190Y6710D1*
X205Y6700D1*
X221Y6692D1*
X237Y6686D1*
X255Y6681D1*
X272Y6678D1*
X289D1*
X841D1*
X858D1*
X875Y6681D1*
X893Y6686D1*
X909Y6692D1*
X925Y6700D1*
X940Y6710D1*
X954Y6721D1*
X966Y6734D1*
X978Y6748D1*
X987Y6762D1*
X995Y6778D1*
X1002Y6795D1*
X1006Y6812D1*
X1009Y6830D1*
X1010Y6847D1*
G37*
G36*
X2905Y8844D2*
Y9396D1*
X2906Y9413D1*
X2909Y9430D1*
X2913Y9448D1*
X2920Y9464D1*
X2928Y9480D1*
X2937Y9495D1*
X2949Y9509D1*
X2961Y9521D1*
X2975Y9533D1*
X2990Y9542D1*
X3006Y9550D1*
X3022Y9557D1*
X3040Y9561D1*
X3057Y9564D1*
X3074Y9565D1*
X3626D1*
X3643Y9564D1*
X3660Y9561D1*
X3678Y9557D1*
X3694Y9550D1*
X3710Y9542D1*
X3725Y9533D1*
X3739Y9521D1*
X3751Y9509D1*
X3763Y9495D1*
X3772Y9480D1*
X3780Y9464D1*
X3787Y9448D1*
X3791Y9430D1*
X3794Y9413D1*
X3795Y9396D1*
Y8844D1*
X3794Y8827D1*
X3791Y8810D1*
X3787Y8792D1*
X3780Y8776D1*
X3772Y8760D1*
X3763Y8745D1*
X3751Y8731D1*
X3739Y8719D1*
X3725Y8707D1*
X3710Y8698D1*
X3694Y8690D1*
X3678Y8683D1*
X3660Y8679D1*
X3643Y8676D1*
X3626Y8675D1*
X3074D1*
X3057Y8676D1*
X3040Y8679D1*
X3022Y8683D1*
X3006Y8690D1*
X2990Y8698D1*
X2975Y8707D1*
X2961Y8719D1*
X2949Y8731D1*
X2937Y8745D1*
X2928Y8760D1*
X2920Y8776D1*
X2913Y8792D1*
X2909Y8810D1*
X2906Y8827D1*
X2905Y8844D1*
G37*
G36*
X4626Y8675D2*
X4074D1*
X4057Y8676D1*
X4040Y8679D1*
X4022Y8683D1*
X4006Y8690D1*
X3990Y8698D1*
X3975Y8707D1*
X3961Y8719D1*
X3949Y8731D1*
X3937Y8745D1*
X3928Y8760D1*
X3920Y8776D1*
X3913Y8792D1*
X3909Y8810D1*
X3906Y8827D1*
X3905Y8844D1*
Y9396D1*
X3906Y9413D1*
X3909Y9430D1*
X3913Y9448D1*
X3920Y9464D1*
X3928Y9480D1*
X3937Y9495D1*
X3949Y9509D1*
X3961Y9521D1*
X3975Y9533D1*
X3990Y9542D1*
X4006Y9550D1*
X4022Y9557D1*
X4040Y9561D1*
X4057Y9564D1*
X4074Y9565D1*
X4626D1*
X4643Y9564D1*
X4660Y9561D1*
X4678Y9557D1*
X4694Y9550D1*
X4710Y9542D1*
X4725Y9533D1*
X4739Y9521D1*
X4751Y9509D1*
X4763Y9495D1*
X4772Y9480D1*
X4780Y9464D1*
X4787Y9448D1*
X4791Y9430D1*
X4794Y9413D1*
X4795Y9396D1*
Y8844D1*
X4794Y8827D1*
X4791Y8810D1*
X4787Y8792D1*
X4780Y8776D1*
X4772Y8760D1*
X4763Y8745D1*
X4751Y8731D1*
X4739Y8719D1*
X4725Y8707D1*
X4710Y8698D1*
X4694Y8690D1*
X4678Y8683D1*
X4660Y8679D1*
X4643Y8676D1*
X4626Y8675D1*
G37*
G36*
X4905Y9396D2*
Y8844D1*
X4906Y8827D1*
X4909Y8810D1*
X4913Y8792D1*
X4920Y8776D1*
X4928Y8760D1*
X4937Y8745D1*
X4949Y8731D1*
X4961Y8719D1*
X4975Y8707D1*
X4990Y8698D1*
X5006Y8690D1*
X5022Y8683D1*
X5040Y8679D1*
X5057Y8676D1*
X5074Y8675D1*
X5626D1*
X5643Y8676D1*
X5660Y8679D1*
X5678Y8683D1*
X5694Y8690D1*
X5710Y8698D1*
X5725Y8707D1*
X5739Y8719D1*
X5751Y8731D1*
X5763Y8745D1*
X5772Y8760D1*
X5780Y8776D1*
X5787Y8792D1*
X5791Y8810D1*
X5794Y8827D1*
X5795Y8844D1*
Y9396D1*
X5794Y9413D1*
X5791Y9430D1*
X5787Y9448D1*
X5780Y9464D1*
X5772Y9480D1*
X5763Y9495D1*
X5751Y9509D1*
X5739Y9521D1*
X5725Y9533D1*
X5710Y9542D1*
X5694Y9550D1*
X5678Y9557D1*
X5660Y9561D1*
X5643Y9564D1*
X5626Y9565D1*
X5074D1*
X5057Y9564D1*
X5040Y9561D1*
X5022Y9557D1*
X5006Y9550D1*
X4990Y9542D1*
X4975Y9533D1*
X4961Y9521D1*
X4949Y9509D1*
X4937Y9495D1*
X4928Y9480D1*
X4920Y9464D1*
X4913Y9448D1*
X4909Y9430D1*
X4906Y9413D1*
X4905Y9396D1*
G37*
G36*
X6074Y8675D2*
X6626D1*
X6643Y8676D1*
X6660Y8679D1*
X6678Y8683D1*
X6694Y8690D1*
X6710Y8698D1*
X6725Y8707D1*
X6739Y8719D1*
X6751Y8731D1*
X6763Y8745D1*
X6772Y8760D1*
X6780Y8776D1*
X6787Y8792D1*
X6791Y8810D1*
X6794Y8827D1*
X6795Y8844D1*
Y9396D1*
X6794Y9413D1*
X6791Y9430D1*
X6787Y9448D1*
X6780Y9464D1*
X6772Y9480D1*
X6763Y9495D1*
X6751Y9509D1*
X6739Y9521D1*
X6725Y9533D1*
X6710Y9542D1*
X6694Y9550D1*
X6678Y9557D1*
X6660Y9561D1*
X6643Y9564D1*
X6626Y9565D1*
X6074D1*
X6057Y9564D1*
X6040Y9561D1*
X6022Y9557D1*
X6006Y9550D1*
X5990Y9542D1*
X5975Y9533D1*
X5961Y9521D1*
X5949Y9509D1*
X5937Y9495D1*
X5928Y9480D1*
X5920Y9464D1*
X5913Y9448D1*
X5909Y9430D1*
X5906Y9413D1*
X5905Y9396D1*
Y8844D1*
X5906Y8827D1*
X5909Y8810D1*
X5913Y8792D1*
X5920Y8776D1*
X5928Y8760D1*
X5937Y8745D1*
X5949Y8731D1*
X5961Y8719D1*
X5975Y8707D1*
X5990Y8698D1*
X6006Y8690D1*
X6022Y8683D1*
X6040Y8679D1*
X6057Y8676D1*
X6074Y8675D1*
G37*
G36*
X4815Y274D2*
Y1226D1*
X4816Y1243D1*
X4819Y1260D1*
X4823Y1278D1*
X4830Y1294D1*
X4838Y1310D1*
X4847Y1325D1*
X4859Y1339D1*
X4871Y1351D1*
X4885Y1363D1*
X4900Y1372D1*
X4916Y1380D1*
X4932Y1387D1*
X4950Y1391D1*
X4967Y1394D1*
X4984Y1395D1*
X5936D1*
X5953Y1394D1*
X5970Y1391D1*
X5988Y1387D1*
X6004Y1380D1*
X6020Y1372D1*
X6035Y1363D1*
X6049Y1351D1*
X6061Y1339D1*
X6073Y1325D1*
X6082Y1310D1*
X6090Y1294D1*
X6097Y1278D1*
X6101Y1260D1*
X6104Y1243D1*
X6105Y1226D1*
Y274D1*
X6104Y257D1*
X6101Y240D1*
X6097Y222D1*
X6090Y206D1*
X6082Y190D1*
X6073Y175D1*
X6061Y161D1*
X6049Y149D1*
X6035Y137D1*
X6020Y128D1*
X6004Y120D1*
X5988Y113D1*
X5970Y109D1*
X5953Y106D1*
X5936Y105D1*
X4984D1*
X4967Y106D1*
X4950Y109D1*
X4932Y113D1*
X4916Y120D1*
X4900Y128D1*
X4885Y137D1*
X4871Y149D1*
X4859Y161D1*
X4847Y175D1*
X4838Y190D1*
X4830Y206D1*
X4823Y222D1*
X4819Y240D1*
X4816Y257D1*
X4815Y274D1*
G37*
G36*
X4605D2*
Y1226D1*
X4604Y1243D1*
X4601Y1260D1*
X4597Y1278D1*
X4590Y1294D1*
X4582Y1310D1*
X4573Y1325D1*
X4561Y1339D1*
X4549Y1351D1*
X4535Y1363D1*
X4520Y1372D1*
X4504Y1380D1*
X4488Y1387D1*
X4470Y1391D1*
X4453Y1394D1*
X4436Y1395D1*
X3484D1*
X3467Y1394D1*
X3450Y1391D1*
X3432Y1387D1*
X3416Y1380D1*
X3400Y1372D1*
X3385Y1363D1*
X3371Y1351D1*
X3359Y1339D1*
X3347Y1325D1*
X3338Y1310D1*
X3330Y1294D1*
X3323Y1278D1*
X3319Y1260D1*
X3316Y1243D1*
X3315Y1226D1*
Y274D1*
X3316Y257D1*
X3319Y240D1*
X3323Y222D1*
X3330Y206D1*
X3338Y190D1*
X3347Y175D1*
X3359Y161D1*
X3371Y149D1*
X3385Y137D1*
X3400Y128D1*
X3416Y120D1*
X3432Y113D1*
X3450Y109D1*
X3467Y106D1*
X3484Y105D1*
X4436D1*
X4453Y106D1*
X4470Y109D1*
X4488Y113D1*
X4504Y120D1*
X4520Y128D1*
X4535Y137D1*
X4549Y149D1*
X4561Y161D1*
X4573Y175D1*
X4582Y190D1*
X4590Y206D1*
X4597Y222D1*
X4601Y240D1*
X4604Y257D1*
X4605Y274D1*
G37*
G36*
X8706Y8627D2*
X9534D1*
Y7799D1*
X8706D1*
Y8627D1*
G37*
G36*
X9530Y8696D2*
X8702D1*
Y9524D1*
X9530D1*
Y8696D1*
G37*
G36*
X76Y8637D2*
X904D1*
Y7809D1*
X76D1*
Y8637D1*
G37*
G36*
X900Y8706D2*
X72D1*
Y9534D1*
X900D1*
Y8706D1*
G37*
G36*
X9504Y993D2*
X8676D1*
Y1821D1*
X9504D1*
Y993D1*
G37*
G36*
X8680Y924D2*
X9508D1*
Y96D1*
X8680D1*
Y924D1*
G37*
G36*
X954Y1043D2*
X126D1*
Y1871D1*
X954D1*
Y1043D1*
G37*
G36*
X130Y974D2*
X958D1*
Y146D1*
X130D1*
Y974D1*
G37*
M02*
