M48
INCH
T01C0.01
T02C0.0197
T03C0.0434
T04C0.06
%
T01
X+003775Y+008175
X+003075Y+007975
X+002190Y+007497
X+002170Y+006750
X+002900Y+006250
X+002900Y+005950
X+003720Y+005905
X+003690Y+005660
X+003715Y+005335
X+004075Y+004625
X+003750Y+004325
X+004335Y+004230
X+004585Y+004330
X+004970Y+004530
X+004475Y+004900
X+004900Y+006200
X+004130Y+006560
X+003752Y+006623
X+004600Y+007680
X+004630Y+007940
X+004345Y+008797
X+004015Y+009127
X+004345Y+009437
X+004675Y+009127
X+005075Y+009407
X+005625Y+009407
X+005625Y+008832
X+005075Y+008832
X+005850Y+007225
X+006110Y+006490
X+007275Y+006460
X+007565Y+006623
X+007975Y+006390
X+009250Y+006350
X+009250Y+005350
X+009300Y+005100
X+009003Y+004248
X+008690Y+004248
X+008350Y+004175
X+008152Y+004350
X+007050Y+003700
X+006850Y+003600
X+007050Y+003475
X+008003Y+002935
X+008578Y+003048
X+008840Y+001685
X+008840Y+001485
X+009090Y+001485
X+009090Y+001685
X+009340Y+001685
X+009340Y+001485
X+009340Y+001185
X+008840Y+001185
X+007750Y+000675
X+007525Y+000675
X+007300Y+000675
X+007100Y+000675
X+007100Y+000450
X+007100Y+000200
X+007300Y+000200
X+007525Y+000200
X+007750Y+000200
X+007750Y+000425
X+005960Y+000500
X+005773Y+000438
X+005710Y+000250
X+005460Y+000250
X+005210Y+000250
X+005148Y+000438
X+004960Y+000500
X+004960Y+000250
X+004460Y+000250
X+004148Y+000250
X+003773Y+000250
X+003460Y+000250
X+003460Y+000563
X+003460Y+000938
X+003460Y+001250
X+003773Y+001250
X+004148Y+001250
X+004460Y+001250
X+004460Y+000938
X+004460Y+000563
X+004960Y+000750
X+004960Y+001000
X+005148Y+001063
X+005210Y+001250
X+004960Y+001250
X+005460Y+001250
X+005710Y+001250
X+005773Y+001063
X+005960Y+001000
X+005960Y+000750
X+005960Y+001250
X+005550Y+001775
X+005350Y+001775
X+005615Y+003185
X+005690Y+003685
X+006125Y+004100
X+006555Y+005100
X+006730Y+002240
X+005960Y+000250
X+003650Y+002600
X+003300Y+002600
X+002950Y+002600
X+002100Y+002900
X+001800Y+003050
X+001500Y+003150
X+000955Y+003450
X+000600Y+002475
X+000540Y+001735
X+000540Y+001535
X+000790Y+001535
X+000790Y+001735
X+000290Y+001735
X+000290Y+001535
X+000290Y+001235
X+000790Y+001235
X+001875Y+001200
X+001875Y+001425
X+002075Y+001425
X+002300Y+001425
X+002525Y+001425
X+002525Y+001200
X+002525Y+000950
X+002300Y+000950
X+002075Y+000950
X+001875Y+000950
X+002335Y+003650
X+002920Y+004720
X+004190Y+003185
X+000885Y+006120
X+000565Y+006440
X+000245Y+006120
X+000565Y+005800
X+000815Y+006873
X+000815Y+007372
X+000900Y+007650
X+000740Y+007945
X+000740Y+008145
X+000490Y+008145
X+000490Y+007945
X+000240Y+007945
X+000240Y+008145
X+000240Y+008445
X+000740Y+008445
X+000550Y+007650
X+000250Y+007650
X+000315Y+007372
X+000315Y+006873
X+001800Y+008975
X+002025Y+008975
X+002225Y+008975
X+002450Y+008950
X+002450Y+009200
X+002450Y+009425
X+002225Y+009425
X+002025Y+009425
X+001800Y+009425
X+001800Y+009200
X+007140Y+008755
X+007365Y+008755
X+007590Y+008755
X+007815Y+008755
X+007815Y+008530
X+007815Y+008280
X+007590Y+008280
X+007365Y+008280
X+007140Y+008280
X+007140Y+008530
X+007710Y+008030
X+008870Y+007935
X+008870Y+008135
X+009120Y+008135
X+009120Y+007935
X+009370Y+007935
X+009370Y+008135
X+009370Y+008435
X+008870Y+008435
T02
X+009120Y+008410
X+009116Y+008913
X+009090Y+001210
X+009094Y+000707
X+000544Y+000757
X+000540Y+001260
X+000490Y+008420
X+000486Y+008923
T03
X+000565Y+004123
X+000565Y+005123
X+000565Y+006123
X+000565Y+007123
X+003350Y+009120
X+004350Y+009120
X+005350Y+009120
X+006350Y+009120
T04
X+005460Y+000750
X+003960Y+000750
T00
M30
