G04 DipTrace Beta 2.3.5.2*
%INLulfroMiniBrush-v2.GBL*%
%MOIN*%
%ADD15C,0.005*%
%ADD39C,0.018*%
%FSLAX44Y44*%
G04*
G70*
G90*
G75*
G01*
%LNBottom*%
%LPD*%
D39*
X8578Y3048D3*
X600Y2475D3*
X7275Y6460D3*
X4970Y4530D3*
X4600Y7680D3*
X2920Y4720D3*
X6730Y2240D3*
X4130Y6560D3*
X3690Y5660D3*
X8152Y4350D3*
X4585Y4330D3*
X5850Y7225D3*
X3775Y8175D3*
X2170Y6750D3*
X6110Y6490D3*
X5690Y3685D3*
X8003Y2935D3*
X9300Y5100D3*
X955Y3450D3*
X2335Y3650D3*
X4190Y3185D3*
X5615D3*
X3752Y6623D3*
X9250Y6350D3*
X7975Y6390D3*
X5075Y9407D3*
X5625D3*
Y8832D3*
X5075D3*
X4630Y7940D3*
X7710Y8030D3*
X6850Y3600D3*
X3720Y5905D3*
X3075Y7975D3*
X9250Y5350D3*
X3715Y5335D3*
X6555Y5100D3*
X6125Y4100D3*
X8350Y4175D3*
X1800Y3050D3*
X4335Y4230D3*
X790Y1735D3*
X540D3*
X290D3*
Y1535D3*
X540D3*
X790D3*
Y1235D3*
X290D3*
X1800Y9425D3*
X2025D3*
X1800Y9200D3*
X1875Y950D3*
X2450Y8950D3*
X1800Y8975D3*
X7565Y6623D3*
X2025Y8975D3*
X240Y7945D3*
X490D3*
X740D3*
Y8145D3*
X490D3*
X240D3*
Y8445D3*
X740D3*
X8870Y7935D3*
X9120D3*
X9370D3*
Y8135D3*
X9120D3*
X8870D3*
Y8435D3*
X9370D3*
X9340Y1685D3*
X9090D3*
X8840D3*
Y1485D3*
X9090D3*
X9340D3*
Y1185D3*
X8840D3*
X2450Y9200D3*
X2225Y9425D3*
X2450D3*
X2225Y8975D3*
X1875Y1200D3*
X7100Y200D3*
Y450D3*
X2525Y1200D3*
X7750Y425D3*
X7100Y675D3*
X7525Y200D3*
X1875Y1425D3*
X7300Y200D3*
X7750Y675D3*
X7525D3*
X7300D3*
X7750Y200D3*
X3460Y938D3*
Y1250D3*
X3773D3*
X4148D3*
X4460D3*
Y938D3*
X3460Y563D3*
Y250D3*
X3773D3*
X4148D3*
X4460D3*
Y563D3*
X4960Y1250D3*
X5210D3*
X5460D3*
X5710D3*
X5960D3*
Y1000D3*
Y750D3*
Y500D3*
Y250D3*
X5710D3*
X5460D3*
X5210D3*
X4960D3*
Y500D3*
Y750D3*
Y1000D3*
X5773Y1063D3*
X5148D3*
Y438D3*
X5773D3*
X2900Y5950D3*
X7140Y8755D3*
X2900Y6250D3*
X4900Y6200D3*
X7365Y8755D3*
X7590D3*
X7815D3*
X2300Y950D3*
X7815Y8280D3*
X7590D3*
X2075Y950D3*
X7140Y8530D3*
Y8280D3*
X7365D3*
X7815Y8530D3*
X2525Y1425D3*
X2300D3*
X2075D3*
X2525Y950D3*
X5350Y1775D3*
X5550D3*
X2950Y2600D3*
X3300D3*
X3650D3*
X2100Y2900D3*
X1500Y3150D3*
X3750Y4325D3*
X4075Y4625D3*
X4475Y4900D3*
X8690Y4248D3*
X9003D3*
X7050Y3700D3*
Y3475D3*
X250Y7650D3*
X550D3*
X900D3*
X2190Y7497D3*
X315Y6873D3*
X815D3*
Y7372D3*
X315D3*
X565Y6440D3*
X885Y6120D3*
X565Y5800D3*
X245Y6120D3*
X962Y9396D2*
D15*
X1631D1*
X2620D2*
X2843D1*
X6856D2*
X8640D1*
X962Y9348D2*
X1647D1*
X2603D2*
X2843D1*
X6856D2*
X8640D1*
X962Y9299D2*
X1661D1*
X2589D2*
X2843D1*
X6856D2*
X8640D1*
X962Y9250D2*
X1636D1*
X2614D2*
X2843D1*
X6856D2*
X8640D1*
X962Y9202D2*
X1629D1*
X2622D2*
X2843D1*
X6856D2*
X8640D1*
X962Y9153D2*
X1635D1*
X2615D2*
X2843D1*
X6856D2*
X8640D1*
X962Y9104D2*
X1658D1*
X2592D2*
X2843D1*
X6856D2*
X8640D1*
X962Y9055D2*
X1649D1*
X2585D2*
X2843D1*
X6856D2*
X8640D1*
X962Y9007D2*
X1631D1*
X2612D2*
X2843D1*
X6856D2*
X8640D1*
X962Y8958D2*
X1629D1*
X2621D2*
X2843D1*
X6856D2*
X8640D1*
X962Y8909D2*
X1642D1*
X2617D2*
X2843D1*
X6856D2*
X7071D1*
X7208D2*
X7296D1*
X7433D2*
X7521D1*
X7658D2*
X7746D1*
X7883D2*
X8640D1*
X962Y8861D2*
X1673D1*
X2596D2*
X2843D1*
X6856D2*
X7006D1*
X7949D2*
X8640D1*
X962Y8812D2*
X1759D1*
X1841D2*
X1984D1*
X2066D2*
X2184D1*
X2266D2*
X2351D1*
X2549D2*
X2846D1*
X6854D2*
X6979D1*
X7977D2*
X8640D1*
X962Y8763D2*
X2858D1*
X6842D2*
X6968D1*
X7987D2*
X8640D1*
X960Y8715D2*
X2884D1*
X3816D2*
X3884D1*
X4816D2*
X4884D1*
X5816D2*
X5884D1*
X6816D2*
X6973D1*
X7982D2*
X8640D1*
X932Y8666D2*
X2931D1*
X3769D2*
X3931D1*
X4769D2*
X4931D1*
X5769D2*
X5931D1*
X6769D2*
X6994D1*
X7961D2*
X8659D1*
X160Y8617D2*
X6993D1*
X7962D2*
X9440D1*
X160Y8569D2*
X6973D1*
X7982D2*
X9440D1*
X160Y8520D2*
X6968D1*
X7987D2*
X9440D1*
X160Y8471D2*
X6979D1*
X7976D2*
X9440D1*
X160Y8423D2*
X7007D1*
X7948D2*
X9440D1*
X160Y8374D2*
X6997D1*
X7958D2*
X9440D1*
X160Y8325D2*
X3697D1*
X3853D2*
X6975D1*
X7981D2*
X9440D1*
X160Y8276D2*
X3638D1*
X3913D2*
X6968D1*
X7987D2*
X9440D1*
X160Y8228D2*
X3611D1*
X3939D2*
X6976D1*
X7978D2*
X9440D1*
X160Y8179D2*
X3604D1*
X3947D2*
X7002D1*
X7953D2*
X9440D1*
X160Y8130D2*
X3009D1*
X3141D2*
X3609D1*
X3941D2*
X7061D1*
X7219D2*
X7286D1*
X7444D2*
X7511D1*
X7894D2*
X9440D1*
X160Y8082D2*
X2942D1*
X3208D2*
X3632D1*
X3918D2*
X4537D1*
X4723D2*
X7546D1*
X7874D2*
X9440D1*
X160Y8033D2*
X2914D1*
X3236D2*
X3682D1*
X3867D2*
X4486D1*
X4774D2*
X7538D1*
X7881D2*
X9440D1*
X160Y7984D2*
X2904D1*
X3246D2*
X4464D1*
X4796D2*
X7544D1*
X7875D2*
X9440D1*
X160Y7936D2*
X2908D1*
X3242D2*
X4458D1*
X4802D2*
X7568D1*
X7853D2*
X9440D1*
X160Y7887D2*
X2929D1*
X3222D2*
X4467D1*
X4793D2*
X7619D1*
X7801D2*
X9440D1*
X160Y7838D2*
X2975D1*
X3176D2*
X4493D1*
X4767D2*
X9440D1*
X346Y7790D2*
X454D1*
X646D2*
X804D1*
X996D2*
X4469D1*
X4731D2*
X9440D1*
X695Y7741D2*
X755D1*
X1045D2*
X4439D1*
X4760D2*
X9440D1*
X1067Y7692D2*
X4429D1*
X4771D2*
X9440D1*
X1072Y7644D2*
X2104D1*
X2276D2*
X4432D1*
X4768D2*
X9440D1*
X1063Y7595D2*
X2050D1*
X2331D2*
X4451D1*
X4749D2*
X9440D1*
X1035Y7546D2*
X2025D1*
X2355D2*
X4495D1*
X4705D2*
X9440D1*
X1049Y7497D2*
X2018D1*
X2362D2*
X9440D1*
X1066Y7449D2*
X2025D1*
X2355D2*
X9440D1*
X1072Y7400D2*
X2050D1*
X2331D2*
X9440D1*
X1072Y7351D2*
X2104D1*
X2276D2*
X5736D1*
X5964D2*
X9440D1*
X1072Y7303D2*
X5697D1*
X6003D2*
X9440D1*
X1072Y7254D2*
X5681D1*
X6019D2*
X9440D1*
X1072Y7205D2*
X5679D1*
X6021D2*
X9440D1*
X1072Y7157D2*
X5693D1*
X6007D2*
X9440D1*
X1072Y7108D2*
X5726D1*
X5974D2*
X9440D1*
X1072Y7059D2*
X5825D1*
X5875D2*
X9440D1*
X1072Y7011D2*
X9440D1*
X1072Y6962D2*
X9440D1*
X1072Y6913D2*
X2130D1*
X2210D2*
X9440D1*
X1072Y6865D2*
X2043D1*
X2296D2*
X9440D1*
X1070Y6816D2*
X2011D1*
X2328D2*
X9440D1*
X1057Y6767D2*
X1999D1*
X2341D2*
X3664D1*
X3841D2*
X7477D1*
X7653D2*
X9440D1*
X1031Y6718D2*
X2001D1*
X2339D2*
X3611D1*
X3894D2*
X4073D1*
X4187D2*
X7424D1*
X7706D2*
X9440D1*
X985Y6670D2*
X2018D1*
X2321D2*
X3587D1*
X3917D2*
X4000D1*
X4260D2*
X7400D1*
X7730D2*
X9440D1*
X882Y6621D2*
X2059D1*
X2281D2*
X3581D1*
X3924D2*
X3970D1*
X4290D2*
X6002D1*
X6218D2*
X7226D1*
X7324D2*
X7393D1*
X7737D2*
X9440D1*
X989Y6572D2*
X3589D1*
X3917D2*
X3959D1*
X4301D2*
X5960D1*
X6260D2*
X7146D1*
X7729D2*
X9440D1*
X1033Y6524D2*
X3613D1*
X3892D2*
X3962D1*
X4298D2*
X5942D1*
X6278D2*
X7116D1*
X7704D2*
X7870D1*
X8080D2*
X9440D1*
X1058Y6475D2*
X3669D1*
X3835D2*
X3982D1*
X4278D2*
X5939D1*
X6281D2*
X7104D1*
X7446D2*
X7482D1*
X7648D2*
X7826D1*
X8124D2*
X9135D1*
X9366D2*
X9440D1*
X1070Y6426D2*
X4025D1*
X4235D2*
X5950D1*
X6269D2*
X7107D1*
X7443D2*
X7807D1*
X8143D2*
X9096D1*
X9403D2*
X9440D1*
X1072Y6378D2*
X2788D1*
X3013D2*
X5982D1*
X6239D2*
X7125D1*
X7425D2*
X7804D1*
X8146D2*
X9080D1*
X1072Y6329D2*
X2748D1*
X3052D2*
X4789D1*
X5011D2*
X6061D1*
X6159D2*
X7167D1*
X7383D2*
X7814D1*
X8135D2*
X9079D1*
X1072Y6280D2*
X2731D1*
X3069D2*
X4749D1*
X5051D2*
X7844D1*
X8106D2*
X9093D1*
X9406D2*
X9440D1*
X1072Y6232D2*
X2729D1*
X3071D2*
X4731D1*
X5069D2*
X7918D1*
X8032D2*
X9128D1*
X9373D2*
X9440D1*
X1072Y6183D2*
X2743D1*
X3058D2*
X4729D1*
X5071D2*
X9440D1*
X1072Y6134D2*
X2775D1*
X3025D2*
X4742D1*
X5058D2*
X9440D1*
X1072Y6086D2*
X2798D1*
X3003D2*
X4774D1*
X5027D2*
X9440D1*
X1072Y6037D2*
X2753D1*
X3047D2*
X3613D1*
X3828D2*
X4860D1*
X4940D2*
X9440D1*
X1072Y5988D2*
X2732D1*
X3067D2*
X3571D1*
X3870D2*
X9440D1*
X1072Y5939D2*
X2729D1*
X3071D2*
X3552D1*
X3889D2*
X9440D1*
X1072Y5891D2*
X2739D1*
X3061D2*
X3549D1*
X3892D2*
X9440D1*
X1071Y5842D2*
X2768D1*
X3032D2*
X3561D1*
X3880D2*
X9440D1*
X1065Y5793D2*
X2837D1*
X2963D2*
X3585D1*
X3849D2*
X9440D1*
X1047Y5745D2*
X3541D1*
X3839D2*
X9440D1*
X1014Y5696D2*
X3522D1*
X3858D2*
X9440D1*
X952Y5647D2*
X3518D1*
X3861D2*
X9440D1*
X949Y5599D2*
X3530D1*
X3850D2*
X9440D1*
X1013Y5550D2*
X3560D1*
X3821D2*
X9440D1*
X1046Y5501D2*
X3633D1*
X3746D2*
X9175D1*
X9325D2*
X9440D1*
X1065Y5453D2*
X3592D1*
X3839D2*
X9114D1*
X9387D2*
X9440D1*
X1071Y5404D2*
X3558D1*
X3872D2*
X9087D1*
X9413D2*
X9440D1*
X1072Y5355D2*
X3544D1*
X3885D2*
X9079D1*
X1072Y5307D2*
X3546D1*
X3885D2*
X9084D1*
X1072Y5258D2*
X3562D1*
X3868D2*
X6496D1*
X6614D2*
X9106D1*
X9394D2*
X9440D1*
X1072Y5209D2*
X3600D1*
X3830D2*
X6424D1*
X6686D2*
X9156D1*
X1072Y5160D2*
X6394D1*
X6716D2*
X9139D1*
X1072Y5112D2*
X6383D1*
X6727D2*
X9129D1*
X1072Y5063D2*
X4435D1*
X4515D2*
X6387D1*
X6723D2*
X9132D1*
X1072Y5014D2*
X4349D1*
X4602D2*
X6407D1*
X6703D2*
X9152D1*
X1072Y4966D2*
X4317D1*
X4633D2*
X6451D1*
X6659D2*
X9196D1*
X9404D2*
X9440D1*
X1072Y4917D2*
X4304D1*
X4646D2*
X9440D1*
X1072Y4868D2*
X2839D1*
X3001D2*
X4306D1*
X4644D2*
X9440D1*
X1070Y4820D2*
X2781D1*
X3059D2*
X4324D1*
X4626D2*
X9440D1*
X1058Y4771D2*
X2756D1*
X3084D2*
X3989D1*
X4161D2*
X4364D1*
X4586D2*
X9440D1*
X1034Y4722D2*
X2748D1*
X3092D2*
X3935D1*
X4216D2*
X9440D1*
X990Y4674D2*
X2755D1*
X3085D2*
X3911D1*
X4239D2*
X4880D1*
X5060D2*
X9440D1*
X889Y4625D2*
X2778D1*
X3062D2*
X3904D1*
X4247D2*
X4828D1*
X5112D2*
X9440D1*
X985Y4576D2*
X2830D1*
X3010D2*
X3911D1*
X4239D2*
X4804D1*
X5135D2*
X9440D1*
X1031Y4528D2*
X3935D1*
X4215D2*
X4798D1*
X5142D2*
X9440D1*
X1056Y4479D2*
X3680D1*
X3820D2*
X3989D1*
X4160D2*
X4504D1*
X4665D2*
X4806D1*
X5134D2*
X8041D1*
X8264D2*
X9440D1*
X1069Y4430D2*
X3615D1*
X3885D2*
X4446D1*
X4724D2*
X4832D1*
X5109D2*
X8001D1*
X8303D2*
X9440D1*
X1072Y4381D2*
X3588D1*
X3912D2*
X4260D1*
X4749D2*
X4889D1*
X5051D2*
X7983D1*
X8321D2*
X8586D1*
X8795D2*
X8898D1*
X9107D2*
X9440D1*
X1072Y4333D2*
X3579D1*
X3921D2*
X4199D1*
X4756D2*
X7982D1*
X8410D2*
X8542D1*
X9151D2*
X9440D1*
X1072Y4284D2*
X3583D1*
X3917D2*
X4172D1*
X4750D2*
X7994D1*
X8481D2*
X8522D1*
X9171D2*
X9440D1*
X1072Y4235D2*
X3604D1*
X3896D2*
X4163D1*
X4728D2*
X6022D1*
X6228D2*
X8026D1*
X9174D2*
X9440D1*
X1072Y4187D2*
X3652D1*
X3849D2*
X4169D1*
X4675D2*
X5978D1*
X6273D2*
X8113D1*
X9163D2*
X9440D1*
X1072Y4138D2*
X4191D1*
X4479D2*
X5957D1*
X6292D2*
X8182D1*
X8517D2*
X8559D1*
X8821D2*
X8871D1*
X9134D2*
X9440D1*
X1072Y4089D2*
X4240D1*
X4430D2*
X5954D1*
X6296D2*
X8202D1*
X8498D2*
X8632D1*
X8748D2*
X8944D1*
X9060D2*
X9440D1*
X1072Y4041D2*
X5964D1*
X6286D2*
X8246D1*
X8454D2*
X9440D1*
X1072Y3992D2*
X5993D1*
X6257D2*
X9440D1*
X1072Y3943D2*
X6063D1*
X6188D2*
X9440D1*
X1072Y3895D2*
X9440D1*
X1072Y3846D2*
X5641D1*
X5739D2*
X6964D1*
X7136D2*
X9440D1*
X1066Y3797D2*
X2251D1*
X2418D2*
X5561D1*
X5818D2*
X6910D1*
X7191D2*
X9440D1*
X1049Y3749D2*
X2196D1*
X2474D2*
X5531D1*
X5849D2*
X6769D1*
X7214D2*
X9440D1*
X1017Y3700D2*
X2171D1*
X2499D2*
X5519D1*
X5861D2*
X6711D1*
X7222D2*
X9440D1*
X959Y3651D2*
X2163D1*
X2506D2*
X5521D1*
X5858D2*
X6686D1*
X7214D2*
X9440D1*
X160Y3602D2*
X882D1*
X1028D2*
X2170D1*
X2500D2*
X5540D1*
X5840D2*
X6679D1*
X7190D2*
X9440D1*
X160Y3554D2*
X819D1*
X1091D2*
X2193D1*
X2476D2*
X5582D1*
X5798D2*
X6685D1*
X7202D2*
X9440D1*
X160Y3505D2*
X793D1*
X1117D2*
X2247D1*
X2423D2*
X6707D1*
X7219D2*
X9440D1*
X160Y3456D2*
X783D1*
X1127D2*
X6760D1*
X7221D2*
X9440D1*
X160Y3408D2*
X789D1*
X1121D2*
X6893D1*
X7208D2*
X9440D1*
X160Y3359D2*
X810D1*
X1100D2*
X6925D1*
X7175D2*
X9440D1*
X160Y3310D2*
X859D1*
X1051D2*
X1449D1*
X1551D2*
X4075D1*
X4305D2*
X5500D1*
X5730D2*
X7018D1*
X7082D2*
X9440D1*
X160Y3262D2*
X1371D1*
X1629D2*
X4037D1*
X4343D2*
X5462D1*
X5768D2*
X9440D1*
X160Y3213D2*
X1340D1*
X1660D2*
X1759D1*
X1841D2*
X4021D1*
X4360D2*
X5446D1*
X5785D2*
X8551D1*
X8605D2*
X9440D1*
X160Y3164D2*
X1329D1*
X1927D2*
X4019D1*
X4360D2*
X5444D1*
X5785D2*
X8454D1*
X8702D2*
X9440D1*
X160Y3116D2*
X1332D1*
X1958D2*
X4033D1*
X4347D2*
X5458D1*
X5772D2*
X8420D1*
X8735D2*
X9440D1*
X160Y3067D2*
X1350D1*
X1971D2*
X4067D1*
X4313D2*
X5492D1*
X5738D2*
X7896D1*
X8110D2*
X8407D1*
X8748D2*
X9440D1*
X160Y3018D2*
X1393D1*
X2223D2*
X7853D1*
X8152D2*
X8408D1*
X8747D2*
X9440D1*
X160Y2970D2*
X1649D1*
X2256D2*
X7834D1*
X8171D2*
X8425D1*
X8730D2*
X9440D1*
X160Y2921D2*
X1689D1*
X2271D2*
X7831D1*
X8174D2*
X8464D1*
X8691D2*
X9440D1*
X160Y2872D2*
X1931D1*
X2270D2*
X7843D1*
X8162D2*
X9440D1*
X160Y2823D2*
X1946D1*
X2253D2*
X7873D1*
X8131D2*
X9440D1*
X160Y2775D2*
X1985D1*
X2215D2*
X7951D1*
X8054D2*
X9440D1*
X160Y2726D2*
X2836D1*
X3064D2*
X3186D1*
X3414D2*
X3536D1*
X3764D2*
X9440D1*
X160Y2677D2*
X2797D1*
X3103D2*
X3147D1*
X3453D2*
X3497D1*
X3803D2*
X9440D1*
X160Y2629D2*
X530D1*
X670D2*
X2781D1*
X3820D2*
X9440D1*
X160Y2580D2*
X465D1*
X735D2*
X2779D1*
X3821D2*
X9440D1*
X160Y2531D2*
X438D1*
X762D2*
X2793D1*
X3107D2*
X3143D1*
X3457D2*
X3493D1*
X3807D2*
X9440D1*
X160Y2483D2*
X429D1*
X771D2*
X2826D1*
X3074D2*
X3176D1*
X3424D2*
X3526D1*
X3774D2*
X9440D1*
X160Y2434D2*
X433D1*
X767D2*
X2929D1*
X2971D2*
X3279D1*
X3321D2*
X3629D1*
X3671D2*
X9440D1*
X160Y2385D2*
X454D1*
X746D2*
X6643D1*
X6817D2*
X9440D1*
X160Y2337D2*
X502D1*
X698D2*
X6589D1*
X6871D2*
X9440D1*
X160Y2288D2*
X6565D1*
X6895D2*
X9440D1*
X160Y2239D2*
X6558D1*
X6902D2*
X9440D1*
X160Y2191D2*
X6566D1*
X6894D2*
X9440D1*
X160Y2142D2*
X6590D1*
X6870D2*
X9440D1*
X160Y2093D2*
X6646D1*
X6814D2*
X9440D1*
X160Y2044D2*
X9440D1*
X160Y1996D2*
X9440D1*
X160Y1947D2*
X9440D1*
X160Y1898D2*
X5232D1*
X5667D2*
X9440D1*
X160Y1850D2*
X5196D1*
X5704D2*
X9440D1*
X160Y1801D2*
X5180D1*
X5720D2*
X9440D1*
X160Y1752D2*
X5179D1*
X5721D2*
X9440D1*
X160Y1704D2*
X5194D1*
X5706D2*
X9440D1*
X160Y1655D2*
X5229D1*
X5671D2*
X9440D1*
X160Y1606D2*
X9440D1*
X160Y1558D2*
X1768D1*
X2631D2*
X9440D1*
X160Y1509D2*
X1725D1*
X2674D2*
X9440D1*
X160Y1460D2*
X1707D1*
X2693D2*
X9440D1*
X160Y1412D2*
X1704D1*
X2696D2*
X3351D1*
X4569D2*
X9440D1*
X160Y1363D2*
X1715D1*
X2685D2*
X3300D1*
X4620D2*
X9440D1*
X160Y1314D2*
X1745D1*
X2655D2*
X3271D1*
X4649D2*
X9440D1*
X160Y1265D2*
X1717D1*
X2684D2*
X3257D1*
X4663D2*
X9440D1*
X160Y1217D2*
X1704D1*
X2696D2*
X3254D1*
X4667D2*
X9440D1*
X160Y1168D2*
X1706D1*
X2694D2*
X3254D1*
X4667D2*
X9440D1*
X160Y1119D2*
X1724D1*
X2676D2*
X3254D1*
X4667D2*
X9440D1*
X160Y1071D2*
X1755D1*
X2646D2*
X3254D1*
X4667D2*
X9440D1*
X978Y1022D2*
X1719D1*
X2681D2*
X3254D1*
X4667D2*
X9440D1*
X1017Y973D2*
X1705D1*
X2696D2*
X3254D1*
X4667D2*
X8663D1*
X1020Y925D2*
X1705D1*
X2695D2*
X3254D1*
X4667D2*
X8621D1*
X1020Y876D2*
X1721D1*
X2680D2*
X3254D1*
X4667D2*
X8618D1*
X1020Y827D2*
X1757D1*
X2643D2*
X3254D1*
X4667D2*
X7027D1*
X7173D2*
X7227D1*
X7373D2*
X7452D1*
X7598D2*
X7677D1*
X7823D2*
X8618D1*
X1020Y779D2*
X3254D1*
X4667D2*
X6964D1*
X7886D2*
X8618D1*
X1020Y730D2*
X3254D1*
X4667D2*
X6937D1*
X7913D2*
X8618D1*
X1020Y681D2*
X3254D1*
X4667D2*
X6929D1*
X7922D2*
X8618D1*
X1020Y633D2*
X3254D1*
X4667D2*
X6934D1*
X7917D2*
X8618D1*
X1020Y584D2*
X3254D1*
X4667D2*
X6955D1*
X7895D2*
X8618D1*
X1020Y535D2*
X3254D1*
X4667D2*
X6951D1*
X7881D2*
X8618D1*
X1020Y486D2*
X3254D1*
X4667D2*
X6932D1*
X7910D2*
X8618D1*
X1020Y438D2*
X3254D1*
X4667D2*
X6929D1*
X7921D2*
X8618D1*
X1020Y389D2*
X3254D1*
X4667D2*
X6939D1*
X7918D2*
X8618D1*
X1020Y340D2*
X3254D1*
X4667D2*
X6969D1*
X7899D2*
X8618D1*
X1020Y292D2*
X3254D1*
X4667D2*
X6956D1*
X7895D2*
X8618D1*
X1020Y243D2*
X3256D1*
X4664D2*
X6934D1*
X7916D2*
X8618D1*
X1020Y194D2*
X3268D1*
X4652D2*
X6929D1*
X7922D2*
X8618D1*
X4850Y8816D2*
X4846Y8794D1*
X4840Y8771D1*
X4831Y8749D1*
X4819Y8728D1*
X4806Y8708D1*
X4791Y8690D1*
X4774Y8674D1*
X4755Y8659D1*
X4735Y8646D1*
X4714Y8636D1*
X4691Y8628D1*
X4668Y8622D1*
X4645Y8619D1*
X4575Y8618D1*
X4055Y8619D1*
X4032Y8622D1*
X4009Y8628D1*
X3986Y8636D1*
X3965Y8646D1*
X3945Y8659D1*
X3926Y8674D1*
X3909Y8690D1*
X3894Y8708D1*
X3881Y8728D1*
X3869Y8749D1*
X3860Y8771D1*
X3854Y8794D1*
X3850Y8815D1*
Y8814D1*
X3846Y8794D1*
X3842Y8779D1*
X3834Y8756D1*
X3824Y8735D1*
X3811Y8715D1*
X3796Y8696D1*
X3780Y8679D1*
X3762Y8664D1*
X3742Y8651D1*
X3721Y8639D1*
X3699Y8630D1*
X3676Y8624D1*
X3653Y8620D1*
X3625Y8618D1*
X3055Y8619D1*
X3032Y8622D1*
X3009Y8628D1*
X2986Y8636D1*
X2965Y8646D1*
X2945Y8659D1*
X2926Y8674D1*
X2909Y8690D1*
X2894Y8708D1*
X2881Y8728D1*
X2869Y8749D1*
X2860Y8771D1*
X2854Y8794D1*
X2850Y8817D1*
X2848Y8845D1*
X2849Y9415D1*
X2854Y9445D1*
X2616D1*
X2617Y9425D1*
X2615Y9400D1*
X2610Y9376D1*
X2600Y9352D1*
X2588Y9331D1*
X2573Y9312D1*
X2588Y9294D1*
X2601Y9272D1*
X2610Y9249D1*
X2615Y9224D1*
X2617Y9200D1*
X2615Y9175D1*
X2610Y9151D1*
X2600Y9127D1*
X2588Y9106D1*
X2572Y9086D1*
X2560Y9075D1*
X2573Y9063D1*
X2588Y9044D1*
X2601Y9022D1*
X2610Y8999D1*
X2615Y8974D1*
X2617Y8950D1*
X2615Y8925D1*
X2610Y8901D1*
X2600Y8877D1*
X2588Y8856D1*
X2572Y8836D1*
X2554Y8819D1*
X2533Y8805D1*
X2511Y8794D1*
X2487Y8787D1*
X2462Y8783D1*
X2437D1*
X2413Y8787D1*
X2389Y8795D1*
X2366Y8805D1*
X2346Y8820D1*
X2324Y8841D1*
X2308Y8830D1*
X2286Y8819D1*
X2262Y8812D1*
X2237Y8808D1*
X2212D1*
X2188Y8812D1*
X2164Y8820D1*
X2141Y8830D1*
X2125Y8842D1*
X2108Y8830D1*
X2086Y8819D1*
X2062Y8812D1*
X2037Y8808D1*
X2012D1*
X1988Y8812D1*
X1964Y8820D1*
X1941Y8830D1*
X1913Y8852D1*
X1883Y8830D1*
X1861Y8819D1*
X1837Y8812D1*
X1812Y8808D1*
X1787D1*
X1763Y8812D1*
X1739Y8820D1*
X1716Y8830D1*
X1696Y8845D1*
X1677Y8862D1*
X1662Y8881D1*
X1649Y8903D1*
X1640Y8926D1*
X1635Y8950D1*
X1633Y8975D1*
X1635Y9000D1*
X1641Y9025D1*
X1650Y9048D1*
X1662Y9069D1*
X1676Y9087D1*
X1662Y9106D1*
X1649Y9128D1*
X1640Y9151D1*
X1635Y9175D1*
X1633Y9200D1*
X1635Y9225D1*
X1641Y9250D1*
X1650Y9273D1*
X1662Y9294D1*
X1676Y9312D1*
X1662Y9331D1*
X1649Y9353D1*
X1640Y9376D1*
X1635Y9400D1*
X1633Y9425D1*
X1635Y9445D1*
X957D1*
Y8726D1*
X953Y8702D1*
X941Y8680D1*
X923Y8663D1*
X900Y8652D1*
X880Y8649D1*
X156D1*
X155Y8495D1*
Y7786D1*
X167Y7795D1*
X189Y7806D1*
X213Y7813D1*
X238Y7817D1*
X263Y7816D1*
X288Y7813D1*
X312Y7805D1*
X334Y7794D1*
X355Y7780D1*
X373Y7763D1*
X388Y7744D1*
X400Y7723D1*
X412Y7744D1*
X428Y7764D1*
X446Y7781D1*
X467Y7795D1*
X489Y7806D1*
X513Y7813D1*
X538Y7817D1*
X563Y7816D1*
X588Y7813D1*
X612Y7805D1*
X634Y7794D1*
X655Y7780D1*
X673Y7763D1*
X688Y7744D1*
X701Y7722D1*
X710Y7699D1*
X715Y7674D1*
X717Y7650D1*
X715Y7625D1*
X735D1*
X733Y7650D1*
X735Y7675D1*
X741Y7700D1*
X750Y7723D1*
X762Y7744D1*
X778Y7764D1*
X796Y7781D1*
X817Y7795D1*
X839Y7806D1*
X863Y7813D1*
X888Y7817D1*
X913Y7816D1*
X938Y7813D1*
X962Y7805D1*
X984Y7794D1*
X1005Y7780D1*
X1023Y7763D1*
X1038Y7744D1*
X1051Y7722D1*
X1060Y7699D1*
X1065Y7674D1*
X1067Y7650D1*
X1065Y7625D1*
X1060Y7601D1*
X1050Y7577D1*
X1038Y7556D1*
X1021Y7534D1*
X1034Y7514D1*
X1046Y7493D1*
X1055Y7471D1*
X1063Y7437D1*
X1066Y7414D1*
X1067Y7373D1*
X1066Y6828D1*
X1063Y6804D1*
X1057Y6781D1*
X1049Y6759D1*
X1039Y6738D1*
X1026Y6717D1*
X1011Y6699D1*
X995Y6682D1*
X977Y6666D1*
X957Y6653D1*
X936Y6642D1*
X914Y6633D1*
X891Y6626D1*
X870Y6622D1*
X871Y6623D1*
X891Y6619D1*
X914Y6612D1*
X936Y6603D1*
X957Y6592D1*
X977Y6579D1*
X995Y6563D1*
X1011Y6546D1*
X1026Y6528D1*
X1039Y6507D1*
X1049Y6486D1*
X1061Y6449D1*
X1065Y6425D1*
X1067Y6398D1*
X1066Y5828D1*
X1063Y5804D1*
X1057Y5781D1*
X1049Y5759D1*
X1039Y5738D1*
X1026Y5717D1*
X1011Y5699D1*
X995Y5682D1*
X977Y5666D1*
X957Y5653D1*
X936Y5642D1*
X914Y5633D1*
X891Y5626D1*
X870Y5622D1*
X871Y5623D1*
X891Y5619D1*
X906Y5615D1*
X929Y5606D1*
X950Y5596D1*
X970Y5583D1*
X989Y5569D1*
X1006Y5552D1*
X1021Y5534D1*
X1034Y5514D1*
X1046Y5493D1*
X1055Y5471D1*
X1063Y5437D1*
X1066Y5414D1*
X1067Y5373D1*
X1066Y4828D1*
X1063Y4804D1*
X1057Y4781D1*
X1049Y4759D1*
X1039Y4738D1*
X1026Y4717D1*
X1011Y4699D1*
X995Y4682D1*
X977Y4666D1*
X957Y4653D1*
X936Y4642D1*
X914Y4633D1*
X891Y4626D1*
X870Y4622D1*
X871Y4623D1*
X891Y4619D1*
X906Y4615D1*
X929Y4606D1*
X950Y4596D1*
X970Y4583D1*
X989Y4569D1*
X1006Y4552D1*
X1021Y4534D1*
X1034Y4514D1*
X1046Y4493D1*
X1055Y4471D1*
X1063Y4437D1*
X1066Y4414D1*
X1067Y4373D1*
X1066Y3828D1*
X1063Y3804D1*
X1057Y3781D1*
X1049Y3759D1*
X1039Y3738D1*
X1026Y3717D1*
X1011Y3699D1*
X995Y3682D1*
X977Y3666D1*
X957Y3653D1*
X936Y3642D1*
X914Y3633D1*
X891Y3626D1*
X868Y3622D1*
X840Y3621D1*
X270D1*
X247Y3625D1*
X224Y3630D1*
X201Y3639D1*
X180Y3649D1*
X161Y3661D1*
X155Y3665D1*
X154Y1031D1*
X938D1*
X962Y1027D1*
X984Y1015D1*
X1001Y997D1*
X1012Y974D1*
X1015Y954D1*
X1014Y161D1*
X1030Y155D1*
X3293D1*
X3279Y179D1*
X3270Y201D1*
X3264Y224D1*
X3260Y247D1*
X3258Y275D1*
X3259Y1245D1*
X3262Y1268D1*
X3268Y1291D1*
X3276Y1314D1*
X3286Y1335D1*
X3299Y1355D1*
X3314Y1374D1*
X3330Y1391D1*
X3348Y1406D1*
X3368Y1419D1*
X3389Y1431D1*
X3411Y1440D1*
X3434Y1446D1*
X3457Y1450D1*
X3485Y1452D1*
X4455Y1451D1*
X4478Y1448D1*
X4501Y1442D1*
X4524Y1434D1*
X4545Y1424D1*
X4565Y1411D1*
X4584Y1396D1*
X4601Y1380D1*
X4616Y1362D1*
X4629Y1342D1*
X4641Y1321D1*
X4650Y1299D1*
X4658Y1265D1*
X4661Y1241D1*
X4662Y1200D1*
X4661Y255D1*
X4658Y232D1*
X4652Y209D1*
X4644Y186D1*
X4634Y165D1*
X4628Y155D1*
X5530D1*
X6939D1*
X6933Y200D1*
X6935Y225D1*
X6941Y250D1*
X6950Y273D1*
X6962Y294D1*
X6978Y314D1*
X6990Y325D1*
X6977Y337D1*
X6962Y356D1*
X6949Y378D1*
X6940Y401D1*
X6935Y425D1*
X6933Y450D1*
X6935Y475D1*
X6941Y500D1*
X6950Y523D1*
X6962Y544D1*
X6976Y562D1*
X6962Y581D1*
X6949Y603D1*
X6940Y626D1*
X6935Y650D1*
X6933Y675D1*
X6935Y700D1*
X6941Y725D1*
X6950Y748D1*
X6962Y769D1*
X6978Y789D1*
X6996Y806D1*
X7017Y820D1*
X7039Y831D1*
X7063Y838D1*
X7088Y842D1*
X7113Y841D1*
X7138Y838D1*
X7162Y830D1*
X7184Y819D1*
X7200Y808D1*
X7217Y820D1*
X7239Y831D1*
X7263Y838D1*
X7288Y842D1*
X7313Y841D1*
X7338Y838D1*
X7362Y830D1*
X7384Y819D1*
X7412Y798D1*
X7442Y820D1*
X7464Y831D1*
X7488Y838D1*
X7513Y842D1*
X7538Y841D1*
X7563Y838D1*
X7587Y830D1*
X7609Y819D1*
X7637Y798D1*
X7667Y820D1*
X7689Y831D1*
X7713Y838D1*
X7738Y842D1*
X7763Y841D1*
X7788Y838D1*
X7812Y830D1*
X7834Y819D1*
X7855Y805D1*
X7873Y788D1*
X7888Y769D1*
X7901Y747D1*
X7910Y724D1*
X7915Y699D1*
X7917Y675D1*
X7915Y650D1*
X7910Y626D1*
X7900Y602D1*
X7888Y581D1*
X7872Y561D1*
X7860Y550D1*
X7873Y538D1*
X7888Y519D1*
X7901Y497D1*
X7910Y474D1*
X7915Y449D1*
X7917Y425D1*
X7915Y400D1*
X7910Y376D1*
X7900Y352D1*
X7888Y331D1*
X7873Y312D1*
X7888Y294D1*
X7901Y272D1*
X7910Y249D1*
X7915Y224D1*
X7917Y200D1*
X7915Y175D1*
X7910Y155D1*
X8405D1*
X8623D1*
Y904D1*
X8627Y928D1*
X8639Y950D1*
X8657Y967D1*
X8680Y978D1*
X8700Y981D1*
X9445D1*
Y5017D1*
X9422Y4986D1*
X9404Y4969D1*
X9383Y4955D1*
X9361Y4944D1*
X9337Y4937D1*
X9312Y4933D1*
X9287D1*
X9263Y4937D1*
X9239Y4945D1*
X9216Y4955D1*
X9196Y4970D1*
X9177Y4987D1*
X9162Y5006D1*
X9149Y5028D1*
X9140Y5051D1*
X9135Y5075D1*
X9133Y5100D1*
X9135Y5125D1*
X9141Y5150D1*
X9150Y5173D1*
X9170Y5204D1*
X9146Y5220D1*
X9127Y5237D1*
X9112Y5256D1*
X9099Y5278D1*
X9090Y5301D1*
X9085Y5325D1*
X9083Y5350D1*
X9085Y5375D1*
X9091Y5400D1*
X9100Y5423D1*
X9112Y5444D1*
X9128Y5464D1*
X9146Y5481D1*
X9167Y5495D1*
X9189Y5506D1*
X9213Y5513D1*
X9238Y5517D1*
X9263Y5516D1*
X9288Y5513D1*
X9312Y5505D1*
X9334Y5494D1*
X9355Y5480D1*
X9373Y5463D1*
X9388Y5444D1*
X9401Y5422D1*
X9410Y5399D1*
X9415Y5374D1*
X9417Y5350D1*
X9415Y5325D1*
X9410Y5301D1*
X9400Y5277D1*
X9381Y5247D1*
X9405Y5230D1*
X9423Y5213D1*
X9438Y5194D1*
X9445Y5182D1*
Y8640D1*
X9360Y8639D1*
X8722D1*
X8698Y8643D1*
X8676Y8655D1*
X8659Y8673D1*
X8648Y8696D1*
X8645Y8716D1*
Y9445D1*
X6846D1*
X6850Y9423D1*
X6852Y9395D1*
X6851Y8825D1*
X6848Y8802D1*
X6842Y8779D1*
X6834Y8756D1*
X6824Y8735D1*
X6811Y8715D1*
X6796Y8696D1*
X6780Y8679D1*
X6762Y8664D1*
X6742Y8651D1*
X6721Y8639D1*
X6699Y8630D1*
X6676Y8624D1*
X6653Y8620D1*
X6625Y8618D1*
X6055Y8619D1*
X6032Y8622D1*
X6009Y8628D1*
X5986Y8636D1*
X5965Y8646D1*
X5945Y8659D1*
X5926Y8674D1*
X5909Y8690D1*
X5894Y8708D1*
X5881Y8728D1*
X5869Y8749D1*
X5860Y8771D1*
X5854Y8794D1*
X5850Y8815D1*
Y8814D1*
X5846Y8794D1*
X5840Y8771D1*
X5831Y8749D1*
X5819Y8728D1*
X5806Y8708D1*
X5791Y8690D1*
X5774Y8674D1*
X5755Y8659D1*
X5735Y8646D1*
X5714Y8636D1*
X5691Y8628D1*
X5668Y8622D1*
X5645Y8619D1*
X5575Y8618D1*
X5055Y8619D1*
X5032Y8622D1*
X5009Y8628D1*
X4986Y8636D1*
X4965Y8646D1*
X4945Y8659D1*
X4926Y8674D1*
X4909Y8690D1*
X4894Y8708D1*
X4881Y8728D1*
X4869Y8749D1*
X4860Y8771D1*
X4854Y8794D1*
X4851Y8812D1*
X3940Y8150D2*
X3935Y8126D1*
X3925Y8102D1*
X3913Y8081D1*
X3897Y8061D1*
X3879Y8044D1*
X3858Y8030D1*
X3836Y8019D1*
X3812Y8012D1*
X3787Y8008D1*
X3762D1*
X3738Y8012D1*
X3714Y8020D1*
X3691Y8030D1*
X3671Y8045D1*
X3652Y8062D1*
X3637Y8081D1*
X3624Y8103D1*
X3615Y8126D1*
X3610Y8150D1*
X3608Y8175D1*
X3610Y8200D1*
X3616Y8225D1*
X3625Y8248D1*
X3637Y8269D1*
X3653Y8289D1*
X3671Y8306D1*
X3692Y8320D1*
X3714Y8331D1*
X3738Y8338D1*
X3763Y8342D1*
X3788Y8341D1*
X3813Y8338D1*
X3837Y8330D1*
X3859Y8319D1*
X3880Y8305D1*
X3898Y8288D1*
X3913Y8269D1*
X3926Y8247D1*
X3935Y8224D1*
X3940Y8199D1*
X3942Y8175D1*
X3940Y8150D1*
X2335Y6725D2*
X2330Y6701D1*
X2320Y6677D1*
X2308Y6656D1*
X2292Y6636D1*
X2274Y6619D1*
X2253Y6605D1*
X2231Y6594D1*
X2207Y6587D1*
X2182Y6583D1*
X2157D1*
X2133Y6587D1*
X2109Y6595D1*
X2086Y6605D1*
X2066Y6620D1*
X2047Y6637D1*
X2032Y6656D1*
X2019Y6678D1*
X2010Y6701D1*
X2005Y6725D1*
X2003Y6750D1*
X2005Y6775D1*
X2011Y6800D1*
X2020Y6823D1*
X2032Y6844D1*
X2048Y6864D1*
X2066Y6881D1*
X2087Y6895D1*
X2109Y6906D1*
X2133Y6913D1*
X2158Y6917D1*
X2183Y6916D1*
X2208Y6913D1*
X2232Y6905D1*
X2254Y6894D1*
X2275Y6880D1*
X2293Y6863D1*
X2308Y6844D1*
X2321Y6822D1*
X2330Y6799D1*
X2335Y6774D1*
X2337Y6750D1*
X2335Y6725D1*
X6275Y6465D2*
X6270Y6441D1*
X6260Y6417D1*
X6248Y6396D1*
X6232Y6376D1*
X6214Y6359D1*
X6193Y6345D1*
X6171Y6334D1*
X6147Y6327D1*
X6122Y6323D1*
X6097D1*
X6073Y6327D1*
X6049Y6335D1*
X6026Y6345D1*
X6006Y6360D1*
X5987Y6377D1*
X5972Y6396D1*
X5959Y6418D1*
X5950Y6441D1*
X5945Y6465D1*
X5943Y6490D1*
X5945Y6515D1*
X5951Y6540D1*
X5960Y6563D1*
X5972Y6584D1*
X5988Y6604D1*
X6006Y6621D1*
X6027Y6635D1*
X6049Y6646D1*
X6073Y6653D1*
X6098Y6657D1*
X6123Y6656D1*
X6148Y6653D1*
X6172Y6645D1*
X6194Y6634D1*
X6215Y6620D1*
X6233Y6603D1*
X6248Y6584D1*
X6261Y6562D1*
X6270Y6539D1*
X6275Y6514D1*
X6277Y6490D1*
X6275Y6465D1*
X5855Y3660D2*
X5850Y3636D1*
X5840Y3612D1*
X5828Y3591D1*
X5812Y3571D1*
X5794Y3554D1*
X5773Y3540D1*
X5751Y3529D1*
X5727Y3522D1*
X5702Y3518D1*
X5677D1*
X5653Y3522D1*
X5629Y3530D1*
X5606Y3540D1*
X5586Y3555D1*
X5567Y3572D1*
X5552Y3591D1*
X5539Y3613D1*
X5530Y3636D1*
X5525Y3660D1*
X5523Y3685D1*
X5525Y3710D1*
X5531Y3735D1*
X5540Y3758D1*
X5552Y3779D1*
X5568Y3799D1*
X5586Y3816D1*
X5607Y3830D1*
X5629Y3841D1*
X5653Y3848D1*
X5678Y3852D1*
X5703Y3851D1*
X5728Y3848D1*
X5752Y3840D1*
X5774Y3829D1*
X5795Y3815D1*
X5813Y3798D1*
X5828Y3779D1*
X5841Y3757D1*
X5850Y3734D1*
X5855Y3709D1*
X5857Y3685D1*
X5855Y3660D1*
X8168Y2910D2*
X8162Y2886D1*
X8153Y2862D1*
X8140Y2841D1*
X8125Y2821D1*
X8107Y2804D1*
X8086Y2790D1*
X8063Y2779D1*
X8040Y2772D1*
X8015Y2768D1*
X7990D1*
X7965Y2772D1*
X7941Y2780D1*
X7919Y2790D1*
X7898Y2805D1*
X7880Y2822D1*
X7864Y2841D1*
X7852Y2863D1*
X7843Y2886D1*
X7837Y2910D1*
X7836Y2935D1*
X7837Y2960D1*
X7843Y2985D1*
X7852Y3008D1*
X7865Y3029D1*
X7880Y3049D1*
X7899Y3066D1*
X7919Y3080D1*
X7942Y3091D1*
X7966Y3098D1*
X7991Y3102D1*
X8016Y3101D1*
X8040Y3098D1*
X8064Y3090D1*
X8087Y3079D1*
X8107Y3065D1*
X8125Y3048D1*
X8141Y3029D1*
X8153Y3007D1*
X8162Y2984D1*
X8168Y2959D1*
X8170Y2935D1*
X8168Y2910D1*
X1120Y3425D2*
X1115Y3401D1*
X1105Y3377D1*
X1093Y3356D1*
X1077Y3336D1*
X1059Y3319D1*
X1038Y3305D1*
X1016Y3294D1*
X992Y3287D1*
X967Y3283D1*
X942D1*
X918Y3287D1*
X894Y3295D1*
X871Y3305D1*
X851Y3320D1*
X832Y3337D1*
X817Y3356D1*
X804Y3378D1*
X795Y3401D1*
X790Y3425D1*
X788Y3450D1*
X790Y3475D1*
X796Y3500D1*
X805Y3523D1*
X817Y3544D1*
X833Y3564D1*
X851Y3581D1*
X872Y3595D1*
X894Y3606D1*
X918Y3613D1*
X943Y3617D1*
X968Y3616D1*
X993Y3613D1*
X1017Y3605D1*
X1039Y3594D1*
X1060Y3580D1*
X1078Y3563D1*
X1093Y3544D1*
X1106Y3522D1*
X1115Y3499D1*
X1120Y3474D1*
X1122Y3450D1*
X1120Y3425D1*
X2500Y3625D2*
X2495Y3601D1*
X2485Y3577D1*
X2473Y3556D1*
X2457Y3536D1*
X2439Y3519D1*
X2418Y3505D1*
X2396Y3494D1*
X2372Y3487D1*
X2347Y3483D1*
X2322D1*
X2298Y3487D1*
X2274Y3495D1*
X2251Y3505D1*
X2231Y3520D1*
X2212Y3537D1*
X2197Y3556D1*
X2184Y3578D1*
X2175Y3601D1*
X2170Y3625D1*
X2168Y3650D1*
X2170Y3675D1*
X2176Y3700D1*
X2185Y3723D1*
X2197Y3744D1*
X2213Y3764D1*
X2231Y3781D1*
X2252Y3795D1*
X2274Y3806D1*
X2298Y3813D1*
X2323Y3817D1*
X2348Y3816D1*
X2373Y3813D1*
X2397Y3805D1*
X2419Y3794D1*
X2440Y3780D1*
X2458Y3763D1*
X2473Y3744D1*
X2486Y3722D1*
X2495Y3699D1*
X2500Y3674D1*
X2502Y3650D1*
X2500Y3625D1*
X4355Y3160D2*
X4350Y3136D1*
X4340Y3112D1*
X4328Y3091D1*
X4312Y3071D1*
X4294Y3054D1*
X4273Y3040D1*
X4251Y3029D1*
X4227Y3022D1*
X4202Y3018D1*
X4177D1*
X4153Y3022D1*
X4129Y3030D1*
X4106Y3040D1*
X4086Y3055D1*
X4067Y3072D1*
X4052Y3091D1*
X4039Y3113D1*
X4030Y3136D1*
X4025Y3160D1*
X4023Y3185D1*
X4025Y3210D1*
X4031Y3235D1*
X4040Y3258D1*
X4052Y3279D1*
X4068Y3299D1*
X4086Y3316D1*
X4107Y3330D1*
X4129Y3341D1*
X4153Y3348D1*
X4178Y3352D1*
X4203Y3351D1*
X4228Y3348D1*
X4252Y3340D1*
X4274Y3329D1*
X4295Y3315D1*
X4313Y3298D1*
X4328Y3279D1*
X4341Y3257D1*
X4350Y3234D1*
X4355Y3209D1*
X4357Y3185D1*
X4355Y3160D1*
X5780D2*
X5775Y3136D1*
X5765Y3112D1*
X5753Y3091D1*
X5737Y3071D1*
X5719Y3054D1*
X5698Y3040D1*
X5676Y3029D1*
X5652Y3022D1*
X5627Y3018D1*
X5602D1*
X5578Y3022D1*
X5554Y3030D1*
X5531Y3040D1*
X5511Y3055D1*
X5492Y3072D1*
X5477Y3091D1*
X5464Y3113D1*
X5455Y3136D1*
X5450Y3160D1*
X5448Y3185D1*
X5450Y3210D1*
X5456Y3235D1*
X5465Y3258D1*
X5477Y3279D1*
X5493Y3299D1*
X5511Y3316D1*
X5532Y3330D1*
X5554Y3341D1*
X5578Y3348D1*
X5603Y3352D1*
X5628Y3351D1*
X5653Y3348D1*
X5677Y3340D1*
X5699Y3329D1*
X5720Y3315D1*
X5738Y3298D1*
X5753Y3279D1*
X5766Y3257D1*
X5775Y3234D1*
X5780Y3209D1*
X5782Y3185D1*
X5780Y3160D1*
X3918Y6598D2*
X3912Y6573D1*
X3903Y6550D1*
X3890Y6528D1*
X3875Y6509D1*
X3857Y6492D1*
X3836Y6478D1*
X3813Y6467D1*
X3790Y6460D1*
X3765Y6456D1*
X3740D1*
X3715Y6460D1*
X3691Y6467D1*
X3669Y6478D1*
X3648Y6492D1*
X3630Y6509D1*
X3614Y6529D1*
X3602Y6550D1*
X3593Y6574D1*
X3587Y6598D1*
X3585Y6623D1*
X3587Y6648D1*
X3593Y6672D1*
X3602Y6695D1*
X3615Y6717D1*
X3630Y6736D1*
X3649Y6753D1*
X3669Y6767D1*
X3692Y6778D1*
X3716Y6785D1*
X3741Y6789D1*
X3766D1*
X3790Y6785D1*
X3814Y6778D1*
X3837Y6767D1*
X3857Y6753D1*
X3875Y6736D1*
X3891Y6716D1*
X3903Y6694D1*
X3912Y6671D1*
X3918Y6647D1*
X3919Y6623D1*
X3918Y6598D1*
X9415Y6325D2*
X9410Y6301D1*
X9400Y6277D1*
X9388Y6256D1*
X9372Y6236D1*
X9354Y6219D1*
X9333Y6205D1*
X9311Y6194D1*
X9287Y6187D1*
X9262Y6183D1*
X9237D1*
X9213Y6187D1*
X9189Y6195D1*
X9166Y6205D1*
X9146Y6220D1*
X9127Y6237D1*
X9112Y6256D1*
X9099Y6278D1*
X9090Y6301D1*
X9085Y6325D1*
X9083Y6350D1*
X9085Y6375D1*
X9091Y6400D1*
X9100Y6423D1*
X9112Y6444D1*
X9128Y6464D1*
X9146Y6481D1*
X9167Y6495D1*
X9189Y6506D1*
X9213Y6513D1*
X9238Y6517D1*
X9263Y6516D1*
X9288Y6513D1*
X9312Y6505D1*
X9334Y6494D1*
X9355Y6480D1*
X9373Y6463D1*
X9388Y6444D1*
X9401Y6422D1*
X9410Y6399D1*
X9415Y6374D1*
X9417Y6350D1*
X9415Y6325D1*
X8140Y6365D2*
X8135Y6341D1*
X8125Y6317D1*
X8113Y6296D1*
X8097Y6276D1*
X8079Y6259D1*
X8058Y6245D1*
X8036Y6234D1*
X8012Y6227D1*
X7987Y6223D1*
X7962D1*
X7938Y6227D1*
X7914Y6235D1*
X7891Y6245D1*
X7871Y6260D1*
X7852Y6277D1*
X7837Y6296D1*
X7824Y6318D1*
X7815Y6341D1*
X7810Y6365D1*
X7808Y6390D1*
X7810Y6415D1*
X7816Y6440D1*
X7825Y6463D1*
X7837Y6484D1*
X7853Y6504D1*
X7871Y6521D1*
X7892Y6535D1*
X7914Y6546D1*
X7938Y6553D1*
X7963Y6557D1*
X7988Y6556D1*
X8013Y6553D1*
X8037Y6545D1*
X8059Y6534D1*
X8080Y6520D1*
X8098Y6503D1*
X8113Y6484D1*
X8126Y6462D1*
X8135Y6439D1*
X8140Y6414D1*
X8142Y6390D1*
X8140Y6365D1*
X4795Y7915D2*
X4790Y7891D1*
X4780Y7867D1*
X4768Y7846D1*
X4752Y7826D1*
X4734Y7809D1*
X4718Y7798D1*
X4738Y7774D1*
X4751Y7752D1*
X4760Y7729D1*
X4765Y7704D1*
X4767Y7680D1*
X4765Y7655D1*
X4760Y7631D1*
X4750Y7607D1*
X4738Y7586D1*
X4722Y7566D1*
X4704Y7549D1*
X4683Y7535D1*
X4661Y7524D1*
X4637Y7517D1*
X4612Y7513D1*
X4587D1*
X4563Y7517D1*
X4539Y7525D1*
X4516Y7535D1*
X4496Y7550D1*
X4477Y7567D1*
X4462Y7586D1*
X4449Y7608D1*
X4440Y7631D1*
X4435Y7655D1*
X4433Y7680D1*
X4435Y7705D1*
X4441Y7730D1*
X4450Y7753D1*
X4462Y7774D1*
X4478Y7794D1*
X4496Y7811D1*
X4512Y7822D1*
X4492Y7846D1*
X4479Y7868D1*
X4470Y7891D1*
X4465Y7915D1*
X4463Y7940D1*
X4465Y7965D1*
X4471Y7990D1*
X4480Y8013D1*
X4492Y8034D1*
X4508Y8054D1*
X4526Y8071D1*
X4547Y8085D1*
X4569Y8096D1*
X4593Y8103D1*
X4618Y8107D1*
X4643Y8106D1*
X4668Y8103D1*
X4692Y8095D1*
X4714Y8084D1*
X4735Y8070D1*
X4753Y8053D1*
X4768Y8034D1*
X4781Y8012D1*
X4790Y7989D1*
X4795Y7964D1*
X4797Y7940D1*
X4795Y7915D1*
X7875Y8005D2*
X7870Y7981D1*
X7860Y7957D1*
X7848Y7936D1*
X7832Y7916D1*
X7814Y7899D1*
X7793Y7885D1*
X7771Y7874D1*
X7747Y7867D1*
X7722Y7863D1*
X7697D1*
X7673Y7867D1*
X7649Y7875D1*
X7626Y7885D1*
X7606Y7900D1*
X7587Y7917D1*
X7572Y7936D1*
X7559Y7958D1*
X7550Y7981D1*
X7545Y8005D1*
X7543Y8030D1*
X7545Y8055D1*
X7551Y8080D1*
X7560Y8103D1*
X7566Y8114D1*
X7529Y8125D1*
X7506Y8135D1*
X7478Y8157D1*
X7448Y8135D1*
X7426Y8124D1*
X7402Y8117D1*
X7377Y8113D1*
X7352D1*
X7328Y8117D1*
X7304Y8125D1*
X7281Y8135D1*
X7253Y8157D1*
X7223Y8135D1*
X7201Y8124D1*
X7177Y8117D1*
X7152Y8113D1*
X7127D1*
X7103Y8117D1*
X7079Y8125D1*
X7056Y8135D1*
X7036Y8150D1*
X7017Y8167D1*
X7002Y8186D1*
X6989Y8208D1*
X6980Y8231D1*
X6975Y8255D1*
X6973Y8280D1*
X6975Y8305D1*
X6981Y8330D1*
X6990Y8353D1*
X7002Y8374D1*
X7018Y8394D1*
X7030Y8405D1*
X7017Y8417D1*
X7002Y8436D1*
X6989Y8458D1*
X6980Y8481D1*
X6975Y8505D1*
X6973Y8530D1*
X6975Y8555D1*
X6981Y8580D1*
X6990Y8603D1*
X7002Y8624D1*
X7016Y8642D1*
X7002Y8661D1*
X6989Y8683D1*
X6980Y8706D1*
X6975Y8730D1*
X6973Y8755D1*
X6975Y8780D1*
X6981Y8805D1*
X6990Y8828D1*
X7002Y8849D1*
X7018Y8869D1*
X7036Y8886D1*
X7057Y8900D1*
X7079Y8911D1*
X7103Y8918D1*
X7128Y8922D1*
X7153Y8921D1*
X7178Y8918D1*
X7202Y8910D1*
X7224Y8899D1*
X7252Y8878D1*
X7282Y8900D1*
X7304Y8911D1*
X7328Y8918D1*
X7353Y8922D1*
X7378Y8921D1*
X7403Y8918D1*
X7427Y8910D1*
X7449Y8899D1*
X7477Y8878D1*
X7507Y8900D1*
X7529Y8911D1*
X7553Y8918D1*
X7578Y8922D1*
X7603Y8921D1*
X7628Y8918D1*
X7652Y8910D1*
X7674Y8899D1*
X7702Y8878D1*
X7732Y8900D1*
X7754Y8911D1*
X7778Y8918D1*
X7803Y8922D1*
X7828Y8921D1*
X7853Y8918D1*
X7877Y8910D1*
X7899Y8899D1*
X7920Y8885D1*
X7938Y8868D1*
X7953Y8849D1*
X7966Y8827D1*
X7975Y8804D1*
X7980Y8779D1*
X7982Y8755D1*
X7980Y8730D1*
X7975Y8706D1*
X7965Y8682D1*
X7953Y8661D1*
X7938Y8642D1*
X7953Y8624D1*
X7966Y8602D1*
X7975Y8579D1*
X7980Y8554D1*
X7982Y8530D1*
X7980Y8505D1*
X7975Y8481D1*
X7965Y8457D1*
X7953Y8436D1*
X7937Y8416D1*
X7925Y8405D1*
X7938Y8393D1*
X7953Y8374D1*
X7966Y8352D1*
X7975Y8329D1*
X7980Y8304D1*
X7982Y8280D1*
X7980Y8255D1*
X7975Y8231D1*
X7965Y8207D1*
X7953Y8186D1*
X7937Y8166D1*
X7919Y8149D1*
X7898Y8135D1*
X7876Y8124D1*
X7853Y8117D1*
X7870Y8079D1*
X7875Y8054D1*
X7877Y8030D1*
X7875Y8005D1*
X6888Y3437D2*
X6862Y3433D1*
X6837D1*
X6813Y3437D1*
X6789Y3445D1*
X6766Y3455D1*
X6746Y3470D1*
X6727Y3487D1*
X6712Y3506D1*
X6699Y3528D1*
X6690Y3551D1*
X6685Y3575D1*
X6683Y3600D1*
X6685Y3625D1*
X6691Y3650D1*
X6700Y3673D1*
X6712Y3694D1*
X6728Y3714D1*
X6746Y3731D1*
X6767Y3745D1*
X6789Y3756D1*
X6813Y3763D1*
X6838Y3767D1*
X6863Y3766D1*
X6894Y3761D1*
X6912Y3794D1*
X6928Y3814D1*
X6946Y3831D1*
X6967Y3845D1*
X6989Y3856D1*
X7013Y3863D1*
X7038Y3867D1*
X7063Y3866D1*
X7088Y3863D1*
X7112Y3855D1*
X7134Y3844D1*
X7155Y3830D1*
X7173Y3813D1*
X7188Y3794D1*
X7201Y3772D1*
X7210Y3749D1*
X7215Y3724D1*
X7217Y3700D1*
X7215Y3675D1*
X7210Y3651D1*
X7200Y3627D1*
X7188Y3606D1*
X7173Y3587D1*
X7188Y3569D1*
X7201Y3547D1*
X7210Y3524D1*
X7215Y3499D1*
X7217Y3475D1*
X7215Y3450D1*
X7210Y3426D1*
X7200Y3402D1*
X7188Y3381D1*
X7172Y3361D1*
X7154Y3344D1*
X7133Y3330D1*
X7111Y3319D1*
X7087Y3312D1*
X7062Y3308D1*
X7037D1*
X7013Y3312D1*
X6989Y3320D1*
X6966Y3330D1*
X6946Y3345D1*
X6927Y3362D1*
X6912Y3381D1*
X6899Y3403D1*
X6888Y3438D1*
X3885Y5880D2*
X3880Y5856D1*
X3870Y5832D1*
X3858Y5811D1*
X3842Y5791D1*
X3816Y5769D1*
X3828Y5754D1*
X3841Y5732D1*
X3850Y5709D1*
X3855Y5684D1*
X3857Y5660D1*
X3855Y5635D1*
X3850Y5611D1*
X3840Y5587D1*
X3828Y5566D1*
X3812Y5546D1*
X3794Y5529D1*
X3773Y5515D1*
X3751Y5504D1*
X3737Y5500D1*
X3753Y5498D1*
X3777Y5490D1*
X3799Y5479D1*
X3820Y5465D1*
X3838Y5448D1*
X3853Y5429D1*
X3866Y5407D1*
X3875Y5384D1*
X3880Y5359D1*
X3882Y5335D1*
X3880Y5310D1*
X3875Y5286D1*
X3865Y5262D1*
X3853Y5241D1*
X3837Y5221D1*
X3819Y5204D1*
X3798Y5190D1*
X3776Y5179D1*
X3752Y5172D1*
X3727Y5168D1*
X3702D1*
X3678Y5172D1*
X3654Y5180D1*
X3631Y5190D1*
X3611Y5205D1*
X3592Y5222D1*
X3577Y5241D1*
X3564Y5263D1*
X3555Y5286D1*
X3550Y5310D1*
X3548Y5335D1*
X3550Y5360D1*
X3556Y5385D1*
X3565Y5408D1*
X3577Y5429D1*
X3593Y5449D1*
X3611Y5466D1*
X3632Y5480D1*
X3654Y5491D1*
X3667Y5495D1*
X3629Y5505D1*
X3606Y5515D1*
X3586Y5530D1*
X3567Y5547D1*
X3552Y5566D1*
X3539Y5588D1*
X3530Y5611D1*
X3525Y5635D1*
X3523Y5660D1*
X3525Y5685D1*
X3531Y5710D1*
X3540Y5733D1*
X3552Y5754D1*
X3568Y5774D1*
X3593Y5796D1*
X3582Y5811D1*
X3569Y5833D1*
X3560Y5856D1*
X3555Y5880D1*
X3553Y5905D1*
X3555Y5930D1*
X3561Y5955D1*
X3570Y5978D1*
X3582Y5999D1*
X3598Y6019D1*
X3616Y6036D1*
X3637Y6050D1*
X3659Y6061D1*
X3683Y6068D1*
X3708Y6072D1*
X3733Y6071D1*
X3758Y6068D1*
X3782Y6060D1*
X3804Y6049D1*
X3825Y6035D1*
X3843Y6018D1*
X3858Y5999D1*
X3871Y5977D1*
X3880Y5954D1*
X3885Y5929D1*
X3887Y5905D1*
X3885Y5880D1*
X3240Y7950D2*
X3235Y7926D1*
X3225Y7902D1*
X3213Y7881D1*
X3197Y7861D1*
X3179Y7844D1*
X3158Y7830D1*
X3136Y7819D1*
X3112Y7812D1*
X3087Y7808D1*
X3062D1*
X3038Y7812D1*
X3014Y7820D1*
X2991Y7830D1*
X2971Y7845D1*
X2952Y7862D1*
X2937Y7881D1*
X2924Y7903D1*
X2915Y7926D1*
X2910Y7950D1*
X2908Y7975D1*
X2910Y8000D1*
X2916Y8025D1*
X2925Y8048D1*
X2937Y8069D1*
X2953Y8089D1*
X2971Y8106D1*
X2992Y8120D1*
X3014Y8131D1*
X3038Y8138D1*
X3063Y8142D1*
X3088Y8141D1*
X3113Y8138D1*
X3137Y8130D1*
X3159Y8119D1*
X3180Y8105D1*
X3198Y8088D1*
X3213Y8069D1*
X3226Y8047D1*
X3235Y8024D1*
X3240Y7999D1*
X3242Y7975D1*
X3240Y7950D1*
X6720Y5075D2*
X6715Y5051D1*
X6705Y5027D1*
X6693Y5006D1*
X6677Y4986D1*
X6659Y4969D1*
X6638Y4955D1*
X6616Y4944D1*
X6592Y4937D1*
X6567Y4933D1*
X6542D1*
X6518Y4937D1*
X6494Y4945D1*
X6471Y4955D1*
X6451Y4970D1*
X6432Y4987D1*
X6417Y5006D1*
X6404Y5028D1*
X6395Y5051D1*
X6390Y5075D1*
X6388Y5100D1*
X6390Y5125D1*
X6396Y5150D1*
X6405Y5173D1*
X6417Y5194D1*
X6433Y5214D1*
X6451Y5231D1*
X6472Y5245D1*
X6494Y5256D1*
X6518Y5263D1*
X6543Y5267D1*
X6568Y5266D1*
X6593Y5263D1*
X6617Y5255D1*
X6639Y5244D1*
X6660Y5230D1*
X6678Y5213D1*
X6693Y5194D1*
X6706Y5172D1*
X6715Y5149D1*
X6720Y5124D1*
X6722Y5100D1*
X6720Y5075D1*
X6290Y4075D2*
X6285Y4051D1*
X6275Y4027D1*
X6263Y4006D1*
X6247Y3986D1*
X6229Y3969D1*
X6208Y3955D1*
X6186Y3944D1*
X6162Y3937D1*
X6137Y3933D1*
X6112D1*
X6088Y3937D1*
X6064Y3945D1*
X6041Y3955D1*
X6021Y3970D1*
X6002Y3987D1*
X5987Y4006D1*
X5974Y4028D1*
X5965Y4051D1*
X5960Y4075D1*
X5958Y4100D1*
X5960Y4125D1*
X5966Y4150D1*
X5975Y4173D1*
X5987Y4194D1*
X6003Y4214D1*
X6021Y4231D1*
X6042Y4245D1*
X6064Y4256D1*
X6088Y4263D1*
X6113Y4267D1*
X6138Y4266D1*
X6163Y4263D1*
X6187Y4255D1*
X6209Y4244D1*
X6230Y4230D1*
X6248Y4213D1*
X6263Y4194D1*
X6276Y4172D1*
X6285Y4149D1*
X6290Y4124D1*
X6292Y4100D1*
X6290Y4075D1*
X8515Y4150D2*
X8510Y4126D1*
X8500Y4102D1*
X8488Y4081D1*
X8472Y4061D1*
X8454Y4044D1*
X8433Y4030D1*
X8411Y4019D1*
X8387Y4012D1*
X8362Y4008D1*
X8337D1*
X8313Y4012D1*
X8289Y4020D1*
X8266Y4030D1*
X8246Y4045D1*
X8227Y4062D1*
X8212Y4081D1*
X8199Y4103D1*
X8190Y4126D1*
X8185Y4150D1*
X8184Y4185D1*
X8140Y4183D1*
X8115Y4187D1*
X8091Y4195D1*
X8069Y4205D1*
X8048Y4220D1*
X8030Y4237D1*
X8014Y4256D1*
X8002Y4278D1*
X7993Y4301D1*
X7987Y4325D1*
X7985Y4350D1*
X7987Y4375D1*
X7993Y4400D1*
X8002Y4423D1*
X8014Y4444D1*
X8030Y4464D1*
X8048Y4481D1*
X8069Y4495D1*
X8092Y4506D1*
X8116Y4513D1*
X8140Y4517D1*
X8165Y4516D1*
X8190Y4513D1*
X8214Y4505D1*
X8236Y4494D1*
X8257Y4480D1*
X8275Y4463D1*
X8291Y4444D1*
X8303Y4422D1*
X8312Y4399D1*
X8317Y4374D1*
X8318Y4338D1*
X8338Y4342D1*
X8363Y4341D1*
X8388Y4338D1*
X8412Y4330D1*
X8434Y4319D1*
X8455Y4305D1*
X8473Y4288D1*
X8488Y4269D1*
X8501Y4247D1*
X8510Y4224D1*
X8515Y4199D1*
X8517Y4175D1*
X8515Y4150D1*
X1965Y3025D2*
X1960Y3001D1*
X1950Y2977D1*
X1938Y2956D1*
X1922Y2936D1*
X1904Y2919D1*
X1883Y2905D1*
X1861Y2894D1*
X1837Y2887D1*
X1812Y2883D1*
X1787D1*
X1763Y2887D1*
X1739Y2895D1*
X1716Y2905D1*
X1696Y2920D1*
X1677Y2937D1*
X1662Y2956D1*
X1649Y2978D1*
X1640Y3001D1*
X1635Y3025D1*
X1633Y3050D1*
X1622Y3036D1*
X1604Y3019D1*
X1583Y3005D1*
X1561Y2994D1*
X1537Y2987D1*
X1512Y2983D1*
X1487D1*
X1463Y2987D1*
X1439Y2995D1*
X1416Y3005D1*
X1396Y3020D1*
X1377Y3037D1*
X1362Y3056D1*
X1349Y3078D1*
X1340Y3101D1*
X1335Y3125D1*
X1333Y3150D1*
X1335Y3175D1*
X1341Y3200D1*
X1350Y3223D1*
X1362Y3244D1*
X1378Y3264D1*
X1396Y3281D1*
X1417Y3295D1*
X1439Y3306D1*
X1463Y3313D1*
X1488Y3317D1*
X1513Y3316D1*
X1538Y3313D1*
X1562Y3305D1*
X1584Y3294D1*
X1605Y3280D1*
X1623Y3263D1*
X1638Y3244D1*
X1651Y3222D1*
X1660Y3199D1*
X1665Y3174D1*
X1667Y3151D1*
X1678Y3164D1*
X1696Y3181D1*
X1717Y3195D1*
X1739Y3206D1*
X1763Y3213D1*
X1788Y3217D1*
X1813Y3216D1*
X1838Y3213D1*
X1862Y3205D1*
X1884Y3194D1*
X1905Y3180D1*
X1923Y3163D1*
X1938Y3144D1*
X1951Y3122D1*
X1960Y3099D1*
X1965Y3074D1*
X1967Y3050D1*
X1965Y3025D1*
X4496Y4189D2*
X4485Y4157D1*
X4473Y4136D1*
X4457Y4116D1*
X4439Y4099D1*
X4418Y4085D1*
X4396Y4074D1*
X4372Y4067D1*
X4347Y4063D1*
X4322D1*
X4298Y4067D1*
X4274Y4075D1*
X4251Y4085D1*
X4231Y4100D1*
X4212Y4117D1*
X4197Y4136D1*
X4184Y4158D1*
X4175Y4181D1*
X4170Y4205D1*
X4168Y4230D1*
X4170Y4255D1*
X4176Y4280D1*
X4185Y4303D1*
X4197Y4324D1*
X4213Y4344D1*
X4231Y4361D1*
X4252Y4375D1*
X4274Y4386D1*
X4298Y4393D1*
X4323Y4397D1*
X4348Y4396D1*
X4373Y4393D1*
X4397Y4385D1*
X4424Y4371D1*
X4435Y4403D1*
X4447Y4424D1*
X4463Y4444D1*
X4481Y4461D1*
X4502Y4475D1*
X4524Y4486D1*
X4548Y4493D1*
X4573Y4497D1*
X4598Y4496D1*
X4623Y4493D1*
X4647Y4485D1*
X4669Y4474D1*
X4690Y4460D1*
X4708Y4443D1*
X4723Y4424D1*
X4736Y4402D1*
X4745Y4379D1*
X4750Y4354D1*
X4752Y4330D1*
X4750Y4305D1*
X4745Y4281D1*
X4735Y4257D1*
X4723Y4236D1*
X4707Y4216D1*
X4689Y4199D1*
X4668Y4185D1*
X4646Y4174D1*
X4622Y4167D1*
X4597Y4163D1*
X4572D1*
X4548Y4167D1*
X4524Y4175D1*
X4497Y4189D1*
X1975Y816D2*
X1958Y805D1*
X1936Y794D1*
X1912Y787D1*
X1887Y783D1*
X1862D1*
X1838Y787D1*
X1814Y795D1*
X1791Y805D1*
X1771Y820D1*
X1752Y837D1*
X1737Y856D1*
X1724Y878D1*
X1715Y901D1*
X1710Y925D1*
X1708Y950D1*
X1710Y975D1*
X1716Y1000D1*
X1725Y1023D1*
X1737Y1044D1*
X1753Y1064D1*
X1765Y1075D1*
X1752Y1087D1*
X1737Y1106D1*
X1724Y1128D1*
X1715Y1151D1*
X1710Y1175D1*
X1708Y1200D1*
X1710Y1225D1*
X1716Y1250D1*
X1725Y1273D1*
X1737Y1294D1*
X1751Y1312D1*
X1737Y1331D1*
X1724Y1353D1*
X1715Y1376D1*
X1710Y1400D1*
X1708Y1425D1*
X1710Y1450D1*
X1716Y1475D1*
X1725Y1498D1*
X1737Y1519D1*
X1753Y1539D1*
X1771Y1556D1*
X1792Y1570D1*
X1814Y1581D1*
X1838Y1588D1*
X1863Y1592D1*
X1888Y1591D1*
X1913Y1588D1*
X1937Y1580D1*
X1959Y1569D1*
X1975Y1558D1*
X1992Y1570D1*
X2014Y1581D1*
X2038Y1588D1*
X2063Y1592D1*
X2088Y1591D1*
X2113Y1588D1*
X2137Y1580D1*
X2159Y1569D1*
X2187Y1548D1*
X2217Y1570D1*
X2239Y1581D1*
X2263Y1588D1*
X2288Y1592D1*
X2313Y1591D1*
X2338Y1588D1*
X2362Y1580D1*
X2384Y1569D1*
X2412Y1548D1*
X2442Y1570D1*
X2464Y1581D1*
X2488Y1588D1*
X2513Y1592D1*
X2538Y1591D1*
X2563Y1588D1*
X2587Y1580D1*
X2609Y1569D1*
X2630Y1555D1*
X2648Y1538D1*
X2663Y1519D1*
X2676Y1497D1*
X2685Y1474D1*
X2690Y1449D1*
X2692Y1425D1*
X2690Y1400D1*
X2685Y1376D1*
X2675Y1352D1*
X2663Y1331D1*
X2648Y1312D1*
X2663Y1294D1*
X2676Y1272D1*
X2685Y1249D1*
X2690Y1224D1*
X2692Y1200D1*
X2690Y1175D1*
X2685Y1151D1*
X2675Y1127D1*
X2663Y1106D1*
X2647Y1086D1*
X2635Y1075D1*
X2648Y1063D1*
X2663Y1044D1*
X2676Y1022D1*
X2685Y999D1*
X2690Y974D1*
X2692Y950D1*
X2690Y925D1*
X2685Y901D1*
X2675Y877D1*
X2663Y856D1*
X2647Y836D1*
X2629Y819D1*
X2608Y805D1*
X2586Y794D1*
X2562Y787D1*
X2537Y783D1*
X2512D1*
X2488Y787D1*
X2464Y795D1*
X2441Y805D1*
X2413Y827D1*
X2383Y805D1*
X2361Y794D1*
X2337Y787D1*
X2312Y783D1*
X2287D1*
X2263Y787D1*
X2239Y795D1*
X2216Y805D1*
X2188Y827D1*
X2158Y805D1*
X2136Y794D1*
X2112Y787D1*
X2087Y783D1*
X2062D1*
X2038Y787D1*
X2014Y795D1*
X1991Y805D1*
X1975Y817D1*
X7730Y6598D2*
X7725Y6573D1*
X7715Y6550D1*
X7703Y6528D1*
X7687Y6509D1*
X7669Y6492D1*
X7648Y6478D1*
X7626Y6467D1*
X7602Y6460D1*
X7577Y6456D1*
X7552D1*
X7528Y6460D1*
X7504Y6467D1*
X7481Y6478D1*
X7461Y6492D1*
X7442Y6509D1*
X7427Y6528D1*
X7435Y6509D1*
X7440Y6484D1*
X7442Y6460D1*
X7440Y6435D1*
X7435Y6411D1*
X7425Y6387D1*
X7413Y6366D1*
X7397Y6346D1*
X7379Y6329D1*
X7358Y6315D1*
X7336Y6304D1*
X7312Y6297D1*
X7287Y6293D1*
X7262D1*
X7238Y6297D1*
X7214Y6305D1*
X7191Y6315D1*
X7171Y6330D1*
X7152Y6347D1*
X7137Y6366D1*
X7124Y6388D1*
X7115Y6411D1*
X7110Y6435D1*
X7108Y6460D1*
X7110Y6485D1*
X7116Y6510D1*
X7125Y6533D1*
X7137Y6554D1*
X7153Y6574D1*
X7171Y6591D1*
X7192Y6605D1*
X7214Y6616D1*
X7238Y6623D1*
X7263Y6627D1*
X7288Y6626D1*
X7313Y6623D1*
X7337Y6615D1*
X7359Y6604D1*
X7380Y6590D1*
X7398Y6573D1*
X7413Y6554D1*
X7405Y6574D1*
X7400Y6598D1*
X7398Y6623D1*
X7400Y6648D1*
X7406Y6672D1*
X7415Y6695D1*
X7427Y6717D1*
X7443Y6736D1*
X7461Y6753D1*
X7482Y6767D1*
X7504Y6778D1*
X7528Y6785D1*
X7553Y6789D1*
X7578D1*
X7603Y6785D1*
X7627Y6778D1*
X7649Y6767D1*
X7670Y6753D1*
X7688Y6736D1*
X7703Y6716D1*
X7716Y6694D1*
X7725Y6671D1*
X7730Y6647D1*
X7732Y6623D1*
X7730Y6598D1*
X3065Y5925D2*
X3060Y5901D1*
X3050Y5877D1*
X3038Y5856D1*
X3022Y5836D1*
X3004Y5819D1*
X2983Y5805D1*
X2961Y5794D1*
X2937Y5787D1*
X2912Y5783D1*
X2887D1*
X2863Y5787D1*
X2839Y5795D1*
X2816Y5805D1*
X2796Y5820D1*
X2777Y5837D1*
X2762Y5856D1*
X2749Y5878D1*
X2740Y5901D1*
X2735Y5925D1*
X2733Y5950D1*
X2735Y5975D1*
X2741Y6000D1*
X2750Y6023D1*
X2762Y6044D1*
X2778Y6064D1*
X2796Y6081D1*
X2827Y6100D1*
X2796Y6120D1*
X2777Y6137D1*
X2762Y6156D1*
X2749Y6178D1*
X2740Y6201D1*
X2735Y6225D1*
X2733Y6250D1*
X2735Y6275D1*
X2741Y6300D1*
X2750Y6323D1*
X2762Y6344D1*
X2778Y6364D1*
X2796Y6381D1*
X2817Y6395D1*
X2839Y6406D1*
X2863Y6413D1*
X2888Y6417D1*
X2913Y6416D1*
X2938Y6413D1*
X2962Y6405D1*
X2984Y6394D1*
X3005Y6380D1*
X3023Y6363D1*
X3038Y6344D1*
X3051Y6322D1*
X3060Y6299D1*
X3065Y6274D1*
X3067Y6250D1*
X3065Y6225D1*
X3060Y6201D1*
X3050Y6177D1*
X3038Y6156D1*
X3022Y6136D1*
X3004Y6119D1*
X2973Y6100D1*
X3005Y6080D1*
X3023Y6063D1*
X3038Y6044D1*
X3051Y6022D1*
X3060Y5999D1*
X3065Y5974D1*
X3067Y5950D1*
X3065Y5925D1*
X5065Y6175D2*
X5060Y6151D1*
X5050Y6127D1*
X5038Y6106D1*
X5022Y6086D1*
X5004Y6069D1*
X4983Y6055D1*
X4961Y6044D1*
X4937Y6037D1*
X4912Y6033D1*
X4887D1*
X4863Y6037D1*
X4839Y6045D1*
X4816Y6055D1*
X4796Y6070D1*
X4777Y6087D1*
X4762Y6106D1*
X4749Y6128D1*
X4740Y6151D1*
X4735Y6175D1*
X4733Y6200D1*
X4735Y6225D1*
X4741Y6250D1*
X4750Y6273D1*
X4762Y6294D1*
X4778Y6314D1*
X4796Y6331D1*
X4817Y6345D1*
X4839Y6356D1*
X4863Y6363D1*
X4888Y6367D1*
X4913Y6366D1*
X4938Y6363D1*
X4962Y6355D1*
X4984Y6344D1*
X5005Y6330D1*
X5023Y6313D1*
X5038Y6294D1*
X5051Y6272D1*
X5060Y6249D1*
X5065Y6224D1*
X5067Y6200D1*
X5065Y6175D1*
X5450Y1641D2*
X5433Y1630D1*
X5411Y1619D1*
X5387Y1612D1*
X5362Y1608D1*
X5337D1*
X5313Y1612D1*
X5289Y1620D1*
X5266Y1630D1*
X5246Y1645D1*
X5227Y1662D1*
X5212Y1681D1*
X5199Y1703D1*
X5190Y1726D1*
X5185Y1750D1*
X5183Y1775D1*
X5185Y1800D1*
X5191Y1825D1*
X5200Y1848D1*
X5212Y1869D1*
X5228Y1889D1*
X5246Y1906D1*
X5267Y1920D1*
X5289Y1931D1*
X5313Y1938D1*
X5338Y1942D1*
X5363Y1941D1*
X5388Y1938D1*
X5412Y1930D1*
X5434Y1919D1*
X5450Y1908D1*
X5467Y1920D1*
X5489Y1931D1*
X5513Y1938D1*
X5538Y1942D1*
X5563Y1941D1*
X5588Y1938D1*
X5612Y1930D1*
X5634Y1919D1*
X5655Y1905D1*
X5673Y1888D1*
X5688Y1869D1*
X5701Y1847D1*
X5710Y1824D1*
X5715Y1799D1*
X5717Y1775D1*
X5715Y1750D1*
X5710Y1726D1*
X5700Y1702D1*
X5688Y1681D1*
X5672Y1661D1*
X5654Y1644D1*
X5633Y1630D1*
X5611Y1619D1*
X5587Y1612D1*
X5562Y1608D1*
X5537D1*
X5513Y1612D1*
X5489Y1620D1*
X5466Y1630D1*
X5450Y1642D1*
X3115Y2575D2*
X3110Y2551D1*
X3100Y2527D1*
X3088Y2506D1*
X3072Y2486D1*
X3054Y2469D1*
X3033Y2455D1*
X3011Y2444D1*
X2987Y2437D1*
X2962Y2433D1*
X2937D1*
X2913Y2437D1*
X2889Y2445D1*
X2866Y2455D1*
X2846Y2470D1*
X2827Y2487D1*
X2812Y2506D1*
X2799Y2528D1*
X2790Y2551D1*
X2785Y2575D1*
X2783Y2600D1*
X2785Y2625D1*
X2791Y2650D1*
X2800Y2673D1*
X2812Y2694D1*
X2828Y2714D1*
X2846Y2731D1*
X2867Y2745D1*
X2889Y2756D1*
X2913Y2763D1*
X2938Y2767D1*
X2963Y2766D1*
X2988Y2763D1*
X3012Y2755D1*
X3034Y2744D1*
X3055Y2730D1*
X3073Y2713D1*
X3088Y2694D1*
X3101Y2672D1*
X3110Y2649D1*
X3115Y2624D1*
X3117Y2600D1*
X3115Y2575D1*
X3465D2*
X3460Y2551D1*
X3450Y2527D1*
X3438Y2506D1*
X3422Y2486D1*
X3404Y2469D1*
X3383Y2455D1*
X3361Y2444D1*
X3337Y2437D1*
X3312Y2433D1*
X3287D1*
X3263Y2437D1*
X3239Y2445D1*
X3216Y2455D1*
X3196Y2470D1*
X3177Y2487D1*
X3162Y2506D1*
X3149Y2528D1*
X3140Y2551D1*
X3135Y2575D1*
X3133Y2600D1*
X3135Y2625D1*
X3141Y2650D1*
X3150Y2673D1*
X3162Y2694D1*
X3178Y2714D1*
X3196Y2731D1*
X3217Y2745D1*
X3239Y2756D1*
X3263Y2763D1*
X3288Y2767D1*
X3313Y2766D1*
X3338Y2763D1*
X3362Y2755D1*
X3384Y2744D1*
X3405Y2730D1*
X3423Y2713D1*
X3438Y2694D1*
X3451Y2672D1*
X3460Y2649D1*
X3465Y2624D1*
X3467Y2600D1*
X3465Y2575D1*
X3815D2*
X3810Y2551D1*
X3800Y2527D1*
X3788Y2506D1*
X3772Y2486D1*
X3754Y2469D1*
X3733Y2455D1*
X3711Y2444D1*
X3687Y2437D1*
X3662Y2433D1*
X3637D1*
X3613Y2437D1*
X3589Y2445D1*
X3566Y2455D1*
X3546Y2470D1*
X3527Y2487D1*
X3512Y2506D1*
X3499Y2528D1*
X3490Y2551D1*
X3485Y2575D1*
X3483Y2600D1*
X3485Y2625D1*
X3491Y2650D1*
X3500Y2673D1*
X3512Y2694D1*
X3528Y2714D1*
X3546Y2731D1*
X3567Y2745D1*
X3589Y2756D1*
X3613Y2763D1*
X3638Y2767D1*
X3663Y2766D1*
X3688Y2763D1*
X3712Y2755D1*
X3734Y2744D1*
X3755Y2730D1*
X3773Y2713D1*
X3788Y2694D1*
X3801Y2672D1*
X3810Y2649D1*
X3815Y2624D1*
X3817Y2600D1*
X3815Y2575D1*
X2265Y2875D2*
X2260Y2851D1*
X2250Y2827D1*
X2238Y2806D1*
X2222Y2786D1*
X2204Y2769D1*
X2183Y2755D1*
X2161Y2744D1*
X2137Y2737D1*
X2112Y2733D1*
X2087D1*
X2063Y2737D1*
X2039Y2745D1*
X2016Y2755D1*
X1996Y2770D1*
X1977Y2787D1*
X1962Y2806D1*
X1949Y2828D1*
X1940Y2851D1*
X1935Y2875D1*
X1933Y2900D1*
X1935Y2925D1*
X1941Y2950D1*
X1950Y2973D1*
X1962Y2994D1*
X1978Y3014D1*
X1996Y3031D1*
X2017Y3045D1*
X2039Y3056D1*
X2063Y3063D1*
X2088Y3067D1*
X2113Y3066D1*
X2138Y3063D1*
X2162Y3055D1*
X2184Y3044D1*
X2205Y3030D1*
X2223Y3013D1*
X2238Y2994D1*
X2251Y2972D1*
X2260Y2949D1*
X2265Y2924D1*
X2267Y2900D1*
X2265Y2875D1*
X3915Y4300D2*
X3910Y4276D1*
X3900Y4252D1*
X3888Y4231D1*
X3872Y4211D1*
X3854Y4194D1*
X3833Y4180D1*
X3811Y4169D1*
X3787Y4162D1*
X3762Y4158D1*
X3737D1*
X3713Y4162D1*
X3689Y4170D1*
X3666Y4180D1*
X3646Y4195D1*
X3627Y4212D1*
X3612Y4231D1*
X3599Y4253D1*
X3590Y4276D1*
X3585Y4300D1*
X3583Y4325D1*
X3585Y4350D1*
X3591Y4375D1*
X3600Y4398D1*
X3612Y4419D1*
X3628Y4439D1*
X3646Y4456D1*
X3667Y4470D1*
X3689Y4481D1*
X3713Y4488D1*
X3738Y4492D1*
X3763Y4491D1*
X3788Y4488D1*
X3812Y4480D1*
X3834Y4469D1*
X3855Y4455D1*
X3873Y4438D1*
X3888Y4419D1*
X3901Y4397D1*
X3910Y4374D1*
X3915Y4349D1*
X3917Y4325D1*
X3915Y4300D1*
X4240Y4600D2*
X4235Y4576D1*
X4225Y4552D1*
X4213Y4531D1*
X4197Y4511D1*
X4179Y4494D1*
X4158Y4480D1*
X4136Y4469D1*
X4112Y4462D1*
X4087Y4458D1*
X4062D1*
X4038Y4462D1*
X4014Y4470D1*
X3991Y4480D1*
X3971Y4495D1*
X3952Y4512D1*
X3937Y4531D1*
X3924Y4553D1*
X3915Y4576D1*
X3910Y4600D1*
X3908Y4625D1*
X3910Y4650D1*
X3916Y4675D1*
X3925Y4698D1*
X3937Y4719D1*
X3953Y4739D1*
X3971Y4756D1*
X3992Y4770D1*
X4014Y4781D1*
X4038Y4788D1*
X4063Y4792D1*
X4088Y4791D1*
X4113Y4788D1*
X4137Y4780D1*
X4159Y4769D1*
X4180Y4755D1*
X4198Y4738D1*
X4213Y4719D1*
X4226Y4697D1*
X4235Y4674D1*
X4240Y4649D1*
X4242Y4625D1*
X4240Y4600D1*
X4640Y4875D2*
X4635Y4851D1*
X4625Y4827D1*
X4613Y4806D1*
X4597Y4786D1*
X4579Y4769D1*
X4558Y4755D1*
X4536Y4744D1*
X4512Y4737D1*
X4487Y4733D1*
X4462D1*
X4438Y4737D1*
X4414Y4745D1*
X4391Y4755D1*
X4371Y4770D1*
X4352Y4787D1*
X4337Y4806D1*
X4324Y4828D1*
X4315Y4851D1*
X4310Y4875D1*
X4308Y4900D1*
X4310Y4925D1*
X4316Y4950D1*
X4325Y4973D1*
X4337Y4994D1*
X4353Y5014D1*
X4371Y5031D1*
X4392Y5045D1*
X4414Y5056D1*
X4438Y5063D1*
X4463Y5067D1*
X4488Y5066D1*
X4513Y5063D1*
X4537Y5055D1*
X4559Y5044D1*
X4580Y5030D1*
X4598Y5013D1*
X4613Y4994D1*
X4626Y4972D1*
X4635Y4949D1*
X4640Y4924D1*
X4642Y4900D1*
X4640Y4875D1*
X8846Y4189D2*
X8840Y4175D1*
X8828Y4153D1*
X8812Y4134D1*
X8794Y4117D1*
X8773Y4103D1*
X8751Y4092D1*
X8727Y4085D1*
X8702Y4081D1*
X8677D1*
X8653Y4085D1*
X8629Y4092D1*
X8606Y4103D1*
X8586Y4117D1*
X8567Y4134D1*
X8552Y4154D1*
X8539Y4175D1*
X8530Y4199D1*
X8525Y4223D1*
X8523Y4248D1*
X8525Y4273D1*
X8531Y4297D1*
X8540Y4320D1*
X8552Y4342D1*
X8568Y4361D1*
X8586Y4378D1*
X8607Y4392D1*
X8629Y4403D1*
X8653Y4410D1*
X8678Y4414D1*
X8703D1*
X8728Y4410D1*
X8752Y4403D1*
X8774Y4392D1*
X8795Y4378D1*
X8813Y4361D1*
X8828Y4341D1*
X8841Y4319D1*
X8846Y4306D1*
X8852Y4320D1*
X8865Y4342D1*
X8880Y4361D1*
X8899Y4378D1*
X8919Y4392D1*
X8942Y4403D1*
X8966Y4410D1*
X8991Y4414D1*
X9016D1*
X9040Y4410D1*
X9064Y4403D1*
X9087Y4392D1*
X9107Y4378D1*
X9125Y4361D1*
X9141Y4341D1*
X9153Y4319D1*
X9162Y4296D1*
X9168Y4272D1*
X9170Y4248D1*
X9168Y4223D1*
X9162Y4198D1*
X9153Y4175D1*
X9140Y4153D1*
X9125Y4134D1*
X9107Y4117D1*
X9086Y4103D1*
X9063Y4092D1*
X9040Y4085D1*
X9015Y4081D1*
X8990D1*
X8965Y4085D1*
X8941Y4092D1*
X8919Y4103D1*
X8898Y4117D1*
X8880Y4134D1*
X8864Y4154D1*
X8852Y4175D1*
X8847Y4189D1*
X2355Y7473D2*
X2350Y7448D1*
X2340Y7425D1*
X2328Y7403D1*
X2312Y7384D1*
X2294Y7367D1*
X2273Y7353D1*
X2251Y7342D1*
X2227Y7335D1*
X2202Y7331D1*
X2177D1*
X2153Y7335D1*
X2129Y7342D1*
X2106Y7353D1*
X2086Y7367D1*
X2067Y7384D1*
X2052Y7404D1*
X2039Y7425D1*
X2030Y7449D1*
X2025Y7473D1*
X2023Y7498D1*
X2025Y7523D1*
X2031Y7547D1*
X2040Y7570D1*
X2052Y7592D1*
X2068Y7611D1*
X2086Y7628D1*
X2107Y7642D1*
X2129Y7653D1*
X2153Y7660D1*
X2178Y7664D1*
X2203D1*
X2228Y7660D1*
X2252Y7653D1*
X2274Y7642D1*
X2295Y7628D1*
X2313Y7611D1*
X2328Y7591D1*
X2341Y7569D1*
X2350Y7546D1*
X2355Y7522D1*
X2357Y7497D1*
X2355Y7473D1*
X8743Y3023D2*
X8737Y2998D1*
X8728Y2975D1*
X8715Y2953D1*
X8700Y2934D1*
X8682Y2917D1*
X8661Y2903D1*
X8638Y2892D1*
X8615Y2885D1*
X8590Y2881D1*
X8565D1*
X8540Y2885D1*
X8516Y2892D1*
X8494Y2903D1*
X8473Y2917D1*
X8455Y2934D1*
X8439Y2954D1*
X8427Y2975D1*
X8418Y2999D1*
X8412Y3023D1*
X8411Y3048D1*
X8412Y3073D1*
X8418Y3097D1*
X8427Y3120D1*
X8440Y3142D1*
X8455Y3161D1*
X8474Y3178D1*
X8494Y3192D1*
X8517Y3203D1*
X8541Y3210D1*
X8566Y3214D1*
X8591D1*
X8615Y3210D1*
X8639Y3203D1*
X8662Y3192D1*
X8682Y3178D1*
X8700Y3161D1*
X8716Y3141D1*
X8728Y3119D1*
X8737Y3096D1*
X8743Y3072D1*
X8745Y3048D1*
X8743Y3023D1*
X765Y2450D2*
X760Y2426D1*
X750Y2402D1*
X738Y2381D1*
X722Y2361D1*
X704Y2344D1*
X683Y2330D1*
X661Y2319D1*
X637Y2312D1*
X612Y2308D1*
X587D1*
X563Y2312D1*
X539Y2320D1*
X516Y2330D1*
X496Y2345D1*
X477Y2362D1*
X462Y2381D1*
X449Y2403D1*
X440Y2426D1*
X435Y2450D1*
X433Y2475D1*
X435Y2500D1*
X441Y2525D1*
X450Y2548D1*
X462Y2569D1*
X478Y2589D1*
X496Y2606D1*
X517Y2620D1*
X539Y2631D1*
X563Y2638D1*
X588Y2642D1*
X613Y2641D1*
X638Y2638D1*
X662Y2630D1*
X684Y2619D1*
X705Y2605D1*
X723Y2588D1*
X738Y2569D1*
X751Y2547D1*
X760Y2524D1*
X765Y2499D1*
X767Y2475D1*
X765Y2450D1*
X5135Y4505D2*
X5130Y4481D1*
X5120Y4457D1*
X5108Y4436D1*
X5092Y4416D1*
X5074Y4399D1*
X5053Y4385D1*
X5031Y4374D1*
X5007Y4367D1*
X4982Y4363D1*
X4957D1*
X4933Y4367D1*
X4909Y4375D1*
X4886Y4385D1*
X4866Y4400D1*
X4847Y4417D1*
X4832Y4436D1*
X4819Y4458D1*
X4810Y4481D1*
X4805Y4505D1*
X4803Y4530D1*
X4805Y4555D1*
X4811Y4580D1*
X4820Y4603D1*
X4832Y4624D1*
X4848Y4644D1*
X4866Y4661D1*
X4887Y4675D1*
X4909Y4686D1*
X4933Y4693D1*
X4958Y4697D1*
X4983Y4696D1*
X5008Y4693D1*
X5032Y4685D1*
X5054Y4674D1*
X5075Y4660D1*
X5093Y4643D1*
X5108Y4624D1*
X5121Y4602D1*
X5130Y4579D1*
X5135Y4554D1*
X5137Y4530D1*
X5135Y4505D1*
X3085Y4695D2*
X3080Y4671D1*
X3070Y4647D1*
X3058Y4626D1*
X3042Y4606D1*
X3024Y4589D1*
X3003Y4575D1*
X2981Y4564D1*
X2957Y4557D1*
X2932Y4553D1*
X2907D1*
X2883Y4557D1*
X2859Y4565D1*
X2836Y4575D1*
X2816Y4590D1*
X2797Y4607D1*
X2782Y4626D1*
X2769Y4648D1*
X2760Y4671D1*
X2755Y4695D1*
X2753Y4720D1*
X2755Y4745D1*
X2761Y4770D1*
X2770Y4793D1*
X2782Y4814D1*
X2798Y4834D1*
X2816Y4851D1*
X2837Y4865D1*
X2859Y4876D1*
X2883Y4883D1*
X2908Y4887D1*
X2933Y4886D1*
X2958Y4883D1*
X2982Y4875D1*
X3004Y4864D1*
X3025Y4850D1*
X3043Y4833D1*
X3058Y4814D1*
X3071Y4792D1*
X3080Y4769D1*
X3085Y4744D1*
X3087Y4720D1*
X3085Y4695D1*
X6895Y2215D2*
X6890Y2191D1*
X6880Y2167D1*
X6868Y2146D1*
X6852Y2126D1*
X6834Y2109D1*
X6813Y2095D1*
X6791Y2084D1*
X6767Y2077D1*
X6742Y2073D1*
X6717D1*
X6693Y2077D1*
X6669Y2085D1*
X6646Y2095D1*
X6626Y2110D1*
X6607Y2127D1*
X6592Y2146D1*
X6579Y2168D1*
X6570Y2191D1*
X6565Y2215D1*
X6563Y2240D1*
X6565Y2265D1*
X6571Y2290D1*
X6580Y2313D1*
X6592Y2334D1*
X6608Y2354D1*
X6626Y2371D1*
X6647Y2385D1*
X6669Y2396D1*
X6693Y2403D1*
X6718Y2407D1*
X6743Y2406D1*
X6768Y2403D1*
X6792Y2395D1*
X6814Y2384D1*
X6835Y2370D1*
X6853Y2353D1*
X6868Y2334D1*
X6881Y2312D1*
X6890Y2289D1*
X6895Y2264D1*
X6897Y2240D1*
X6895Y2215D1*
X4295Y6535D2*
X4290Y6511D1*
X4280Y6487D1*
X4268Y6466D1*
X4252Y6446D1*
X4234Y6429D1*
X4213Y6415D1*
X4191Y6404D1*
X4167Y6397D1*
X4142Y6393D1*
X4117D1*
X4093Y6397D1*
X4069Y6405D1*
X4046Y6415D1*
X4026Y6430D1*
X4007Y6447D1*
X3992Y6466D1*
X3979Y6488D1*
X3970Y6511D1*
X3965Y6535D1*
X3963Y6560D1*
X3965Y6585D1*
X3971Y6610D1*
X3980Y6633D1*
X3992Y6654D1*
X4008Y6674D1*
X4026Y6691D1*
X4047Y6705D1*
X4069Y6716D1*
X4093Y6723D1*
X4118Y6727D1*
X4143Y6726D1*
X4168Y6723D1*
X4192Y6715D1*
X4214Y6704D1*
X4235Y6690D1*
X4253Y6673D1*
X4268Y6654D1*
X4281Y6632D1*
X4290Y6609D1*
X4295Y6584D1*
X4297Y6560D1*
X4295Y6535D1*
X6015Y7200D2*
X6010Y7176D1*
X6000Y7152D1*
X5988Y7131D1*
X5972Y7111D1*
X5954Y7094D1*
X5933Y7080D1*
X5911Y7069D1*
X5887Y7062D1*
X5862Y7058D1*
X5837D1*
X5813Y7062D1*
X5789Y7070D1*
X5766Y7080D1*
X5746Y7095D1*
X5727Y7112D1*
X5712Y7131D1*
X5699Y7153D1*
X5690Y7176D1*
X5685Y7200D1*
X5683Y7225D1*
X5685Y7250D1*
X5691Y7275D1*
X5700Y7298D1*
X5712Y7319D1*
X5728Y7339D1*
X5746Y7356D1*
X5767Y7370D1*
X5789Y7381D1*
X5813Y7388D1*
X5838Y7392D1*
X5863Y7391D1*
X5888Y7388D1*
X5912Y7380D1*
X5934Y7369D1*
X5955Y7355D1*
X5973Y7338D1*
X5988Y7319D1*
X6001Y7297D1*
X6010Y7274D1*
X6015Y7249D1*
X6017Y7225D1*
X6015Y7200D1*
G36*
X840Y3698D2*
X290D1*
X274D1*
X259Y3701D1*
X244Y3705D1*
X229Y3710D1*
X215Y3718D1*
X202Y3726D1*
X190Y3736D1*
X179Y3747D1*
X169Y3759D1*
X160Y3773D1*
X153Y3786D1*
X147Y3801D1*
X143Y3816D1*
X141Y3832D1*
X140Y3848D1*
Y4398D1*
X141Y4413D1*
X143Y4429D1*
X147Y4444D1*
X153Y4459D1*
X160Y4473D1*
X169Y4486D1*
X179Y4498D1*
X190Y4509D1*
X202Y4519D1*
X215Y4527D1*
X229Y4535D1*
X244Y4540D1*
X259Y4544D1*
X274Y4547D1*
X290Y4548D1*
X840D1*
X856Y4547D1*
X871Y4544D1*
X886Y4540D1*
X901Y4535D1*
X915Y4527D1*
X928Y4519D1*
X940Y4509D1*
X951Y4498D1*
X961Y4486D1*
X970Y4473D1*
X977Y4459D1*
X983Y4444D1*
X987Y4429D1*
X989Y4413D1*
X990Y4398D1*
Y3848D1*
X989Y3832D1*
X987Y3816D1*
X983Y3801D1*
X977Y3786D1*
X970Y3773D1*
X961Y3759D1*
X951Y3747D1*
X940Y3736D1*
X928Y3726D1*
X915Y3718D1*
X901Y3710D1*
X886Y3705D1*
X871Y3701D1*
X856Y3698D1*
X840D1*
G37*
G36*
X990Y5398D2*
Y4848D1*
X989Y4832D1*
X987Y4816D1*
X983Y4801D1*
X977Y4786D1*
X970Y4773D1*
X961Y4759D1*
X951Y4747D1*
X940Y4736D1*
X928Y4726D1*
X915Y4718D1*
X901Y4710D1*
X886Y4705D1*
X871Y4701D1*
X856Y4698D1*
X840D1*
X290D1*
X274D1*
X259Y4701D1*
X244Y4705D1*
X229Y4710D1*
X215Y4718D1*
X202Y4726D1*
X190Y4736D1*
X179Y4747D1*
X169Y4759D1*
X160Y4773D1*
X153Y4786D1*
X147Y4801D1*
X143Y4816D1*
X141Y4832D1*
X140Y4848D1*
Y5398D1*
X141Y5413D1*
X143Y5429D1*
X147Y5444D1*
X153Y5459D1*
X160Y5473D1*
X169Y5486D1*
X179Y5498D1*
X190Y5509D1*
X202Y5519D1*
X215Y5527D1*
X229Y5535D1*
X244Y5540D1*
X259Y5544D1*
X274Y5547D1*
X290Y5548D1*
X840D1*
X856Y5547D1*
X871Y5544D1*
X886Y5540D1*
X901Y5535D1*
X915Y5527D1*
X928Y5519D1*
X940Y5509D1*
X951Y5498D1*
X961Y5486D1*
X970Y5473D1*
X977Y5459D1*
X983Y5444D1*
X987Y5429D1*
X989Y5413D1*
X990Y5398D1*
G37*
G36*
X290Y5698D2*
X840D1*
X856D1*
X871Y5701D1*
X886Y5705D1*
X901Y5710D1*
X915Y5718D1*
X928Y5726D1*
X940Y5736D1*
X951Y5747D1*
X961Y5759D1*
X970Y5773D1*
X977Y5786D1*
X983Y5801D1*
X987Y5816D1*
X989Y5832D1*
X990Y5848D1*
Y6398D1*
X989Y6413D1*
X987Y6429D1*
X983Y6444D1*
X977Y6459D1*
X970Y6473D1*
X961Y6486D1*
X951Y6498D1*
X940Y6509D1*
X928Y6519D1*
X915Y6527D1*
X901Y6535D1*
X886Y6540D1*
X871Y6544D1*
X856Y6547D1*
X840Y6548D1*
X290D1*
X274Y6547D1*
X259Y6544D1*
X244Y6540D1*
X229Y6535D1*
X215Y6527D1*
X202Y6519D1*
X190Y6509D1*
X179Y6498D1*
X169Y6486D1*
X160Y6473D1*
X153Y6459D1*
X147Y6444D1*
X143Y6429D1*
X141Y6413D1*
X140Y6398D1*
Y5848D1*
X141Y5832D1*
X143Y5816D1*
X147Y5801D1*
X153Y5786D1*
X160Y5773D1*
X169Y5759D1*
X179Y5747D1*
X190Y5736D1*
X202Y5726D1*
X215Y5718D1*
X229Y5710D1*
X244Y5705D1*
X259Y5701D1*
X274Y5698D1*
X290D1*
G37*
G36*
X990Y6848D2*
Y7398D1*
X989Y7413D1*
X987Y7429D1*
X983Y7444D1*
X977Y7459D1*
X970Y7473D1*
X961Y7486D1*
X951Y7498D1*
X940Y7509D1*
X928Y7519D1*
X915Y7527D1*
X901Y7535D1*
X886Y7540D1*
X871Y7544D1*
X856Y7547D1*
X840Y7548D1*
X290D1*
X274Y7547D1*
X259Y7544D1*
X244Y7540D1*
X229Y7535D1*
X215Y7527D1*
X202Y7519D1*
X190Y7509D1*
X179Y7498D1*
X169Y7486D1*
X160Y7473D1*
X153Y7459D1*
X147Y7444D1*
X143Y7429D1*
X141Y7413D1*
X140Y7398D1*
Y6848D1*
X141Y6832D1*
X143Y6816D1*
X147Y6801D1*
X153Y6786D1*
X160Y6773D1*
X169Y6759D1*
X179Y6747D1*
X190Y6736D1*
X202Y6726D1*
X215Y6718D1*
X229Y6710D1*
X244Y6705D1*
X259Y6701D1*
X274Y6698D1*
X290D1*
X840D1*
X856D1*
X871Y6701D1*
X886Y6705D1*
X901Y6710D1*
X915Y6718D1*
X928Y6726D1*
X940Y6736D1*
X951Y6747D1*
X961Y6759D1*
X970Y6773D1*
X977Y6786D1*
X983Y6801D1*
X987Y6816D1*
X989Y6832D1*
X990Y6848D1*
G37*
G36*
X2925Y8845D2*
Y9395D1*
X2926Y9411D1*
X2928Y9426D1*
X2932Y9441D1*
X2938Y9456D1*
X2945Y9470D1*
X2954Y9483D1*
X2964Y9495D1*
X2975Y9506D1*
X2987Y9516D1*
X3000Y9525D1*
X3014Y9532D1*
X3029Y9538D1*
X3044Y9542D1*
X3059Y9544D1*
X3075Y9545D1*
X3625D1*
X3641Y9544D1*
X3656Y9542D1*
X3671Y9538D1*
X3686Y9532D1*
X3700Y9525D1*
X3713Y9516D1*
X3725Y9506D1*
X3736Y9495D1*
X3746Y9483D1*
X3755Y9470D1*
X3762Y9456D1*
X3768Y9441D1*
X3772Y9426D1*
X3774Y9411D1*
X3775Y9395D1*
Y8845D1*
X3774Y8829D1*
X3772Y8814D1*
X3768Y8799D1*
X3762Y8784D1*
X3755Y8770D1*
X3746Y8757D1*
X3736Y8745D1*
X3725Y8734D1*
X3713Y8724D1*
X3700Y8715D1*
X3686Y8708D1*
X3671Y8702D1*
X3656Y8698D1*
X3641Y8696D1*
X3625Y8695D1*
X3075D1*
X3059Y8696D1*
X3044Y8698D1*
X3029Y8702D1*
X3014Y8708D1*
X3000Y8715D1*
X2987Y8724D1*
X2975Y8734D1*
X2964Y8745D1*
X2954Y8757D1*
X2945Y8770D1*
X2938Y8784D1*
X2932Y8799D1*
X2928Y8814D1*
X2926Y8829D1*
X2925Y8845D1*
G37*
G36*
X4625Y8695D2*
X4075D1*
X4059Y8696D1*
X4044Y8698D1*
X4029Y8702D1*
X4014Y8708D1*
X4000Y8715D1*
X3987Y8724D1*
X3975Y8734D1*
X3964Y8745D1*
X3954Y8757D1*
X3945Y8770D1*
X3938Y8784D1*
X3932Y8799D1*
X3928Y8814D1*
X3926Y8829D1*
X3925Y8845D1*
Y9395D1*
X3926Y9411D1*
X3928Y9426D1*
X3932Y9441D1*
X3938Y9456D1*
X3945Y9470D1*
X3954Y9483D1*
X3964Y9495D1*
X3975Y9506D1*
X3987Y9516D1*
X4000Y9525D1*
X4014Y9532D1*
X4029Y9538D1*
X4044Y9542D1*
X4059Y9544D1*
X4075Y9545D1*
X4625D1*
X4641Y9544D1*
X4656Y9542D1*
X4671Y9538D1*
X4686Y9532D1*
X4700Y9525D1*
X4713Y9516D1*
X4725Y9506D1*
X4736Y9495D1*
X4746Y9483D1*
X4755Y9470D1*
X4762Y9456D1*
X4768Y9441D1*
X4772Y9426D1*
X4774Y9411D1*
X4775Y9395D1*
Y8845D1*
X4774Y8829D1*
X4772Y8814D1*
X4768Y8799D1*
X4762Y8784D1*
X4755Y8770D1*
X4746Y8757D1*
X4736Y8745D1*
X4725Y8734D1*
X4713Y8724D1*
X4700Y8715D1*
X4686Y8708D1*
X4671Y8702D1*
X4656Y8698D1*
X4641Y8696D1*
X4625Y8695D1*
G37*
G36*
X4925Y9395D2*
Y8845D1*
X4926Y8829D1*
X4928Y8814D1*
X4932Y8799D1*
X4938Y8784D1*
X4945Y8770D1*
X4954Y8757D1*
X4964Y8745D1*
X4975Y8734D1*
X4987Y8724D1*
X5000Y8715D1*
X5014Y8708D1*
X5029Y8702D1*
X5044Y8698D1*
X5059Y8696D1*
X5075Y8695D1*
X5625D1*
X5641Y8696D1*
X5656Y8698D1*
X5671Y8702D1*
X5686Y8708D1*
X5700Y8715D1*
X5713Y8724D1*
X5725Y8734D1*
X5736Y8745D1*
X5746Y8757D1*
X5755Y8770D1*
X5762Y8784D1*
X5768Y8799D1*
X5772Y8814D1*
X5774Y8829D1*
X5775Y8845D1*
Y9395D1*
X5774Y9411D1*
X5772Y9426D1*
X5768Y9441D1*
X5762Y9456D1*
X5755Y9470D1*
X5746Y9483D1*
X5736Y9495D1*
X5725Y9506D1*
X5713Y9516D1*
X5700Y9525D1*
X5686Y9532D1*
X5671Y9538D1*
X5656Y9542D1*
X5641Y9544D1*
X5625Y9545D1*
X5075D1*
X5059Y9544D1*
X5044Y9542D1*
X5029Y9538D1*
X5014Y9532D1*
X5000Y9525D1*
X4987Y9516D1*
X4975Y9506D1*
X4964Y9495D1*
X4954Y9483D1*
X4945Y9470D1*
X4938Y9456D1*
X4932Y9441D1*
X4928Y9426D1*
X4926Y9411D1*
X4925Y9395D1*
G37*
G36*
X6075Y8695D2*
X6625D1*
X6641Y8696D1*
X6656Y8698D1*
X6671Y8702D1*
X6686Y8708D1*
X6700Y8715D1*
X6713Y8724D1*
X6725Y8734D1*
X6736Y8745D1*
X6746Y8757D1*
X6755Y8770D1*
X6762Y8784D1*
X6768Y8799D1*
X6772Y8814D1*
X6774Y8829D1*
X6775Y8845D1*
Y9395D1*
X6774Y9411D1*
X6772Y9426D1*
X6768Y9441D1*
X6762Y9456D1*
X6755Y9470D1*
X6746Y9483D1*
X6736Y9495D1*
X6725Y9506D1*
X6713Y9516D1*
X6700Y9525D1*
X6686Y9532D1*
X6671Y9538D1*
X6656Y9542D1*
X6641Y9544D1*
X6625Y9545D1*
X6075D1*
X6059Y9544D1*
X6044Y9542D1*
X6029Y9538D1*
X6014Y9532D1*
X6000Y9525D1*
X5987Y9516D1*
X5975Y9506D1*
X5964Y9495D1*
X5954Y9483D1*
X5945Y9470D1*
X5938Y9456D1*
X5932Y9441D1*
X5928Y9426D1*
X5926Y9411D1*
X5925Y9395D1*
Y8845D1*
X5926Y8829D1*
X5928Y8814D1*
X5932Y8799D1*
X5938Y8784D1*
X5945Y8770D1*
X5954Y8757D1*
X5964Y8745D1*
X5975Y8734D1*
X5987Y8724D1*
X6000Y8715D1*
X6014Y8708D1*
X6029Y8702D1*
X6044Y8698D1*
X6059Y8696D1*
X6075Y8695D1*
G37*
G36*
X4835Y275D2*
Y1225D1*
X4836Y1241D1*
X4838Y1256D1*
X4842Y1271D1*
X4848Y1286D1*
X4855Y1300D1*
X4864Y1313D1*
X4874Y1325D1*
X4885Y1336D1*
X4897Y1346D1*
X4910Y1355D1*
X4924Y1362D1*
X4939Y1368D1*
X4954Y1372D1*
X4969Y1374D1*
X4985Y1375D1*
X5935D1*
X5951Y1374D1*
X5966Y1372D1*
X5981Y1368D1*
X5996Y1362D1*
X6010Y1355D1*
X6023Y1346D1*
X6035Y1336D1*
X6046Y1325D1*
X6056Y1313D1*
X6065Y1300D1*
X6072Y1286D1*
X6078Y1271D1*
X6082Y1256D1*
X6084Y1241D1*
X6085Y1225D1*
Y275D1*
X6084Y259D1*
X6082Y244D1*
X6078Y229D1*
X6072Y214D1*
X6065Y200D1*
X6056Y187D1*
X6046Y175D1*
X6035Y164D1*
X6023Y154D1*
X6010Y145D1*
X5996Y138D1*
X5981Y132D1*
X5966Y128D1*
X5951Y126D1*
X5935Y125D1*
X4985D1*
X4969Y126D1*
X4954Y128D1*
X4939Y132D1*
X4924Y138D1*
X4910Y145D1*
X4897Y154D1*
X4885Y164D1*
X4874Y175D1*
X4864Y187D1*
X4855Y200D1*
X4848Y214D1*
X4842Y229D1*
X4838Y244D1*
X4836Y259D1*
X4835Y275D1*
G37*
G36*
X4585D2*
Y1225D1*
X4584Y1241D1*
X4582Y1256D1*
X4578Y1271D1*
X4572Y1286D1*
X4565Y1300D1*
X4556Y1313D1*
X4546Y1325D1*
X4535Y1336D1*
X4523Y1346D1*
X4510Y1355D1*
X4496Y1362D1*
X4481Y1368D1*
X4466Y1372D1*
X4451Y1374D1*
X4435Y1375D1*
X3485D1*
X3469Y1374D1*
X3454Y1372D1*
X3439Y1368D1*
X3424Y1362D1*
X3410Y1355D1*
X3397Y1346D1*
X3385Y1336D1*
X3374Y1325D1*
X3364Y1313D1*
X3355Y1300D1*
X3348Y1286D1*
X3342Y1271D1*
X3338Y1256D1*
X3336Y1241D1*
X3335Y1225D1*
Y275D1*
X3336Y259D1*
X3338Y244D1*
X3342Y229D1*
X3348Y214D1*
X3355Y200D1*
X3364Y187D1*
X3374Y175D1*
X3385Y164D1*
X3397Y154D1*
X3410Y145D1*
X3424Y138D1*
X3439Y132D1*
X3454Y128D1*
X3469Y126D1*
X3485Y125D1*
X4435D1*
X4451Y126D1*
X4466Y128D1*
X4481Y132D1*
X4496Y138D1*
X4510Y145D1*
X4523Y154D1*
X4535Y164D1*
X4546Y175D1*
X4556Y187D1*
X4565Y200D1*
X4572Y214D1*
X4578Y229D1*
X4582Y244D1*
X4584Y259D1*
X4585Y275D1*
G37*
G36*
X8726Y8607D2*
X9514D1*
Y7819D1*
X8726D1*
Y8607D1*
G37*
G36*
X9510Y8716D2*
X8722D1*
Y9504D1*
X9510D1*
Y8716D1*
G37*
G36*
X96Y8617D2*
X884D1*
Y7829D1*
X96D1*
Y8617D1*
G37*
G36*
X880Y8726D2*
X92D1*
Y9514D1*
X880D1*
Y8726D1*
G37*
G36*
X9484Y1013D2*
X8696D1*
Y1801D1*
X9484D1*
Y1013D1*
G37*
G36*
X8700Y904D2*
X9488D1*
Y116D1*
X8700D1*
Y904D1*
G37*
G36*
X934Y1063D2*
X146D1*
Y1851D1*
X934D1*
Y1063D1*
G37*
G36*
X150Y954D2*
X938D1*
Y166D1*
X150D1*
Y954D1*
G37*
M02*
