G04 DipTrace Beta 2.3.5.2*
%INLulfroMiniBrush.GTO*%
%MOIN*%
%ADD13C,0.015*%
%ADD14C,0.012*%
%ADD17C,0.008*%
%ADD18C,0.005*%
%ADD20O,0.014X0.015*%
%ADD82C,0.0062*%
%ADD85C,0.0077*%
%FSLAX44Y44*%
G04*
G70*
G90*
G75*
G01*
%LNTop TopSilk*%
%LPD*%
X7010Y5990D2*
D17*
Y6130D1*
X7140D1*
X8450Y6140D2*
X8590D1*
Y6010D1*
X8450Y4540D2*
X8590Y4680D1*
X7000Y4690D2*
Y4560D1*
Y4550D2*
X7150D1*
D20*
X8760Y4455D3*
X5230Y6780D2*
D18*
X5390D1*
Y6620D1*
X5240Y3940D2*
X5400D1*
Y4090D1*
X2550Y4100D2*
Y3940D1*
Y3930D2*
X2720D1*
Y6440D2*
X2870Y6590D1*
D13*
X2605Y6645D3*
D14*
X4390Y3050D3*
X170Y3200D2*
D18*
X810D1*
Y2460D1*
X170D1*
Y3200D1*
X1510Y3864D2*
D85*
X1008D1*
X1510Y4031D2*
Y3696D1*
X1301Y4801D2*
Y4586D1*
X1325Y4515D1*
X1349Y4490D1*
X1397Y4466D1*
X1445D1*
X1492Y4490D1*
X1517Y4515D1*
X1540Y4586D1*
Y4801D1*
X1038D1*
X1301Y4634D2*
X1038Y4466D1*
X1500Y6681D2*
X998Y6490D1*
X1500Y6299D1*
X1381Y6953D2*
X1429Y6976D1*
X1477Y7025D1*
X1500Y7072D1*
Y7168D1*
X1477Y7216D1*
X1429Y7263D1*
X1381Y7288D1*
X1309Y7311D1*
X1189D1*
X1118Y7288D1*
X1070Y7263D1*
X1022Y7216D1*
X998Y7168D1*
Y7072D1*
X1022Y7025D1*
X1070Y6976D1*
X1118Y6953D1*
X1189D1*
Y7072D1*
X3346Y9100D2*
D82*
X3174D1*
X3117Y9081D1*
X3097Y9061D1*
X3078Y9023D1*
Y8966D1*
X3097Y8928D1*
X3117Y8908D1*
X3174Y8889D1*
X3346D1*
Y9291D1*
X7438Y8927D2*
X7476Y8888D1*
X7534Y8869D1*
X7610D1*
X7668Y8888D1*
X7706Y8927D1*
Y8965D1*
X7687Y9003D1*
X7668Y9022D1*
X7630Y9041D1*
X7515Y9080D1*
X7476Y9099D1*
X7457Y9118D1*
X7438Y9156D1*
Y9214D1*
X7476Y9252D1*
X7534Y9271D1*
X7610D1*
X7668Y9252D1*
X7706Y9214D1*
X1156Y1765D2*
Y1421D1*
X984Y1593D2*
X1328D1*
X8256Y1745D2*
Y1401D1*
X8084Y1573D2*
X8428D1*
X8256Y8055D2*
Y7711D1*
X8084Y7883D2*
X8428D1*
X1216Y8095D2*
Y7751D1*
X1044Y7923D2*
X1388D1*
X6116Y1565D2*
Y1221D1*
X5944Y1393D2*
X6288D1*
X3701Y1609D2*
D85*
X3978D1*
M02*
