M48
INCH
T01C0.01
T02C0.0197
T03C0.0434
T04C0.06
%
T01
X+004500Y+008313
X+004870Y+008740
X+004540Y+009070
X+004870Y+009380
X+005200Y+009070
X+005600Y+009350
X+006150Y+009350
X+006150Y+008775
X+005600Y+008775
X+005500Y+008140
X+005700Y+007190
X+005875Y+006813
X+005000Y+006250
X+003687Y+006563
X+003625Y+005875
X+003625Y+005600
X+003650Y+005275
X+002750Y+004688
X+002270Y+003590
X+002000Y+003188
X+001688Y+003188
X+001688Y+002875
X+002000Y+002875
X+001375Y+003062
X+001060Y+002320
X+001060Y+002130
X+000530Y+002300
X+000475Y+001675
X+000475Y+001475
X+000225Y+001475
X+000225Y+001675
X+000725Y+001675
X+000725Y+001475
X+000725Y+001175
X+000225Y+001175
X+002000Y+001562
X+002250Y+001562
X+002250Y+001313
X+002500Y+001562
X+002750Y+001562
X+003000Y+001562
X+003000Y+001313
X+003250Y+001313
X+003250Y+001562
X+003500Y+001562
X+003563Y+001313
X+003938Y+001313
X+004250Y+001313
X+004250Y+001000
X+004250Y+000625
X+004250Y+000313
X+003938Y+000313
X+003563Y+000313
X+003250Y+000313
X+003250Y+000625
X+003250Y+001000
X+003000Y+001062
X+002750Y+001062
X+002500Y+001062
X+002875Y+002563
X+003250Y+002563
X+003625Y+002563
X+004125Y+003125
X+004270Y+004170
X+004520Y+004270
X+005025Y+004475
X+005625Y+003625
X+005550Y+003125
X+006300Y+004000
X+006700Y+003425
X+007938Y+002875
X+008513Y+002988
X+007620Y+002330
X+008650Y+001650
X+008650Y+001450
X+008900Y+001450
X+008900Y+001650
X+009150Y+001650
X+009150Y+001450
X+009150Y+001150
X+008650Y+001150
X+007500Y+000187
X+007250Y+000187
X+007000Y+000187
X+007000Y+000438
X+007250Y+000438
X+007000Y+000688
X+006688Y+000688
X+006375Y+000688
X+006125Y+000688
X+006250Y+000438
X+006250Y+000187
X+005750Y+000313
X+005750Y+000562
X+005563Y+000500
X+005500Y+000313
X+005250Y+000313
X+005000Y+000313
X+004938Y+000500
X+004750Y+000562
X+004750Y+000313
X+004750Y+000813
X+004750Y+001063
X+004938Y+001125
X+005000Y+001313
X+005250Y+001313
X+005500Y+001313
X+005563Y+001125
X+005750Y+001062
X+005750Y+000813
X+006187Y+001000
X+005750Y+001313
X+004750Y+001313
X+006490Y+005040
X+007210Y+006400
X+007500Y+006563
X+007910Y+006330
X+008000Y+006688
X+007875Y+006875
X+007875Y+007125
X+007875Y+007375
X+008125Y+007375
X+008375Y+007375
X+008625Y+007375
X+008875Y+007375
X+008875Y+007625
X+009125Y+007625
X+009125Y+007375
X+008625Y+007125
X+008625Y+006875
X+008500Y+006688
X+008250Y+006688
X+008625Y+007625
X+008675Y+007975
X+008675Y+008175
X+008925Y+008175
X+008925Y+007975
X+009175Y+007975
X+009175Y+008175
X+009175Y+008475
X+008675Y+008475
X+007430Y+007970
X+009040Y+005840
X+009050Y+005325
X+009090Y+005060
X+008938Y+004188
X+008625Y+004188
X+008284Y+004150
X+008050Y+004330
X+004070Y+007350
X+003820Y+007470
X+002937Y+008125
X+002937Y+008375
X+002688Y+008375
X+002438Y+008375
X+002187Y+008375
X+002187Y+008688
X+002187Y+008938
X+002187Y+009187
X+002438Y+008938
X+002688Y+008938
X+002900Y+008940
X+002870Y+009190
X+002937Y+008625
X+003275Y+008675
X+002125Y+007437
X+002312Y+006688
X+002975Y+006275
X+000820Y+006060
X+000500Y+005740
X+000180Y+006060
X+000500Y+006380
X+000250Y+006813
X+000250Y+007312
X+000187Y+007625
X+000225Y+007925
X+000225Y+008125
X+000475Y+008125
X+000475Y+007925
X+000725Y+007925
X+000725Y+008125
X+000725Y+008425
X+000225Y+008425
X+000500Y+007625
X+000813Y+007625
X+000750Y+007312
X+000750Y+006813
X+000510Y+003370
T02
X+008925Y+008450
X+008921Y+008953
X+008900Y+001175
X+008904Y+000672
X+000479Y+000697
X+000475Y+001200
X+000475Y+008400
X+000471Y+008903
T03
X+000500Y+004063
X+000500Y+005063
X+000500Y+006063
X+000500Y+007063
X+003875Y+009063
X+004875Y+009063
X+005875Y+009063
X+006875Y+009063
T04
X+005250Y+000812
X+003750Y+000812
T00
M30
