G04 DipTrace Beta 2.3.5.2*
%INLulfroMiniBrush.GBS*%
%MOIN*%
%FSLAX44Y44*%
G04*
G70*
G90*
G75*
G01*
%LNBotMask*%
%LPD*%
G36*
X776Y3618D2*
X224D1*
X207D1*
X190Y3621D1*
X172Y3626D1*
X156Y3632D1*
X140Y3640D1*
X125Y3650D1*
X111Y3661D1*
X99Y3674D1*
X87Y3688D1*
X78Y3702D1*
X70Y3718D1*
X63Y3735D1*
X59Y3752D1*
X56Y3770D1*
X55Y3787D1*
Y4338D1*
X56Y4355D1*
X59Y4373D1*
X63Y4390D1*
X70Y4407D1*
X78Y4423D1*
X87Y4437D1*
X99Y4451D1*
X111Y4464D1*
X125Y4475D1*
X140Y4485D1*
X156Y4493D1*
X172Y4499D1*
X190Y4504D1*
X207Y4507D1*
X224Y4508D1*
X776D1*
X793Y4507D1*
X810Y4504D1*
X828Y4499D1*
X844Y4493D1*
X860Y4485D1*
X875Y4475D1*
X889Y4464D1*
X901Y4451D1*
X913Y4437D1*
X922Y4423D1*
X930Y4407D1*
X937Y4390D1*
X941Y4373D1*
X944Y4355D1*
X945Y4338D1*
Y3787D1*
X944Y3770D1*
X941Y3752D1*
X937Y3735D1*
X930Y3718D1*
X922Y3702D1*
X913Y3688D1*
X901Y3674D1*
X889Y3661D1*
X875Y3650D1*
X860Y3640D1*
X844Y3632D1*
X828Y3626D1*
X810Y3621D1*
X793Y3618D1*
X776D1*
G37*
G36*
X945Y5338D2*
Y4787D1*
X944Y4770D1*
X941Y4752D1*
X937Y4735D1*
X930Y4718D1*
X922Y4702D1*
X913Y4688D1*
X901Y4674D1*
X889Y4661D1*
X875Y4650D1*
X860Y4640D1*
X844Y4632D1*
X828Y4626D1*
X810Y4621D1*
X793Y4618D1*
X776D1*
X224D1*
X207D1*
X190Y4621D1*
X172Y4626D1*
X156Y4632D1*
X140Y4640D1*
X125Y4650D1*
X111Y4661D1*
X99Y4674D1*
X87Y4688D1*
X78Y4702D1*
X70Y4718D1*
X63Y4735D1*
X59Y4752D1*
X56Y4770D1*
X55Y4787D1*
Y5338D1*
X56Y5355D1*
X59Y5373D1*
X63Y5390D1*
X70Y5407D1*
X78Y5423D1*
X87Y5437D1*
X99Y5451D1*
X111Y5464D1*
X125Y5475D1*
X140Y5485D1*
X156Y5493D1*
X172Y5499D1*
X190Y5504D1*
X207Y5507D1*
X224Y5508D1*
X776D1*
X793Y5507D1*
X810Y5504D1*
X828Y5499D1*
X844Y5493D1*
X860Y5485D1*
X875Y5475D1*
X889Y5464D1*
X901Y5451D1*
X913Y5437D1*
X922Y5423D1*
X930Y5407D1*
X937Y5390D1*
X941Y5373D1*
X944Y5355D1*
X945Y5338D1*
G37*
G36*
X224Y5618D2*
X776D1*
X793D1*
X810Y5621D1*
X828Y5626D1*
X844Y5632D1*
X860Y5640D1*
X875Y5650D1*
X889Y5661D1*
X901Y5674D1*
X913Y5688D1*
X922Y5702D1*
X930Y5718D1*
X937Y5735D1*
X941Y5752D1*
X944Y5770D1*
X945Y5787D1*
Y6338D1*
X944Y6355D1*
X941Y6373D1*
X937Y6390D1*
X930Y6407D1*
X922Y6423D1*
X913Y6437D1*
X901Y6451D1*
X889Y6464D1*
X875Y6475D1*
X860Y6485D1*
X844Y6493D1*
X828Y6499D1*
X810Y6504D1*
X793Y6507D1*
X776Y6508D1*
X224D1*
X207Y6507D1*
X190Y6504D1*
X172Y6499D1*
X156Y6493D1*
X140Y6485D1*
X125Y6475D1*
X111Y6464D1*
X99Y6451D1*
X87Y6437D1*
X78Y6423D1*
X70Y6407D1*
X63Y6390D1*
X59Y6373D1*
X56Y6355D1*
X55Y6338D1*
Y5787D1*
X56Y5770D1*
X59Y5752D1*
X63Y5735D1*
X70Y5718D1*
X78Y5702D1*
X87Y5688D1*
X99Y5674D1*
X111Y5661D1*
X125Y5650D1*
X140Y5640D1*
X156Y5632D1*
X172Y5626D1*
X190Y5621D1*
X207Y5618D1*
X224D1*
G37*
G36*
X945Y6787D2*
Y7338D1*
X944Y7355D1*
X941Y7373D1*
X937Y7390D1*
X930Y7407D1*
X922Y7423D1*
X913Y7437D1*
X901Y7451D1*
X889Y7464D1*
X875Y7475D1*
X860Y7485D1*
X844Y7493D1*
X828Y7499D1*
X810Y7504D1*
X793Y7507D1*
X776Y7508D1*
X224D1*
X207Y7507D1*
X190Y7504D1*
X172Y7499D1*
X156Y7493D1*
X140Y7485D1*
X125Y7475D1*
X111Y7464D1*
X99Y7451D1*
X87Y7437D1*
X78Y7423D1*
X70Y7407D1*
X63Y7390D1*
X59Y7373D1*
X56Y7355D1*
X55Y7338D1*
Y6787D1*
X56Y6770D1*
X59Y6752D1*
X63Y6735D1*
X70Y6718D1*
X78Y6702D1*
X87Y6688D1*
X99Y6674D1*
X111Y6661D1*
X125Y6650D1*
X140Y6640D1*
X156Y6632D1*
X172Y6626D1*
X190Y6621D1*
X207Y6618D1*
X224D1*
X776D1*
X793D1*
X810Y6621D1*
X828Y6626D1*
X844Y6632D1*
X860Y6640D1*
X875Y6650D1*
X889Y6661D1*
X901Y6674D1*
X913Y6688D1*
X922Y6702D1*
X930Y6718D1*
X937Y6735D1*
X941Y6752D1*
X944Y6770D1*
X945Y6787D1*
G37*
G36*
X3430Y8787D2*
Y9338D1*
X3431Y9355D1*
X3434Y9373D1*
X3438Y9390D1*
X3445Y9407D1*
X3453Y9423D1*
X3462Y9437D1*
X3474Y9451D1*
X3486Y9464D1*
X3500Y9475D1*
X3515Y9485D1*
X3531Y9493D1*
X3547Y9499D1*
X3565Y9504D1*
X3582Y9507D1*
X3599Y9508D1*
X4151D1*
X4168Y9507D1*
X4185Y9504D1*
X4203Y9499D1*
X4219Y9493D1*
X4235Y9485D1*
X4250Y9475D1*
X4264Y9464D1*
X4276Y9451D1*
X4288Y9437D1*
X4297Y9423D1*
X4305Y9407D1*
X4312Y9390D1*
X4316Y9373D1*
X4319Y9355D1*
X4320Y9338D1*
Y8787D1*
X4319Y8770D1*
X4316Y8752D1*
X4312Y8735D1*
X4305Y8718D1*
X4297Y8702D1*
X4288Y8688D1*
X4276Y8674D1*
X4264Y8661D1*
X4250Y8650D1*
X4235Y8640D1*
X4219Y8632D1*
X4203Y8626D1*
X4185Y8621D1*
X4168Y8618D1*
X4151D1*
X3599D1*
X3582D1*
X3565Y8621D1*
X3547Y8626D1*
X3531Y8632D1*
X3515Y8640D1*
X3500Y8650D1*
X3486Y8661D1*
X3474Y8674D1*
X3462Y8688D1*
X3453Y8702D1*
X3445Y8718D1*
X3438Y8735D1*
X3434Y8752D1*
X3431Y8770D1*
X3430Y8787D1*
G37*
G36*
X5151Y8618D2*
X4599D1*
X4582D1*
X4565Y8621D1*
X4547Y8626D1*
X4531Y8632D1*
X4515Y8640D1*
X4500Y8650D1*
X4486Y8661D1*
X4474Y8674D1*
X4462Y8688D1*
X4453Y8702D1*
X4445Y8718D1*
X4438Y8735D1*
X4434Y8752D1*
X4431Y8770D1*
X4430Y8787D1*
Y9338D1*
X4431Y9355D1*
X4434Y9373D1*
X4438Y9390D1*
X4445Y9407D1*
X4453Y9423D1*
X4462Y9437D1*
X4474Y9451D1*
X4486Y9464D1*
X4500Y9475D1*
X4515Y9485D1*
X4531Y9493D1*
X4547Y9499D1*
X4565Y9504D1*
X4582Y9507D1*
X4599Y9508D1*
X5151D1*
X5168Y9507D1*
X5185Y9504D1*
X5203Y9499D1*
X5219Y9493D1*
X5235Y9485D1*
X5250Y9475D1*
X5264Y9464D1*
X5276Y9451D1*
X5288Y9437D1*
X5297Y9423D1*
X5305Y9407D1*
X5312Y9390D1*
X5316Y9373D1*
X5319Y9355D1*
X5320Y9338D1*
Y8787D1*
X5319Y8770D1*
X5316Y8752D1*
X5312Y8735D1*
X5305Y8718D1*
X5297Y8702D1*
X5288Y8688D1*
X5276Y8674D1*
X5264Y8661D1*
X5250Y8650D1*
X5235Y8640D1*
X5219Y8632D1*
X5203Y8626D1*
X5185Y8621D1*
X5168Y8618D1*
X5151D1*
G37*
G36*
X5430Y9338D2*
Y8787D1*
X5431Y8770D1*
X5434Y8752D1*
X5438Y8735D1*
X5445Y8718D1*
X5453Y8702D1*
X5462Y8688D1*
X5474Y8674D1*
X5486Y8661D1*
X5500Y8650D1*
X5515Y8640D1*
X5531Y8632D1*
X5547Y8626D1*
X5565Y8621D1*
X5582Y8618D1*
X5599D1*
X6151D1*
X6168D1*
X6185Y8621D1*
X6203Y8626D1*
X6219Y8632D1*
X6235Y8640D1*
X6250Y8650D1*
X6264Y8661D1*
X6276Y8674D1*
X6288Y8688D1*
X6297Y8702D1*
X6305Y8718D1*
X6312Y8735D1*
X6316Y8752D1*
X6319Y8770D1*
X6320Y8787D1*
Y9338D1*
X6319Y9355D1*
X6316Y9373D1*
X6312Y9390D1*
X6305Y9407D1*
X6297Y9423D1*
X6288Y9437D1*
X6276Y9451D1*
X6264Y9464D1*
X6250Y9475D1*
X6235Y9485D1*
X6219Y9493D1*
X6203Y9499D1*
X6185Y9504D1*
X6168Y9507D1*
X6151Y9508D1*
X5599D1*
X5582Y9507D1*
X5565Y9504D1*
X5547Y9499D1*
X5531Y9493D1*
X5515Y9485D1*
X5500Y9475D1*
X5486Y9464D1*
X5474Y9451D1*
X5462Y9437D1*
X5453Y9423D1*
X5445Y9407D1*
X5438Y9390D1*
X5434Y9373D1*
X5431Y9355D1*
X5430Y9338D1*
G37*
G36*
X6599Y8618D2*
X7151D1*
X7168D1*
X7185Y8621D1*
X7203Y8626D1*
X7219Y8632D1*
X7235Y8640D1*
X7250Y8650D1*
X7264Y8661D1*
X7276Y8674D1*
X7288Y8688D1*
X7297Y8702D1*
X7305Y8718D1*
X7312Y8735D1*
X7316Y8752D1*
X7319Y8770D1*
X7320Y8787D1*
Y9338D1*
X7319Y9355D1*
X7316Y9373D1*
X7312Y9390D1*
X7305Y9407D1*
X7297Y9423D1*
X7288Y9437D1*
X7276Y9451D1*
X7264Y9464D1*
X7250Y9475D1*
X7235Y9485D1*
X7219Y9493D1*
X7203Y9499D1*
X7185Y9504D1*
X7168Y9507D1*
X7151Y9508D1*
X6599D1*
X6582Y9507D1*
X6565Y9504D1*
X6547Y9499D1*
X6531Y9493D1*
X6515Y9485D1*
X6500Y9475D1*
X6486Y9464D1*
X6474Y9451D1*
X6462Y9437D1*
X6453Y9423D1*
X6445Y9407D1*
X6438Y9390D1*
X6434Y9373D1*
X6431Y9355D1*
X6430Y9338D1*
Y8787D1*
X6431Y8770D1*
X6434Y8752D1*
X6438Y8735D1*
X6445Y8718D1*
X6453Y8702D1*
X6462Y8688D1*
X6474Y8674D1*
X6486Y8661D1*
X6500Y8650D1*
X6515Y8640D1*
X6531Y8632D1*
X6547Y8626D1*
X6565Y8621D1*
X6582Y8618D1*
X6599D1*
G37*
G36*
X4605Y337D2*
Y1288D1*
X4606Y1305D1*
X4609Y1323D1*
X4613Y1340D1*
X4620Y1357D1*
X4628Y1373D1*
X4637Y1387D1*
X4649Y1401D1*
X4661Y1414D1*
X4675Y1425D1*
X4690Y1435D1*
X4706Y1443D1*
X4722Y1449D1*
X4740Y1454D1*
X4757Y1457D1*
X4774D1*
X5726D1*
X5743D1*
X5760Y1454D1*
X5778Y1449D1*
X5794Y1443D1*
X5810Y1435D1*
X5825Y1425D1*
X5839Y1414D1*
X5851Y1401D1*
X5863Y1387D1*
X5872Y1373D1*
X5880Y1357D1*
X5887Y1340D1*
X5891Y1323D1*
X5894Y1305D1*
X5895Y1288D1*
Y337D1*
X5894Y320D1*
X5891Y302D1*
X5887Y285D1*
X5880Y268D1*
X5872Y252D1*
X5863Y238D1*
X5851Y224D1*
X5839Y211D1*
X5825Y200D1*
X5810Y190D1*
X5794Y182D1*
X5778Y176D1*
X5760Y171D1*
X5743Y168D1*
X5726Y167D1*
X4774D1*
X4757Y168D1*
X4740Y171D1*
X4722Y176D1*
X4706Y182D1*
X4690Y190D1*
X4675Y200D1*
X4661Y211D1*
X4649Y224D1*
X4637Y238D1*
X4628Y252D1*
X4620Y268D1*
X4613Y285D1*
X4609Y302D1*
X4606Y320D1*
X4605Y337D1*
G37*
G36*
X4395D2*
Y1288D1*
X4394Y1305D1*
X4391Y1323D1*
X4387Y1340D1*
X4380Y1357D1*
X4372Y1373D1*
X4363Y1387D1*
X4351Y1401D1*
X4339Y1414D1*
X4325Y1425D1*
X4310Y1435D1*
X4294Y1443D1*
X4278Y1449D1*
X4260Y1454D1*
X4243Y1457D1*
X4226D1*
X3274D1*
X3257D1*
X3240Y1454D1*
X3222Y1449D1*
X3206Y1443D1*
X3190Y1435D1*
X3175Y1425D1*
X3161Y1414D1*
X3149Y1401D1*
X3137Y1387D1*
X3128Y1373D1*
X3120Y1357D1*
X3113Y1340D1*
X3109Y1323D1*
X3106Y1305D1*
X3105Y1288D1*
Y337D1*
X3106Y320D1*
X3109Y302D1*
X3113Y285D1*
X3120Y268D1*
X3128Y252D1*
X3137Y238D1*
X3149Y224D1*
X3161Y211D1*
X3175Y200D1*
X3190Y190D1*
X3206Y182D1*
X3222Y176D1*
X3240Y171D1*
X3257Y168D1*
X3274Y167D1*
X4226D1*
X4243Y168D1*
X4260Y171D1*
X4278Y176D1*
X4294Y182D1*
X4310Y190D1*
X4325Y200D1*
X4339Y211D1*
X4351Y224D1*
X4363Y238D1*
X4372Y252D1*
X4380Y268D1*
X4387Y285D1*
X4391Y302D1*
X4394Y320D1*
X4395Y337D1*
G37*
G36*
X8511Y8667D2*
X9339D1*
Y7839D1*
X8511D1*
Y8667D1*
G37*
G36*
X9335Y8736D2*
X8507D1*
Y9564D1*
X9335D1*
Y8736D1*
G37*
G36*
X61Y8617D2*
X889D1*
Y7789D1*
X61D1*
Y8617D1*
G37*
G36*
X885Y8686D2*
X57D1*
Y9514D1*
X885D1*
Y8686D1*
G37*
G36*
X9314Y958D2*
X8486D1*
Y1786D1*
X9314D1*
Y958D1*
G37*
G36*
X8490Y889D2*
X9318D1*
Y61D1*
X8490D1*
Y889D1*
G37*
G36*
X889Y983D2*
X61D1*
Y1811D1*
X889D1*
Y983D1*
G37*
G36*
X65Y914D2*
X893D1*
Y86D1*
X65D1*
Y914D1*
G37*
M02*
