G04 DipTrace Beta 2.3.5.2*
%INLulfroMiniBrush.GBL*%
%MOIN*%
%ADD18C,0.005*%
%ADD44C,0.018*%
%FSLAX44Y44*%
G04*
G70*
G90*
G75*
G01*
%LNBottom*%
%LPD*%
D44*
X5500Y8140D3*
X8513Y2988D3*
X530Y2300D3*
X7210Y6400D3*
X5025Y4475D3*
X3820Y7470D3*
X2750Y4688D3*
X3275Y8675D3*
X3625Y5875D3*
X7620Y2330D3*
X4070Y7350D3*
X3625Y5600D3*
X8050Y4330D3*
X4520Y4270D3*
X4500Y8313D3*
X2312Y6688D3*
X5875Y6813D3*
X5625Y3625D3*
X7938Y2875D3*
X9090Y5060D3*
X510Y3370D3*
X2270Y3590D3*
X4125Y3125D3*
X5550D3*
X3687Y6563D3*
X9040Y5840D3*
X7910Y6330D3*
X5600Y9350D3*
X6150D3*
Y8775D3*
X5600D3*
X5700Y7190D3*
X7430Y7970D3*
X6700Y3425D3*
X5000Y6250D3*
X2975Y6275D3*
X9050Y5325D3*
X3650Y5275D3*
X6490Y5040D3*
X6300Y4000D3*
X8284Y4150D3*
X1375Y3062D3*
X4270Y4170D3*
X725Y1675D3*
X475D3*
X225D3*
Y1475D3*
X475D3*
X725D3*
Y1175D3*
X225D3*
X8250Y6688D3*
X8125Y7375D3*
X7875Y7125D3*
X8375Y7375D3*
X7875D3*
X8000Y6688D3*
X7500Y6563D3*
X8500Y6688D3*
X225Y7925D3*
X475D3*
X725D3*
Y8125D3*
X475D3*
X225D3*
Y8425D3*
X725D3*
X8675Y7975D3*
X8925D3*
X9175D3*
Y8175D3*
X8925D3*
X8675D3*
Y8475D3*
X9175D3*
X9150Y1650D3*
X8900D3*
X8650D3*
Y1450D3*
X8900D3*
X9150D3*
Y1150D3*
X8650D3*
X7875Y6875D3*
X8875Y7625D3*
X2000Y1562D3*
X8625Y7375D3*
Y7125D3*
Y6875D3*
X2250Y1562D3*
X2500D3*
X3500D3*
X2250Y1313D3*
X2750Y1562D3*
X3000D3*
X3250D3*
X2500Y1062D3*
X2750D3*
X3000D3*
Y1313D3*
X3250Y1000D3*
Y1313D3*
X3563D3*
X3938D3*
X4250D3*
Y1000D3*
X3250Y625D3*
Y313D3*
X3563D3*
X3938D3*
X4250D3*
Y625D3*
X4750Y1313D3*
X5000D3*
X5250D3*
X5500D3*
X5750D3*
Y1062D3*
Y813D3*
Y562D3*
Y313D3*
X5500D3*
X5250D3*
X5000D3*
X4750D3*
Y562D3*
Y813D3*
Y1063D3*
X5563Y1125D3*
X4938D3*
Y500D3*
X5563D3*
X8875Y7375D3*
X9125D3*
Y7625D3*
X8625D3*
X6250Y438D3*
X7000Y688D3*
Y438D3*
X6125Y688D3*
X6187Y1000D3*
X6375Y688D3*
X6688D3*
X6250Y187D3*
X7000D3*
X7250Y438D3*
Y187D3*
X7500D3*
X2870Y9190D3*
X2900Y8940D3*
X2187Y8938D3*
X2438D3*
X2688D3*
X2937Y8625D3*
X2438Y8375D3*
X2688D3*
X2187D3*
X2937Y8125D3*
Y8375D3*
X2187Y8688D3*
Y9187D3*
X8625Y4188D3*
X8938D3*
X1060Y2320D3*
Y2130D3*
X1688Y3188D3*
Y2875D3*
X2000D3*
Y3188D3*
X187Y7625D3*
X500D3*
X813D3*
X2125Y7437D3*
X250Y6813D3*
X750D3*
Y7312D3*
X250D3*
X2875Y2563D3*
X3250D3*
X3625D3*
X500Y6380D3*
X820Y6060D3*
X500Y5740D3*
X180Y6060D3*
X946Y9421D2*
D18*
X3385D1*
X7366D2*
X8446D1*
X946Y9373D2*
X3371D1*
X7379D2*
X8446D1*
X946Y9324D2*
X2086D1*
X2289D2*
X2765D1*
X2974D2*
X3368D1*
X7382D2*
X8446D1*
X946Y9275D2*
X2040D1*
X2335D2*
X2721D1*
X3018D2*
X3368D1*
X7382D2*
X8446D1*
X946Y9227D2*
X2020D1*
X2355D2*
X2702D1*
X3038D2*
X3368D1*
X7382D2*
X8446D1*
X946Y9178D2*
X2016D1*
X2359D2*
X2699D1*
X3042D2*
X3368D1*
X7382D2*
X8446D1*
X946Y9129D2*
X2026D1*
X2349D2*
X2710D1*
X3031D2*
X3368D1*
X7382D2*
X8446D1*
X946Y9080D2*
X2054D1*
X2321D2*
X2346D1*
X2528D2*
X2596D1*
X3001D2*
X3368D1*
X7382D2*
X8446D1*
X946Y9032D2*
X2045D1*
X3044D2*
X3368D1*
X7382D2*
X8446D1*
X946Y8983D2*
X2022D1*
X3066D2*
X3368D1*
X7382D2*
X8446D1*
X946Y8934D2*
X2016D1*
X3072D2*
X3368D1*
X7382D2*
X8446D1*
X946Y8886D2*
X2024D1*
X3063D2*
X3368D1*
X7382D2*
X8446D1*
X946Y8837D2*
X2050D1*
X3036D2*
X3230D1*
X3320D2*
X3368D1*
X7382D2*
X8446D1*
X946Y8788D2*
X2050D1*
X2977D2*
X3147D1*
X7382D2*
X8446D1*
X946Y8740D2*
X2024D1*
X3064D2*
X3116D1*
X7377D2*
X8447D1*
X945Y8691D2*
X2016D1*
X4360D2*
X4389D1*
X5360D2*
X5389D1*
X6360D2*
X6389D1*
X7360D2*
X8482D1*
X913Y8642D2*
X2021D1*
X4329D2*
X4421D1*
X5329D2*
X5421D1*
X6329D2*
X6421D1*
X7329D2*
X9278D1*
X97Y8594D2*
X2045D1*
X3426D2*
X3478D1*
X4273D2*
X4478D1*
X5273D2*
X5478D1*
X6273D2*
X6478D1*
X7273D2*
X9278D1*
X97Y8545D2*
X2096D1*
X3089D2*
X3165D1*
X3385D2*
X9278D1*
X97Y8496D2*
X2068D1*
X3057D2*
X9278D1*
X97Y8448D2*
X2032D1*
X3092D2*
X4397D1*
X4603D2*
X9278D1*
X97Y8399D2*
X2018D1*
X3107D2*
X4352D1*
X4648D2*
X9278D1*
X97Y8350D2*
X2018D1*
X3107D2*
X4332D1*
X4667D2*
X9278D1*
X97Y8301D2*
X2032D1*
X3092D2*
X4329D1*
X4671D2*
X5453D1*
X5547D2*
X9278D1*
X97Y8253D2*
X2069D1*
X3056D2*
X4339D1*
X4661D2*
X5372D1*
X5628D2*
X9278D1*
X97Y8204D2*
X2786D1*
X3089D2*
X4368D1*
X4632D2*
X5341D1*
X5659D2*
X9278D1*
X97Y8155D2*
X2768D1*
X3106D2*
X4439D1*
X4561D2*
X5329D1*
X5671D2*
X9278D1*
X97Y8107D2*
X2767D1*
X3108D2*
X5332D1*
X5668D2*
X7329D1*
X7531D2*
X9278D1*
X97Y8058D2*
X2779D1*
X3096D2*
X5350D1*
X5650D2*
X7283D1*
X7577D2*
X9278D1*
X97Y8009D2*
X2812D1*
X3063D2*
X5391D1*
X5609D2*
X7263D1*
X7597D2*
X9278D1*
X97Y7961D2*
X2904D1*
X2971D2*
X7258D1*
X7602D2*
X9278D1*
X97Y7912D2*
X7268D1*
X7592D2*
X9278D1*
X97Y7863D2*
X7296D1*
X7564D2*
X9278D1*
X97Y7815D2*
X7364D1*
X7496D2*
X9278D1*
X281Y7766D2*
X406D1*
X594D2*
X718D1*
X906D2*
X8531D1*
X8719D2*
X8781D1*
X8969D2*
X9031D1*
X9219D2*
X9278D1*
X956Y7717D2*
X8481D1*
X978Y7669D2*
X8459D1*
X985Y7620D2*
X3742D1*
X3899D2*
X8454D1*
X975Y7571D2*
X2020D1*
X2230D2*
X3682D1*
X3958D2*
X8462D1*
X949Y7522D2*
X1976D1*
X2274D2*
X3657D1*
X3983D2*
X7792D1*
X7958D2*
X8042D1*
X8208D2*
X8292D1*
X8458D2*
X8489D1*
X961Y7474D2*
X1957D1*
X2293D2*
X3648D1*
X4187D2*
X7736D1*
X989Y7425D2*
X1954D1*
X2296D2*
X3654D1*
X4224D2*
X7711D1*
X1003Y7376D2*
X1964D1*
X2285D2*
X3677D1*
X4240D2*
X7704D1*
X1007Y7328D2*
X1994D1*
X2256D2*
X3728D1*
X4240D2*
X5601D1*
X5799D2*
X7710D1*
X1007Y7279D2*
X2068D1*
X2182D2*
X3914D1*
X4226D2*
X5554D1*
X5846D2*
X7733D1*
X1007Y7230D2*
X3949D1*
X4192D2*
X5533D1*
X5867D2*
X7740D1*
X8760D2*
X8787D1*
X8964D2*
X9037D1*
X9214D2*
X9278D1*
X1007Y7182D2*
X5529D1*
X5871D2*
X7713D1*
X8787D2*
X9278D1*
X1007Y7133D2*
X5538D1*
X5862D2*
X7704D1*
X8796D2*
X9278D1*
X1007Y7084D2*
X5566D1*
X5834D2*
X7708D1*
X8792D2*
X9278D1*
X1007Y7036D2*
X5632D1*
X5768D2*
X7729D1*
X8771D2*
X9278D1*
X1007Y6987D2*
X7746D1*
X8754D2*
X9278D1*
X1007Y6938D2*
X5761D1*
X5990D2*
X7715D1*
X8785D2*
X9278D1*
X1007Y6890D2*
X5722D1*
X6028D2*
X7704D1*
X8796D2*
X9278D1*
X1007Y6841D2*
X2242D1*
X2383D2*
X5706D1*
X6045D2*
X7707D1*
X8793D2*
X9278D1*
X1007Y6792D2*
X2178D1*
X2447D2*
X5704D1*
X6046D2*
X7725D1*
X8775D2*
X9278D1*
X1003Y6743D2*
X2150D1*
X2474D2*
X5718D1*
X6032D2*
X7768D1*
X8733D2*
X9278D1*
X987Y6695D2*
X2141D1*
X2484D2*
X3581D1*
X3794D2*
X5752D1*
X5999D2*
X7393D1*
X7606D2*
X7829D1*
X8671D2*
X9278D1*
X957Y6646D2*
X2146D1*
X2479D2*
X3538D1*
X3837D2*
X5857D1*
X5892D2*
X7350D1*
X7649D2*
X7833D1*
X8667D2*
X9278D1*
X903Y6597D2*
X2167D1*
X2458D2*
X3519D1*
X3856D2*
X7332D1*
X7668D2*
X7854D1*
X8646D2*
X9278D1*
X862Y6549D2*
X2214D1*
X2410D2*
X3516D1*
X3859D2*
X7129D1*
X7291D2*
X7329D1*
X7671D2*
X7902D1*
X8098D2*
X8152D1*
X8348D2*
X8402D1*
X8598D2*
X9278D1*
X938Y6500D2*
X3528D1*
X3847D2*
X7071D1*
X7660D2*
X9278D1*
X976Y6451D2*
X3558D1*
X3817D2*
X7046D1*
X7629D2*
X7790D1*
X8029D2*
X9278D1*
X997Y6403D2*
X2863D1*
X3088D2*
X3635D1*
X3740D2*
X4928D1*
X5072D2*
X7038D1*
X7381D2*
X7447D1*
X7553D2*
X7755D1*
X8065D2*
X9278D1*
X1006Y6354D2*
X2823D1*
X3127D2*
X4864D1*
X5135D2*
X7045D1*
X7375D2*
X7740D1*
X8080D2*
X9278D1*
X1007Y6305D2*
X2806D1*
X3144D2*
X4838D1*
X5163D2*
X7068D1*
X7353D2*
X7740D1*
X8080D2*
X9278D1*
X1007Y6257D2*
X2804D1*
X3146D2*
X4829D1*
X5172D2*
X7120D1*
X7300D2*
X7755D1*
X8065D2*
X9278D1*
X1007Y6208D2*
X2818D1*
X3133D2*
X4833D1*
X5167D2*
X7791D1*
X8029D2*
X9278D1*
X1007Y6159D2*
X2850D1*
X3100D2*
X4855D1*
X5145D2*
X9278D1*
X1007Y6111D2*
X2942D1*
X3008D2*
X4904D1*
X5096D2*
X9278D1*
X1007Y6062D2*
X9278D1*
X1007Y6013D2*
X3526D1*
X3724D2*
X9278D1*
X1007Y5964D2*
X3479D1*
X3771D2*
X8924D1*
X9156D2*
X9278D1*
X1007Y5916D2*
X3458D1*
X3792D2*
X8886D1*
X9194D2*
X9278D1*
X1007Y5867D2*
X3454D1*
X3796D2*
X8871D1*
X9210D2*
X9278D1*
X1007Y5818D2*
X3463D1*
X3787D2*
X8870D1*
X9210D2*
X9278D1*
X1006Y5770D2*
X3490D1*
X3760D2*
X8884D1*
X9196D2*
X9278D1*
X997Y5721D2*
X3505D1*
X3745D2*
X8918D1*
X9162D2*
X9278D1*
X975Y5672D2*
X3470D1*
X3781D2*
X9278D1*
X937Y5624D2*
X3455D1*
X3796D2*
X9278D1*
X859Y5575D2*
X3455D1*
X3795D2*
X9278D1*
X906Y5526D2*
X3470D1*
X3780D2*
X9278D1*
X958Y5478D2*
X3507D1*
X3743D2*
X8978D1*
X9122D2*
X9278D1*
X988Y5429D2*
X3581D1*
X3720D2*
X8914D1*
X9185D2*
X9278D1*
X1003Y5380D2*
X3515D1*
X3785D2*
X8888D1*
X9213D2*
X9278D1*
X1007Y5332D2*
X3488D1*
X3812D2*
X8879D1*
X9222D2*
X9278D1*
X1007Y5283D2*
X3479D1*
X3821D2*
X8883D1*
X9217D2*
X9278D1*
X1007Y5234D2*
X3483D1*
X3817D2*
X8905D1*
X9195D2*
X9278D1*
X1007Y5185D2*
X3504D1*
X3796D2*
X6404D1*
X6577D2*
X8954D1*
X9205D2*
X9278D1*
X1007Y5137D2*
X3551D1*
X3749D2*
X6349D1*
X6631D2*
X8937D1*
X9243D2*
X9278D1*
X1007Y5088D2*
X6325D1*
X6655D2*
X8921D1*
X1007Y5039D2*
X6318D1*
X6662D2*
X8919D1*
X1007Y4991D2*
X6325D1*
X6654D2*
X8933D1*
X9247D2*
X9278D1*
X1007Y4942D2*
X6350D1*
X6630D2*
X8967D1*
X9213D2*
X9278D1*
X1007Y4893D2*
X6405D1*
X6574D2*
X9076D1*
X9104D2*
X9278D1*
X1007Y4845D2*
X2689D1*
X2811D2*
X9278D1*
X1007Y4796D2*
X2618D1*
X2881D2*
X9278D1*
X1003Y4747D2*
X2589D1*
X2911D2*
X9278D1*
X989Y4699D2*
X2579D1*
X2921D2*
X9278D1*
X960Y4650D2*
X2582D1*
X2917D2*
X9278D1*
X910Y4601D2*
X2602D1*
X2898D2*
X4911D1*
X5139D2*
X9278D1*
X853Y4553D2*
X2646D1*
X2853D2*
X4872D1*
X5178D2*
X9278D1*
X934Y4504D2*
X4856D1*
X5194D2*
X9278D1*
X974Y4455D2*
X4854D1*
X5196D2*
X7935D1*
X8165D2*
X9278D1*
X996Y4406D2*
X4419D1*
X4621D2*
X4868D1*
X5182D2*
X7896D1*
X8203D2*
X9278D1*
X1006Y4358D2*
X4373D1*
X4667D2*
X4901D1*
X5149D2*
X7881D1*
X8220D2*
X9278D1*
X1007Y4309D2*
X4173D1*
X4687D2*
X5002D1*
X5048D2*
X7879D1*
X8339D2*
X8506D1*
X8744D2*
X8818D1*
X9056D2*
X9278D1*
X1007Y4260D2*
X4125D1*
X4692D2*
X7893D1*
X8414D2*
X8470D1*
X9092D2*
X9278D1*
X1007Y4212D2*
X4104D1*
X4681D2*
X7927D1*
X9107D2*
X9278D1*
X1007Y4163D2*
X4098D1*
X4653D2*
X6260D1*
X6341D2*
X8113D1*
X9107D2*
X9278D1*
X1007Y4114D2*
X4107D1*
X4585D2*
X6174D1*
X6427D2*
X8116D1*
X9092D2*
X9278D1*
X1007Y4066D2*
X4135D1*
X4405D2*
X6142D1*
X6458D2*
X8135D1*
X8433D2*
X8506D1*
X8744D2*
X8818D1*
X9056D2*
X9278D1*
X1007Y4017D2*
X4199D1*
X4342D2*
X6129D1*
X6471D2*
X8179D1*
X8390D2*
X9278D1*
X1007Y3968D2*
X6131D1*
X6469D2*
X9278D1*
X1007Y3920D2*
X6149D1*
X6451D2*
X9278D1*
X1007Y3871D2*
X6189D1*
X6410D2*
X9278D1*
X1007Y3822D2*
X9278D1*
X1006Y3774D2*
X5544D1*
X5706D2*
X9278D1*
X998Y3725D2*
X2167D1*
X2374D2*
X5486D1*
X5764D2*
X9278D1*
X978Y3676D2*
X2122D1*
X2418D2*
X5461D1*
X5789D2*
X9278D1*
X941Y3627D2*
X2103D1*
X2438D2*
X5454D1*
X5797D2*
X9278D1*
X97Y3579D2*
X131D1*
X869D2*
X2099D1*
X2442D2*
X5460D1*
X5790D2*
X6630D1*
X6770D2*
X9278D1*
X97Y3530D2*
X458D1*
X562D2*
X2109D1*
X2431D2*
X5482D1*
X5767D2*
X6565D1*
X6835D2*
X9278D1*
X97Y3481D2*
X381D1*
X639D2*
X2139D1*
X2402D2*
X5535D1*
X5715D2*
X6538D1*
X6862D2*
X9278D1*
X97Y3433D2*
X350D1*
X670D2*
X2209D1*
X2331D2*
X6529D1*
X6871D2*
X9278D1*
X97Y3384D2*
X339D1*
X681D2*
X6533D1*
X6867D2*
X9278D1*
X97Y3335D2*
X342D1*
X678D2*
X1605D1*
X1770D2*
X1918D1*
X2082D2*
X6554D1*
X6846D2*
X9278D1*
X97Y3287D2*
X361D1*
X660D2*
X1548D1*
X1827D2*
X1860D1*
X2139D2*
X4079D1*
X4171D2*
X5504D1*
X5596D2*
X6602D1*
X6799D2*
X9278D1*
X97Y3238D2*
X403D1*
X617D2*
X1524D1*
X2164D2*
X3997D1*
X4253D2*
X5422D1*
X5678D2*
X9278D1*
X97Y3189D2*
X1261D1*
X1489D2*
X1516D1*
X2172D2*
X3966D1*
X4284D2*
X5391D1*
X5709D2*
X9278D1*
X97Y3141D2*
X1222D1*
X2165D2*
X3954D1*
X4296D2*
X5379D1*
X5721D2*
X8441D1*
X8584D2*
X9278D1*
X97Y3092D2*
X1206D1*
X2142D2*
X3957D1*
X4293D2*
X5382D1*
X5718D2*
X8378D1*
X8648D2*
X9278D1*
X97Y3043D2*
X1204D1*
X1546D2*
X1599D1*
X2089D2*
X3975D1*
X4275D2*
X5400D1*
X5700D2*
X8350D1*
X8674D2*
X9278D1*
X97Y2995D2*
X1218D1*
X1532D2*
X1566D1*
X2121D2*
X4016D1*
X4234D2*
X5441D1*
X5659D2*
X7816D1*
X8059D2*
X8341D1*
X8685D2*
X9278D1*
X97Y2946D2*
X1250D1*
X1499D2*
X1531D1*
X2156D2*
X7782D1*
X8093D2*
X8346D1*
X8679D2*
X9278D1*
X97Y2897D2*
X1347D1*
X1403D2*
X1517D1*
X2171D2*
X7767D1*
X8108D2*
X8368D1*
X8658D2*
X9278D1*
X97Y2848D2*
X1518D1*
X2170D2*
X7768D1*
X8107D2*
X8415D1*
X8610D2*
X9278D1*
X97Y2800D2*
X1533D1*
X2154D2*
X7783D1*
X8092D2*
X9278D1*
X97Y2751D2*
X1571D1*
X1804D2*
X1883D1*
X2117D2*
X7821D1*
X8054D2*
X9278D1*
X97Y2702D2*
X2779D1*
X2971D2*
X3154D1*
X3346D2*
X3529D1*
X3721D2*
X9278D1*
X97Y2654D2*
X2730D1*
X3020D2*
X3105D1*
X3395D2*
X3480D1*
X3770D2*
X9278D1*
X97Y2605D2*
X2709D1*
X3042D2*
X3084D1*
X3417D2*
X3459D1*
X3792D2*
X9278D1*
X97Y2556D2*
X2704D1*
X3047D2*
X3079D1*
X3422D2*
X3454D1*
X3797D2*
X9278D1*
X97Y2508D2*
X2712D1*
X3038D2*
X3087D1*
X3413D2*
X3462D1*
X3788D2*
X9278D1*
X97Y2459D2*
X475D1*
X585D2*
X963D1*
X1157D2*
X2739D1*
X3011D2*
X3114D1*
X3386D2*
X3489D1*
X3761D2*
X7509D1*
X7731D2*
X9278D1*
X97Y2410D2*
X400D1*
X660D2*
X914D1*
X1206D2*
X2802D1*
X2949D2*
X3177D1*
X3324D2*
X3552D1*
X3699D2*
X7468D1*
X7771D2*
X9278D1*
X97Y2362D2*
X370D1*
X690D2*
X893D1*
X1227D2*
X7451D1*
X7789D2*
X9278D1*
X97Y2313D2*
X359D1*
X701D2*
X889D1*
X1231D2*
X7449D1*
X7791D2*
X9278D1*
X97Y2264D2*
X362D1*
X698D2*
X898D1*
X1222D2*
X7461D1*
X7778D2*
X9278D1*
X97Y2216D2*
X381D1*
X679D2*
X912D1*
X1208D2*
X7493D1*
X7746D2*
X9278D1*
X97Y2167D2*
X425D1*
X635D2*
X893D1*
X1228D2*
X7580D1*
X7660D2*
X9278D1*
X97Y2118D2*
X889D1*
X1231D2*
X9278D1*
X97Y2069D2*
X900D1*
X1221D2*
X9278D1*
X97Y2021D2*
X929D1*
X1191D2*
X9278D1*
X97Y1972D2*
X1001D1*
X1119D2*
X9278D1*
X97Y1923D2*
X9278D1*
X97Y1875D2*
X9278D1*
X97Y1826D2*
X9278D1*
X97Y1777D2*
X9278D1*
X97Y1729D2*
X1980D1*
X2020D2*
X2230D1*
X2270D2*
X2480D1*
X2520D2*
X2730D1*
X2770D2*
X2980D1*
X3020D2*
X3230D1*
X3270D2*
X3480D1*
X3520D2*
X9278D1*
X97Y1680D2*
X1876D1*
X3624D2*
X9278D1*
X97Y1631D2*
X1843D1*
X3657D2*
X9278D1*
X97Y1583D2*
X1829D1*
X3671D2*
X9278D1*
X97Y1534D2*
X1831D1*
X3670D2*
X9278D1*
X97Y1485D2*
X1847D1*
X4341D2*
X9278D1*
X97Y1437D2*
X1886D1*
X4401D2*
X9278D1*
X97Y1388D2*
X2096D1*
X2404D2*
X2846D1*
X4433D2*
X9278D1*
X97Y1339D2*
X2080D1*
X2420D2*
X2830D1*
X4451D2*
X9278D1*
X97Y1290D2*
X2079D1*
X2421D2*
X2829D1*
X4456D2*
X9278D1*
X97Y1242D2*
X2094D1*
X2406D2*
X2844D1*
X4457D2*
X9278D1*
X97Y1193D2*
X2129D1*
X2609D2*
X2641D1*
X4457D2*
X9278D1*
X97Y1144D2*
X2350D1*
X4457D2*
X6099D1*
X6276D2*
X9278D1*
X97Y1096D2*
X2332D1*
X4457D2*
X6046D1*
X6329D2*
X9278D1*
X97Y1047D2*
X2329D1*
X4457D2*
X6022D1*
X6353D2*
X9278D1*
X97Y998D2*
X2341D1*
X4457D2*
X6016D1*
X6360D2*
X9278D1*
X931Y950D2*
X2372D1*
X4457D2*
X6023D1*
X6352D2*
X9278D1*
X954Y901D2*
X2453D1*
X2547D2*
X2703D1*
X2797D2*
X2953D1*
X4457D2*
X6048D1*
X6327D2*
X8436D1*
X954Y852D2*
X3043D1*
X4457D2*
X6093D1*
X6270D2*
X6343D1*
X6406D2*
X6656D1*
X6719D2*
X6968D1*
X7031D2*
X8429D1*
X954Y804D2*
X3043D1*
X4457D2*
X6000D1*
X6500D2*
X6563D1*
X6813D2*
X6875D1*
X7125D2*
X8429D1*
X954Y755D2*
X3043D1*
X4457D2*
X5968D1*
X7158D2*
X8429D1*
X954Y706D2*
X3043D1*
X4457D2*
X5954D1*
X7171D2*
X8429D1*
X954Y658D2*
X3043D1*
X4457D2*
X5956D1*
X7169D2*
X8429D1*
X954Y609D2*
X3043D1*
X4457D2*
X5973D1*
X7152D2*
X8429D1*
X954Y560D2*
X3043D1*
X4457D2*
X6012D1*
X7368D2*
X8429D1*
X954Y511D2*
X3043D1*
X4457D2*
X6096D1*
X7405D2*
X8429D1*
X954Y463D2*
X3043D1*
X4457D2*
X6080D1*
X7420D2*
X8429D1*
X954Y414D2*
X3043D1*
X4457D2*
X6080D1*
X7421D2*
X8429D1*
X954Y365D2*
X3043D1*
X4457D2*
X6094D1*
X7406D2*
X8429D1*
X954Y317D2*
X3044D1*
X4456D2*
X6130D1*
X7610D2*
X8429D1*
X954Y268D2*
X3054D1*
X4446D2*
X6099D1*
X7651D2*
X8429D1*
X954Y219D2*
X3076D1*
X4424D2*
X6081D1*
X7669D2*
X8429D1*
X954Y171D2*
X3116D1*
X4384D2*
X6079D1*
X7671D2*
X8429D1*
X954Y122D2*
X3199D1*
X4301D2*
X6092D1*
X7659D2*
X8429D1*
X750Y3561D2*
X205D1*
X182Y3565D1*
X159Y3570D1*
X136Y3579D1*
X115Y3589D1*
X96Y3601D1*
X92Y3595D1*
Y971D1*
X873D1*
X897Y967D1*
X919Y955D1*
X936Y937D1*
X947Y914D1*
X950Y894D1*
X949Y119D1*
X967Y92D1*
X6112Y94D1*
X6099Y115D1*
X6090Y139D1*
X6085Y163D1*
X6083Y188D1*
X6085Y213D1*
X6091Y237D1*
X6100Y260D1*
X6112Y282D1*
X6128Y301D1*
X6140Y313D1*
X6127Y324D1*
X6112Y344D1*
X6099Y365D1*
X6090Y389D1*
X6085Y413D1*
X6083Y438D1*
X6085Y463D1*
X6091Y487D1*
X6100Y510D1*
X6106Y522D1*
X6088Y525D1*
X6064Y532D1*
X6041Y543D1*
X6021Y557D1*
X6002Y574D1*
X5987Y594D1*
X5974Y615D1*
X5965Y639D1*
X5960Y663D1*
X5958Y688D1*
X5960Y713D1*
X5966Y737D1*
X5975Y760D1*
X5987Y782D1*
X6003Y801D1*
X6021Y818D1*
X6042Y832D1*
X6064Y843D1*
X6088Y850D1*
X6108Y853D1*
X6083Y870D1*
X6065Y887D1*
X6049Y906D1*
X6037Y928D1*
X6028Y951D1*
X6022Y975D1*
X6020Y1000D1*
X6022Y1025D1*
X6028Y1050D1*
X6037Y1073D1*
X6050Y1094D1*
X6065Y1114D1*
X6084Y1131D1*
X6104Y1145D1*
X6127Y1156D1*
X6151Y1163D1*
X6176Y1167D1*
X6201Y1166D1*
X6225Y1163D1*
X6249Y1155D1*
X6272Y1144D1*
X6292Y1130D1*
X6310Y1113D1*
X6326Y1094D1*
X6338Y1072D1*
X6347Y1049D1*
X6353Y1024D1*
X6354Y1000D1*
X6353Y975D1*
X6347Y951D1*
X6338Y927D1*
X6325Y906D1*
X6310Y886D1*
X6292Y869D1*
X6271Y855D1*
X6248Y844D1*
X6225Y837D1*
X6205Y834D1*
X6230Y818D1*
X6250Y798D1*
X6271Y818D1*
X6292Y832D1*
X6314Y843D1*
X6338Y850D1*
X6363Y854D1*
X6388D1*
X6413Y850D1*
X6437Y843D1*
X6459Y832D1*
X6480Y818D1*
X6498Y801D1*
X6513Y781D1*
X6526Y759D1*
X6531Y746D1*
X6537Y760D1*
X6550Y782D1*
X6565Y801D1*
X6584Y818D1*
X6604Y832D1*
X6627Y843D1*
X6651Y850D1*
X6676Y854D1*
X6701D1*
X6725Y850D1*
X6749Y843D1*
X6772Y832D1*
X6792Y818D1*
X6810Y801D1*
X6826Y781D1*
X6838Y759D1*
X6844Y746D1*
X6850Y760D1*
X6862Y782D1*
X6878Y801D1*
X6896Y818D1*
X6917Y832D1*
X6939Y843D1*
X6963Y850D1*
X6988Y854D1*
X7013D1*
X7038Y850D1*
X7062Y843D1*
X7084Y832D1*
X7105Y818D1*
X7123Y801D1*
X7138Y781D1*
X7151Y759D1*
X7160Y736D1*
X7165Y712D1*
X7167Y688D1*
X7165Y663D1*
X7160Y638D1*
X7150Y615D1*
X7138Y593D1*
X7122Y574D1*
X7110Y563D1*
X7125Y548D1*
X7146Y568D1*
X7167Y582D1*
X7189Y593D1*
X7213Y600D1*
X7238Y604D1*
X7263D1*
X7288Y600D1*
X7312Y593D1*
X7334Y582D1*
X7355Y568D1*
X7373Y551D1*
X7388Y531D1*
X7401Y509D1*
X7410Y486D1*
X7415Y462D1*
X7417Y438D1*
X7415Y413D1*
X7410Y388D1*
X7400Y365D1*
X7388Y343D1*
X7372Y324D1*
X7360Y313D1*
X7375Y298D1*
X7396Y318D1*
X7417Y332D1*
X7439Y343D1*
X7463Y350D1*
X7488Y354D1*
X7513D1*
X7538Y350D1*
X7562Y343D1*
X7584Y332D1*
X7605Y318D1*
X7623Y301D1*
X7638Y281D1*
X7651Y259D1*
X7660Y236D1*
X7665Y212D1*
X7667Y187D1*
X7665Y163D1*
X7660Y138D1*
X7650Y115D1*
X7637Y93D1*
X8434Y92D1*
X8433Y181D1*
Y869D1*
X8437Y893D1*
X8449Y915D1*
X8467Y932D1*
X8490Y943D1*
X8510Y946D1*
X9283D1*
Y1817D1*
Y7320D1*
X9275Y7302D1*
X9263Y7281D1*
X9247Y7261D1*
X9229Y7244D1*
X9208Y7230D1*
X9186Y7219D1*
X9162Y7212D1*
X9137Y7208D1*
X9112D1*
X9088Y7212D1*
X9064Y7220D1*
X9041Y7230D1*
X9021Y7245D1*
X9000Y7265D1*
X8979Y7244D1*
X8958Y7230D1*
X8936Y7219D1*
X8912Y7212D1*
X8887Y7208D1*
X8862D1*
X8838Y7212D1*
X8814Y7220D1*
X8791Y7230D1*
X8771Y7245D1*
X8750Y7265D1*
X8735Y7250D1*
X8748Y7238D1*
X8763Y7219D1*
X8776Y7197D1*
X8785Y7174D1*
X8790Y7149D1*
X8792Y7125D1*
X8790Y7100D1*
X8785Y7076D1*
X8775Y7052D1*
X8763Y7031D1*
X8747Y7011D1*
X8735Y7000D1*
X8748Y6988D1*
X8763Y6969D1*
X8776Y6947D1*
X8785Y6924D1*
X8790Y6899D1*
X8792Y6875D1*
X8790Y6850D1*
X8785Y6826D1*
X8775Y6802D1*
X8763Y6781D1*
X8747Y6761D1*
X8729Y6744D1*
X8708Y6730D1*
X8686Y6719D1*
X8664Y6713D1*
X8667Y6688D1*
X8665Y6663D1*
X8660Y6638D1*
X8650Y6615D1*
X8638Y6593D1*
X8622Y6574D1*
X8604Y6557D1*
X8583Y6543D1*
X8561Y6532D1*
X8537Y6525D1*
X8512Y6521D1*
X8487D1*
X8463Y6525D1*
X8439Y6532D1*
X8416Y6543D1*
X8396Y6557D1*
X8375Y6577D1*
X8354Y6557D1*
X8333Y6543D1*
X8311Y6532D1*
X8287Y6525D1*
X8262Y6521D1*
X8237D1*
X8213Y6525D1*
X8189Y6532D1*
X8166Y6543D1*
X8146Y6557D1*
X8125Y6577D1*
X8104Y6557D1*
X8083Y6543D1*
X8061Y6532D1*
X8037Y6525D1*
X8012Y6521D1*
X7987D1*
X7963Y6525D1*
X7939Y6532D1*
X7916Y6543D1*
X7896Y6557D1*
X7877Y6574D1*
X7862Y6594D1*
X7849Y6615D1*
X7840Y6639D1*
X7835Y6663D1*
X7833Y6688D1*
X7835Y6714D1*
X7814Y6720D1*
X7791Y6730D1*
X7771Y6745D1*
X7752Y6762D1*
X7737Y6781D1*
X7724Y6803D1*
X7715Y6826D1*
X7710Y6850D1*
X7708Y6875D1*
X7710Y6900D1*
X7716Y6925D1*
X7725Y6948D1*
X7737Y6969D1*
X7753Y6989D1*
X7765Y7000D1*
X7752Y7012D1*
X7737Y7031D1*
X7724Y7053D1*
X7715Y7076D1*
X7710Y7100D1*
X7708Y7125D1*
X7710Y7150D1*
X7716Y7175D1*
X7725Y7198D1*
X7737Y7219D1*
X7753Y7239D1*
X7765Y7250D1*
X7752Y7262D1*
X7737Y7281D1*
X7724Y7303D1*
X7715Y7326D1*
X7710Y7350D1*
X7708Y7375D1*
X7710Y7400D1*
X7716Y7425D1*
X7725Y7448D1*
X7737Y7469D1*
X7753Y7489D1*
X7771Y7506D1*
X7792Y7520D1*
X7814Y7531D1*
X7838Y7538D1*
X7863Y7542D1*
X7888Y7541D1*
X7913Y7538D1*
X7937Y7530D1*
X7959Y7519D1*
X7980Y7505D1*
X8000Y7485D1*
X8021Y7506D1*
X8042Y7520D1*
X8064Y7531D1*
X8088Y7538D1*
X8113Y7542D1*
X8138Y7541D1*
X8163Y7538D1*
X8187Y7530D1*
X8209Y7519D1*
X8230Y7505D1*
X8250Y7485D1*
X8271Y7506D1*
X8292Y7520D1*
X8314Y7531D1*
X8338Y7538D1*
X8363Y7542D1*
X8388Y7541D1*
X8413Y7538D1*
X8437Y7530D1*
X8459Y7519D1*
X8480Y7505D1*
X8500Y7485D1*
X8515Y7500D1*
X8502Y7512D1*
X8487Y7531D1*
X8474Y7553D1*
X8465Y7576D1*
X8460Y7600D1*
X8458Y7625D1*
X8460Y7650D1*
X8466Y7675D1*
X8475Y7698D1*
X8487Y7719D1*
X8503Y7739D1*
X8521Y7756D1*
X8542Y7770D1*
X8564Y7781D1*
X8588Y7788D1*
X8613Y7792D1*
X8638Y7791D1*
X8663Y7788D1*
X8687Y7780D1*
X8709Y7769D1*
X8730Y7755D1*
X8750Y7735D1*
X8771Y7756D1*
X8792Y7770D1*
X8814Y7781D1*
X8838Y7788D1*
X8863Y7792D1*
X8888Y7791D1*
X8913Y7788D1*
X8937Y7780D1*
X8959Y7769D1*
X8980Y7755D1*
X9000Y7735D1*
X9021Y7756D1*
X9042Y7770D1*
X9064Y7781D1*
X9088Y7788D1*
X9113Y7792D1*
X9138Y7791D1*
X9163Y7788D1*
X9187Y7780D1*
X9209Y7769D1*
X9230Y7755D1*
X9248Y7738D1*
X9263Y7719D1*
X9276Y7697D1*
X9283Y7679D1*
Y8679D1*
X8527D1*
X8503Y8683D1*
X8481Y8695D1*
X8464Y8713D1*
X8453Y8736D1*
X8450Y8756D1*
Y9470D1*
X7858D1*
X7335D1*
X7350Y9444D1*
X7360Y9423D1*
X7370Y9394D1*
X7374Y9370D1*
X7377Y9347D1*
Y8988D1*
X7376Y8768D1*
X7373Y8744D1*
X7367Y8721D1*
X7359Y8699D1*
X7349Y8678D1*
X7336Y8657D1*
X7321Y8639D1*
X7305Y8622D1*
X7287Y8606D1*
X7267Y8593D1*
X7246Y8582D1*
X7224Y8573D1*
X7201Y8566D1*
X7178Y8562D1*
X7150Y8561D1*
X6580D1*
X6557Y8565D1*
X6534Y8570D1*
X6511Y8579D1*
X6490Y8589D1*
X6470Y8602D1*
X6451Y8616D1*
X6434Y8633D1*
X6419Y8651D1*
X6406Y8671D1*
X6394Y8692D1*
X6385Y8714D1*
X6379Y8736D1*
X6375Y8757D1*
Y8756D1*
X6370Y8734D1*
X6365Y8714D1*
X6356Y8692D1*
X6344Y8671D1*
X6331Y8651D1*
X6316Y8633D1*
X6299Y8616D1*
X6280Y8602D1*
X6260Y8589D1*
X6239Y8579D1*
X6216Y8570D1*
X6193Y8565D1*
X6170Y8561D1*
X6100D1*
X5580D1*
X5557Y8565D1*
X5534Y8570D1*
X5511Y8579D1*
X5490Y8589D1*
X5470Y8602D1*
X5451Y8616D1*
X5434Y8633D1*
X5419Y8651D1*
X5406Y8671D1*
X5394Y8692D1*
X5385Y8714D1*
X5379Y8736D1*
X5375Y8757D1*
Y8756D1*
X5370Y8734D1*
X5365Y8714D1*
X5356Y8692D1*
X5344Y8671D1*
X5331Y8651D1*
X5316Y8633D1*
X5299Y8616D1*
X5280Y8602D1*
X5260Y8589D1*
X5239Y8579D1*
X5216Y8570D1*
X5193Y8565D1*
X5170Y8561D1*
X5100D1*
X4580D1*
X4557Y8565D1*
X4534Y8570D1*
X4511Y8579D1*
X4490Y8589D1*
X4470Y8602D1*
X4451Y8616D1*
X4434Y8633D1*
X4419Y8651D1*
X4406Y8671D1*
X4394Y8692D1*
X4385Y8714D1*
X4379Y8736D1*
X4375Y8757D1*
Y8756D1*
X4370Y8734D1*
X4365Y8714D1*
X4356Y8692D1*
X4344Y8671D1*
X4331Y8651D1*
X4316Y8633D1*
X4299Y8616D1*
X4280Y8602D1*
X4260Y8589D1*
X4239Y8579D1*
X4216Y8570D1*
X4193Y8565D1*
X4170Y8561D1*
X4100D1*
X3580D1*
X3557Y8565D1*
X3534Y8570D1*
X3511Y8579D1*
X3490Y8589D1*
X3470Y8602D1*
X3451Y8616D1*
X3436Y8631D1*
X3425Y8602D1*
X3413Y8581D1*
X3397Y8561D1*
X3379Y8544D1*
X3358Y8530D1*
X3336Y8519D1*
X3312Y8512D1*
X3287Y8508D1*
X3262D1*
X3238Y8512D1*
X3214Y8520D1*
X3191Y8530D1*
X3171Y8545D1*
X3152Y8562D1*
X3137Y8581D1*
X3124Y8603D1*
X3115Y8626D1*
X3110Y8650D1*
X3108Y8675D1*
X3110Y8700D1*
X3116Y8725D1*
X3125Y8748D1*
X3137Y8769D1*
X3153Y8789D1*
X3171Y8806D1*
X3192Y8820D1*
X3214Y8831D1*
X3238Y8838D1*
X3263Y8842D1*
X3288Y8841D1*
X3313Y8838D1*
X3337Y8830D1*
X3359Y8819D1*
X3373Y8810D1*
Y9013D1*
X3374Y9357D1*
X3377Y9381D1*
X3383Y9404D1*
X3391Y9426D1*
X3401Y9447D1*
X3414Y9467D1*
X3408Y9470D1*
X941D1*
X942Y9394D1*
Y8706D1*
X938Y8682D1*
X926Y8660D1*
X908Y8643D1*
X885Y8632D1*
X865Y8629D1*
X92D1*
Y8070D1*
Y7761D1*
X104Y7770D1*
X127Y7781D1*
X151Y7788D1*
X176Y7792D1*
X201Y7791D1*
X225Y7788D1*
X249Y7780D1*
X272Y7769D1*
X292Y7755D1*
X310Y7738D1*
X326Y7719D1*
X338Y7697D1*
X344Y7683D1*
X350Y7698D1*
X362Y7719D1*
X378Y7739D1*
X396Y7756D1*
X417Y7770D1*
X439Y7781D1*
X463Y7788D1*
X488Y7792D1*
X513Y7791D1*
X538Y7788D1*
X562Y7780D1*
X584Y7769D1*
X605Y7755D1*
X623Y7738D1*
X638Y7719D1*
X651Y7697D1*
X656Y7683D1*
X662Y7698D1*
X675Y7719D1*
X690Y7739D1*
X709Y7756D1*
X729Y7770D1*
X752Y7781D1*
X776Y7788D1*
X801Y7792D1*
X826Y7791D1*
X850Y7788D1*
X874Y7780D1*
X897Y7769D1*
X917Y7755D1*
X935Y7738D1*
X951Y7719D1*
X963Y7697D1*
X972Y7674D1*
X978Y7649D1*
X980Y7625D1*
X978Y7600D1*
X972Y7576D1*
X963Y7552D1*
X950Y7531D1*
X929Y7506D1*
X948Y7484D1*
X961Y7468D1*
X974Y7447D1*
X984Y7426D1*
X996Y7389D1*
X1000Y7365D1*
X1002Y7338D1*
X1001Y6768D1*
X998Y6744D1*
X992Y6721D1*
X984Y6699D1*
X974Y6678D1*
X961Y6657D1*
X946Y6639D1*
X930Y6622D1*
X912Y6606D1*
X892Y6593D1*
X871Y6582D1*
X849Y6573D1*
X826Y6566D1*
X805Y6562D1*
X806Y6563D1*
X828Y6558D1*
X849Y6552D1*
X871Y6543D1*
X892Y6532D1*
X912Y6519D1*
X930Y6503D1*
X946Y6486D1*
X961Y6468D1*
X974Y6447D1*
X984Y6426D1*
X996Y6389D1*
X1000Y6365D1*
X1002Y6338D1*
X1001Y5768D1*
X998Y5744D1*
X992Y5721D1*
X984Y5699D1*
X974Y5678D1*
X961Y5657D1*
X946Y5639D1*
X930Y5622D1*
X912Y5606D1*
X892Y5593D1*
X871Y5582D1*
X849Y5573D1*
X826Y5566D1*
X805Y5562D1*
X806Y5563D1*
X828Y5558D1*
X849Y5552D1*
X871Y5543D1*
X892Y5532D1*
X912Y5519D1*
X930Y5503D1*
X946Y5486D1*
X961Y5468D1*
X974Y5447D1*
X984Y5426D1*
X996Y5389D1*
X1000Y5365D1*
X1002Y5338D1*
X1001Y4768D1*
X998Y4744D1*
X992Y4721D1*
X984Y4699D1*
X974Y4678D1*
X961Y4657D1*
X946Y4639D1*
X930Y4622D1*
X912Y4606D1*
X892Y4593D1*
X871Y4582D1*
X849Y4573D1*
X826Y4566D1*
X805Y4562D1*
X806Y4563D1*
X828Y4558D1*
X849Y4552D1*
X871Y4543D1*
X892Y4532D1*
X912Y4519D1*
X930Y4503D1*
X946Y4486D1*
X961Y4468D1*
X974Y4447D1*
X984Y4426D1*
X996Y4389D1*
X1000Y4365D1*
X1002Y4338D1*
X1001Y3768D1*
X998Y3744D1*
X992Y3721D1*
X984Y3699D1*
X974Y3678D1*
X961Y3657D1*
X946Y3639D1*
X930Y3622D1*
X912Y3606D1*
X892Y3593D1*
X871Y3582D1*
X849Y3573D1*
X826Y3566D1*
X803Y3562D1*
X775Y3561D1*
X750D1*
X4452Y1262D2*
X4451Y318D1*
X4448Y294D1*
X4442Y271D1*
X4434Y249D1*
X4424Y228D1*
X4411Y207D1*
X4396Y189D1*
X4380Y172D1*
X4362Y156D1*
X4342Y143D1*
X4321Y132D1*
X4299Y123D1*
X4276Y116D1*
X4253Y112D1*
X4225Y110D1*
X3255Y111D1*
X3232Y115D1*
X3209Y120D1*
X3186Y129D1*
X3165Y139D1*
X3145Y152D1*
X3126Y166D1*
X3109Y183D1*
X3094Y201D1*
X3081Y221D1*
X3069Y242D1*
X3060Y264D1*
X3054Y286D1*
X3050Y310D1*
X3048Y337D1*
Y892D1*
X3037Y900D1*
X3012Y896D1*
X2987D1*
X2963Y900D1*
X2939Y907D1*
X2916Y918D1*
X2896Y932D1*
X2875Y952D1*
X2854Y932D1*
X2833Y918D1*
X2811Y907D1*
X2787Y900D1*
X2762Y896D1*
X2737D1*
X2713Y900D1*
X2689Y907D1*
X2666Y918D1*
X2646Y932D1*
X2625Y952D1*
X2604Y932D1*
X2583Y918D1*
X2561Y907D1*
X2537Y900D1*
X2512Y896D1*
X2487D1*
X2463Y900D1*
X2439Y907D1*
X2416Y918D1*
X2396Y932D1*
X2377Y949D1*
X2362Y969D1*
X2349Y990D1*
X2340Y1014D1*
X2335Y1038D1*
X2333Y1063D1*
X2335Y1088D1*
X2341Y1112D1*
X2350Y1135D1*
X2362Y1157D1*
X2378Y1176D1*
X2396Y1193D1*
X2417Y1207D1*
X2439Y1218D1*
X2463Y1225D1*
X2488Y1229D1*
X2513D1*
X2538Y1225D1*
X2562Y1218D1*
X2584Y1207D1*
X2605Y1193D1*
X2625Y1173D1*
X2646Y1193D1*
X2667Y1207D1*
X2689Y1218D1*
X2713Y1225D1*
X2738Y1229D1*
X2763D1*
X2788Y1225D1*
X2812Y1218D1*
X2834Y1207D1*
X2855Y1193D1*
X2875Y1173D1*
X2890Y1188D1*
X2877Y1199D1*
X2862Y1219D1*
X2849Y1240D1*
X2840Y1264D1*
X2835Y1288D1*
X2833Y1313D1*
X2835Y1338D1*
X2841Y1362D1*
X2850Y1385D1*
X2862Y1407D1*
X2878Y1426D1*
X2890Y1438D1*
X2875Y1452D1*
X2854Y1432D1*
X2833Y1418D1*
X2811Y1407D1*
X2787Y1400D1*
X2762Y1396D1*
X2737D1*
X2713Y1400D1*
X2689Y1407D1*
X2666Y1418D1*
X2646Y1432D1*
X2625Y1452D1*
X2604Y1432D1*
X2583Y1418D1*
X2561Y1407D1*
X2537Y1400D1*
X2512Y1396D1*
X2487D1*
X2463Y1400D1*
X2439Y1407D1*
X2416Y1418D1*
X2396Y1432D1*
X2375Y1452D1*
X2360Y1438D1*
X2373Y1426D1*
X2388Y1406D1*
X2401Y1384D1*
X2410Y1361D1*
X2415Y1337D1*
X2417Y1313D1*
X2415Y1288D1*
X2410Y1263D1*
X2400Y1240D1*
X2388Y1218D1*
X2372Y1199D1*
X2354Y1182D1*
X2333Y1168D1*
X2311Y1157D1*
X2287Y1150D1*
X2262Y1146D1*
X2237D1*
X2213Y1150D1*
X2189Y1157D1*
X2166Y1168D1*
X2146Y1182D1*
X2127Y1199D1*
X2112Y1219D1*
X2099Y1240D1*
X2090Y1264D1*
X2085Y1288D1*
X2083Y1313D1*
X2085Y1338D1*
X2091Y1362D1*
X2100Y1385D1*
X2112Y1407D1*
X2128Y1426D1*
X2140Y1438D1*
X2125Y1452D1*
X2104Y1432D1*
X2083Y1418D1*
X2061Y1407D1*
X2037Y1400D1*
X2012Y1396D1*
X1987D1*
X1963Y1400D1*
X1939Y1407D1*
X1916Y1418D1*
X1896Y1432D1*
X1877Y1449D1*
X1862Y1469D1*
X1849Y1490D1*
X1840Y1514D1*
X1835Y1538D1*
X1833Y1563D1*
X1835Y1588D1*
X1841Y1612D1*
X1850Y1635D1*
X1862Y1657D1*
X1878Y1676D1*
X1896Y1693D1*
X1917Y1707D1*
X1939Y1718D1*
X1963Y1725D1*
X1988Y1729D1*
X2013D1*
X2038Y1725D1*
X2062Y1718D1*
X2084Y1707D1*
X2105Y1693D1*
X2125Y1673D1*
X2146Y1693D1*
X2167Y1707D1*
X2189Y1718D1*
X2213Y1725D1*
X2238Y1729D1*
X2263D1*
X2288Y1725D1*
X2312Y1718D1*
X2334Y1707D1*
X2355Y1693D1*
X2375Y1673D1*
X2396Y1693D1*
X2417Y1707D1*
X2439Y1718D1*
X2463Y1725D1*
X2488Y1729D1*
X2513D1*
X2538Y1725D1*
X2562Y1718D1*
X2584Y1707D1*
X2605Y1693D1*
X2625Y1673D1*
X2646Y1693D1*
X2667Y1707D1*
X2689Y1718D1*
X2713Y1725D1*
X2738Y1729D1*
X2763D1*
X2788Y1725D1*
X2812Y1718D1*
X2834Y1707D1*
X2855Y1693D1*
X2875Y1673D1*
X2896Y1693D1*
X2917Y1707D1*
X2939Y1718D1*
X2963Y1725D1*
X2988Y1729D1*
X3013D1*
X3038Y1725D1*
X3062Y1718D1*
X3084Y1707D1*
X3105Y1693D1*
X3125Y1673D1*
X3146Y1693D1*
X3167Y1707D1*
X3189Y1718D1*
X3213Y1725D1*
X3238Y1729D1*
X3263D1*
X3288Y1725D1*
X3312Y1718D1*
X3334Y1707D1*
X3355Y1693D1*
X3375Y1673D1*
X3396Y1693D1*
X3417Y1707D1*
X3439Y1718D1*
X3463Y1725D1*
X3488Y1729D1*
X3513D1*
X3538Y1725D1*
X3562Y1718D1*
X3584Y1707D1*
X3605Y1693D1*
X3623Y1676D1*
X3638Y1656D1*
X3651Y1634D1*
X3660Y1611D1*
X3665Y1587D1*
X3667Y1562D1*
X3665Y1538D1*
X3660Y1514D1*
X4000D1*
X4245D1*
X4268Y1510D1*
X4291Y1505D1*
X4314Y1496D1*
X4335Y1486D1*
X4355Y1473D1*
X4374Y1459D1*
X4391Y1442D1*
X4406Y1424D1*
X4419Y1404D1*
X4431Y1383D1*
X4440Y1361D1*
X4448Y1327D1*
X4451Y1304D1*
X4452Y1262D1*
X4665Y8288D2*
X4660Y8263D1*
X4650Y8240D1*
X4638Y8218D1*
X4622Y8199D1*
X4604Y8182D1*
X4583Y8168D1*
X4561Y8157D1*
X4537Y8150D1*
X4512Y8146D1*
X4487D1*
X4463Y8150D1*
X4439Y8157D1*
X4416Y8168D1*
X4396Y8182D1*
X4377Y8199D1*
X4362Y8219D1*
X4349Y8240D1*
X4340Y8264D1*
X4335Y8288D1*
X4333Y8313D1*
X4335Y8338D1*
X4341Y8362D1*
X4350Y8385D1*
X4362Y8407D1*
X4378Y8426D1*
X4396Y8443D1*
X4417Y8457D1*
X4439Y8468D1*
X4463Y8475D1*
X4488Y8479D1*
X4513D1*
X4538Y8475D1*
X4562Y8468D1*
X4584Y8457D1*
X4605Y8443D1*
X4623Y8426D1*
X4638Y8406D1*
X4651Y8384D1*
X4660Y8361D1*
X4665Y8337D1*
X4667Y8313D1*
X4665Y8288D1*
X2478Y6663D2*
X2472Y6638D1*
X2463Y6615D1*
X2450Y6593D1*
X2435Y6574D1*
X2417Y6557D1*
X2396Y6543D1*
X2373Y6532D1*
X2350Y6525D1*
X2325Y6521D1*
X2300D1*
X2275Y6525D1*
X2251Y6532D1*
X2229Y6543D1*
X2208Y6557D1*
X2190Y6574D1*
X2174Y6594D1*
X2162Y6615D1*
X2153Y6639D1*
X2147Y6663D1*
X2145Y6688D1*
X2147Y6713D1*
X2153Y6737D1*
X2162Y6760D1*
X2175Y6782D1*
X2190Y6801D1*
X2209Y6818D1*
X2229Y6832D1*
X2252Y6843D1*
X2276Y6850D1*
X2301Y6854D1*
X2326D1*
X2350Y6850D1*
X2374Y6843D1*
X2397Y6832D1*
X2417Y6818D1*
X2435Y6801D1*
X2451Y6781D1*
X2463Y6759D1*
X2472Y6736D1*
X2478Y6712D1*
X2479Y6688D1*
X2478Y6663D1*
X6040Y6788D2*
X6035Y6763D1*
X6025Y6740D1*
X6013Y6718D1*
X5997Y6699D1*
X5979Y6682D1*
X5958Y6668D1*
X5936Y6657D1*
X5912Y6650D1*
X5887Y6646D1*
X5862D1*
X5838Y6650D1*
X5814Y6657D1*
X5791Y6668D1*
X5771Y6682D1*
X5752Y6699D1*
X5737Y6719D1*
X5724Y6740D1*
X5715Y6764D1*
X5710Y6788D1*
X5708Y6813D1*
X5710Y6838D1*
X5716Y6862D1*
X5725Y6885D1*
X5737Y6907D1*
X5753Y6926D1*
X5771Y6943D1*
X5792Y6957D1*
X5814Y6968D1*
X5838Y6975D1*
X5863Y6979D1*
X5888D1*
X5913Y6975D1*
X5937Y6968D1*
X5959Y6957D1*
X5980Y6943D1*
X5998Y6926D1*
X6013Y6906D1*
X6026Y6884D1*
X6035Y6861D1*
X6040Y6837D1*
X6042Y6813D1*
X6040Y6788D1*
X5790Y3600D2*
X5785Y3576D1*
X5775Y3552D1*
X5763Y3531D1*
X5747Y3511D1*
X5729Y3494D1*
X5708Y3480D1*
X5686Y3469D1*
X5662Y3462D1*
X5637Y3458D1*
X5612D1*
X5588Y3462D1*
X5564Y3470D1*
X5541Y3480D1*
X5521Y3495D1*
X5502Y3512D1*
X5487Y3531D1*
X5474Y3553D1*
X5465Y3576D1*
X5460Y3600D1*
X5458Y3625D1*
X5460Y3650D1*
X5466Y3675D1*
X5475Y3698D1*
X5487Y3719D1*
X5503Y3739D1*
X5521Y3756D1*
X5542Y3770D1*
X5564Y3781D1*
X5588Y3788D1*
X5613Y3792D1*
X5638Y3791D1*
X5663Y3788D1*
X5687Y3780D1*
X5709Y3769D1*
X5730Y3755D1*
X5748Y3738D1*
X5763Y3719D1*
X5776Y3697D1*
X5785Y3674D1*
X5790Y3649D1*
X5792Y3625D1*
X5790Y3600D1*
X8103Y2850D2*
X8097Y2826D1*
X8088Y2802D1*
X8075Y2781D1*
X8060Y2761D1*
X8042Y2744D1*
X8021Y2730D1*
X7998Y2719D1*
X7975Y2712D1*
X7950Y2708D1*
X7925D1*
X7900Y2712D1*
X7876Y2720D1*
X7854Y2730D1*
X7833Y2745D1*
X7815Y2762D1*
X7799Y2781D1*
X7787Y2803D1*
X7778Y2826D1*
X7772Y2850D1*
X7771Y2875D1*
X7772Y2900D1*
X7778Y2925D1*
X7787Y2948D1*
X7800Y2969D1*
X7815Y2989D1*
X7834Y3006D1*
X7854Y3020D1*
X7877Y3031D1*
X7901Y3038D1*
X7926Y3042D1*
X7951Y3041D1*
X7975Y3038D1*
X7999Y3030D1*
X8022Y3019D1*
X8042Y3005D1*
X8060Y2988D1*
X8076Y2969D1*
X8088Y2947D1*
X8097Y2924D1*
X8103Y2899D1*
X8105Y2875D1*
X8103Y2850D1*
X9255Y5035D2*
X9250Y5011D1*
X9240Y4987D1*
X9228Y4966D1*
X9212Y4946D1*
X9194Y4929D1*
X9173Y4915D1*
X9151Y4904D1*
X9127Y4897D1*
X9102Y4893D1*
X9077D1*
X9053Y4897D1*
X9029Y4905D1*
X9006Y4915D1*
X8986Y4930D1*
X8967Y4947D1*
X8952Y4966D1*
X8939Y4988D1*
X8930Y5011D1*
X8925Y5035D1*
X8923Y5060D1*
X8925Y5085D1*
X8931Y5110D1*
X8940Y5133D1*
X8952Y5154D1*
X8972Y5178D1*
X8946Y5195D1*
X8927Y5212D1*
X8912Y5231D1*
X8899Y5253D1*
X8890Y5276D1*
X8885Y5300D1*
X8883Y5325D1*
X8885Y5350D1*
X8891Y5375D1*
X8900Y5398D1*
X8912Y5419D1*
X8928Y5439D1*
X8946Y5456D1*
X8967Y5470D1*
X8989Y5481D1*
X9013Y5488D1*
X9038Y5492D1*
X9063Y5491D1*
X9088Y5488D1*
X9112Y5480D1*
X9134Y5469D1*
X9155Y5455D1*
X9173Y5438D1*
X9188Y5419D1*
X9201Y5397D1*
X9210Y5374D1*
X9215Y5349D1*
X9217Y5325D1*
X9215Y5300D1*
X9210Y5276D1*
X9200Y5252D1*
X9188Y5231D1*
X9168Y5208D1*
X9195Y5190D1*
X9213Y5173D1*
X9228Y5154D1*
X9241Y5132D1*
X9250Y5109D1*
X9255Y5084D1*
X9257Y5060D1*
X9255Y5035D1*
X675Y3345D2*
X670Y3321D1*
X660Y3297D1*
X648Y3276D1*
X632Y3256D1*
X614Y3239D1*
X593Y3225D1*
X571Y3214D1*
X547Y3207D1*
X522Y3203D1*
X497D1*
X473Y3207D1*
X449Y3215D1*
X426Y3225D1*
X406Y3240D1*
X387Y3257D1*
X372Y3276D1*
X359Y3298D1*
X350Y3321D1*
X345Y3345D1*
X343Y3370D1*
X345Y3395D1*
X351Y3420D1*
X360Y3443D1*
X372Y3464D1*
X388Y3484D1*
X406Y3501D1*
X427Y3515D1*
X449Y3526D1*
X473Y3533D1*
X498Y3537D1*
X523Y3536D1*
X548Y3533D1*
X572Y3525D1*
X594Y3514D1*
X615Y3500D1*
X633Y3483D1*
X648Y3464D1*
X661Y3442D1*
X670Y3419D1*
X675Y3394D1*
X677Y3370D1*
X675Y3345D1*
X2435Y3565D2*
X2430Y3541D1*
X2420Y3517D1*
X2408Y3496D1*
X2392Y3476D1*
X2374Y3459D1*
X2353Y3445D1*
X2331Y3434D1*
X2307Y3427D1*
X2282Y3423D1*
X2257D1*
X2233Y3427D1*
X2209Y3435D1*
X2186Y3445D1*
X2166Y3460D1*
X2147Y3477D1*
X2132Y3496D1*
X2119Y3518D1*
X2110Y3541D1*
X2105Y3565D1*
X2103Y3590D1*
X2105Y3615D1*
X2111Y3640D1*
X2120Y3663D1*
X2132Y3684D1*
X2148Y3704D1*
X2166Y3721D1*
X2187Y3735D1*
X2209Y3746D1*
X2233Y3753D1*
X2258Y3757D1*
X2283Y3756D1*
X2308Y3753D1*
X2332Y3745D1*
X2354Y3734D1*
X2375Y3720D1*
X2393Y3703D1*
X2408Y3684D1*
X2421Y3662D1*
X2430Y3639D1*
X2435Y3614D1*
X2437Y3590D1*
X2435Y3565D1*
X4290Y3100D2*
X4285Y3076D1*
X4275Y3052D1*
X4263Y3031D1*
X4247Y3011D1*
X4229Y2994D1*
X4208Y2980D1*
X4186Y2969D1*
X4162Y2962D1*
X4137Y2958D1*
X4112D1*
X4088Y2962D1*
X4064Y2970D1*
X4041Y2980D1*
X4021Y2995D1*
X4002Y3012D1*
X3987Y3031D1*
X3974Y3053D1*
X3965Y3076D1*
X3960Y3100D1*
X3958Y3125D1*
X3960Y3150D1*
X3966Y3175D1*
X3975Y3198D1*
X3987Y3219D1*
X4003Y3239D1*
X4021Y3256D1*
X4042Y3270D1*
X4064Y3281D1*
X4088Y3288D1*
X4113Y3292D1*
X4138Y3291D1*
X4163Y3288D1*
X4187Y3280D1*
X4209Y3269D1*
X4230Y3255D1*
X4248Y3238D1*
X4263Y3219D1*
X4276Y3197D1*
X4285Y3174D1*
X4290Y3149D1*
X4292Y3125D1*
X4290Y3100D1*
X5715D2*
X5710Y3076D1*
X5700Y3052D1*
X5688Y3031D1*
X5672Y3011D1*
X5654Y2994D1*
X5633Y2980D1*
X5611Y2969D1*
X5587Y2962D1*
X5562Y2958D1*
X5537D1*
X5513Y2962D1*
X5489Y2970D1*
X5466Y2980D1*
X5446Y2995D1*
X5427Y3012D1*
X5412Y3031D1*
X5399Y3053D1*
X5390Y3076D1*
X5385Y3100D1*
X5383Y3125D1*
X5385Y3150D1*
X5391Y3175D1*
X5400Y3198D1*
X5412Y3219D1*
X5428Y3239D1*
X5446Y3256D1*
X5467Y3270D1*
X5489Y3281D1*
X5513Y3288D1*
X5538Y3292D1*
X5563Y3291D1*
X5588Y3288D1*
X5612Y3280D1*
X5634Y3269D1*
X5655Y3255D1*
X5673Y3238D1*
X5688Y3219D1*
X5701Y3197D1*
X5710Y3174D1*
X5715Y3149D1*
X5717Y3125D1*
X5715Y3100D1*
X3853Y6538D2*
X3847Y6513D1*
X3838Y6490D1*
X3825Y6468D1*
X3810Y6449D1*
X3792Y6432D1*
X3771Y6418D1*
X3748Y6407D1*
X3725Y6400D1*
X3700Y6396D1*
X3675D1*
X3650Y6400D1*
X3626Y6407D1*
X3604Y6418D1*
X3583Y6432D1*
X3565Y6449D1*
X3549Y6469D1*
X3537Y6490D1*
X3528Y6514D1*
X3522Y6538D1*
X3520Y6563D1*
X3522Y6588D1*
X3528Y6612D1*
X3537Y6635D1*
X3550Y6657D1*
X3565Y6676D1*
X3584Y6693D1*
X3604Y6707D1*
X3627Y6718D1*
X3651Y6725D1*
X3676Y6729D1*
X3701D1*
X3725Y6725D1*
X3749Y6718D1*
X3772Y6707D1*
X3792Y6693D1*
X3810Y6676D1*
X3826Y6656D1*
X3838Y6634D1*
X3847Y6611D1*
X3853Y6587D1*
X3854Y6563D1*
X3853Y6538D1*
X9205Y5815D2*
X9200Y5791D1*
X9190Y5767D1*
X9178Y5746D1*
X9162Y5726D1*
X9144Y5709D1*
X9123Y5695D1*
X9101Y5684D1*
X9077Y5677D1*
X9052Y5673D1*
X9027D1*
X9003Y5677D1*
X8979Y5685D1*
X8956Y5695D1*
X8936Y5710D1*
X8917Y5727D1*
X8902Y5746D1*
X8889Y5768D1*
X8880Y5791D1*
X8875Y5815D1*
X8873Y5840D1*
X8875Y5865D1*
X8881Y5890D1*
X8890Y5913D1*
X8902Y5934D1*
X8918Y5954D1*
X8936Y5971D1*
X8957Y5985D1*
X8979Y5996D1*
X9003Y6003D1*
X9028Y6007D1*
X9053Y6006D1*
X9078Y6003D1*
X9102Y5995D1*
X9124Y5984D1*
X9145Y5970D1*
X9163Y5953D1*
X9178Y5934D1*
X9191Y5912D1*
X9200Y5889D1*
X9205Y5864D1*
X9207Y5840D1*
X9205Y5815D1*
X8075Y6305D2*
X8070Y6281D1*
X8060Y6257D1*
X8048Y6236D1*
X8032Y6216D1*
X8014Y6199D1*
X7993Y6185D1*
X7971Y6174D1*
X7947Y6167D1*
X7922Y6163D1*
X7897D1*
X7873Y6167D1*
X7849Y6175D1*
X7826Y6185D1*
X7806Y6200D1*
X7787Y6217D1*
X7772Y6236D1*
X7759Y6258D1*
X7750Y6281D1*
X7745Y6305D1*
X7743Y6330D1*
X7745Y6355D1*
X7751Y6380D1*
X7760Y6403D1*
X7772Y6424D1*
X7788Y6444D1*
X7806Y6461D1*
X7827Y6475D1*
X7849Y6486D1*
X7873Y6493D1*
X7898Y6497D1*
X7923Y6496D1*
X7948Y6493D1*
X7972Y6485D1*
X7994Y6474D1*
X8015Y6460D1*
X8033Y6443D1*
X8048Y6424D1*
X8061Y6402D1*
X8070Y6379D1*
X8075Y6354D1*
X8077Y6330D1*
X8075Y6305D1*
X5865Y7165D2*
X5860Y7141D1*
X5850Y7117D1*
X5838Y7096D1*
X5822Y7076D1*
X5804Y7059D1*
X5783Y7045D1*
X5761Y7034D1*
X5737Y7027D1*
X5712Y7023D1*
X5687D1*
X5663Y7027D1*
X5639Y7035D1*
X5616Y7045D1*
X5596Y7060D1*
X5577Y7077D1*
X5562Y7096D1*
X5549Y7118D1*
X5540Y7141D1*
X5535Y7165D1*
X5533Y7190D1*
X5535Y7215D1*
X5541Y7240D1*
X5550Y7263D1*
X5562Y7284D1*
X5578Y7304D1*
X5596Y7321D1*
X5617Y7335D1*
X5639Y7346D1*
X5663Y7353D1*
X5688Y7357D1*
X5713Y7356D1*
X5738Y7353D1*
X5762Y7345D1*
X5784Y7334D1*
X5805Y7320D1*
X5823Y7303D1*
X5838Y7284D1*
X5851Y7262D1*
X5860Y7239D1*
X5865Y7214D1*
X5867Y7190D1*
X5865Y7165D1*
X7595Y7945D2*
X7590Y7921D1*
X7580Y7897D1*
X7568Y7876D1*
X7552Y7856D1*
X7534Y7839D1*
X7513Y7825D1*
X7491Y7814D1*
X7467Y7807D1*
X7442Y7803D1*
X7417D1*
X7393Y7807D1*
X7369Y7815D1*
X7346Y7825D1*
X7326Y7840D1*
X7307Y7857D1*
X7292Y7876D1*
X7279Y7898D1*
X7270Y7921D1*
X7265Y7945D1*
X7263Y7970D1*
X7265Y7995D1*
X7271Y8020D1*
X7280Y8043D1*
X7292Y8064D1*
X7308Y8084D1*
X7326Y8101D1*
X7347Y8115D1*
X7369Y8126D1*
X7393Y8133D1*
X7418Y8137D1*
X7443Y8136D1*
X7468Y8133D1*
X7492Y8125D1*
X7514Y8114D1*
X7535Y8100D1*
X7553Y8083D1*
X7568Y8064D1*
X7581Y8042D1*
X7590Y8019D1*
X7595Y7994D1*
X7597Y7970D1*
X7595Y7945D1*
X6865Y3400D2*
X6860Y3376D1*
X6850Y3352D1*
X6838Y3331D1*
X6822Y3311D1*
X6804Y3294D1*
X6783Y3280D1*
X6761Y3269D1*
X6737Y3262D1*
X6712Y3258D1*
X6687D1*
X6663Y3262D1*
X6639Y3270D1*
X6616Y3280D1*
X6596Y3295D1*
X6577Y3312D1*
X6562Y3331D1*
X6549Y3353D1*
X6540Y3376D1*
X6535Y3400D1*
X6533Y3425D1*
X6535Y3450D1*
X6541Y3475D1*
X6550Y3498D1*
X6562Y3519D1*
X6578Y3539D1*
X6596Y3556D1*
X6617Y3570D1*
X6639Y3581D1*
X6663Y3588D1*
X6688Y3592D1*
X6713Y3591D1*
X6738Y3588D1*
X6762Y3580D1*
X6784Y3569D1*
X6805Y3555D1*
X6823Y3538D1*
X6838Y3519D1*
X6851Y3497D1*
X6860Y3474D1*
X6865Y3449D1*
X6867Y3425D1*
X6865Y3400D1*
X5165Y6225D2*
X5160Y6201D1*
X5150Y6177D1*
X5138Y6156D1*
X5122Y6136D1*
X5104Y6119D1*
X5083Y6105D1*
X5061Y6094D1*
X5037Y6087D1*
X5012Y6083D1*
X4987D1*
X4963Y6087D1*
X4939Y6095D1*
X4916Y6105D1*
X4896Y6120D1*
X4877Y6137D1*
X4862Y6156D1*
X4849Y6178D1*
X4840Y6201D1*
X4835Y6225D1*
X4833Y6250D1*
X4835Y6275D1*
X4841Y6300D1*
X4850Y6323D1*
X4862Y6344D1*
X4878Y6364D1*
X4896Y6381D1*
X4917Y6395D1*
X4939Y6406D1*
X4963Y6413D1*
X4988Y6417D1*
X5013Y6416D1*
X5038Y6413D1*
X5062Y6405D1*
X5084Y6394D1*
X5105Y6380D1*
X5123Y6363D1*
X5138Y6344D1*
X5151Y6322D1*
X5160Y6299D1*
X5165Y6274D1*
X5167Y6250D1*
X5165Y6225D1*
X3140Y6250D2*
X3135Y6226D1*
X3125Y6202D1*
X3113Y6181D1*
X3097Y6161D1*
X3079Y6144D1*
X3058Y6130D1*
X3036Y6119D1*
X3012Y6112D1*
X2987Y6108D1*
X2962D1*
X2938Y6112D1*
X2914Y6120D1*
X2891Y6130D1*
X2871Y6145D1*
X2852Y6162D1*
X2837Y6181D1*
X2824Y6203D1*
X2815Y6226D1*
X2810Y6250D1*
X2808Y6275D1*
X2810Y6300D1*
X2816Y6325D1*
X2825Y6348D1*
X2837Y6369D1*
X2853Y6389D1*
X2871Y6406D1*
X2892Y6420D1*
X2914Y6431D1*
X2938Y6438D1*
X2963Y6442D1*
X2988Y6441D1*
X3013Y6438D1*
X3037Y6430D1*
X3059Y6419D1*
X3080Y6405D1*
X3098Y6388D1*
X3113Y6369D1*
X3126Y6347D1*
X3135Y6324D1*
X3140Y6299D1*
X3142Y6275D1*
X3140Y6250D1*
X3815Y5250D2*
X3810Y5226D1*
X3800Y5202D1*
X3788Y5181D1*
X3772Y5161D1*
X3754Y5144D1*
X3733Y5130D1*
X3711Y5119D1*
X3687Y5112D1*
X3662Y5108D1*
X3637D1*
X3613Y5112D1*
X3589Y5120D1*
X3566Y5130D1*
X3546Y5145D1*
X3527Y5162D1*
X3512Y5181D1*
X3499Y5203D1*
X3490Y5226D1*
X3485Y5250D1*
X3483Y5275D1*
X3485Y5300D1*
X3491Y5325D1*
X3500Y5348D1*
X3512Y5369D1*
X3528Y5389D1*
X3546Y5406D1*
X3567Y5420D1*
X3589Y5431D1*
X3602Y5435D1*
X3564Y5445D1*
X3541Y5455D1*
X3521Y5470D1*
X3502Y5487D1*
X3487Y5506D1*
X3474Y5528D1*
X3465Y5551D1*
X3460Y5575D1*
X3458Y5600D1*
X3460Y5625D1*
X3466Y5650D1*
X3475Y5673D1*
X3487Y5694D1*
X3503Y5714D1*
X3531Y5737D1*
X3502Y5762D1*
X3487Y5781D1*
X3474Y5803D1*
X3465Y5826D1*
X3460Y5850D1*
X3458Y5875D1*
X3460Y5900D1*
X3466Y5925D1*
X3475Y5948D1*
X3487Y5969D1*
X3503Y5989D1*
X3521Y6006D1*
X3542Y6020D1*
X3564Y6031D1*
X3588Y6038D1*
X3613Y6042D1*
X3638Y6041D1*
X3663Y6038D1*
X3687Y6030D1*
X3709Y6019D1*
X3730Y6005D1*
X3748Y5988D1*
X3763Y5969D1*
X3776Y5947D1*
X3785Y5924D1*
X3790Y5899D1*
X3792Y5875D1*
X3790Y5850D1*
X3785Y5826D1*
X3775Y5802D1*
X3763Y5781D1*
X3747Y5761D1*
X3719Y5738D1*
X3748Y5713D1*
X3763Y5694D1*
X3776Y5672D1*
X3785Y5649D1*
X3790Y5624D1*
X3792Y5600D1*
X3790Y5575D1*
X3785Y5551D1*
X3775Y5527D1*
X3763Y5506D1*
X3747Y5486D1*
X3729Y5469D1*
X3708Y5455D1*
X3686Y5444D1*
X3672Y5440D1*
X3688Y5438D1*
X3712Y5430D1*
X3734Y5419D1*
X3755Y5405D1*
X3773Y5388D1*
X3788Y5369D1*
X3801Y5347D1*
X3810Y5324D1*
X3815Y5299D1*
X3817Y5275D1*
X3815Y5250D1*
X6655Y5015D2*
X6650Y4991D1*
X6640Y4967D1*
X6628Y4946D1*
X6612Y4926D1*
X6594Y4909D1*
X6573Y4895D1*
X6551Y4884D1*
X6527Y4877D1*
X6502Y4873D1*
X6477D1*
X6453Y4877D1*
X6429Y4885D1*
X6406Y4895D1*
X6386Y4910D1*
X6367Y4927D1*
X6352Y4946D1*
X6339Y4968D1*
X6330Y4991D1*
X6325Y5015D1*
X6323Y5040D1*
X6325Y5065D1*
X6331Y5090D1*
X6340Y5113D1*
X6352Y5134D1*
X6368Y5154D1*
X6386Y5171D1*
X6407Y5185D1*
X6429Y5196D1*
X6453Y5203D1*
X6478Y5207D1*
X6503Y5206D1*
X6528Y5203D1*
X6552Y5195D1*
X6574Y5184D1*
X6595Y5170D1*
X6613Y5153D1*
X6628Y5134D1*
X6641Y5112D1*
X6650Y5089D1*
X6655Y5064D1*
X6657Y5040D1*
X6655Y5015D1*
X6465Y3975D2*
X6460Y3951D1*
X6450Y3927D1*
X6438Y3906D1*
X6422Y3886D1*
X6404Y3869D1*
X6383Y3855D1*
X6361Y3844D1*
X6337Y3837D1*
X6312Y3833D1*
X6287D1*
X6263Y3837D1*
X6239Y3845D1*
X6216Y3855D1*
X6196Y3870D1*
X6177Y3887D1*
X6162Y3906D1*
X6149Y3928D1*
X6140Y3951D1*
X6135Y3975D1*
X6133Y4000D1*
X6135Y4025D1*
X6141Y4050D1*
X6150Y4073D1*
X6162Y4094D1*
X6178Y4114D1*
X6196Y4131D1*
X6217Y4145D1*
X6239Y4156D1*
X6263Y4163D1*
X6288Y4167D1*
X6313Y4166D1*
X6338Y4163D1*
X6362Y4155D1*
X6384Y4144D1*
X6405Y4130D1*
X6423Y4113D1*
X6438Y4094D1*
X6451Y4072D1*
X6460Y4049D1*
X6465Y4024D1*
X6467Y4000D1*
X6465Y3975D1*
X8449Y4125D2*
X8444Y4101D1*
X8435Y4077D1*
X8422Y4056D1*
X8406Y4036D1*
X8388Y4019D1*
X8367Y4005D1*
X8345Y3994D1*
X8321Y3987D1*
X8296Y3983D1*
X8271D1*
X8247Y3987D1*
X8223Y3995D1*
X8200Y4005D1*
X8180Y4020D1*
X8161Y4037D1*
X8146Y4056D1*
X8134Y4078D1*
X8124Y4101D1*
X8119Y4125D1*
X8117Y4150D1*
X8120Y4179D1*
X8087Y4167D1*
X8062Y4163D1*
X8037D1*
X8013Y4167D1*
X7989Y4175D1*
X7966Y4185D1*
X7946Y4200D1*
X7927Y4217D1*
X7912Y4236D1*
X7899Y4258D1*
X7890Y4281D1*
X7885Y4305D1*
X7883Y4330D1*
X7885Y4355D1*
X7891Y4380D1*
X7900Y4403D1*
X7912Y4424D1*
X7928Y4444D1*
X7946Y4461D1*
X7967Y4475D1*
X7989Y4486D1*
X8013Y4493D1*
X8038Y4497D1*
X8063Y4496D1*
X8088Y4493D1*
X8112Y4485D1*
X8134Y4474D1*
X8155Y4460D1*
X8173Y4443D1*
X8188Y4424D1*
X8201Y4402D1*
X8210Y4379D1*
X8215Y4354D1*
X8217Y4330D1*
X8214Y4301D1*
X8247Y4313D1*
X8272Y4317D1*
X8297Y4316D1*
X8322Y4313D1*
X8346Y4305D1*
X8368Y4294D1*
X8389Y4280D1*
X8407Y4263D1*
X8422Y4244D1*
X8435Y4222D1*
X8444Y4199D1*
X8449Y4174D1*
X8451Y4150D1*
X8449Y4125D1*
X1540Y3038D2*
X1535Y3013D1*
X1525Y2990D1*
X1513Y2968D1*
X1497Y2949D1*
X1479Y2932D1*
X1458Y2918D1*
X1436Y2907D1*
X1412Y2900D1*
X1387Y2896D1*
X1362D1*
X1338Y2900D1*
X1314Y2907D1*
X1291Y2918D1*
X1271Y2932D1*
X1252Y2949D1*
X1237Y2969D1*
X1224Y2990D1*
X1215Y3014D1*
X1210Y3038D1*
X1208Y3063D1*
X1210Y3088D1*
X1216Y3112D1*
X1225Y3135D1*
X1237Y3157D1*
X1253Y3176D1*
X1271Y3193D1*
X1292Y3207D1*
X1314Y3218D1*
X1338Y3225D1*
X1363Y3229D1*
X1388D1*
X1413Y3225D1*
X1437Y3218D1*
X1459Y3207D1*
X1480Y3193D1*
X1498Y3176D1*
X1513Y3156D1*
X1526Y3134D1*
X1535Y3111D1*
X1540Y3087D1*
X1542Y3062D1*
X1540Y3038D1*
X4431Y4129D2*
X4420Y4097D1*
X4408Y4076D1*
X4392Y4056D1*
X4374Y4039D1*
X4353Y4025D1*
X4331Y4014D1*
X4307Y4007D1*
X4282Y4003D1*
X4257D1*
X4233Y4007D1*
X4209Y4015D1*
X4186Y4025D1*
X4166Y4040D1*
X4147Y4057D1*
X4132Y4076D1*
X4119Y4098D1*
X4110Y4121D1*
X4105Y4145D1*
X4103Y4170D1*
X4105Y4195D1*
X4111Y4220D1*
X4120Y4243D1*
X4132Y4264D1*
X4148Y4284D1*
X4166Y4301D1*
X4187Y4315D1*
X4209Y4326D1*
X4233Y4333D1*
X4258Y4337D1*
X4283Y4336D1*
X4308Y4333D1*
X4332Y4325D1*
X4359Y4311D1*
X4370Y4343D1*
X4382Y4364D1*
X4398Y4384D1*
X4416Y4401D1*
X4437Y4415D1*
X4459Y4426D1*
X4483Y4433D1*
X4508Y4437D1*
X4533Y4436D1*
X4558Y4433D1*
X4582Y4425D1*
X4604Y4414D1*
X4625Y4400D1*
X4643Y4383D1*
X4658Y4364D1*
X4671Y4342D1*
X4680Y4319D1*
X4685Y4294D1*
X4687Y4270D1*
X4685Y4245D1*
X4680Y4221D1*
X4670Y4197D1*
X4658Y4176D1*
X4642Y4156D1*
X4624Y4139D1*
X4603Y4125D1*
X4581Y4114D1*
X4557Y4107D1*
X4532Y4103D1*
X4507D1*
X4483Y4107D1*
X4459Y4115D1*
X4432Y4129D1*
X7665Y6538D2*
X7660Y6513D1*
X7650Y6490D1*
X7638Y6468D1*
X7622Y6449D1*
X7604Y6432D1*
X7583Y6418D1*
X7561Y6407D1*
X7537Y6400D1*
X7512Y6396D1*
X7487D1*
X7463Y6400D1*
X7439Y6407D1*
X7416Y6418D1*
X7396Y6432D1*
X7377Y6449D1*
X7362Y6468D1*
X7370Y6449D1*
X7375Y6424D1*
X7377Y6400D1*
X7375Y6375D1*
X7370Y6351D1*
X7360Y6327D1*
X7348Y6306D1*
X7332Y6286D1*
X7314Y6269D1*
X7293Y6255D1*
X7271Y6244D1*
X7247Y6237D1*
X7222Y6233D1*
X7197D1*
X7173Y6237D1*
X7149Y6245D1*
X7126Y6255D1*
X7106Y6270D1*
X7087Y6287D1*
X7072Y6306D1*
X7059Y6328D1*
X7050Y6351D1*
X7045Y6375D1*
X7043Y6400D1*
X7045Y6425D1*
X7051Y6450D1*
X7060Y6473D1*
X7072Y6494D1*
X7088Y6514D1*
X7106Y6531D1*
X7127Y6545D1*
X7149Y6556D1*
X7173Y6563D1*
X7198Y6567D1*
X7223Y6566D1*
X7248Y6563D1*
X7272Y6555D1*
X7294Y6544D1*
X7315Y6530D1*
X7333Y6513D1*
X7348Y6494D1*
X7340Y6514D1*
X7335Y6538D1*
X7333Y6563D1*
X7335Y6588D1*
X7341Y6612D1*
X7350Y6635D1*
X7362Y6657D1*
X7378Y6676D1*
X7396Y6693D1*
X7417Y6707D1*
X7439Y6718D1*
X7463Y6725D1*
X7488Y6729D1*
X7513D1*
X7538Y6725D1*
X7562Y6718D1*
X7584Y6707D1*
X7605Y6693D1*
X7623Y6676D1*
X7638Y6656D1*
X7651Y6634D1*
X7660Y6611D1*
X7665Y6587D1*
X7667Y6563D1*
X7665Y6538D1*
X3035Y9165D2*
X3030Y9141D1*
X3020Y9117D1*
X3008Y9096D1*
X2994Y9078D1*
X3023Y9053D1*
X3038Y9034D1*
X3051Y9012D1*
X3060Y8989D1*
X3065Y8964D1*
X3067Y8940D1*
X3065Y8915D1*
X3060Y8891D1*
X3050Y8867D1*
X3038Y8846D1*
X3022Y8826D1*
X3004Y8809D1*
X2983Y8795D1*
X2970Y8789D1*
X2999Y8780D1*
X3022Y8769D1*
X3042Y8755D1*
X3060Y8738D1*
X3076Y8719D1*
X3088Y8697D1*
X3097Y8674D1*
X3103Y8649D1*
X3104Y8625D1*
X3103Y8600D1*
X3097Y8576D1*
X3088Y8552D1*
X3075Y8531D1*
X3060Y8511D1*
X3048Y8500D1*
X3060Y8488D1*
X3076Y8469D1*
X3088Y8447D1*
X3097Y8424D1*
X3103Y8399D1*
X3104Y8375D1*
X3103Y8350D1*
X3097Y8326D1*
X3088Y8302D1*
X3075Y8281D1*
X3060Y8261D1*
X3048Y8250D1*
X3060Y8238D1*
X3076Y8219D1*
X3088Y8197D1*
X3097Y8174D1*
X3103Y8149D1*
X3104Y8125D1*
X3103Y8100D1*
X3097Y8076D1*
X3088Y8052D1*
X3075Y8031D1*
X3060Y8011D1*
X3042Y7994D1*
X3021Y7980D1*
X2998Y7969D1*
X2975Y7962D1*
X2950Y7958D1*
X2925D1*
X2900Y7962D1*
X2876Y7970D1*
X2854Y7980D1*
X2833Y7995D1*
X2815Y8012D1*
X2799Y8031D1*
X2787Y8053D1*
X2778Y8076D1*
X2772Y8100D1*
X2770Y8125D1*
X2772Y8150D1*
X2778Y8175D1*
X2787Y8198D1*
X2800Y8219D1*
X2815Y8239D1*
X2827Y8250D1*
X2812Y8265D1*
X2792Y8244D1*
X2771Y8230D1*
X2748Y8219D1*
X2725Y8212D1*
X2700Y8208D1*
X2675D1*
X2650Y8212D1*
X2626Y8220D1*
X2604Y8230D1*
X2583Y8245D1*
X2562Y8265D1*
X2542Y8244D1*
X2521Y8230D1*
X2498Y8219D1*
X2475Y8212D1*
X2450Y8208D1*
X2425D1*
X2400Y8212D1*
X2376Y8220D1*
X2354Y8230D1*
X2333Y8245D1*
X2312Y8265D1*
X2292Y8244D1*
X2271Y8230D1*
X2248Y8219D1*
X2225Y8212D1*
X2200Y8208D1*
X2175D1*
X2150Y8212D1*
X2126Y8220D1*
X2104Y8230D1*
X2083Y8245D1*
X2065Y8262D1*
X2049Y8281D1*
X2037Y8303D1*
X2028Y8326D1*
X2022Y8350D1*
X2020Y8375D1*
X2022Y8400D1*
X2028Y8425D1*
X2037Y8448D1*
X2050Y8469D1*
X2065Y8489D1*
X2084Y8506D1*
X2104Y8520D1*
X2129Y8531D1*
X2104Y8543D1*
X2083Y8557D1*
X2065Y8574D1*
X2049Y8594D1*
X2037Y8615D1*
X2028Y8639D1*
X2022Y8663D1*
X2020Y8688D1*
X2022Y8713D1*
X2028Y8737D1*
X2037Y8760D1*
X2050Y8782D1*
X2065Y8801D1*
X2077Y8813D1*
X2065Y8824D1*
X2049Y8844D1*
X2037Y8865D1*
X2028Y8889D1*
X2022Y8913D1*
X2020Y8938D1*
X2022Y8963D1*
X2028Y8987D1*
X2037Y9010D1*
X2050Y9032D1*
X2065Y9051D1*
X2077Y9063D1*
X2065Y9074D1*
X2049Y9094D1*
X2037Y9115D1*
X2028Y9139D1*
X2022Y9163D1*
X2020Y9188D1*
X2022Y9213D1*
X2028Y9237D1*
X2037Y9260D1*
X2050Y9282D1*
X2065Y9301D1*
X2084Y9318D1*
X2104Y9332D1*
X2127Y9343D1*
X2151Y9350D1*
X2176Y9354D1*
X2201D1*
X2225Y9350D1*
X2249Y9343D1*
X2272Y9332D1*
X2292Y9318D1*
X2310Y9301D1*
X2326Y9281D1*
X2338Y9259D1*
X2347Y9236D1*
X2353Y9212D1*
X2354Y9187D1*
X2353Y9163D1*
X2347Y9138D1*
X2338Y9115D1*
X2325Y9093D1*
X2310Y9074D1*
X2298Y9063D1*
X2313Y9048D1*
X2334Y9068D1*
X2354Y9082D1*
X2377Y9093D1*
X2401Y9100D1*
X2426Y9104D1*
X2451D1*
X2475Y9100D1*
X2499Y9093D1*
X2522Y9082D1*
X2542Y9068D1*
X2563Y9048D1*
X2584Y9068D1*
X2604Y9082D1*
X2627Y9093D1*
X2651Y9100D1*
X2676Y9104D1*
X2701D1*
X2730Y9099D1*
X2719Y9118D1*
X2710Y9141D1*
X2705Y9165D1*
X2703Y9190D1*
X2705Y9215D1*
X2711Y9240D1*
X2720Y9263D1*
X2732Y9284D1*
X2748Y9304D1*
X2766Y9321D1*
X2787Y9335D1*
X2809Y9346D1*
X2833Y9353D1*
X2858Y9357D1*
X2883Y9356D1*
X2908Y9353D1*
X2932Y9345D1*
X2954Y9334D1*
X2975Y9320D1*
X2993Y9303D1*
X3008Y9284D1*
X3021Y9262D1*
X3030Y9239D1*
X3035Y9214D1*
X3037Y9190D1*
X3035Y9165D1*
X8781Y4129D2*
X8775Y4115D1*
X8763Y4093D1*
X8747Y4074D1*
X8729Y4057D1*
X8708Y4043D1*
X8686Y4032D1*
X8662Y4025D1*
X8637Y4021D1*
X8612D1*
X8588Y4025D1*
X8564Y4032D1*
X8541Y4043D1*
X8521Y4057D1*
X8502Y4074D1*
X8487Y4094D1*
X8474Y4115D1*
X8465Y4139D1*
X8460Y4163D1*
X8458Y4188D1*
X8460Y4213D1*
X8466Y4237D1*
X8475Y4260D1*
X8487Y4282D1*
X8503Y4301D1*
X8521Y4318D1*
X8542Y4332D1*
X8564Y4343D1*
X8588Y4350D1*
X8613Y4354D1*
X8638D1*
X8663Y4350D1*
X8687Y4343D1*
X8709Y4332D1*
X8730Y4318D1*
X8748Y4301D1*
X8763Y4281D1*
X8776Y4259D1*
X8781Y4246D1*
X8787Y4260D1*
X8800Y4282D1*
X8815Y4301D1*
X8834Y4318D1*
X8854Y4332D1*
X8877Y4343D1*
X8901Y4350D1*
X8926Y4354D1*
X8951D1*
X8975Y4350D1*
X8999Y4343D1*
X9022Y4332D1*
X9042Y4318D1*
X9060Y4301D1*
X9076Y4281D1*
X9088Y4259D1*
X9097Y4236D1*
X9103Y4212D1*
X9105Y4188D1*
X9103Y4163D1*
X9097Y4138D1*
X9088Y4115D1*
X9075Y4093D1*
X9060Y4074D1*
X9042Y4057D1*
X9021Y4043D1*
X8998Y4032D1*
X8975Y4025D1*
X8950Y4021D1*
X8925D1*
X8900Y4025D1*
X8876Y4032D1*
X8854Y4043D1*
X8833Y4057D1*
X8815Y4074D1*
X8799Y4094D1*
X8787Y4115D1*
X8782Y4129D1*
X1225Y2295D2*
X1220Y2271D1*
X1210Y2247D1*
X1197Y2225D1*
X1211Y2202D1*
X1220Y2179D1*
X1225Y2154D1*
X1227Y2130D1*
X1225Y2105D1*
X1220Y2081D1*
X1210Y2057D1*
X1198Y2036D1*
X1182Y2016D1*
X1164Y1999D1*
X1143Y1985D1*
X1121Y1974D1*
X1097Y1967D1*
X1072Y1963D1*
X1047D1*
X1023Y1967D1*
X999Y1975D1*
X976Y1985D1*
X956Y2000D1*
X937Y2017D1*
X922Y2036D1*
X909Y2058D1*
X900Y2081D1*
X895Y2105D1*
X893Y2130D1*
X895Y2155D1*
X901Y2180D1*
X910Y2203D1*
X923Y2225D1*
X909Y2248D1*
X900Y2271D1*
X895Y2295D1*
X893Y2320D1*
X895Y2345D1*
X901Y2370D1*
X910Y2393D1*
X922Y2414D1*
X938Y2434D1*
X956Y2451D1*
X977Y2465D1*
X999Y2476D1*
X1023Y2483D1*
X1048Y2487D1*
X1073Y2486D1*
X1098Y2483D1*
X1122Y2475D1*
X1144Y2464D1*
X1165Y2450D1*
X1183Y2433D1*
X1198Y2414D1*
X1211Y2392D1*
X1220Y2369D1*
X1225Y2344D1*
X1227Y2320D1*
X1225Y2295D1*
X1629Y3031D2*
X1604Y3043D1*
X1583Y3057D1*
X1565Y3074D1*
X1549Y3094D1*
X1537Y3115D1*
X1528Y3139D1*
X1522Y3163D1*
X1521Y3188D1*
X1522Y3213D1*
X1528Y3237D1*
X1537Y3260D1*
X1550Y3282D1*
X1565Y3301D1*
X1584Y3318D1*
X1604Y3332D1*
X1627Y3343D1*
X1651Y3350D1*
X1676Y3354D1*
X1701D1*
X1725Y3350D1*
X1749Y3343D1*
X1772Y3332D1*
X1792Y3318D1*
X1810Y3301D1*
X1826Y3281D1*
X1838Y3259D1*
X1844Y3246D1*
X1850Y3260D1*
X1862Y3282D1*
X1878Y3301D1*
X1896Y3318D1*
X1917Y3332D1*
X1939Y3343D1*
X1963Y3350D1*
X1988Y3354D1*
X2013D1*
X2038Y3350D1*
X2062Y3343D1*
X2084Y3332D1*
X2105Y3318D1*
X2123Y3301D1*
X2138Y3281D1*
X2151Y3259D1*
X2160Y3236D1*
X2165Y3212D1*
X2167Y3188D1*
X2165Y3163D1*
X2160Y3138D1*
X2150Y3115D1*
X2138Y3093D1*
X2122Y3074D1*
X2104Y3057D1*
X2083Y3043D1*
X2059Y3031D1*
X2084Y3019D1*
X2105Y3005D1*
X2123Y2988D1*
X2138Y2969D1*
X2151Y2947D1*
X2160Y2924D1*
X2165Y2899D1*
X2167Y2875D1*
X2165Y2850D1*
X2160Y2826D1*
X2150Y2802D1*
X2138Y2781D1*
X2122Y2761D1*
X2104Y2744D1*
X2083Y2730D1*
X2061Y2719D1*
X2037Y2712D1*
X2012Y2708D1*
X1987D1*
X1963Y2712D1*
X1939Y2720D1*
X1916Y2730D1*
X1896Y2745D1*
X1877Y2762D1*
X1862Y2781D1*
X1849Y2803D1*
X1844Y2817D1*
X1825Y2781D1*
X1810Y2761D1*
X1792Y2744D1*
X1771Y2730D1*
X1748Y2719D1*
X1725Y2712D1*
X1700Y2708D1*
X1675D1*
X1650Y2712D1*
X1626Y2720D1*
X1604Y2730D1*
X1583Y2745D1*
X1565Y2762D1*
X1549Y2781D1*
X1537Y2803D1*
X1528Y2826D1*
X1522Y2850D1*
X1521Y2875D1*
X1522Y2900D1*
X1528Y2925D1*
X1537Y2948D1*
X1550Y2969D1*
X1565Y2989D1*
X1584Y3006D1*
X1604Y3020D1*
X1629Y3031D1*
X2290Y7413D2*
X2285Y7388D1*
X2275Y7365D1*
X2263Y7343D1*
X2247Y7324D1*
X2229Y7307D1*
X2208Y7293D1*
X2186Y7282D1*
X2162Y7275D1*
X2137Y7271D1*
X2112D1*
X2088Y7275D1*
X2064Y7282D1*
X2041Y7293D1*
X2021Y7307D1*
X2002Y7324D1*
X1987Y7344D1*
X1974Y7365D1*
X1965Y7389D1*
X1960Y7413D1*
X1958Y7438D1*
X1960Y7463D1*
X1966Y7487D1*
X1975Y7510D1*
X1987Y7532D1*
X2003Y7551D1*
X2021Y7568D1*
X2042Y7582D1*
X2064Y7593D1*
X2088Y7600D1*
X2113Y7604D1*
X2138D1*
X2163Y7600D1*
X2187Y7593D1*
X2209Y7582D1*
X2230Y7568D1*
X2248Y7551D1*
X2263Y7531D1*
X2276Y7509D1*
X2285Y7486D1*
X2290Y7462D1*
X2292Y7437D1*
X2290Y7413D1*
X3040Y2538D2*
X3035Y2513D1*
X3025Y2490D1*
X3013Y2468D1*
X2997Y2449D1*
X2979Y2432D1*
X2958Y2418D1*
X2936Y2407D1*
X2912Y2400D1*
X2887Y2396D1*
X2862D1*
X2838Y2400D1*
X2814Y2407D1*
X2791Y2418D1*
X2771Y2432D1*
X2752Y2449D1*
X2737Y2469D1*
X2724Y2490D1*
X2715Y2514D1*
X2710Y2538D1*
X2708Y2563D1*
X2710Y2588D1*
X2716Y2612D1*
X2725Y2635D1*
X2737Y2657D1*
X2753Y2676D1*
X2771Y2693D1*
X2792Y2707D1*
X2814Y2718D1*
X2838Y2725D1*
X2863Y2729D1*
X2888D1*
X2913Y2725D1*
X2937Y2718D1*
X2959Y2707D1*
X2980Y2693D1*
X2998Y2676D1*
X3013Y2656D1*
X3026Y2634D1*
X3035Y2611D1*
X3040Y2587D1*
X3042Y2563D1*
X3040Y2538D1*
X3415D2*
X3410Y2513D1*
X3400Y2490D1*
X3388Y2468D1*
X3372Y2449D1*
X3354Y2432D1*
X3333Y2418D1*
X3311Y2407D1*
X3287Y2400D1*
X3262Y2396D1*
X3237D1*
X3213Y2400D1*
X3189Y2407D1*
X3166Y2418D1*
X3146Y2432D1*
X3127Y2449D1*
X3112Y2469D1*
X3099Y2490D1*
X3090Y2514D1*
X3085Y2538D1*
X3083Y2563D1*
X3085Y2588D1*
X3091Y2612D1*
X3100Y2635D1*
X3112Y2657D1*
X3128Y2676D1*
X3146Y2693D1*
X3167Y2707D1*
X3189Y2718D1*
X3213Y2725D1*
X3238Y2729D1*
X3263D1*
X3288Y2725D1*
X3312Y2718D1*
X3334Y2707D1*
X3355Y2693D1*
X3373Y2676D1*
X3388Y2656D1*
X3401Y2634D1*
X3410Y2611D1*
X3415Y2587D1*
X3417Y2563D1*
X3415Y2538D1*
X3790D2*
X3785Y2513D1*
X3775Y2490D1*
X3763Y2468D1*
X3747Y2449D1*
X3729Y2432D1*
X3708Y2418D1*
X3686Y2407D1*
X3662Y2400D1*
X3637Y2396D1*
X3612D1*
X3588Y2400D1*
X3564Y2407D1*
X3541Y2418D1*
X3521Y2432D1*
X3502Y2449D1*
X3487Y2469D1*
X3474Y2490D1*
X3465Y2514D1*
X3460Y2538D1*
X3458Y2563D1*
X3460Y2588D1*
X3466Y2612D1*
X3475Y2635D1*
X3487Y2657D1*
X3503Y2676D1*
X3521Y2693D1*
X3542Y2707D1*
X3564Y2718D1*
X3588Y2725D1*
X3613Y2729D1*
X3638D1*
X3663Y2725D1*
X3687Y2718D1*
X3709Y2707D1*
X3730Y2693D1*
X3748Y2676D1*
X3763Y2656D1*
X3776Y2634D1*
X3785Y2611D1*
X3790Y2587D1*
X3792Y2563D1*
X3790Y2538D1*
X5665Y8115D2*
X5660Y8091D1*
X5650Y8067D1*
X5638Y8046D1*
X5622Y8026D1*
X5604Y8009D1*
X5583Y7995D1*
X5561Y7984D1*
X5537Y7977D1*
X5512Y7973D1*
X5487D1*
X5463Y7977D1*
X5439Y7985D1*
X5416Y7995D1*
X5396Y8010D1*
X5377Y8027D1*
X5362Y8046D1*
X5349Y8068D1*
X5340Y8091D1*
X5335Y8115D1*
X5333Y8140D1*
X5335Y8165D1*
X5341Y8190D1*
X5350Y8213D1*
X5362Y8234D1*
X5378Y8254D1*
X5396Y8271D1*
X5417Y8285D1*
X5439Y8296D1*
X5463Y8303D1*
X5488Y8307D1*
X5513Y8306D1*
X5538Y8303D1*
X5562Y8295D1*
X5584Y8284D1*
X5605Y8270D1*
X5623Y8253D1*
X5638Y8234D1*
X5651Y8212D1*
X5660Y8189D1*
X5665Y8164D1*
X5667Y8140D1*
X5665Y8115D1*
X8678Y2963D2*
X8672Y2938D1*
X8663Y2915D1*
X8650Y2893D1*
X8635Y2874D1*
X8617Y2857D1*
X8596Y2843D1*
X8573Y2832D1*
X8550Y2825D1*
X8525Y2821D1*
X8500D1*
X8475Y2825D1*
X8451Y2832D1*
X8429Y2843D1*
X8408Y2857D1*
X8390Y2874D1*
X8374Y2894D1*
X8362Y2915D1*
X8353Y2939D1*
X8347Y2963D1*
X8346Y2988D1*
X8347Y3013D1*
X8353Y3037D1*
X8362Y3060D1*
X8375Y3082D1*
X8390Y3101D1*
X8409Y3118D1*
X8429Y3132D1*
X8452Y3143D1*
X8476Y3150D1*
X8501Y3154D1*
X8526D1*
X8550Y3150D1*
X8574Y3143D1*
X8597Y3132D1*
X8617Y3118D1*
X8635Y3101D1*
X8651Y3081D1*
X8663Y3059D1*
X8672Y3036D1*
X8678Y3012D1*
X8680Y2988D1*
X8678Y2963D1*
X695Y2275D2*
X690Y2251D1*
X680Y2227D1*
X668Y2206D1*
X652Y2186D1*
X634Y2169D1*
X613Y2155D1*
X591Y2144D1*
X567Y2137D1*
X542Y2133D1*
X517D1*
X493Y2137D1*
X469Y2145D1*
X446Y2155D1*
X426Y2170D1*
X407Y2187D1*
X392Y2206D1*
X379Y2228D1*
X370Y2251D1*
X365Y2275D1*
X363Y2300D1*
X365Y2325D1*
X371Y2350D1*
X380Y2373D1*
X392Y2394D1*
X408Y2414D1*
X426Y2431D1*
X447Y2445D1*
X469Y2456D1*
X493Y2463D1*
X518Y2467D1*
X543Y2466D1*
X568Y2463D1*
X592Y2455D1*
X614Y2444D1*
X635Y2430D1*
X653Y2413D1*
X668Y2394D1*
X681Y2372D1*
X690Y2349D1*
X695Y2324D1*
X697Y2300D1*
X695Y2275D1*
X5190Y4450D2*
X5185Y4426D1*
X5175Y4402D1*
X5163Y4381D1*
X5147Y4361D1*
X5129Y4344D1*
X5108Y4330D1*
X5086Y4319D1*
X5062Y4312D1*
X5037Y4308D1*
X5012D1*
X4988Y4312D1*
X4964Y4320D1*
X4941Y4330D1*
X4921Y4345D1*
X4902Y4362D1*
X4887Y4381D1*
X4874Y4403D1*
X4865Y4426D1*
X4860Y4450D1*
X4858Y4475D1*
X4860Y4500D1*
X4866Y4525D1*
X4875Y4548D1*
X4887Y4569D1*
X4903Y4589D1*
X4921Y4606D1*
X4942Y4620D1*
X4964Y4631D1*
X4988Y4638D1*
X5013Y4642D1*
X5038Y4641D1*
X5063Y4638D1*
X5087Y4630D1*
X5109Y4619D1*
X5130Y4605D1*
X5148Y4588D1*
X5163Y4569D1*
X5176Y4547D1*
X5185Y4524D1*
X5190Y4499D1*
X5192Y4475D1*
X5190Y4450D1*
X3905Y7327D2*
X3881Y7314D1*
X3857Y7307D1*
X3832Y7303D1*
X3807D1*
X3783Y7307D1*
X3759Y7315D1*
X3736Y7325D1*
X3716Y7340D1*
X3697Y7357D1*
X3682Y7376D1*
X3669Y7398D1*
X3660Y7421D1*
X3655Y7445D1*
X3653Y7470D1*
X3655Y7495D1*
X3661Y7520D1*
X3670Y7543D1*
X3682Y7564D1*
X3698Y7584D1*
X3716Y7601D1*
X3737Y7615D1*
X3759Y7626D1*
X3783Y7633D1*
X3808Y7637D1*
X3833Y7636D1*
X3858Y7633D1*
X3882Y7625D1*
X3904Y7614D1*
X3925Y7600D1*
X3943Y7583D1*
X3958Y7564D1*
X3971Y7542D1*
X3980Y7519D1*
X3985Y7493D1*
X4009Y7506D1*
X4033Y7513D1*
X4058Y7517D1*
X4083Y7516D1*
X4108Y7513D1*
X4132Y7505D1*
X4154Y7494D1*
X4175Y7480D1*
X4193Y7463D1*
X4208Y7444D1*
X4221Y7422D1*
X4230Y7399D1*
X4235Y7374D1*
X4237Y7350D1*
X4235Y7325D1*
X4230Y7301D1*
X4220Y7277D1*
X4208Y7256D1*
X4192Y7236D1*
X4174Y7219D1*
X4153Y7205D1*
X4131Y7194D1*
X4107Y7187D1*
X4082Y7183D1*
X4057D1*
X4033Y7187D1*
X4009Y7195D1*
X3986Y7205D1*
X3966Y7220D1*
X3947Y7237D1*
X3932Y7256D1*
X3919Y7278D1*
X3910Y7301D1*
X3905Y7326D1*
X2915Y4663D2*
X2910Y4638D1*
X2900Y4615D1*
X2888Y4593D1*
X2872Y4574D1*
X2854Y4557D1*
X2833Y4543D1*
X2811Y4532D1*
X2787Y4525D1*
X2762Y4521D1*
X2737D1*
X2713Y4525D1*
X2689Y4532D1*
X2666Y4543D1*
X2646Y4557D1*
X2627Y4574D1*
X2612Y4594D1*
X2599Y4615D1*
X2590Y4639D1*
X2585Y4663D1*
X2583Y4688D1*
X2585Y4713D1*
X2591Y4737D1*
X2600Y4760D1*
X2612Y4782D1*
X2628Y4801D1*
X2646Y4818D1*
X2667Y4832D1*
X2689Y4843D1*
X2713Y4850D1*
X2738Y4854D1*
X2763D1*
X2788Y4850D1*
X2812Y4843D1*
X2834Y4832D1*
X2855Y4818D1*
X2873Y4801D1*
X2888Y4781D1*
X2901Y4759D1*
X2910Y4736D1*
X2915Y4712D1*
X2917Y4688D1*
X2915Y4663D1*
X7785Y2305D2*
X7780Y2281D1*
X7770Y2257D1*
X7758Y2236D1*
X7742Y2216D1*
X7724Y2199D1*
X7703Y2185D1*
X7681Y2174D1*
X7657Y2167D1*
X7632Y2163D1*
X7607D1*
X7583Y2167D1*
X7559Y2175D1*
X7536Y2185D1*
X7516Y2200D1*
X7497Y2217D1*
X7482Y2236D1*
X7469Y2258D1*
X7460Y2281D1*
X7455Y2305D1*
X7453Y2330D1*
X7455Y2355D1*
X7461Y2380D1*
X7470Y2403D1*
X7482Y2424D1*
X7498Y2444D1*
X7516Y2461D1*
X7537Y2475D1*
X7559Y2486D1*
X7583Y2493D1*
X7608Y2497D1*
X7633Y2496D1*
X7658Y2493D1*
X7682Y2485D1*
X7704Y2474D1*
X7725Y2460D1*
X7743Y2443D1*
X7758Y2424D1*
X7771Y2402D1*
X7780Y2379D1*
X7785Y2354D1*
X7787Y2330D1*
X7785Y2305D1*
G36*
X775Y3638D2*
X225D1*
X209D1*
X194Y3641D1*
X179Y3645D1*
X164Y3650D1*
X150Y3658D1*
X137Y3666D1*
X125Y3676D1*
X114Y3687D1*
X104Y3699D1*
X95Y3713D1*
X88Y3726D1*
X82Y3741D1*
X78Y3756D1*
X76Y3772D1*
X75Y3788D1*
Y4338D1*
X76Y4353D1*
X78Y4369D1*
X82Y4384D1*
X88Y4399D1*
X95Y4413D1*
X104Y4426D1*
X114Y4438D1*
X125Y4449D1*
X137Y4459D1*
X150Y4467D1*
X164Y4475D1*
X179Y4480D1*
X194Y4484D1*
X209Y4487D1*
X225Y4488D1*
X775D1*
X791Y4487D1*
X806Y4484D1*
X821Y4480D1*
X836Y4475D1*
X850Y4467D1*
X863Y4459D1*
X875Y4449D1*
X886Y4438D1*
X896Y4426D1*
X905Y4413D1*
X912Y4399D1*
X918Y4384D1*
X922Y4369D1*
X924Y4353D1*
X925Y4338D1*
Y3788D1*
X924Y3772D1*
X922Y3756D1*
X918Y3741D1*
X912Y3726D1*
X905Y3713D1*
X896Y3699D1*
X886Y3687D1*
X875Y3676D1*
X863Y3666D1*
X850Y3658D1*
X836Y3650D1*
X821Y3645D1*
X806Y3641D1*
X791Y3638D1*
X775D1*
G37*
G36*
X925Y5338D2*
Y4788D1*
X924Y4772D1*
X922Y4756D1*
X918Y4741D1*
X912Y4726D1*
X905Y4713D1*
X896Y4699D1*
X886Y4687D1*
X875Y4676D1*
X863Y4666D1*
X850Y4658D1*
X836Y4650D1*
X821Y4645D1*
X806Y4641D1*
X791Y4638D1*
X775D1*
X225D1*
X209D1*
X194Y4641D1*
X179Y4645D1*
X164Y4650D1*
X150Y4658D1*
X137Y4666D1*
X125Y4676D1*
X114Y4687D1*
X104Y4699D1*
X95Y4713D1*
X88Y4726D1*
X82Y4741D1*
X78Y4756D1*
X76Y4772D1*
X75Y4788D1*
Y5338D1*
X76Y5353D1*
X78Y5369D1*
X82Y5384D1*
X88Y5399D1*
X95Y5413D1*
X104Y5426D1*
X114Y5438D1*
X125Y5449D1*
X137Y5459D1*
X150Y5467D1*
X164Y5475D1*
X179Y5480D1*
X194Y5484D1*
X209Y5487D1*
X225Y5488D1*
X775D1*
X791Y5487D1*
X806Y5484D1*
X821Y5480D1*
X836Y5475D1*
X850Y5467D1*
X863Y5459D1*
X875Y5449D1*
X886Y5438D1*
X896Y5426D1*
X905Y5413D1*
X912Y5399D1*
X918Y5384D1*
X922Y5369D1*
X924Y5353D1*
X925Y5338D1*
G37*
G36*
X225Y5638D2*
X775D1*
X791D1*
X806Y5641D1*
X821Y5645D1*
X836Y5650D1*
X850Y5658D1*
X863Y5666D1*
X875Y5676D1*
X886Y5687D1*
X896Y5699D1*
X905Y5713D1*
X912Y5726D1*
X918Y5741D1*
X922Y5756D1*
X924Y5772D1*
X925Y5788D1*
Y6338D1*
X924Y6353D1*
X922Y6369D1*
X918Y6384D1*
X912Y6399D1*
X905Y6413D1*
X896Y6426D1*
X886Y6438D1*
X875Y6449D1*
X863Y6459D1*
X850Y6467D1*
X836Y6475D1*
X821Y6480D1*
X806Y6484D1*
X791Y6487D1*
X775Y6488D1*
X225D1*
X209Y6487D1*
X194Y6484D1*
X179Y6480D1*
X164Y6475D1*
X150Y6467D1*
X137Y6459D1*
X125Y6449D1*
X114Y6438D1*
X104Y6426D1*
X95Y6413D1*
X88Y6399D1*
X82Y6384D1*
X78Y6369D1*
X76Y6353D1*
X75Y6338D1*
Y5788D1*
X76Y5772D1*
X78Y5756D1*
X82Y5741D1*
X88Y5726D1*
X95Y5713D1*
X104Y5699D1*
X114Y5687D1*
X125Y5676D1*
X137Y5666D1*
X150Y5658D1*
X164Y5650D1*
X179Y5645D1*
X194Y5641D1*
X209Y5638D1*
X225D1*
G37*
G36*
X925Y6788D2*
Y7338D1*
X924Y7353D1*
X922Y7369D1*
X918Y7384D1*
X912Y7399D1*
X905Y7413D1*
X896Y7426D1*
X886Y7438D1*
X875Y7449D1*
X863Y7459D1*
X850Y7467D1*
X836Y7475D1*
X821Y7480D1*
X806Y7484D1*
X791Y7487D1*
X775Y7488D1*
X225D1*
X209Y7487D1*
X194Y7484D1*
X179Y7480D1*
X164Y7475D1*
X150Y7467D1*
X137Y7459D1*
X125Y7449D1*
X114Y7438D1*
X104Y7426D1*
X95Y7413D1*
X88Y7399D1*
X82Y7384D1*
X78Y7369D1*
X76Y7353D1*
X75Y7338D1*
Y6788D1*
X76Y6772D1*
X78Y6756D1*
X82Y6741D1*
X88Y6726D1*
X95Y6713D1*
X104Y6699D1*
X114Y6687D1*
X125Y6676D1*
X137Y6666D1*
X150Y6658D1*
X164Y6650D1*
X179Y6645D1*
X194Y6641D1*
X209Y6638D1*
X225D1*
X775D1*
X791D1*
X806Y6641D1*
X821Y6645D1*
X836Y6650D1*
X850Y6658D1*
X863Y6666D1*
X875Y6676D1*
X886Y6687D1*
X896Y6699D1*
X905Y6713D1*
X912Y6726D1*
X918Y6741D1*
X922Y6756D1*
X924Y6772D1*
X925Y6788D1*
G37*
G36*
X3450Y8788D2*
Y9338D1*
X3451Y9353D1*
X3453Y9369D1*
X3457Y9384D1*
X3463Y9399D1*
X3470Y9413D1*
X3479Y9426D1*
X3489Y9438D1*
X3500Y9449D1*
X3512Y9459D1*
X3525Y9467D1*
X3539Y9475D1*
X3554Y9480D1*
X3569Y9484D1*
X3584Y9487D1*
X3600Y9488D1*
X4150D1*
X4166Y9487D1*
X4181Y9484D1*
X4196Y9480D1*
X4211Y9475D1*
X4225Y9467D1*
X4238Y9459D1*
X4250Y9449D1*
X4261Y9438D1*
X4271Y9426D1*
X4280Y9413D1*
X4287Y9399D1*
X4293Y9384D1*
X4297Y9369D1*
X4299Y9353D1*
X4300Y9338D1*
Y8788D1*
X4299Y8772D1*
X4297Y8756D1*
X4293Y8741D1*
X4287Y8726D1*
X4280Y8713D1*
X4271Y8699D1*
X4261Y8687D1*
X4250Y8676D1*
X4238Y8666D1*
X4225Y8658D1*
X4211Y8650D1*
X4196Y8645D1*
X4181Y8641D1*
X4166Y8638D1*
X4150D1*
X3600D1*
X3584D1*
X3569Y8641D1*
X3554Y8645D1*
X3539Y8650D1*
X3525Y8658D1*
X3512Y8666D1*
X3500Y8676D1*
X3489Y8687D1*
X3479Y8699D1*
X3470Y8713D1*
X3463Y8726D1*
X3457Y8741D1*
X3453Y8756D1*
X3451Y8772D1*
X3450Y8788D1*
G37*
G36*
X5150Y8638D2*
X4600D1*
X4584D1*
X4569Y8641D1*
X4554Y8645D1*
X4539Y8650D1*
X4525Y8658D1*
X4512Y8666D1*
X4500Y8676D1*
X4489Y8687D1*
X4479Y8699D1*
X4470Y8713D1*
X4463Y8726D1*
X4457Y8741D1*
X4453Y8756D1*
X4451Y8772D1*
X4450Y8788D1*
Y9338D1*
X4451Y9353D1*
X4453Y9369D1*
X4457Y9384D1*
X4463Y9399D1*
X4470Y9413D1*
X4479Y9426D1*
X4489Y9438D1*
X4500Y9449D1*
X4512Y9459D1*
X4525Y9467D1*
X4539Y9475D1*
X4554Y9480D1*
X4569Y9484D1*
X4584Y9487D1*
X4600Y9488D1*
X5150D1*
X5166Y9487D1*
X5181Y9484D1*
X5196Y9480D1*
X5211Y9475D1*
X5225Y9467D1*
X5238Y9459D1*
X5250Y9449D1*
X5261Y9438D1*
X5271Y9426D1*
X5280Y9413D1*
X5287Y9399D1*
X5293Y9384D1*
X5297Y9369D1*
X5299Y9353D1*
X5300Y9338D1*
Y8788D1*
X5299Y8772D1*
X5297Y8756D1*
X5293Y8741D1*
X5287Y8726D1*
X5280Y8713D1*
X5271Y8699D1*
X5261Y8687D1*
X5250Y8676D1*
X5238Y8666D1*
X5225Y8658D1*
X5211Y8650D1*
X5196Y8645D1*
X5181Y8641D1*
X5166Y8638D1*
X5150D1*
G37*
G36*
X5450Y9338D2*
Y8788D1*
X5451Y8772D1*
X5453Y8756D1*
X5457Y8741D1*
X5463Y8726D1*
X5470Y8713D1*
X5479Y8699D1*
X5489Y8687D1*
X5500Y8676D1*
X5512Y8666D1*
X5525Y8658D1*
X5539Y8650D1*
X5554Y8645D1*
X5569Y8641D1*
X5584Y8638D1*
X5600D1*
X6150D1*
X6166D1*
X6181Y8641D1*
X6196Y8645D1*
X6211Y8650D1*
X6225Y8658D1*
X6238Y8666D1*
X6250Y8676D1*
X6261Y8687D1*
X6271Y8699D1*
X6280Y8713D1*
X6287Y8726D1*
X6293Y8741D1*
X6297Y8756D1*
X6299Y8772D1*
X6300Y8788D1*
Y9338D1*
X6299Y9353D1*
X6297Y9369D1*
X6293Y9384D1*
X6287Y9399D1*
X6280Y9413D1*
X6271Y9426D1*
X6261Y9438D1*
X6250Y9449D1*
X6238Y9459D1*
X6225Y9467D1*
X6211Y9475D1*
X6196Y9480D1*
X6181Y9484D1*
X6166Y9487D1*
X6150Y9488D1*
X5600D1*
X5584Y9487D1*
X5569Y9484D1*
X5554Y9480D1*
X5539Y9475D1*
X5525Y9467D1*
X5512Y9459D1*
X5500Y9449D1*
X5489Y9438D1*
X5479Y9426D1*
X5470Y9413D1*
X5463Y9399D1*
X5457Y9384D1*
X5453Y9369D1*
X5451Y9353D1*
X5450Y9338D1*
G37*
G36*
X6600Y8638D2*
X7150D1*
X7166D1*
X7181Y8641D1*
X7196Y8645D1*
X7211Y8650D1*
X7225Y8658D1*
X7238Y8666D1*
X7250Y8676D1*
X7261Y8687D1*
X7271Y8699D1*
X7280Y8713D1*
X7287Y8726D1*
X7293Y8741D1*
X7297Y8756D1*
X7299Y8772D1*
X7300Y8788D1*
Y9338D1*
X7299Y9353D1*
X7297Y9369D1*
X7293Y9384D1*
X7287Y9399D1*
X7280Y9413D1*
X7271Y9426D1*
X7261Y9438D1*
X7250Y9449D1*
X7238Y9459D1*
X7225Y9467D1*
X7211Y9475D1*
X7196Y9480D1*
X7181Y9484D1*
X7166Y9487D1*
X7150Y9488D1*
X6600D1*
X6584Y9487D1*
X6569Y9484D1*
X6554Y9480D1*
X6539Y9475D1*
X6525Y9467D1*
X6512Y9459D1*
X6500Y9449D1*
X6489Y9438D1*
X6479Y9426D1*
X6470Y9413D1*
X6463Y9399D1*
X6457Y9384D1*
X6453Y9369D1*
X6451Y9353D1*
X6450Y9338D1*
Y8788D1*
X6451Y8772D1*
X6453Y8756D1*
X6457Y8741D1*
X6463Y8726D1*
X6470Y8713D1*
X6479Y8699D1*
X6489Y8687D1*
X6500Y8676D1*
X6512Y8666D1*
X6525Y8658D1*
X6539Y8650D1*
X6554Y8645D1*
X6569Y8641D1*
X6584Y8638D1*
X6600D1*
G37*
G36*
X4625Y337D2*
Y1287D1*
X4626Y1303D1*
X4628Y1319D1*
X4632Y1334D1*
X4638Y1349D1*
X4645Y1362D1*
X4654Y1376D1*
X4664Y1388D1*
X4675Y1399D1*
X4687Y1409D1*
X4700Y1417D1*
X4714Y1425D1*
X4729Y1430D1*
X4744Y1434D1*
X4759Y1437D1*
X4775D1*
X5725D1*
X5741D1*
X5756Y1434D1*
X5771Y1430D1*
X5786Y1425D1*
X5800Y1417D1*
X5813Y1409D1*
X5825Y1399D1*
X5836Y1388D1*
X5846Y1376D1*
X5855Y1362D1*
X5862Y1349D1*
X5868Y1334D1*
X5872Y1319D1*
X5874Y1303D1*
X5875Y1287D1*
Y337D1*
X5874Y322D1*
X5872Y306D1*
X5868Y291D1*
X5862Y276D1*
X5855Y262D1*
X5846Y249D1*
X5836Y237D1*
X5825Y226D1*
X5813Y216D1*
X5800Y208D1*
X5786Y200D1*
X5771Y195D1*
X5756Y191D1*
X5741Y188D1*
X5725Y187D1*
X4775D1*
X4759Y188D1*
X4744Y191D1*
X4729Y195D1*
X4714Y200D1*
X4700Y208D1*
X4687Y216D1*
X4675Y226D1*
X4664Y237D1*
X4654Y249D1*
X4645Y262D1*
X4638Y276D1*
X4632Y291D1*
X4628Y306D1*
X4626Y322D1*
X4625Y337D1*
G37*
G36*
X4375D2*
Y1287D1*
X4374Y1303D1*
X4372Y1319D1*
X4368Y1334D1*
X4362Y1349D1*
X4355Y1362D1*
X4346Y1376D1*
X4336Y1388D1*
X4325Y1399D1*
X4313Y1409D1*
X4300Y1417D1*
X4286Y1425D1*
X4271Y1430D1*
X4256Y1434D1*
X4241Y1437D1*
X4225D1*
X3275D1*
X3259D1*
X3244Y1434D1*
X3229Y1430D1*
X3214Y1425D1*
X3200Y1417D1*
X3187Y1409D1*
X3175Y1399D1*
X3164Y1388D1*
X3154Y1376D1*
X3145Y1362D1*
X3138Y1349D1*
X3132Y1334D1*
X3128Y1319D1*
X3126Y1303D1*
X3125Y1287D1*
Y337D1*
X3126Y322D1*
X3128Y306D1*
X3132Y291D1*
X3138Y276D1*
X3145Y262D1*
X3154Y249D1*
X3164Y237D1*
X3175Y226D1*
X3187Y216D1*
X3200Y208D1*
X3214Y200D1*
X3229Y195D1*
X3244Y191D1*
X3259Y188D1*
X3275Y187D1*
X4225D1*
X4241Y188D1*
X4256Y191D1*
X4271Y195D1*
X4286Y200D1*
X4300Y208D1*
X4313Y216D1*
X4325Y226D1*
X4336Y237D1*
X4346Y249D1*
X4355Y262D1*
X4362Y276D1*
X4368Y291D1*
X4372Y306D1*
X4374Y322D1*
X4375Y337D1*
G37*
G36*
X8531Y8647D2*
X9319D1*
Y7859D1*
X8531D1*
Y8647D1*
G37*
G36*
X9315Y8756D2*
X8527D1*
Y9544D1*
X9315D1*
Y8756D1*
G37*
G36*
X81Y8597D2*
X869D1*
Y7809D1*
X81D1*
Y8597D1*
G37*
G36*
X865Y8706D2*
X77D1*
Y9494D1*
X865D1*
Y8706D1*
G37*
G36*
X9294Y978D2*
X8506D1*
Y1766D1*
X9294D1*
Y978D1*
G37*
G36*
X8510Y869D2*
X9298D1*
Y81D1*
X8510D1*
Y869D1*
G37*
G36*
X869Y1003D2*
X81D1*
Y1791D1*
X869D1*
Y1003D1*
G37*
G36*
X85Y894D2*
X873D1*
Y106D1*
X85D1*
Y894D1*
G37*
M02*
