G04 DipTrace Beta 2.3.5.2*
%INLulfroMiniBrush.GTL*%
%MOIN*%
%ADD13C,0.015*%
%ADD14C,0.012*%
%ADD15C,0.01*%
%ADD16C,0.025*%
%ADD17C,0.008*%
%ADD18C,0.005*%
%ADD19C,0.007*%
%ADD21R,0.025X0.05*%
%ADD22R,0.05X0.025*%
%ADD25R,0.0354X0.0276*%
%ADD26R,0.0276X0.0354*%
%ADD29R,0.0394X0.0433*%
%ADD30R,0.0433X0.0394*%
%ADD31R,0.0315X0.0315*%
%ADD32R,0.0472X0.0315*%
%ADD34R,0.0256X0.0413*%
%ADD35R,0.0413X0.0256*%
%ADD36R,0.0472X0.0217*%
%ADD37R,0.122X0.0472*%
%ADD39O,0.0335X0.0118*%
%ADD40O,0.0118X0.0335*%
%ADD42R,0.058X0.011*%
%ADD43R,0.011X0.058*%
%ADD44C,0.018*%
%FSLAX44Y44*%
G04*
G70*
G90*
G75*
G01*
%LNTop*%
%LPD*%
X8949Y2625D2*
D13*
Y3113D1*
X8938Y3125D1*
Y3873D2*
X8673D1*
X8550Y3750D1*
Y3125D1*
X8938D1*
X4250Y2875D2*
D14*
X4125D1*
Y3125D1*
X5411Y2875D2*
X5550D1*
Y3125D1*
X5411Y2875D2*
X5725D1*
X5912Y3062D1*
X5937D1*
X5500Y8140D2*
D13*
X5485D1*
X5375Y8250D1*
X8513Y2988D2*
X8650Y3125D1*
X8938D1*
X8500Y3313D2*
Y3190D1*
X8565Y3125D1*
X8938D1*
X5411Y2088D2*
D15*
X5625D1*
Y2225D1*
X5575Y2275D1*
X5402D1*
X5411Y2284D1*
Y2481D2*
X5569D1*
X5625Y2425D1*
Y2225D1*
X4250Y2088D2*
X4125D1*
Y1900D1*
X4425Y1600D1*
X4750D1*
X5000D1*
X5250D1*
X5500D1*
X5662D1*
X5937Y1875D1*
X8900Y1175D2*
D16*
Y1150D1*
X8050D1*
X475Y8400D2*
Y8330D1*
X1190D1*
X8925Y8450D2*
Y8375D1*
X8250D1*
X5411Y2088D2*
D15*
Y2075D1*
X5725D1*
X5925Y1875D1*
X5937D1*
X475Y1200D2*
D16*
X1125D1*
X1150Y1175D1*
X5250Y1313D2*
D13*
Y812D1*
X4750Y1313D2*
D17*
Y1600D1*
X5000Y1313D2*
Y1600D1*
X5250Y1313D2*
Y1600D1*
X5500Y1313D2*
Y1600D1*
X301Y2125D2*
D18*
Y2091D1*
X500Y2290D1*
Y2646D1*
X530D1*
Y2300D1*
X3687Y6563D2*
Y7005D1*
X3677Y7015D1*
X1125Y3074D2*
X1363D1*
X1375Y3062D1*
X4270Y4170D2*
Y3697D1*
X4268Y3695D1*
X5411Y2678D2*
X5804D1*
X5937Y2544D1*
X4250Y2481D2*
X4831D1*
X5411Y2678D2*
X5028D1*
X4831Y2481D1*
X7910Y6330D2*
Y6110D1*
X7890Y6090D1*
X5600Y9350D2*
Y9338D1*
X5875Y9063D1*
X6150Y9350D2*
Y9338D1*
X5875Y9063D1*
X6150Y8775D2*
Y8788D1*
X5875Y9063D1*
X5600Y8775D2*
Y8788D1*
X5875Y9063D1*
X5700Y7190D2*
Y7242D1*
X6100Y7642D1*
X7430Y7970D2*
X7408D1*
X7063Y7625D1*
X9050Y5325D2*
Y5520D1*
X9040Y5530D1*
X6613Y8313D2*
X6625D1*
Y8250D1*
X5970D1*
X5480Y7760D1*
Y7490D1*
X5230Y7240D1*
Y6670D1*
X5150Y6590D1*
X4115D1*
X3700Y6175D1*
X3375D1*
X3275Y6075D1*
Y4465D1*
X2880Y4070D1*
Y3705D1*
X2890Y3695D1*
X5187Y7687D2*
X5250D1*
X4993Y7430D1*
X4805D1*
X4660Y7285D1*
Y7016D1*
X4661Y7015D1*
X7300Y6090D2*
Y6310D1*
X7210Y6400D1*
X5025Y4475D2*
X5639D1*
X5633Y4469D1*
X7500Y7000D2*
X7107D1*
X7063Y6956D1*
X6550D1*
X8921Y8953D2*
D16*
Y9084D1*
X8250D1*
X7874Y7906D2*
X7812D1*
Y8812D1*
X8084Y9084D1*
X8250D1*
X471Y8903D2*
Y9039D1*
X1190D1*
Y9000D1*
X1375D1*
X1725Y8650D1*
Y8305D1*
X1694Y8274D1*
X8904Y672D2*
Y441D1*
X8050D1*
X7800D1*
X7496Y746D1*
X7532D1*
X479Y697D2*
Y466D1*
X1150D1*
X1312D1*
X1782Y937D1*
X1643Y2438D2*
D18*
Y1937D1*
Y1357D1*
X1813Y1188D1*
X2000D1*
X2125Y1063D1*
Y750D1*
X2275Y600D1*
X2688D1*
Y563D1*
X6643Y1812D2*
Y2312D1*
Y1812D2*
Y1136D1*
X6627Y1120D1*
X2600Y7900D2*
X3037D1*
X3257Y7681D1*
X3275D1*
X2600Y7900D2*
X2563D1*
Y7875D1*
X2313D1*
X2000Y8188D1*
Y8437D1*
X1937Y8500D1*
Y9063D1*
X1812Y9188D1*
Y9250D1*
X1831D1*
X4250Y7687D2*
X4676D1*
X4250Y2284D2*
D15*
X3934D1*
X3800Y2150D1*
X3400D1*
X3312Y2062D1*
X4250Y2678D2*
X3972D1*
X3825Y2825D1*
X3497D1*
X3312Y3010D1*
X7497Y4594D2*
D18*
Y4372D1*
X7325Y4200D1*
X7192D1*
X7186Y4194D1*
X9000Y6438D2*
Y6500D1*
X7820D1*
X7700Y6380D1*
Y6097D1*
X7694Y6090D1*
X7938Y2000D2*
X8301D1*
X8426Y2125D1*
X7375Y3750D2*
D15*
Y3850D1*
X7891D1*
X7914Y3873D1*
X4875Y9063D2*
D13*
Y8750D1*
Y8625D1*
X5021Y8479D1*
Y8250D1*
X4870Y8740D2*
D18*
Y8750D1*
X3812Y8187D2*
Y9000D1*
X3875Y9063D1*
X6875D2*
Y9000D1*
X7188Y8687D1*
Y8313D1*
X7125D1*
X2313Y5650D2*
X2025D1*
X1675Y6000D1*
X1550D1*
X1530Y6020D1*
X2313Y5453D2*
X2053D1*
X1650Y5050D1*
X1505D1*
X1530Y5075D1*
X3812Y7676D2*
X3820D1*
Y7470D1*
X2750Y4688D2*
X2334D1*
X2313Y4666D1*
X6550Y7625D2*
Y7810D1*
X6360Y8000D1*
X5880D1*
X5600Y7720D1*
Y7450D1*
X5340Y7190D1*
Y6620D1*
X5200Y6480D1*
X4155D1*
X3725Y6050D1*
X3450D1*
X3400Y6000D1*
Y5250D1*
X3590Y5060D1*
X5632D1*
X5633D1*
X3275Y8350D2*
Y8675D1*
X3625Y5875D2*
X3830Y5670D1*
X5652D1*
X5633Y5650D1*
X7313Y2312D2*
X7602D1*
X7620Y2330D1*
X4070Y7350D2*
Y7016D1*
X4071Y7015D1*
X2313Y2438D2*
X2510D1*
Y3885D1*
X3150Y4525D1*
Y6100D1*
X3362Y6312D1*
X3687D1*
X3875Y6500D1*
Y7014D1*
X3874Y7015D1*
X5633Y5453D2*
X3772D1*
X3625Y5600D1*
X6470Y5200D2*
X6490D1*
Y5040D1*
X8087Y4594D2*
Y4367D1*
X8050Y4330D1*
X4520Y4270D2*
Y4060D1*
X4470Y4010D1*
Y3695D1*
X4465D1*
X6280Y4230D2*
X6220D1*
X6090Y4100D1*
X4725D1*
X4650Y4025D1*
Y3683D1*
X4661Y3695D1*
X8284Y4594D2*
Y4150D1*
X6300Y4000D2*
Y4230D1*
X6280D1*
X5633Y5256D2*
X3669D1*
X3650Y5275D1*
X7938Y2591D2*
D15*
Y2875D1*
Y3101D1*
X7914Y3125D1*
X7182Y2807D2*
X7721D1*
X7938Y2591D1*
X5926Y3625D2*
X5625D1*
X5125D1*
X5055Y3695D1*
X6470Y5712D2*
X6350Y5832D1*
Y6050D1*
X5962Y6438D1*
X5633D1*
X6100Y7130D2*
X6170D1*
X5875Y6835D1*
Y6438D1*
X5633D1*
X1875Y6938D2*
X2375D1*
X1875D2*
Y6575D1*
X2012Y6438D1*
X2313D1*
Y4863D2*
X1963D1*
X1800Y4700D1*
Y4130D1*
X1940Y3990D1*
X4250Y8278D2*
D18*
X4500D1*
X4722D1*
X4750Y8250D1*
X4658D1*
X4500Y8313D2*
Y8278D1*
X2312Y6688D2*
D15*
Y6875D1*
X2375Y6938D1*
X5875Y6813D2*
D18*
X5853D1*
X6100Y7060D1*
Y7130D1*
X5625Y3625D2*
D3*
X7938Y2875D2*
D3*
X500Y3000D2*
D13*
Y3370D1*
X510D1*
X2270Y3590D2*
D15*
Y3660D1*
X1940Y3990D1*
X8540Y5244D2*
X8746D1*
X9020Y4970D1*
X9070D1*
X9110Y5010D1*
X8087Y6090D2*
Y6257D1*
X8205Y6375D1*
X8605D1*
X8938Y6042D1*
X9040D1*
X7044Y5834D2*
X6734D1*
X6612Y5712D1*
X6470D1*
X9090Y5060D2*
D18*
Y5030D1*
X9110Y5010D1*
X9040Y5840D2*
Y6042D1*
X6470Y5712D2*
D15*
X6437D1*
X6175Y5450D1*
Y4847D1*
X6280Y4742D1*
X2375Y6938D2*
X2612D1*
X2800Y6750D1*
X2900D1*
Y7015D1*
X2890D1*
X8146Y3313D2*
D13*
X8130D1*
Y3150D1*
X8105Y3125D1*
X7914D1*
D44*
X5500Y8140D3*
X8513Y2988D3*
X530Y2300D3*
X7210Y6400D3*
X5025Y4475D3*
X3820Y7470D3*
X2750Y4688D3*
X3275Y8675D3*
X3625Y5875D3*
X7620Y2330D3*
X4070Y7350D3*
X3625Y5600D3*
X8050Y4330D3*
X4520Y4270D3*
X4500Y8313D3*
X2312Y6688D3*
X5875Y6813D3*
X5625Y3625D3*
X7938Y2875D3*
X9090Y5060D3*
X510Y3370D3*
X2270Y3590D3*
X4125Y3125D3*
X5550D3*
X3687Y6563D3*
X9040Y5840D3*
X7910Y6330D3*
X5600Y9350D3*
X6150D3*
Y8775D3*
X5600D3*
X5700Y7190D3*
X7430Y7970D3*
X6700Y3425D3*
X5000Y6250D3*
X2975Y6275D3*
X9050Y5325D3*
X3650Y5275D3*
X6490Y5040D3*
X6300Y4000D3*
X8284Y4150D3*
X1375Y3062D3*
X4270Y4170D3*
X725Y1675D3*
X475D3*
X225D3*
Y1475D3*
X475D3*
X725D3*
Y1175D3*
X225D3*
X8250Y6688D3*
X8125Y7375D3*
X7875Y7125D3*
X8375Y7375D3*
X7875D3*
X8000Y6688D3*
X7500Y6563D3*
X8500Y6688D3*
X225Y7925D3*
X475D3*
X725D3*
Y8125D3*
X475D3*
X225D3*
Y8425D3*
X725D3*
X8675Y7975D3*
X8925D3*
X9175D3*
Y8175D3*
X8925D3*
X8675D3*
Y8475D3*
X9175D3*
X9150Y1650D3*
X8900D3*
X8650D3*
Y1450D3*
X8900D3*
X9150D3*
Y1150D3*
X8650D3*
X7875Y6875D3*
X8875Y7625D3*
X2000Y1562D3*
X8625Y7375D3*
Y7125D3*
Y6875D3*
X2250Y1562D3*
X2500D3*
X3500D3*
X2250Y1313D3*
X2750Y1562D3*
X3000D3*
X3250D3*
X2500Y1062D3*
X2750D3*
X3000D3*
Y1313D3*
X3250Y1000D3*
Y1313D3*
X3563D3*
X3938D3*
X4250D3*
Y1000D3*
X3250Y625D3*
Y313D3*
X3563D3*
X3938D3*
X4250D3*
Y625D3*
X4750Y1313D3*
X5000D3*
X5250D3*
X5500D3*
X5750D3*
Y1062D3*
Y813D3*
Y562D3*
Y313D3*
X5500D3*
X5250D3*
X5000D3*
X4750D3*
Y562D3*
Y813D3*
Y1063D3*
X5563Y1125D3*
X4938D3*
Y500D3*
X5563D3*
X8875Y7375D3*
X9125D3*
Y7625D3*
X8625D3*
X6250Y438D3*
X7000Y688D3*
Y438D3*
X6125Y688D3*
X6187Y1000D3*
X6375Y688D3*
X6688D3*
X6250Y187D3*
X7000D3*
X7250Y438D3*
Y187D3*
X7500D3*
X2870Y9190D3*
X2900Y8940D3*
X2187Y8938D3*
X2438D3*
X2688D3*
X2937Y8625D3*
X2438Y8375D3*
X2688D3*
X2187D3*
X2937Y8125D3*
Y8375D3*
X2187Y8688D3*
Y9187D3*
X8625Y4188D3*
X8938D3*
X1060Y2320D3*
Y2130D3*
X1688Y3188D3*
Y2875D3*
X2000D3*
Y3188D3*
X187Y7625D3*
X500D3*
X813D3*
X2125Y7437D3*
X250Y6813D3*
X750D3*
Y7312D3*
X250D3*
X2875Y2563D3*
X3250D3*
X3625D3*
X4540Y9070D3*
X5200D3*
X4870Y8740D3*
X500Y6380D3*
X820Y6060D3*
X500Y5740D3*
X180Y6060D3*
X2162Y9431D2*
D19*
X3354D1*
X5397D2*
X6353D1*
X7397D2*
X8412D1*
X2162Y9363D2*
X3336D1*
X5413D2*
X6336D1*
X7413D2*
X8412D1*
X2162Y9294D2*
X3335D1*
X5415D2*
X6335D1*
X7415D2*
X7899D1*
X2162Y9225D2*
X3335D1*
X5415D2*
X6335D1*
X7415D2*
X7889D1*
X2162Y9157D2*
X3335D1*
X5415D2*
X6335D1*
X7415D2*
X7821D1*
X2162Y9088D2*
X3335D1*
X5415D2*
X6335D1*
X7415D2*
X7752D1*
X2162Y9019D2*
X3335D1*
X5415D2*
X6335D1*
X7415D2*
X7683D1*
X2162Y8950D2*
X3335D1*
X5415D2*
X6335D1*
X7415D2*
X7618D1*
X2077Y8882D2*
X3335D1*
X5415D2*
X6335D1*
X7415D2*
X7583D1*
X2077Y8813D2*
X3126D1*
X5415D2*
X6335D1*
X7415D2*
X7572D1*
X2077Y8744D2*
X3082D1*
X5411D2*
X6340D1*
X7411D2*
X7572D1*
X2077Y8676D2*
X3070D1*
X5389D2*
X6362D1*
X7389D2*
X7572D1*
X2077Y8607D2*
X2963D1*
X5614D2*
X6410D1*
X7340D2*
X7572D1*
X2093Y8538D2*
X2963D1*
X5614D2*
X6360D1*
X7377D2*
X7572D1*
X2136Y8470D2*
X2963D1*
X5614D2*
X6360D1*
X7377D2*
X7572D1*
X2139Y8401D2*
X2963D1*
X5614D2*
X6360D1*
X7377D2*
X7572D1*
X2139Y8332D2*
X2963D1*
X5614D2*
X5857D1*
X7377D2*
X7572D1*
X2139Y8264D2*
X2963D1*
X5661D2*
X5789D1*
X7377D2*
X7572D1*
X2188Y8195D2*
X2963D1*
X7377D2*
X7572D1*
X2921Y8126D2*
X2963D1*
X7377D2*
X7572D1*
X983Y8058D2*
X1373D1*
X2921D2*
X2963D1*
X7377D2*
X7572D1*
X8117D2*
X8417D1*
X983Y7989D2*
X2004D1*
X6566D2*
X7572D1*
X8117D2*
X8417D1*
X983Y7920D2*
X2073D1*
X6861D2*
X7572D1*
X8117D2*
X8417D1*
X983Y7851D2*
X2142D1*
X5926D2*
X6239D1*
X6861D2*
X7579D1*
X8117D2*
X8417D1*
X980Y7783D2*
X2210D1*
X5857D2*
X6239D1*
X6861D2*
X7607D1*
X8117D2*
X8448D1*
X925Y7714D2*
X2279D1*
X2921D2*
X2963D1*
X5789D2*
X6239D1*
X6861D2*
X7631D1*
X8117D2*
X9306D1*
X69Y7645D2*
X2963D1*
X5740D2*
X6239D1*
X6861D2*
X7631D1*
X8117D2*
X9306D1*
X69Y7577D2*
X2963D1*
X5740D2*
X6239D1*
X6861D2*
X9306D1*
X69Y7508D2*
X2963D1*
X5740D2*
X6239D1*
X6861D2*
X9306D1*
X69Y7439D2*
X2963D1*
X5739D2*
X6239D1*
X6861D2*
X9306D1*
X69Y7371D2*
X2720D1*
X5714D2*
X5808D1*
X6861D2*
X9306D1*
X69Y7302D2*
X2720D1*
X3059D2*
X3114D1*
X5647D2*
X5808D1*
X6861D2*
X7257D1*
X7743D2*
X9306D1*
X69Y7233D2*
X2720D1*
X3059D2*
X3114D1*
X5578D2*
X5808D1*
X7743D2*
X9306D1*
X69Y7165D2*
X1583D1*
X2667D2*
X2720D1*
X3059D2*
X3114D1*
X5509D2*
X5808D1*
X7743D2*
X9306D1*
X69Y7096D2*
X1583D1*
X2667D2*
X2720D1*
X3059D2*
X3114D1*
X5480D2*
X5808D1*
X7743D2*
X9306D1*
X69Y7027D2*
X1583D1*
X3064D2*
X3114D1*
X5480D2*
X5808D1*
X7743D2*
X9306D1*
X69Y6959D2*
X1583D1*
X3065D2*
X3114D1*
X5480D2*
X5735D1*
X7743D2*
X9306D1*
X69Y6890D2*
X1583D1*
X3065D2*
X3114D1*
X5480D2*
X5686D1*
X7743D2*
X9306D1*
X69Y6821D2*
X1583D1*
X3065D2*
X3114D1*
X5480D2*
X5670D1*
X6091D2*
X6239D1*
X7743D2*
X9306D1*
X69Y6752D2*
X1583D1*
X3065D2*
X3114D1*
X5480D2*
X5680D1*
X6070D2*
X6239D1*
X7743D2*
X9306D1*
X69Y6684D2*
X1710D1*
X2517D2*
X2636D1*
X3059D2*
X3114D1*
X5480D2*
X5711D1*
X6040D2*
X6239D1*
X7374D2*
X9306D1*
X69Y6615D2*
X1710D1*
X2504D2*
X2712D1*
X2988D2*
X3490D1*
X5480D2*
X5711D1*
X6040D2*
X7747D1*
X933Y6546D2*
X1713D1*
X2717D2*
X3484D1*
X6083D2*
X7070D1*
X7350D2*
X7672D1*
X998Y6478D2*
X1744D1*
X2717D2*
X3502D1*
X6152D2*
X7021D1*
X7399D2*
X7603D1*
X1029Y6409D2*
X1812D1*
X2717D2*
X3264D1*
X6221D2*
X7006D1*
X7415D2*
X7564D1*
X1039Y6340D2*
X1879D1*
X2717D2*
X3196D1*
X4210D2*
X5228D1*
X6289D2*
X7014D1*
X7436D2*
X7560D1*
X7855D2*
X7946D1*
X1040Y6272D2*
X1908D1*
X2717D2*
X3127D1*
X4141D2*
X5899D1*
X6358D2*
X7053D1*
X7456D2*
X7537D1*
X7850D2*
X7923D1*
X1040Y6203D2*
X1091D1*
X2717D2*
X3058D1*
X4072D2*
X5228D1*
X6427D2*
X6888D1*
X1040Y6134D2*
X1081D1*
X2717D2*
X3015D1*
X4004D2*
X5228D1*
X6490D2*
X6888D1*
X1040Y6066D2*
X1081D1*
X2717D2*
X3010D1*
X3935D2*
X5228D1*
X6514D2*
X6888D1*
X1040Y5997D2*
X1081D1*
X2717D2*
X3010D1*
X3866D2*
X5228D1*
X6514D2*
X6888D1*
X1040Y5928D2*
X1081D1*
X2717D2*
X3010D1*
X3823D2*
X5228D1*
X1040Y5860D2*
X1083D1*
X2717D2*
X3010D1*
X3835D2*
X5228D1*
X1040Y5791D2*
X1131D1*
X2717D2*
X3010D1*
X9239D2*
X9306D1*
X1031Y5722D2*
X1758D1*
X2717D2*
X3010D1*
X8799D2*
X8874D1*
X9206D2*
X9306D1*
X1002Y5653D2*
X1827D1*
X2717D2*
X3010D1*
X8821D2*
X8968D1*
X9112D2*
X9306D1*
X941Y5585D2*
X1896D1*
X2717D2*
X3010D1*
X8813D2*
X9306D1*
X968Y5516D2*
X1908D1*
X2717D2*
X3010D1*
X6762D2*
X6814D1*
X8804D2*
X9306D1*
X1015Y5447D2*
X1853D1*
X2717D2*
X3010D1*
X6403D2*
X6888D1*
X8822D2*
X9306D1*
X1036Y5379D2*
X1784D1*
X2717D2*
X3010D1*
X6762D2*
X6831D1*
X8834D2*
X9306D1*
X1040Y5310D2*
X1142D1*
X2717D2*
X3010D1*
X8910D2*
X9306D1*
X1040Y5241D2*
X1084D1*
X2717D2*
X3010D1*
X1040Y5173D2*
X1081D1*
X2717D2*
X3010D1*
X1040Y5104D2*
X1081D1*
X2717D2*
X2950D1*
X6762D2*
X6837D1*
X1040Y5035D2*
X1081D1*
X1980D2*
X2950D1*
X6762D2*
X6888D1*
X1040Y4967D2*
X1081D1*
X2717D2*
X2950D1*
X6762D2*
X6888D1*
X1040Y4898D2*
X1089D1*
X2717D2*
X2950D1*
X6635D2*
X6888D1*
X8730D2*
X8818D1*
X1040Y4829D2*
X1699D1*
X2895D2*
X2950D1*
X6571D2*
X6888D1*
X8702D2*
X8818D1*
X1038Y4761D2*
X1647D1*
X6571D2*
X6888D1*
X8702D2*
X9306D1*
X1022Y4692D2*
X1635D1*
X6571D2*
X6888D1*
X8702D2*
X9306D1*
X980Y4623D2*
X1635D1*
X6571D2*
X6888D1*
X8702D2*
X9306D1*
X921Y4554D2*
X1635D1*
X2903D2*
X2950D1*
X6571D2*
X6888D1*
X8702D2*
X9306D1*
X993Y4486D2*
X1635D1*
X2717D2*
X2916D1*
X6038D2*
X6888D1*
X8702D2*
X9306D1*
X1027Y4417D2*
X1635D1*
X2717D2*
X2847D1*
X6571D2*
X6934D1*
X8443D2*
X9306D1*
X1039Y4348D2*
X1635D1*
X2717D2*
X2778D1*
X6571D2*
X6934D1*
X8424D2*
X9306D1*
X1040Y4280D2*
X1635D1*
X6571D2*
X6934D1*
X8441D2*
X9306D1*
X1040Y4211D2*
X1635D1*
X6571D2*
X6934D1*
X8479D2*
X9306D1*
X1040Y4142D2*
X1635D1*
X6571D2*
X6934D1*
X8489D2*
X9306D1*
X1040Y4074D2*
X1645D1*
X6571D2*
X6934D1*
X8473D2*
X8586D1*
X1040Y4005D2*
X1649D1*
X6571D2*
X6934D1*
X8425D2*
X8540D1*
X1040Y3936D2*
X1649D1*
X6494D2*
X6934D1*
X8264D2*
X8471D1*
X1040Y3868D2*
X1649D1*
X4831D2*
X4886D1*
X6454D2*
X7123D1*
X8264D2*
X8404D1*
X1040Y3799D2*
X1649D1*
X4831D2*
X4886D1*
X6179D2*
X7123D1*
X8264D2*
X8367D1*
X1034Y3730D2*
X1970D1*
X4831D2*
X4886D1*
X6179D2*
X7123D1*
X8264D2*
X8360D1*
X1006Y3662D2*
X2039D1*
X4831D2*
X4886D1*
X6179D2*
X7123D1*
X951Y3593D2*
X2065D1*
X4831D2*
X4886D1*
X6179D2*
X7123D1*
X7628D2*
X7906D1*
X8740D2*
X9306D1*
X641Y3524D2*
X2076D1*
X4831D2*
X4886D1*
X6179D2*
X7123D1*
X7628D2*
X7906D1*
X8740D2*
X9306D1*
X696Y3455D2*
X2118D1*
X4831D2*
X4886D1*
X5225D2*
X5516D1*
X6179D2*
X7906D1*
X8740D2*
X9306D1*
X714Y3387D2*
X2370D1*
X4831D2*
X4886D1*
X5225D2*
X5674D1*
X6179D2*
X7906D1*
X8740D2*
X9306D1*
X708Y3318D2*
X834D1*
X1416D2*
X2370D1*
X4831D2*
X4886D1*
X5225D2*
X5501D1*
X6268D2*
X7562D1*
X690Y3249D2*
X834D1*
X1446D2*
X2370D1*
X4285D2*
X5389D1*
X6268D2*
X7562D1*
X1540Y3181D2*
X2370D1*
X4321D2*
X5353D1*
X6268D2*
X7562D1*
X1573Y3112D2*
X2370D1*
X4329D2*
X5345D1*
X6268D2*
X7562D1*
X1578Y3043D2*
X2370D1*
X4312D2*
X5363D1*
X6268D2*
X6890D1*
X7474D2*
X7562D1*
X1559Y2975D2*
X2370D1*
X4511D2*
X5151D1*
X6268D2*
X6890D1*
X7474D2*
X7562D1*
X1503Y2906D2*
X2370D1*
X4531D2*
X5130D1*
X6268D2*
X6890D1*
X8140D2*
X8326D1*
X9202D2*
X9306D1*
X1416Y2837D2*
X2370D1*
X4531D2*
X5130D1*
X6268D2*
X6890D1*
X8210D2*
X8377D1*
X8648D2*
X8697D1*
X9202D2*
X9306D1*
X865Y2769D2*
X2370D1*
X4516D2*
X5155D1*
X6268D2*
X6890D1*
X8210D2*
X8697D1*
X9202D2*
X9306D1*
X865Y2700D2*
X1312D1*
X4531D2*
X6890D1*
X8210D2*
X8697D1*
X9202D2*
X9306D1*
X865Y2631D2*
X1312D1*
X2650D2*
X3789D1*
X4530D2*
X5208D1*
X5624D2*
X6890D1*
X8210D2*
X8697D1*
X9202D2*
X9306D1*
X865Y2563D2*
X1312D1*
X2650D2*
X3858D1*
X4500D2*
X5141D1*
X5717D2*
X6312D1*
X8210D2*
X8697D1*
X9202D2*
X9306D1*
X865Y2494D2*
X1312D1*
X2650D2*
X5130D1*
X5774D2*
X6312D1*
X8210D2*
X8697D1*
X9202D2*
X9306D1*
X865Y2425D2*
X1312D1*
X2649D2*
X3857D1*
X4470D2*
X5132D1*
X5789D2*
X6312D1*
X8210D2*
X8697D1*
X9202D2*
X9306D1*
X726Y2356D2*
X1312D1*
X4525D2*
X5137D1*
X5789D2*
X6312D1*
X9202D2*
X9306D1*
X734Y2288D2*
X1312D1*
X4531D2*
X5130D1*
X5789D2*
X6312D1*
X8678D2*
X9306D1*
X718Y2219D2*
X1312D1*
X4526D2*
X5135D1*
X5796D2*
X6312D1*
X8678D2*
X9306D1*
X666Y2150D2*
X1312D1*
X4527D2*
X5134D1*
X6249D2*
X6312D1*
X8678D2*
X9306D1*
X553Y2082D2*
X1312D1*
X1974D2*
X2588D1*
X4531D2*
X5130D1*
X6249D2*
X6312D1*
X8678D2*
X9306D1*
X553Y2013D2*
X1312D1*
X1974D2*
X2588D1*
X4524D2*
X5138D1*
X6249D2*
X6312D1*
X8678D2*
X9306D1*
X553Y1944D2*
X1312D1*
X1974D2*
X2588D1*
X4467D2*
X5194D1*
X6249D2*
X6312D1*
X6975D2*
X7665D1*
X8678D2*
X9306D1*
X942Y1876D2*
X1312D1*
X1974D2*
X2588D1*
X4379D2*
X5627D1*
X6249D2*
X6312D1*
X6975D2*
X7665D1*
X8678D2*
X9306D1*
X982Y1807D2*
X1312D1*
X1974D2*
X2588D1*
X4448D2*
X5627D1*
X6249D2*
X6312D1*
X6975D2*
X7665D1*
X8210D2*
X8400D1*
X983Y1738D2*
X1312D1*
X1974D2*
X2588D1*
X6249D2*
X6312D1*
X6975D2*
X7665D1*
X8210D2*
X8392D1*
X983Y1670D2*
X1312D1*
X1974D2*
X4126D1*
X6249D2*
X6312D1*
X6975D2*
X8392D1*
X983Y1601D2*
X1503D1*
X1783D2*
X4194D1*
X6249D2*
X6312D1*
X6975D2*
X8392D1*
X983Y1532D2*
X1503D1*
X1783D2*
X4263D1*
X5824D2*
X6312D1*
X6975D2*
X8392D1*
X983Y1464D2*
X1503D1*
X1783D2*
X4339D1*
X5921D2*
X6504D1*
X6782D2*
X8392D1*
X1799Y1395D2*
X4534D1*
X5966D2*
X6504D1*
X6782D2*
X7699D1*
X1868Y1326D2*
X4513D1*
X5986D2*
X6306D1*
X6949D2*
X7699D1*
X1501Y1257D2*
X1548D1*
X2124D2*
X4510D1*
X5989D2*
X6306D1*
X6949D2*
X7699D1*
X1501Y1189D2*
X1617D1*
X2193D2*
X4510D1*
X5989D2*
X6306D1*
X6949D2*
X7699D1*
X2251Y1120D2*
X4510D1*
X5989D2*
X6306D1*
X6949D2*
X7699D1*
X2265Y1051D2*
X4510D1*
X5989D2*
X6306D1*
X6949D2*
X7699D1*
X2265Y983D2*
X4510D1*
X5989D2*
X6306D1*
X6949D2*
X7699D1*
X2265Y914D2*
X4510D1*
X5989D2*
X6306D1*
X6949D2*
X7211D1*
X2265Y845D2*
X4510D1*
X5989D2*
X7211D1*
X2293Y777D2*
X2366D1*
X3009D2*
X4510D1*
X5989D2*
X7211D1*
X3009Y708D2*
X4510D1*
X5989D2*
X7211D1*
X1821Y639D2*
X2041D1*
X3009D2*
X4510D1*
X5989D2*
X7211D1*
X1752Y571D2*
X2110D1*
X3009D2*
X4510D1*
X5989D2*
X7211D1*
X1683Y502D2*
X2179D1*
X3009D2*
X4510D1*
X5989D2*
X7404D1*
X1614Y433D2*
X2366D1*
X3009D2*
X4510D1*
X5989D2*
X7473D1*
X1547Y365D2*
X2366D1*
X3009D2*
X4510D1*
X5989D2*
X7542D1*
X1501Y296D2*
X4514D1*
X5986D2*
X7609D1*
X1501Y227D2*
X4535D1*
X5964D2*
X7699D1*
X988Y158D2*
X4583D1*
X5917D2*
X8396D1*
X986Y90D2*
X4698D1*
X5802D2*
X8396D1*
X5334Y8608D2*
X5608D1*
Y8305D1*
X5638Y8282D1*
X5661Y8255D1*
X5679Y8225D1*
X5691Y8192D1*
X5696Y8163D1*
X5876Y8344D1*
X5904Y8365D1*
X5936Y8378D1*
X5970Y8383D1*
X6367D1*
X6368Y8597D1*
X6426D1*
X6398Y8627D1*
X6380Y8654D1*
X6363Y8687D1*
X6350Y8723D1*
X6344Y8755D1*
X6342Y8793D1*
X6343Y9354D1*
X6347Y9386D1*
X6356Y9422D1*
X6372Y9457D1*
X6388Y9484D1*
X6400Y9500D1*
X5350D1*
X5370Y9471D1*
X5387Y9438D1*
X5400Y9402D1*
X5406Y9370D1*
X5408Y9332D1*
X5407Y8771D1*
X5403Y8739D1*
X5394Y8703D1*
X5378Y8668D1*
X5362Y8641D1*
X5338Y8611D1*
X5355Y8632D1*
X3342Y8861D2*
X3343Y9359D1*
X3349Y9396D1*
X3360Y9432D1*
X3374Y9461D1*
X3394Y9493D1*
X3400Y9500D1*
X2154D1*
X2155Y9380D1*
Y8945D1*
X2071D1*
X2070Y8554D1*
X2094Y8531D1*
X2115Y8504D1*
X2128Y8471D1*
X2133Y8437D1*
Y8242D1*
X2285Y8090D1*
X2286Y8136D1*
X2914D1*
X2915Y8033D1*
X2971D1*
X2970Y8674D1*
X3076D1*
X3082Y8718D1*
X3093Y8752D1*
X3109Y8782D1*
X3130Y8810D1*
X3156Y8833D1*
X3186Y8852D1*
X3219Y8865D1*
X3253Y8872D1*
X3288D1*
X3322Y8867D1*
X3342Y8860D1*
X6880Y8530D2*
X6858D1*
X6859Y8387D1*
Y8028D1*
X6521D1*
X6599Y7949D1*
X6855D1*
Y7301D1*
X6385D1*
Y7280D1*
X6855Y7279D1*
X6968Y7280D1*
X7264Y7281D1*
Y7314D1*
X7736D1*
Y6686D1*
X7367Y6685D1*
Y6631D1*
X6758Y6632D1*
X6645Y6631D1*
X6245D1*
Y6884D1*
X6148D1*
X6072Y6809D1*
X6070Y6778D1*
X6061Y6744D1*
X6046Y6712D1*
X6032Y6694D1*
X6033Y6578D1*
X6070Y6553D1*
X6462Y6162D1*
X6483Y6134D1*
X6499Y6103D1*
X6508Y6056D1*
Y5957D1*
X6637D1*
X6650Y5968D1*
X6681Y5983D1*
X6729Y5992D1*
X6885Y5993D1*
X6895Y5995D1*
Y6255D1*
X7075D1*
X7054Y6278D1*
X7035Y6307D1*
X7022Y6340D1*
X7014Y6374D1*
X7012Y6409D1*
X7017Y6443D1*
X7028Y6477D1*
X7044Y6507D1*
X7065Y6535D1*
X7091Y6558D1*
X7121Y6577D1*
X7154Y6590D1*
X7188Y6597D1*
X7223D1*
X7257Y6592D1*
X7290Y6581D1*
X7321Y6564D1*
X7348Y6542D1*
X7371Y6515D1*
X7389Y6485D1*
X7401Y6452D1*
X7408Y6400D1*
X7407Y6388D1*
X7415Y6376D1*
X7428Y6344D1*
X7433Y6300D1*
X7453Y6265D1*
X7456Y6256D1*
X7537Y6255D1*
X7559Y6297D1*
X7567Y6306D1*
Y6380D1*
X7572Y6415D1*
X7585Y6447D1*
X7606Y6474D1*
X7726Y6594D1*
X7754Y6615D1*
X7786Y6628D1*
X7820Y6633D1*
X8716D1*
X8715Y6684D1*
X9285D1*
Y6287D1*
X9313Y6292D1*
Y7753D1*
X9074Y7752D1*
X8531D1*
X8497Y7757D1*
X8466Y7774D1*
X8442Y7799D1*
X8426Y7836D1*
X8423Y7894D1*
Y8110D1*
X8109D1*
X8110Y7591D1*
X7638D1*
Y7752D1*
X7610Y7790D1*
X7595Y7822D1*
X7585Y7855D1*
X7580Y7906D1*
Y8812D1*
X7582Y8847D1*
X7590Y8881D1*
X7603Y8914D1*
X7621Y8944D1*
X7648Y8977D1*
X7906Y9236D1*
Y9349D1*
X8419D1*
X8420Y9501D1*
X8298Y9500D1*
X7349D1*
X7362Y9484D1*
X7381Y9452D1*
X7393Y9423D1*
X7403Y9386D1*
X7407Y9348D1*
X7408Y8883D1*
X7407Y8766D1*
X7401Y8729D1*
X7390Y8693D1*
X7376Y8664D1*
X7356Y8632D1*
X7330Y8604D1*
X7324Y8598D1*
X7371Y8597D1*
Y8028D1*
X6879D1*
Y8530D1*
X5983Y1252D2*
X5982Y316D1*
X5976Y279D1*
X5965Y243D1*
X5951Y214D1*
X5931Y182D1*
X5905Y153D1*
X5881Y132D1*
X5850Y112D1*
X5815Y96D1*
X5784Y87D1*
X5747Y81D1*
X5690Y80D1*
X4754Y81D1*
X4717Y86D1*
X4680Y98D1*
X4651Y112D1*
X4620Y132D1*
X4591Y157D1*
X4570Y181D1*
X4549Y213D1*
X4534Y248D1*
X4524Y278D1*
X4518Y315D1*
X4517Y372D1*
X4518Y1309D1*
X4524Y1346D1*
X4535Y1382D1*
X4549Y1411D1*
X4568Y1441D1*
X4569Y1442D1*
X4425D1*
X4390Y1446D1*
X4357Y1457D1*
X4318Y1484D1*
X4031Y1771D1*
Y1718D1*
X2594D1*
Y2133D1*
X1988D1*
Y2742D1*
X2376D1*
X2377Y2998D1*
Y3423D1*
X2335Y3403D1*
X2301Y3395D1*
X2266Y3392D1*
X2231Y3396D1*
X2197Y3406D1*
X2166Y3422D1*
X2138Y3443D1*
X2114Y3468D1*
X2095Y3497D1*
X2082Y3530D1*
X2074Y3564D1*
X2072Y3599D1*
X2077Y3630D1*
X1963Y3744D1*
X1655D1*
Y4067D1*
X1643Y4112D1*
X1642Y4200D1*
Y4700D1*
X1646Y4735D1*
X1657Y4768D1*
X1684Y4807D1*
X1706Y4829D1*
X1195Y4830D1*
X1161Y4835D1*
X1130Y4851D1*
X1106Y4877D1*
X1090Y4914D1*
X1088Y4972D1*
Y5213D1*
X1093Y5247D1*
X1109Y5278D1*
X1135Y5302D1*
X1172Y5318D1*
X1230Y5321D1*
X1732D1*
X1914Y5502D1*
X1915Y5574D1*
X1782Y5705D1*
X1712Y5775D1*
X1195Y5774D1*
X1161Y5780D1*
X1130Y5796D1*
X1106Y5822D1*
X1090Y5859D1*
X1088Y5917D1*
Y6158D1*
X1093Y6192D1*
X1109Y6223D1*
X1135Y6247D1*
X1172Y6263D1*
X1230Y6266D1*
X1865D1*
X1905Y6257D1*
X1915Y6275D1*
Y6313D1*
X1763Y6463D1*
X1742Y6491D1*
X1726Y6522D1*
X1717Y6569D1*
Y6692D1*
X1590D1*
Y7183D1*
X2160Y7182D1*
X2230Y7183D1*
X2660D1*
Y7088D1*
X2692Y7074D1*
X2726Y7047D1*
X2711Y7061D1*
X2727Y7072D1*
Y7413D1*
X2971D1*
X2970Y7767D1*
X2914D1*
Y7664D1*
X2286D1*
Y7744D1*
X2246Y7760D1*
X2219Y7781D1*
X1961Y8039D1*
X1380Y8038D1*
Y8066D1*
X1114Y8065D1*
X977D1*
Y7809D1*
X971Y7775D1*
X955Y7744D1*
X929Y7720D1*
X892Y7704D1*
X834Y7702D1*
X75D1*
X62Y7680D1*
Y6537D1*
X78Y6549D1*
X110Y6568D1*
X140Y6581D1*
X176Y6591D1*
X214Y6595D1*
X680D1*
X796Y6594D1*
X833Y6589D1*
X870Y6577D1*
X899Y6563D1*
X930Y6543D1*
X959Y6518D1*
X980Y6494D1*
X1001Y6462D1*
X1016Y6427D1*
X1026Y6397D1*
X1032Y6360D1*
X1033Y6303D1*
X1032Y5766D1*
X1026Y5729D1*
X1015Y5693D1*
X1001Y5664D1*
X981Y5632D1*
X955Y5604D1*
X931Y5582D1*
X901Y5562D1*
X931Y5543D1*
X959Y5518D1*
X980Y5494D1*
X1001Y5462D1*
X1016Y5427D1*
X1026Y5397D1*
X1032Y5360D1*
X1033Y5303D1*
X1032Y4766D1*
X1026Y4729D1*
X1015Y4693D1*
X1001Y4664D1*
X981Y4632D1*
X955Y4604D1*
X931Y4582D1*
X901Y4562D1*
X931Y4543D1*
X959Y4518D1*
X980Y4494D1*
X1001Y4462D1*
X1016Y4427D1*
X1026Y4397D1*
X1032Y4360D1*
X1033Y4303D1*
X1032Y3766D1*
X1026Y3729D1*
X1015Y3693D1*
X1001Y3664D1*
X981Y3632D1*
X955Y3604D1*
X931Y3582D1*
X900Y3562D1*
X865Y3546D1*
X834Y3537D1*
X797Y3531D1*
X740Y3530D1*
X627D1*
X648Y3512D1*
X671Y3485D1*
X689Y3455D1*
X701Y3422D1*
X708Y3370D1*
X705Y3335D1*
X696Y3301D1*
X683Y3275D1*
Y3233D1*
X841D1*
X840Y3320D1*
X1410D1*
Y3258D1*
X1455Y3243D1*
X1486Y3226D1*
X1513Y3204D1*
X1536Y3178D1*
X1554Y3147D1*
X1566Y3115D1*
X1573Y3062D1*
X1570Y3028D1*
X1561Y2994D1*
X1546Y2962D1*
X1525Y2934D1*
X1500Y2909D1*
X1471Y2890D1*
X1440Y2876D1*
X1411Y2868D1*
X1410Y2829D1*
X858D1*
X857Y2767D1*
X858Y2738D1*
Y2413D1*
X693D1*
X709Y2385D1*
X721Y2352D1*
X728Y2300D1*
X725Y2265D1*
X716Y2231D1*
X701Y2200D1*
X680Y2171D1*
X655Y2147D1*
X626Y2127D1*
X595Y2113D1*
X561Y2105D1*
X546Y2104D1*
Y1899D1*
X869Y1898D1*
X903Y1893D1*
X934Y1876D1*
X958Y1851D1*
X974Y1814D1*
X977Y1756D1*
Y1439D1*
X1156Y1440D1*
X1494D1*
Y1172D1*
X1639D1*
X1549Y1263D1*
X1528Y1291D1*
X1515Y1323D1*
X1510Y1357D1*
Y1634D1*
X1319Y1633D1*
X1320Y2242D1*
X1319Y2273D1*
Y2742D1*
X1968D1*
X1966Y2133D1*
X1968Y2102D1*
Y1633D1*
X1776D1*
Y1411D1*
X1868Y1320D1*
X2000D1*
X2035Y1316D1*
X2067Y1302D1*
X2094Y1281D1*
X2219Y1156D1*
X2240Y1129D1*
X2253Y1096D1*
X2258Y1063D1*
Y805D1*
X2329Y733D1*
X2372D1*
X2373Y798D1*
X3002D1*
Y327D1*
X2373D1*
Y467D1*
X2275D1*
X2240Y472D1*
X2208Y485D1*
X2181Y506D1*
X2031Y656D1*
X2008Y687D1*
X1991Y701D1*
X1874D1*
X1724Y549D1*
X1494Y319D1*
Y201D1*
X981D1*
X980Y106D1*
X972Y66D1*
Y62D1*
X8405D1*
X8402Y116D1*
Y209D1*
X8394Y176D1*
X7706D1*
Y230D1*
X7669Y249D1*
X7636Y277D1*
X7403Y510D1*
X7218D1*
Y982D1*
X7707D1*
X7706Y1305D1*
Y1415D1*
X8394D1*
Y1384D1*
X8398Y1398D1*
Y1766D1*
X8404Y1800D1*
X8425Y1836D1*
X8426Y1840D1*
X8202D1*
X8203Y1735D1*
X7672D1*
Y2138D1*
X7636Y2134D1*
X7637Y2008D1*
X6988D1*
Y2560D1*
X6967Y2561D1*
X6968Y2337D1*
X6966Y2008D1*
X6968Y1977D1*
Y1508D1*
X6776D1*
Y1356D1*
X6941D1*
Y884D1*
X6312D1*
Y1356D1*
X6510D1*
Y1507D1*
X6319Y1508D1*
X6320Y2117D1*
X6319Y2148D1*
Y2617D1*
X6897D1*
Y2841D1*
Y3052D1*
X7467D1*
Y2964D1*
X7570D1*
Y3341D1*
X7912D1*
X7913Y3657D1*
X7620D1*
X7621Y3465D1*
X7129D1*
Y3910D1*
X7012Y3909D1*
X6940D1*
Y4446D1*
X6895Y4445D1*
Y5083D1*
X6884Y5085D1*
X6852Y5099D1*
X6824Y5120D1*
X6800Y5146D1*
X6783Y5176D1*
X6772Y5210D1*
X6769Y5245D1*
X6773Y5279D1*
X6784Y5312D1*
X6801Y5343D1*
X6825Y5368D1*
X6853Y5389D1*
X6895Y5405D1*
Y5476D1*
X6884Y5479D1*
X6852Y5493D1*
X6824Y5514D1*
X6800Y5540D1*
X6783Y5570D1*
X6772Y5603D1*
X6770Y5646D1*
X6755Y5607D1*
Y5466D1*
X6415D1*
X6395Y5446D1*
X6755D1*
Y4954D1*
X6669D1*
X6640Y4911D1*
X6615Y4887D1*
X6586Y4867D1*
X6565Y4858D1*
Y4496D1*
X6030D1*
Y4475D1*
X6565Y4476D1*
Y3984D1*
X6496D1*
X6495Y3965D1*
X6486Y3931D1*
X6471Y3900D1*
X6450Y3871D1*
X6425Y3847D1*
X6396Y3827D1*
X6365Y3813D1*
X6331Y3805D1*
X6296Y3802D1*
X6261Y3806D1*
X6227Y3816D1*
X6196Y3832D1*
X6171Y3851D1*
Y3366D1*
X6262Y3367D1*
Y2758D1*
X5844Y2756D1*
X5817Y2734D1*
X5785Y2718D1*
X5762Y2711D1*
X5725Y2707D1*
X5411D1*
X5376Y2711D1*
X5256Y2713D1*
X5239Y2716D1*
X5217Y2724D1*
X5196Y2735D1*
X5178Y2750D1*
X5162Y2768D1*
X5150Y2788D1*
X5142Y2810D1*
X5136Y2847D1*
X5137Y2912D1*
X5140Y2935D1*
X5148Y2957D1*
X5160Y2978D1*
X5174Y2996D1*
X5192Y3012D1*
X5212Y3024D1*
X5234Y3032D1*
X5272Y3038D1*
X5371D1*
X5362Y3065D1*
X5354Y3099D1*
X5352Y3134D1*
X5357Y3168D1*
X5368Y3202D1*
X5384Y3232D1*
X5405Y3260D1*
X5431Y3283D1*
X5461Y3302D1*
X5494Y3315D1*
X5528Y3322D1*
X5563D1*
X5597Y3317D1*
X5613Y3312D1*
Y3367D1*
X5680D1*
Y3435D1*
X5656Y3430D1*
X5621Y3427D1*
X5586Y3431D1*
X5552Y3441D1*
X5521Y3457D1*
X5506Y3468D1*
X5217Y3467D1*
X5218Y3358D1*
Y3297D1*
X4892D1*
X4893Y3895D1*
X4824D1*
Y3533D1*
Y3297D1*
X4499Y3298D1*
X4382Y3297D1*
X4302Y3298D1*
X4222Y3297D1*
X4236Y3289D1*
X4263Y3267D1*
X4286Y3240D1*
X4304Y3210D1*
X4316Y3177D1*
X4323Y3125D1*
X4320Y3090D1*
X4311Y3056D1*
X4302Y3038D1*
X4405Y3037D1*
X4422Y3034D1*
X4445Y3026D1*
X4465Y3015D1*
X4484Y3000D1*
X4499Y2982D1*
X4511Y2962D1*
X4520Y2940D1*
X4525Y2903D1*
Y2838D1*
X4521Y2815D1*
X4513Y2792D1*
X4511Y2765D1*
X4520Y2743D1*
X4525Y2706D1*
Y2641D1*
X4521Y2618D1*
X4513Y2596D1*
X4502Y2575D1*
X4487Y2557D1*
X4469Y2541D1*
X4449Y2529D1*
X4427Y2521D1*
X4390Y2515D1*
X4101Y2516D1*
X4077Y2520D1*
X3972D1*
X3937Y2524D1*
X3904Y2536D1*
X3864Y2563D1*
X3761Y2666D1*
X2910D1*
X2642D1*
X2643Y2435D1*
X2664Y2407D1*
X3834D1*
X3850Y2418D1*
X3882Y2433D1*
X3929Y2442D1*
X4079Y2443D1*
X4110Y2447D1*
X4399D1*
X4422Y2443D1*
X4445Y2436D1*
X4465Y2424D1*
X4484Y2409D1*
X4499Y2391D1*
X4511Y2371D1*
X4520Y2349D1*
X4525Y2312D1*
Y2247D1*
X4521Y2224D1*
X4513Y2201D1*
X4511Y2175D1*
X4520Y2153D1*
X4525Y2115D1*
Y2051D1*
X4521Y2028D1*
X4513Y2005D1*
X4502Y1985D1*
X4487Y1966D1*
X4469Y1951D1*
X4449Y1939D1*
X4427Y1930D1*
X4390Y1925D1*
X4323D1*
X4491Y1757D1*
X4750Y1758D1*
X5597D1*
X5633Y1796D1*
Y1917D1*
X5411D1*
X5366Y1924D1*
X5271Y1925D1*
X5239Y1929D1*
X5233Y1930D1*
X5217Y1937D1*
X5196Y1948D1*
X5178Y1963D1*
X5162Y1981D1*
X5150Y2001D1*
X5142Y2023D1*
X5136Y2060D1*
X5137Y2125D1*
X5140Y2148D1*
X5148Y2171D1*
X5150Y2197D1*
X5142Y2220D1*
X5136Y2257D1*
X5137Y2321D1*
X5140Y2344D1*
X5148Y2368D1*
X5150Y2394D1*
X5142Y2416D1*
X5136Y2454D1*
X5137Y2518D1*
X5140Y2541D1*
X5148Y2564D1*
X5160Y2584D1*
X5174Y2603D1*
X5192Y2618D1*
X5212Y2630D1*
X5234Y2639D1*
X5272Y2644D1*
X5561D1*
X5584Y2640D1*
X5636Y2624D1*
X5676Y2597D1*
X5737Y2537D1*
X5758Y2509D1*
X5774Y2478D1*
X5783Y2431D1*
Y2222D1*
X5805Y2211D1*
X5783Y2231D1*
Y2225D1*
X5822Y2199D1*
X6242D1*
Y1551D1*
X5836D1*
X5815Y1529D1*
X5849Y1513D1*
X5880Y1493D1*
X5909Y1468D1*
X5930Y1443D1*
X5951Y1412D1*
X5966Y1377D1*
X5976Y1347D1*
X5982Y1310D1*
X5983Y1252D1*
X9195Y2909D2*
Y2340D1*
X8704D1*
Y2909D1*
X8683Y2887D1*
X8663Y2859D1*
X8638Y2834D1*
X8609Y2815D1*
X8577Y2801D1*
X8543Y2792D1*
X8508Y2790D1*
X8473Y2794D1*
X8440Y2803D1*
X8409Y2819D1*
X8381Y2840D1*
X8357Y2866D1*
X8338Y2895D1*
X8324Y2927D1*
X8318Y2956D1*
X8267Y2955D1*
X8257D1*
X8258Y2909D1*
X8132D1*
X8135Y2875D1*
X8134Y2857D1*
X8203Y2856D1*
Y2411D1*
X8530Y2410D1*
X8671D1*
Y1873D1*
X9300D1*
X9313Y1882D1*
Y4765D1*
X8825Y4764D1*
Y4943D1*
X8796Y4971D1*
X8783Y4949D1*
X8760Y4923D1*
X8731Y4902D1*
X8694Y4887D1*
X8695Y4505D1*
Y4445D1*
X8447D1*
X8436Y4418D1*
X8417Y4384D1*
Y4296D1*
X8445Y4265D1*
X8463Y4235D1*
X8475Y4202D1*
X8482Y4150D1*
X8479Y4115D1*
X8470Y4081D1*
X8455Y4050D1*
X8434Y4021D1*
X8409Y3997D1*
X8381Y3977D1*
X8349Y3963D1*
X8315Y3955D1*
X8280Y3952D1*
X8257Y3955D1*
X8258Y3774D1*
Y3670D1*
X8367D1*
Y3750D1*
X8371Y3785D1*
X8380Y3818D1*
X8397Y3849D1*
X8421Y3879D1*
X8544Y4002D1*
X8562Y4018D1*
X8593Y4037D1*
Y4089D1*
X9282D1*
Y3657D1*
X8734D1*
X8733Y3365D1*
Y3341D1*
X9282D1*
Y2909D1*
X9195D1*
X8957Y5256D2*
X9103Y5257D1*
X9140Y5256D1*
X9312D1*
X9313Y5627D1*
Y5797D1*
X9232Y5796D1*
X9226Y5771D1*
X9211Y5740D1*
X9190Y5711D1*
X9165Y5687D1*
X9136Y5667D1*
X9105Y5653D1*
X9071Y5645D1*
X9036Y5642D1*
X9001Y5646D1*
X8967Y5656D1*
X8936Y5672D1*
X8908Y5693D1*
X8884Y5718D1*
X8865Y5747D1*
X8852Y5780D1*
X8848Y5796D1*
X8810D1*
X8801Y5766D1*
X8782Y5735D1*
X8801Y5704D1*
X8812Y5671D1*
X8815Y5637D1*
X8811Y5603D1*
X8801Y5569D1*
X8782Y5538D1*
X8801Y5507D1*
X8812Y5474D1*
X8815Y5441D1*
X8811Y5406D1*
X8806Y5390D1*
X8844Y5367D1*
X8907Y5306D1*
X8958Y5256D1*
X5850Y7376D2*
X6245D1*
Y7868D1*
X6080Y7867D1*
X5935D1*
X5733Y7666D1*
Y7450D1*
X5728Y7415D1*
X5715Y7383D1*
X5694Y7356D1*
X5472Y7134D1*
X5473Y6910D1*
Y6617D1*
X5480Y6600D1*
X5717D1*
Y6695D1*
X5700Y6720D1*
X5687Y6752D1*
X5679Y6786D1*
X5677Y6821D1*
X5682Y6856D1*
X5693Y6889D1*
X5709Y6920D1*
X5730Y6948D1*
X5756Y6971D1*
X5786Y6989D1*
X5816Y7001D1*
X5815Y7376D1*
X5850D1*
X2635Y6692D2*
X2510D1*
X2507Y6653D1*
X2498Y6619D1*
X2489Y6600D1*
X2710D1*
X2709Y6275D1*
X2710Y6158D1*
X2709Y6078D1*
X2710Y5962D1*
X2709Y5881D1*
X2710Y5765D1*
X2709Y5684D1*
X2710Y5568D1*
X2709Y5487D1*
X2710Y5371D1*
X2709Y5290D1*
X2710Y5174D1*
Y5094D1*
X1972D1*
Y5026D1*
X2710D1*
Y4882D1*
X2763Y4885D1*
X2797Y4880D1*
X2830Y4868D1*
X2861Y4851D1*
X2888Y4829D1*
X2911Y4803D1*
X2929Y4772D1*
X2941Y4740D1*
X2948Y4688D1*
X2945Y4653D1*
X2936Y4619D1*
X2921Y4587D1*
X2900Y4559D1*
X2875Y4534D1*
X2846Y4515D1*
X2815Y4501D1*
X2781Y4492D1*
X2746Y4490D1*
X2710Y4494D1*
Y4306D1*
Y4272D1*
X2837Y4400D1*
X2958Y4521D1*
X2957Y4735D1*
Y5168D1*
X3018D1*
X3017Y6100D1*
X3022Y6135D1*
X3035Y6167D1*
X3056Y6194D1*
X3268Y6406D1*
X3296Y6427D1*
X3328Y6440D1*
X3362Y6445D1*
X3529D1*
X3513Y6470D1*
X3499Y6502D1*
X3491Y6536D1*
X3490Y6571D1*
X3498Y6617D1*
X3318Y6618D1*
X3201Y6617D1*
X3121D1*
Y7357D1*
X3054Y7356D1*
X3053Y7168D1*
Y7055D1*
X3058Y7015D1*
Y6750D1*
X3054Y6717D1*
X3053Y6617D1*
X2984D1*
X2973Y6610D1*
X2940Y6597D1*
X2900Y6592D1*
X2800D1*
X2765Y6596D1*
X2732Y6607D1*
X2693Y6634D1*
X2635Y6692D1*
X7833Y6289D2*
X7850Y6256D1*
X7929Y6255D1*
X7933Y6292D1*
X7945Y6325D1*
X7972Y6365D1*
X7974Y6367D1*
X7875D1*
X7833Y6325D1*
Y6289D1*
X5235Y5803D2*
X5236Y5813D1*
X5235Y5929D1*
X5236Y6010D1*
X5235Y6126D1*
Y6207D1*
X5971D1*
X5902Y6275D1*
X5235D1*
X5234Y6352D1*
X5200Y6347D1*
X4210D1*
X3817Y5954D1*
X3816Y5927D1*
X3823Y5875D1*
X3822Y5865D1*
X3885Y5803D1*
X5235D1*
D21*
X5375Y8250D3*
X5021D3*
X4658D3*
G36*
X775Y3638D2*
X225D1*
X209D1*
X194Y3641D1*
X179Y3645D1*
X164Y3650D1*
X150Y3658D1*
X137Y3666D1*
X125Y3676D1*
X114Y3687D1*
X104Y3699D1*
X95Y3713D1*
X88Y3726D1*
X82Y3741D1*
X78Y3756D1*
X76Y3772D1*
X75Y3788D1*
Y4338D1*
X76Y4353D1*
X78Y4369D1*
X82Y4384D1*
X88Y4399D1*
X95Y4413D1*
X104Y4426D1*
X114Y4438D1*
X125Y4449D1*
X137Y4459D1*
X150Y4467D1*
X164Y4475D1*
X179Y4480D1*
X194Y4484D1*
X209Y4487D1*
X225Y4488D1*
X775D1*
X791Y4487D1*
X806Y4484D1*
X821Y4480D1*
X836Y4475D1*
X850Y4467D1*
X863Y4459D1*
X875Y4449D1*
X886Y4438D1*
X896Y4426D1*
X905Y4413D1*
X912Y4399D1*
X918Y4384D1*
X922Y4369D1*
X924Y4353D1*
X925Y4338D1*
Y3788D1*
X924Y3772D1*
X922Y3756D1*
X918Y3741D1*
X912Y3726D1*
X905Y3713D1*
X896Y3699D1*
X886Y3687D1*
X875Y3676D1*
X863Y3666D1*
X850Y3658D1*
X836Y3650D1*
X821Y3645D1*
X806Y3641D1*
X791Y3638D1*
X775D1*
G37*
G36*
X925Y5338D2*
Y4788D1*
X924Y4772D1*
X922Y4756D1*
X918Y4741D1*
X912Y4726D1*
X905Y4713D1*
X896Y4699D1*
X886Y4687D1*
X875Y4676D1*
X863Y4666D1*
X850Y4658D1*
X836Y4650D1*
X821Y4645D1*
X806Y4641D1*
X791Y4638D1*
X775D1*
X225D1*
X209D1*
X194Y4641D1*
X179Y4645D1*
X164Y4650D1*
X150Y4658D1*
X137Y4666D1*
X125Y4676D1*
X114Y4687D1*
X104Y4699D1*
X95Y4713D1*
X88Y4726D1*
X82Y4741D1*
X78Y4756D1*
X76Y4772D1*
X75Y4788D1*
Y5338D1*
X76Y5353D1*
X78Y5369D1*
X82Y5384D1*
X88Y5399D1*
X95Y5413D1*
X104Y5426D1*
X114Y5438D1*
X125Y5449D1*
X137Y5459D1*
X150Y5467D1*
X164Y5475D1*
X179Y5480D1*
X194Y5484D1*
X209Y5487D1*
X225Y5488D1*
X775D1*
X791Y5487D1*
X806Y5484D1*
X821Y5480D1*
X836Y5475D1*
X850Y5467D1*
X863Y5459D1*
X875Y5449D1*
X886Y5438D1*
X896Y5426D1*
X905Y5413D1*
X912Y5399D1*
X918Y5384D1*
X922Y5369D1*
X924Y5353D1*
X925Y5338D1*
G37*
G36*
X225Y5638D2*
X775D1*
X791D1*
X806Y5641D1*
X821Y5645D1*
X836Y5650D1*
X850Y5658D1*
X863Y5666D1*
X875Y5676D1*
X886Y5687D1*
X896Y5699D1*
X905Y5713D1*
X912Y5726D1*
X918Y5741D1*
X922Y5756D1*
X924Y5772D1*
X925Y5788D1*
Y6338D1*
X924Y6353D1*
X922Y6369D1*
X918Y6384D1*
X912Y6399D1*
X905Y6413D1*
X896Y6426D1*
X886Y6438D1*
X875Y6449D1*
X863Y6459D1*
X850Y6467D1*
X836Y6475D1*
X821Y6480D1*
X806Y6484D1*
X791Y6487D1*
X775Y6488D1*
X225D1*
X209Y6487D1*
X194Y6484D1*
X179Y6480D1*
X164Y6475D1*
X150Y6467D1*
X137Y6459D1*
X125Y6449D1*
X114Y6438D1*
X104Y6426D1*
X95Y6413D1*
X88Y6399D1*
X82Y6384D1*
X78Y6369D1*
X76Y6353D1*
X75Y6338D1*
Y5788D1*
X76Y5772D1*
X78Y5756D1*
X82Y5741D1*
X88Y5726D1*
X95Y5713D1*
X104Y5699D1*
X114Y5687D1*
X125Y5676D1*
X137Y5666D1*
X150Y5658D1*
X164Y5650D1*
X179Y5645D1*
X194Y5641D1*
X209Y5638D1*
X225D1*
G37*
G36*
X925Y6788D2*
Y7338D1*
X924Y7353D1*
X922Y7369D1*
X918Y7384D1*
X912Y7399D1*
X905Y7413D1*
X896Y7426D1*
X886Y7438D1*
X875Y7449D1*
X863Y7459D1*
X850Y7467D1*
X836Y7475D1*
X821Y7480D1*
X806Y7484D1*
X791Y7487D1*
X775Y7488D1*
X225D1*
X209Y7487D1*
X194Y7484D1*
X179Y7480D1*
X164Y7475D1*
X150Y7467D1*
X137Y7459D1*
X125Y7449D1*
X114Y7438D1*
X104Y7426D1*
X95Y7413D1*
X88Y7399D1*
X82Y7384D1*
X78Y7369D1*
X76Y7353D1*
X75Y7338D1*
Y6788D1*
X76Y6772D1*
X78Y6756D1*
X82Y6741D1*
X88Y6726D1*
X95Y6713D1*
X104Y6699D1*
X114Y6687D1*
X125Y6676D1*
X137Y6666D1*
X150Y6658D1*
X164Y6650D1*
X179Y6645D1*
X194Y6641D1*
X209Y6638D1*
X225D1*
X775D1*
X791D1*
X806Y6641D1*
X821Y6645D1*
X836Y6650D1*
X850Y6658D1*
X863Y6666D1*
X875Y6676D1*
X886Y6687D1*
X896Y6699D1*
X905Y6713D1*
X912Y6726D1*
X918Y6741D1*
X922Y6756D1*
X924Y6772D1*
X925Y6788D1*
G37*
G36*
X3450Y8788D2*
Y9338D1*
X3451Y9353D1*
X3453Y9369D1*
X3457Y9384D1*
X3463Y9399D1*
X3470Y9413D1*
X3479Y9426D1*
X3489Y9438D1*
X3500Y9449D1*
X3512Y9459D1*
X3525Y9467D1*
X3539Y9475D1*
X3554Y9480D1*
X3569Y9484D1*
X3584Y9487D1*
X3600Y9488D1*
X4150D1*
X4166Y9487D1*
X4181Y9484D1*
X4196Y9480D1*
X4211Y9475D1*
X4225Y9467D1*
X4238Y9459D1*
X4250Y9449D1*
X4261Y9438D1*
X4271Y9426D1*
X4280Y9413D1*
X4287Y9399D1*
X4293Y9384D1*
X4297Y9369D1*
X4299Y9353D1*
X4300Y9338D1*
Y8788D1*
X4299Y8772D1*
X4297Y8756D1*
X4293Y8741D1*
X4287Y8726D1*
X4280Y8713D1*
X4271Y8699D1*
X4261Y8687D1*
X4250Y8676D1*
X4238Y8666D1*
X4225Y8658D1*
X4211Y8650D1*
X4196Y8645D1*
X4181Y8641D1*
X4166Y8638D1*
X4150D1*
X3600D1*
X3584D1*
X3569Y8641D1*
X3554Y8645D1*
X3539Y8650D1*
X3525Y8658D1*
X3512Y8666D1*
X3500Y8676D1*
X3489Y8687D1*
X3479Y8699D1*
X3470Y8713D1*
X3463Y8726D1*
X3457Y8741D1*
X3453Y8756D1*
X3451Y8772D1*
X3450Y8788D1*
G37*
G36*
X5150Y8638D2*
X4600D1*
X4584D1*
X4569Y8641D1*
X4554Y8645D1*
X4539Y8650D1*
X4525Y8658D1*
X4512Y8666D1*
X4500Y8676D1*
X4489Y8687D1*
X4479Y8699D1*
X4470Y8713D1*
X4463Y8726D1*
X4457Y8741D1*
X4453Y8756D1*
X4451Y8772D1*
X4450Y8788D1*
Y9338D1*
X4451Y9353D1*
X4453Y9369D1*
X4457Y9384D1*
X4463Y9399D1*
X4470Y9413D1*
X4479Y9426D1*
X4489Y9438D1*
X4500Y9449D1*
X4512Y9459D1*
X4525Y9467D1*
X4539Y9475D1*
X4554Y9480D1*
X4569Y9484D1*
X4584Y9487D1*
X4600Y9488D1*
X5150D1*
X5166Y9487D1*
X5181Y9484D1*
X5196Y9480D1*
X5211Y9475D1*
X5225Y9467D1*
X5238Y9459D1*
X5250Y9449D1*
X5261Y9438D1*
X5271Y9426D1*
X5280Y9413D1*
X5287Y9399D1*
X5293Y9384D1*
X5297Y9369D1*
X5299Y9353D1*
X5300Y9338D1*
Y8788D1*
X5299Y8772D1*
X5297Y8756D1*
X5293Y8741D1*
X5287Y8726D1*
X5280Y8713D1*
X5271Y8699D1*
X5261Y8687D1*
X5250Y8676D1*
X5238Y8666D1*
X5225Y8658D1*
X5211Y8650D1*
X5196Y8645D1*
X5181Y8641D1*
X5166Y8638D1*
X5150D1*
G37*
G36*
X5450Y9338D2*
Y8788D1*
X5451Y8772D1*
X5453Y8756D1*
X5457Y8741D1*
X5463Y8726D1*
X5470Y8713D1*
X5479Y8699D1*
X5489Y8687D1*
X5500Y8676D1*
X5512Y8666D1*
X5525Y8658D1*
X5539Y8650D1*
X5554Y8645D1*
X5569Y8641D1*
X5584Y8638D1*
X5600D1*
X6150D1*
X6166D1*
X6181Y8641D1*
X6196Y8645D1*
X6211Y8650D1*
X6225Y8658D1*
X6238Y8666D1*
X6250Y8676D1*
X6261Y8687D1*
X6271Y8699D1*
X6280Y8713D1*
X6287Y8726D1*
X6293Y8741D1*
X6297Y8756D1*
X6299Y8772D1*
X6300Y8788D1*
Y9338D1*
X6299Y9353D1*
X6297Y9369D1*
X6293Y9384D1*
X6287Y9399D1*
X6280Y9413D1*
X6271Y9426D1*
X6261Y9438D1*
X6250Y9449D1*
X6238Y9459D1*
X6225Y9467D1*
X6211Y9475D1*
X6196Y9480D1*
X6181Y9484D1*
X6166Y9487D1*
X6150Y9488D1*
X5600D1*
X5584Y9487D1*
X5569Y9484D1*
X5554Y9480D1*
X5539Y9475D1*
X5525Y9467D1*
X5512Y9459D1*
X5500Y9449D1*
X5489Y9438D1*
X5479Y9426D1*
X5470Y9413D1*
X5463Y9399D1*
X5457Y9384D1*
X5453Y9369D1*
X5451Y9353D1*
X5450Y9338D1*
G37*
G36*
X6600Y8638D2*
X7150D1*
X7166D1*
X7181Y8641D1*
X7196Y8645D1*
X7211Y8650D1*
X7225Y8658D1*
X7238Y8666D1*
X7250Y8676D1*
X7261Y8687D1*
X7271Y8699D1*
X7280Y8713D1*
X7287Y8726D1*
X7293Y8741D1*
X7297Y8756D1*
X7299Y8772D1*
X7300Y8788D1*
Y9338D1*
X7299Y9353D1*
X7297Y9369D1*
X7293Y9384D1*
X7287Y9399D1*
X7280Y9413D1*
X7271Y9426D1*
X7261Y9438D1*
X7250Y9449D1*
X7238Y9459D1*
X7225Y9467D1*
X7211Y9475D1*
X7196Y9480D1*
X7181Y9484D1*
X7166Y9487D1*
X7150Y9488D1*
X6600D1*
X6584Y9487D1*
X6569Y9484D1*
X6554Y9480D1*
X6539Y9475D1*
X6525Y9467D1*
X6512Y9459D1*
X6500Y9449D1*
X6489Y9438D1*
X6479Y9426D1*
X6470Y9413D1*
X6463Y9399D1*
X6457Y9384D1*
X6453Y9369D1*
X6451Y9353D1*
X6450Y9338D1*
Y8788D1*
X6451Y8772D1*
X6453Y8756D1*
X6457Y8741D1*
X6463Y8726D1*
X6470Y8713D1*
X6479Y8699D1*
X6489Y8687D1*
X6500Y8676D1*
X6512Y8666D1*
X6525Y8658D1*
X6539Y8650D1*
X6554Y8645D1*
X6569Y8641D1*
X6584Y8638D1*
X6600D1*
G37*
G36*
X4625Y337D2*
Y1287D1*
X4626Y1303D1*
X4628Y1319D1*
X4632Y1334D1*
X4638Y1349D1*
X4645Y1362D1*
X4654Y1376D1*
X4664Y1388D1*
X4675Y1399D1*
X4687Y1409D1*
X4700Y1417D1*
X4714Y1425D1*
X4729Y1430D1*
X4744Y1434D1*
X4759Y1437D1*
X4775D1*
X5725D1*
X5741D1*
X5756Y1434D1*
X5771Y1430D1*
X5786Y1425D1*
X5800Y1417D1*
X5813Y1409D1*
X5825Y1399D1*
X5836Y1388D1*
X5846Y1376D1*
X5855Y1362D1*
X5862Y1349D1*
X5868Y1334D1*
X5872Y1319D1*
X5874Y1303D1*
X5875Y1287D1*
Y337D1*
X5874Y322D1*
X5872Y306D1*
X5868Y291D1*
X5862Y276D1*
X5855Y262D1*
X5846Y249D1*
X5836Y237D1*
X5825Y226D1*
X5813Y216D1*
X5800Y208D1*
X5786Y200D1*
X5771Y195D1*
X5756Y191D1*
X5741Y188D1*
X5725Y187D1*
X4775D1*
X4759Y188D1*
X4744Y191D1*
X4729Y195D1*
X4714Y200D1*
X4700Y208D1*
X4687Y216D1*
X4675Y226D1*
X4664Y237D1*
X4654Y249D1*
X4645Y262D1*
X4638Y276D1*
X4632Y291D1*
X4628Y306D1*
X4626Y322D1*
X4625Y337D1*
G37*
G36*
X4375D2*
Y1287D1*
X4374Y1303D1*
X4372Y1319D1*
X4368Y1334D1*
X4362Y1349D1*
X4355Y1362D1*
X4346Y1376D1*
X4336Y1388D1*
X4325Y1399D1*
X4313Y1409D1*
X4300Y1417D1*
X4286Y1425D1*
X4271Y1430D1*
X4256Y1434D1*
X4241Y1437D1*
X4225D1*
X3275D1*
X3259D1*
X3244Y1434D1*
X3229Y1430D1*
X3214Y1425D1*
X3200Y1417D1*
X3187Y1409D1*
X3175Y1399D1*
X3164Y1388D1*
X3154Y1376D1*
X3145Y1362D1*
X3138Y1349D1*
X3132Y1334D1*
X3128Y1319D1*
X3126Y1303D1*
X3125Y1287D1*
Y337D1*
X3126Y322D1*
X3128Y306D1*
X3132Y291D1*
X3138Y276D1*
X3145Y262D1*
X3154Y249D1*
X3164Y237D1*
X3175Y226D1*
X3187Y216D1*
X3200Y208D1*
X3214Y200D1*
X3229Y195D1*
X3244Y191D1*
X3259Y188D1*
X3275Y187D1*
X4225D1*
X4241Y188D1*
X4256Y191D1*
X4271Y195D1*
X4286Y200D1*
X4300Y208D1*
X4313Y216D1*
X4325Y226D1*
X4336Y237D1*
X4346Y249D1*
X4355Y262D1*
X4362Y276D1*
X4368Y291D1*
X4372Y306D1*
X4374Y322D1*
X4375Y337D1*
G37*
D22*
X500Y3000D3*
Y2646D3*
D25*
X1875Y6938D3*
Y7449D3*
X1940Y3990D3*
Y3478D3*
D26*
X8438Y2625D3*
X8949D3*
D25*
X7182Y3318D3*
Y2807D3*
X9110Y5010D3*
Y4498D3*
D26*
X6674Y4194D3*
X7186D3*
D25*
X9000Y6438D3*
Y6950D3*
X9040Y6042D3*
Y5530D3*
D26*
X7375Y3750D3*
X6863D3*
D29*
X5937Y1875D3*
Y2544D3*
D30*
Y3062D3*
X6607D3*
D25*
X6100Y7130D3*
Y7642D3*
X2375Y6938D3*
Y7449D3*
D26*
X5926Y3625D3*
X6437D3*
D31*
X7938Y2000D3*
Y2591D3*
D32*
X8250Y8375D3*
Y9084D3*
D31*
X4250Y7687D3*
Y8278D3*
D32*
X1190Y8330D3*
Y9039D3*
X8050Y1150D3*
Y441D3*
X1150Y1175D3*
Y466D3*
D34*
X7500Y7000D3*
X8248D3*
X7874Y7906D3*
D35*
X2600Y7900D3*
Y8648D3*
X1694Y8274D3*
X6627Y1120D3*
Y372D3*
X7532Y746D3*
X2688Y563D3*
Y1311D3*
X1782Y937D3*
D36*
X8938Y3125D3*
Y3499D3*
Y3873D3*
X7914D3*
Y3125D3*
D37*
X3313Y2062D3*
X3312Y3010D3*
G36*
X8531Y8647D2*
X9319D1*
Y7859D1*
X8531D1*
Y8647D1*
G37*
G36*
X9315Y8756D2*
X8527D1*
Y9544D1*
X9315D1*
Y8756D1*
G37*
G36*
X81Y8597D2*
X869D1*
Y7809D1*
X81D1*
Y8597D1*
G37*
G36*
X865Y8706D2*
X77D1*
Y9494D1*
X865D1*
Y8706D1*
G37*
G36*
X9294Y978D2*
X8506D1*
Y1766D1*
X9294D1*
Y978D1*
G37*
G36*
X8510Y869D2*
X9298D1*
Y81D1*
X8510D1*
Y869D1*
G37*
G36*
X869Y1003D2*
X81D1*
Y1791D1*
X869D1*
Y1003D1*
G37*
G36*
X85Y894D2*
X873D1*
Y106D1*
X85D1*
Y894D1*
G37*
D39*
X8540Y4850D3*
Y5047D3*
Y5244D3*
Y5441D3*
Y5637D3*
Y5834D3*
D40*
X8284Y6090D3*
X8087D3*
X7890D3*
X7694D3*
X7497D3*
X7300D3*
D39*
X7044Y5834D3*
Y5637D3*
Y5441D3*
Y5244D3*
Y5047D3*
Y4850D3*
D40*
X7300Y4594D3*
X7497D3*
X7694D3*
X7890D3*
X8087D3*
X8284D3*
D29*
X7063Y7625D3*
Y6956D3*
D26*
X5187Y7687D3*
X4676D3*
D25*
X6280Y4230D3*
Y4742D3*
X6470Y5200D3*
Y5712D3*
X3812Y8187D3*
Y7676D3*
D26*
X7125Y8313D3*
X6613D3*
X8938Y2125D3*
X8426D3*
D25*
X1125Y2563D3*
Y3074D3*
D26*
X812Y2125D3*
X301D3*
D30*
X2500Y9250D3*
X1831D3*
X7313Y1812D3*
X6643D3*
X2313Y1937D3*
X1643D3*
D29*
X6550Y7625D3*
Y6956D3*
X3275Y8350D3*
Y7681D3*
D30*
X7313Y2312D3*
X6643D3*
X2313Y2438D3*
X1643D3*
D21*
X8500Y3313D3*
X8146D3*
G36*
X4417Y2903D2*
Y2907D1*
X4416Y2912D1*
X4414Y2916D1*
X4411Y2920D1*
X4407Y2924D1*
X4404Y2926D1*
X4399Y2928D1*
X4395Y2930D1*
X4390D1*
X4110D1*
X4105D1*
X4101Y2928D1*
X4096Y2926D1*
X4093Y2924D1*
X4089Y2920D1*
X4086Y2916D1*
X4084Y2912D1*
X4083Y2907D1*
Y2903D1*
Y2847D1*
Y2843D1*
X4084Y2838D1*
X4086Y2834D1*
X4089Y2830D1*
X4093Y2826D1*
X4096Y2824D1*
X4101Y2822D1*
X4105Y2820D1*
X4110D1*
X4390D1*
X4395D1*
X4399Y2822D1*
X4404Y2824D1*
X4407Y2826D1*
X4411Y2830D1*
X4414Y2834D1*
X4416Y2838D1*
X4417Y2843D1*
Y2847D1*
Y2903D1*
G37*
G36*
Y2706D2*
Y2710D1*
X4416Y2715D1*
X4414Y2719D1*
X4411Y2723D1*
X4407Y2727D1*
X4404Y2730D1*
X4399Y2732D1*
X4395Y2733D1*
X4390D1*
X4110D1*
X4105D1*
X4101Y2732D1*
X4096Y2730D1*
X4093Y2727D1*
X4089Y2723D1*
X4086Y2719D1*
X4084Y2715D1*
X4083Y2710D1*
Y2706D1*
Y2651D1*
Y2646D1*
X4084Y2641D1*
X4086Y2637D1*
X4089Y2633D1*
X4093Y2629D1*
X4096Y2627D1*
X4101Y2625D1*
X4105Y2623D1*
X4110D1*
X4390D1*
X4395D1*
X4399Y2625D1*
X4404Y2627D1*
X4407Y2629D1*
X4411Y2633D1*
X4414Y2637D1*
X4416Y2641D1*
X4417Y2646D1*
Y2651D1*
Y2706D1*
G37*
G36*
Y2509D2*
Y2514D1*
X4416Y2518D1*
X4414Y2523D1*
X4411Y2527D1*
X4407Y2530D1*
X4404Y2533D1*
X4399Y2535D1*
X4395Y2536D1*
X4390D1*
X4110D1*
X4105D1*
X4101Y2535D1*
X4096Y2533D1*
X4093Y2530D1*
X4089Y2527D1*
X4086Y2523D1*
X4084Y2518D1*
X4083Y2514D1*
Y2509D1*
Y2454D1*
Y2449D1*
X4084Y2444D1*
X4086Y2440D1*
X4089Y2436D1*
X4093Y2433D1*
X4096Y2430D1*
X4101Y2428D1*
X4105Y2427D1*
X4110Y2426D1*
X4390D1*
X4395Y2427D1*
X4399Y2428D1*
X4404Y2430D1*
X4407Y2433D1*
X4411Y2436D1*
X4414Y2440D1*
X4416Y2444D1*
X4417Y2449D1*
Y2454D1*
Y2509D1*
G37*
G36*
Y2312D2*
Y2317D1*
X4416Y2321D1*
X4414Y2326D1*
X4411Y2330D1*
X4407Y2333D1*
X4404Y2336D1*
X4399Y2338D1*
X4395Y2339D1*
X4390Y2340D1*
X4110D1*
X4105Y2339D1*
X4101Y2338D1*
X4096Y2336D1*
X4093Y2333D1*
X4089Y2330D1*
X4086Y2326D1*
X4084Y2321D1*
X4083Y2317D1*
Y2312D1*
Y2257D1*
Y2252D1*
X4084Y2247D1*
X4086Y2243D1*
X4089Y2239D1*
X4093Y2236D1*
X4096Y2233D1*
X4101Y2231D1*
X4105Y2230D1*
X4110Y2229D1*
X4390D1*
X4395Y2230D1*
X4399Y2231D1*
X4404Y2233D1*
X4407Y2236D1*
X4411Y2239D1*
X4414Y2243D1*
X4416Y2247D1*
X4417Y2252D1*
Y2257D1*
Y2312D1*
G37*
G36*
Y2115D2*
Y2120D1*
X4416Y2125D1*
X4414Y2129D1*
X4411Y2133D1*
X4407Y2136D1*
X4404Y2139D1*
X4399Y2141D1*
X4395Y2142D1*
X4390Y2143D1*
X4110D1*
X4105Y2142D1*
X4101Y2141D1*
X4096Y2139D1*
X4093Y2136D1*
X4089Y2133D1*
X4086Y2129D1*
X4084Y2125D1*
X4083Y2120D1*
Y2115D1*
Y2060D1*
Y2055D1*
X4084Y2051D1*
X4086Y2046D1*
X4089Y2042D1*
X4093Y2039D1*
X4096Y2036D1*
X4101Y2034D1*
X4105Y2033D1*
X4110Y2032D1*
X4390D1*
X4395Y2033D1*
X4399Y2034D1*
X4404Y2036D1*
X4407Y2039D1*
X4411Y2042D1*
X4414Y2046D1*
X4416Y2051D1*
X4417Y2055D1*
Y2060D1*
Y2115D1*
G37*
G36*
X5244Y2060D2*
X5245Y2055D1*
X5246Y2051D1*
X5248Y2046D1*
X5251Y2042D1*
X5254Y2039D1*
X5258Y2036D1*
X5262Y2034D1*
X5267Y2033D1*
X5272Y2032D1*
X5551D1*
X5556Y2033D1*
X5561Y2034D1*
X5565Y2036D1*
X5569Y2039D1*
X5572Y2042D1*
X5575Y2046D1*
X5577Y2051D1*
X5578Y2055D1*
X5579Y2060D1*
Y2115D1*
X5578Y2120D1*
X5577Y2125D1*
X5575Y2129D1*
X5572Y2133D1*
X5569Y2136D1*
X5565Y2139D1*
X5561Y2141D1*
X5556Y2142D1*
X5551Y2143D1*
X5272D1*
X5267Y2142D1*
X5262Y2141D1*
X5258Y2139D1*
X5254Y2136D1*
X5251Y2133D1*
X5248Y2129D1*
X5246Y2125D1*
X5245Y2120D1*
X5244Y2115D1*
Y2060D1*
G37*
G36*
Y2257D2*
X5245Y2252D1*
X5246Y2247D1*
X5248Y2243D1*
X5251Y2239D1*
X5254Y2236D1*
X5258Y2233D1*
X5262Y2231D1*
X5267Y2230D1*
X5272Y2229D1*
X5551D1*
X5556Y2230D1*
X5561Y2231D1*
X5565Y2233D1*
X5569Y2236D1*
X5572Y2239D1*
X5575Y2243D1*
X5577Y2247D1*
X5578Y2252D1*
X5579Y2257D1*
Y2312D1*
X5578Y2317D1*
X5577Y2321D1*
X5575Y2326D1*
X5572Y2330D1*
X5569Y2333D1*
X5565Y2336D1*
X5561Y2338D1*
X5556Y2339D1*
X5551Y2340D1*
X5272D1*
X5267Y2339D1*
X5262Y2338D1*
X5258Y2336D1*
X5254Y2333D1*
X5251Y2330D1*
X5248Y2326D1*
X5246Y2321D1*
X5245Y2317D1*
X5244Y2312D1*
Y2257D1*
G37*
G36*
Y2454D2*
X5245Y2449D1*
X5246Y2444D1*
X5248Y2440D1*
X5251Y2436D1*
X5254Y2433D1*
X5258Y2430D1*
X5262Y2428D1*
X5267Y2427D1*
X5272Y2426D1*
X5551D1*
X5556Y2427D1*
X5561Y2428D1*
X5565Y2430D1*
X5569Y2433D1*
X5572Y2436D1*
X5575Y2440D1*
X5577Y2444D1*
X5578Y2449D1*
X5579Y2454D1*
Y2509D1*
X5578Y2514D1*
X5577Y2518D1*
X5575Y2523D1*
X5572Y2527D1*
X5569Y2530D1*
X5565Y2533D1*
X5561Y2535D1*
X5556Y2536D1*
X5551D1*
X5272D1*
X5267D1*
X5262Y2535D1*
X5258Y2533D1*
X5254Y2530D1*
X5251Y2527D1*
X5248Y2523D1*
X5246Y2518D1*
X5245Y2514D1*
X5244Y2509D1*
Y2454D1*
G37*
G36*
Y2651D2*
X5245Y2646D1*
X5246Y2641D1*
X5248Y2637D1*
X5251Y2633D1*
X5254Y2629D1*
X5258Y2627D1*
X5262Y2625D1*
X5267Y2623D1*
X5272D1*
X5551D1*
X5556D1*
X5561Y2625D1*
X5565Y2627D1*
X5569Y2629D1*
X5572Y2633D1*
X5575Y2637D1*
X5577Y2641D1*
X5578Y2646D1*
X5579Y2651D1*
Y2706D1*
X5578Y2710D1*
X5577Y2715D1*
X5575Y2719D1*
X5572Y2723D1*
X5569Y2727D1*
X5565Y2730D1*
X5561Y2732D1*
X5556Y2733D1*
X5551D1*
X5272D1*
X5267D1*
X5262Y2732D1*
X5258Y2730D1*
X5254Y2727D1*
X5251Y2723D1*
X5248Y2719D1*
X5246Y2715D1*
X5245Y2710D1*
X5244Y2706D1*
Y2651D1*
G37*
G36*
Y2847D2*
X5245Y2843D1*
X5246Y2838D1*
X5248Y2834D1*
X5251Y2830D1*
X5254Y2826D1*
X5258Y2824D1*
X5262Y2822D1*
X5267Y2820D1*
X5272D1*
X5551D1*
X5556D1*
X5561Y2822D1*
X5565Y2824D1*
X5569Y2826D1*
X5572Y2830D1*
X5575Y2834D1*
X5577Y2838D1*
X5578Y2843D1*
X5579Y2847D1*
Y2903D1*
X5578Y2907D1*
X5577Y2912D1*
X5575Y2916D1*
X5572Y2920D1*
X5569Y2924D1*
X5565Y2926D1*
X5561Y2928D1*
X5556Y2930D1*
X5551D1*
X5272D1*
X5267D1*
X5262Y2928D1*
X5258Y2926D1*
X5254Y2924D1*
X5251Y2920D1*
X5248Y2916D1*
X5246Y2912D1*
X5245Y2907D1*
X5244Y2903D1*
Y2847D1*
G37*
G36*
X5156Y2009D2*
Y2954D1*
X4506D1*
Y2009D1*
X5156D1*
G37*
G36*
X4994Y1733D2*
Y3229D1*
X4884D1*
Y1733D1*
X4994D1*
G37*
G36*
X4778D2*
Y3229D1*
X4667D1*
Y1733D1*
X4778D1*
G37*
D42*
X2313Y6438D3*
Y6241D3*
Y6044D3*
Y5847D3*
Y5650D3*
Y5453D3*
Y5256D3*
Y5060D3*
Y4863D3*
Y4666D3*
Y4469D3*
Y4272D3*
D43*
X2890Y3695D3*
X3087D3*
X3284D3*
X3480D3*
X3677D3*
X3874D3*
X4071D3*
X4268D3*
X4465D3*
X4661D3*
X4858D3*
X5055D3*
D42*
X5633Y4272D3*
Y4469D3*
Y4666D3*
Y4863D3*
Y5060D3*
Y5256D3*
Y5453D3*
Y5650D3*
Y5847D3*
Y6044D3*
Y6241D3*
Y6438D3*
D43*
X5055Y7015D3*
X4858D3*
X4661D3*
X4465D3*
X4268D3*
X4071D3*
X3874D3*
X3677D3*
X3480D3*
X3284D3*
X3087D3*
X2890D3*
G36*
X1865Y5882D2*
Y6158D1*
X1195D1*
Y5882D1*
X1865D1*
G37*
G36*
Y5410D2*
Y5685D1*
X1195D1*
Y5410D1*
X1865D1*
G37*
G36*
Y4937D2*
Y5213D1*
X1195D1*
Y4937D1*
X1865D1*
G37*
M02*
