G04 DipTrace Beta 2.3.5.2*
%INLulfroMiniBrush.G2L*%
%MOIN*%
%ADD13C,0.015*%
%ADD18C,0.005*%
%ADD19C,0.007*%
%ADD44C,0.018*%
%FSLAX44Y44*%
G04*
G70*
G90*
G75*
G01*
%LNInner1*%
%LPD*%
X4125Y3125D2*
D13*
X5550D1*
X8375D1*
X8513Y2988D1*
X530Y2300D2*
D18*
X500D1*
Y2560D1*
X1200Y3260D1*
Y5100D1*
X1400Y5300D1*
X3325D1*
X3525Y5100D1*
X3725D1*
X3825Y5200D1*
Y6405D1*
X3667Y6563D1*
X3687D1*
X1375Y3062D2*
Y4975D1*
X1575Y5175D1*
X3175D1*
X3400Y4950D1*
X3875D1*
X4270Y4555D1*
Y4170D1*
X7210Y6400D2*
X6950D1*
X5025Y4475D1*
X3275Y8675D2*
Y7475D1*
X3500Y7250D1*
Y6460D1*
X3625Y6335D1*
Y5875D1*
Y5600D2*
X1200D1*
X663Y5063D1*
X500D1*
X8050Y4330D2*
X7200D1*
X6490Y5040D1*
X5840D1*
X5070Y4270D1*
X4520D1*
X8284Y4150D2*
X6475D1*
X6300Y3975D1*
Y4000D1*
X3650Y5275D2*
X3500Y5425D1*
X1250D1*
X1050Y5225D1*
Y4375D1*
X705Y4030D1*
X533D1*
X500Y4063D1*
D44*
X5500Y8140D3*
X8513Y2988D3*
X530Y2300D3*
X7210Y6400D3*
X5025Y4475D3*
X3820Y7470D3*
X2750Y4688D3*
X3275Y8675D3*
X3625Y5875D3*
X7620Y2330D3*
X4070Y7350D3*
X3625Y5600D3*
X8050Y4330D3*
X4520Y4270D3*
X4500Y8313D3*
X2312Y6688D3*
X5875Y6813D3*
X5625Y3625D3*
X7938Y2875D3*
X9090Y5060D3*
X510Y3370D3*
X2270Y3590D3*
X4125Y3125D3*
X5550D3*
X3687Y6563D3*
X9040Y5840D3*
X7910Y6330D3*
X5600Y9350D3*
X6150D3*
Y8775D3*
X5600D3*
X5700Y7190D3*
X7430Y7970D3*
X6700Y3425D3*
X5000Y6250D3*
X2975Y6275D3*
X9050Y5325D3*
X3650Y5275D3*
X6490Y5040D3*
X6300Y4000D3*
X8284Y4150D3*
X1375Y3062D3*
X4270Y4170D3*
X725Y1675D3*
X475D3*
X225D3*
Y1475D3*
X475D3*
X725D3*
Y1175D3*
X225D3*
X8250Y6688D3*
X8125Y7375D3*
X7875Y7125D3*
X8375Y7375D3*
X7875D3*
X8000Y6688D3*
X7500Y6563D3*
X8500Y6688D3*
X225Y7925D3*
X475D3*
X725D3*
Y8125D3*
X475D3*
X225D3*
Y8425D3*
X725D3*
X8675Y7975D3*
X8925D3*
X9175D3*
Y8175D3*
X8925D3*
X8675D3*
Y8475D3*
X9175D3*
X9150Y1650D3*
X8900D3*
X8650D3*
Y1450D3*
X8900D3*
X9150D3*
Y1150D3*
X8650D3*
X7875Y6875D3*
X8875Y7625D3*
X2000Y1562D3*
X8625Y7375D3*
Y7125D3*
Y6875D3*
X2250Y1562D3*
X2500D3*
X3500D3*
X2250Y1313D3*
X2750Y1562D3*
X3000D3*
X3250D3*
X2500Y1062D3*
X2750D3*
X3000D3*
Y1313D3*
X3250Y1000D3*
Y1313D3*
X3563D3*
X3938D3*
X4250D3*
Y1000D3*
X3250Y625D3*
Y313D3*
X3563D3*
X3938D3*
X4250D3*
Y625D3*
X4750Y1313D3*
X5000D3*
X5250D3*
X5500D3*
X5750D3*
Y1062D3*
Y813D3*
Y562D3*
Y313D3*
X5500D3*
X5250D3*
X5000D3*
X4750D3*
Y562D3*
Y813D3*
Y1063D3*
X5563Y1125D3*
X4938D3*
Y500D3*
X5563D3*
X8875Y7375D3*
X9125D3*
Y7625D3*
X8625D3*
X6250Y438D3*
X7000Y688D3*
Y438D3*
X6125Y688D3*
X6187Y1000D3*
X6375Y688D3*
X6688D3*
X6250Y187D3*
X7000D3*
X7250Y438D3*
Y187D3*
X7500D3*
X2870Y9190D3*
X2900Y8940D3*
X2187Y8938D3*
X2438D3*
X2688D3*
X2937Y8625D3*
X2438Y8375D3*
X2688D3*
X2187D3*
X2937Y8125D3*
Y8375D3*
X2187Y8688D3*
Y9187D3*
X8625Y4188D3*
X8938D3*
X1060Y2320D3*
Y2130D3*
X1688Y3188D3*
Y2875D3*
X2000D3*
Y3188D3*
X187Y7625D3*
X500D3*
X813D3*
X2125Y7437D3*
X250Y6813D3*
X750D3*
Y7312D3*
X250D3*
X2875Y2563D3*
X3250D3*
X3625D3*
X4540Y9070D3*
X5200D3*
X4870Y9380D3*
Y8740D3*
X500Y6380D3*
X820Y6060D3*
X500Y5740D3*
X180Y6060D3*
X979Y9421D2*
D19*
X3349D1*
X5401D2*
X6350D1*
X7401D2*
X8412D1*
X979Y9353D2*
X3336D1*
X5414D2*
X6337D1*
X7414D2*
X8412D1*
X979Y9284D2*
X3335D1*
X5414D2*
X6335D1*
X7415D2*
X8412D1*
X979Y9215D2*
X3335D1*
X5414D2*
X6335D1*
X7415D2*
X8412D1*
X979Y9147D2*
X3335D1*
X5414D2*
X6335D1*
X7415D2*
X8412D1*
X979Y9078D2*
X3335D1*
X5414D2*
X6335D1*
X7415D2*
X8412D1*
X979Y9009D2*
X3335D1*
X5414D2*
X6335D1*
X7415D2*
X8412D1*
X979Y8940D2*
X3335D1*
X5414D2*
X6335D1*
X7415D2*
X8412D1*
X979Y8872D2*
X3250D1*
X3300D2*
X3335D1*
X5414D2*
X6335D1*
X7415D2*
X8412D1*
X979Y8803D2*
X3118D1*
X5414D2*
X6335D1*
X7415D2*
X8412D1*
X979Y8734D2*
X3079D1*
X5409D2*
X6341D1*
X7409D2*
X8415D1*
X971Y8666D2*
X3071D1*
X5384D2*
X6366D1*
X7384D2*
X8418D1*
X983Y8597D2*
X3086D1*
X4330D2*
X4419D1*
X5330D2*
X6420D1*
X7331D2*
X8417D1*
X983Y8528D2*
X3135D1*
X3415D2*
X8417D1*
X983Y8460D2*
X3135D1*
X3415D2*
X4361D1*
X4639D2*
X8417D1*
X983Y8391D2*
X3135D1*
X3415D2*
X4312D1*
X4688D2*
X8417D1*
X983Y8322D2*
X3135D1*
X3415D2*
X4296D1*
X4704D2*
X5417D1*
X5584D2*
X8417D1*
X983Y8254D2*
X3135D1*
X3415D2*
X4304D1*
X4696D2*
X5331D1*
X5669D2*
X8417D1*
X983Y8185D2*
X3135D1*
X3415D2*
X4342D1*
X4658D2*
X5301D1*
X5700D2*
X8417D1*
X983Y8116D2*
X3135D1*
X3415D2*
X4469D1*
X4531D2*
X5296D1*
X5703D2*
X8417D1*
X983Y8048D2*
X3135D1*
X3415D2*
X5318D1*
X5682D2*
X8417D1*
X983Y7979D2*
X3135D1*
X3415D2*
X5378D1*
X5621D2*
X8417D1*
X983Y7910D2*
X3135D1*
X3415D2*
X8417D1*
X983Y7841D2*
X3135D1*
X3415D2*
X8418D1*
X977Y7773D2*
X3135D1*
X3415D2*
X8461D1*
X898Y7704D2*
X3135D1*
X3415D2*
X9295D1*
X79Y7635D2*
X3135D1*
X3415D2*
X3705D1*
X3936D2*
X9295D1*
X79Y7567D2*
X3135D1*
X3415D2*
X3640D1*
X3999D2*
X9295D1*
X79Y7498D2*
X3135D1*
X3447D2*
X3617D1*
X4208D2*
X9295D1*
X79Y7429D2*
X3144D1*
X3516D2*
X3620D1*
X4258D2*
X9295D1*
X79Y7361D2*
X3194D1*
X3584D2*
X3648D1*
X4275D2*
X9295D1*
X79Y7292D2*
X3263D1*
X3633D2*
X3727D1*
X4266D2*
X9295D1*
X79Y7223D2*
X3332D1*
X3640D2*
X3912D1*
X4229D2*
X9295D1*
X79Y7155D2*
X3360D1*
X3640D2*
X4033D1*
X4107D2*
X9295D1*
X79Y7086D2*
X3360D1*
X3640D2*
X9295D1*
X79Y7017D2*
X3360D1*
X3640D2*
X9295D1*
X79Y6949D2*
X3360D1*
X3640D2*
X5725D1*
X6026D2*
X9295D1*
X79Y6880D2*
X2260D1*
X2365D2*
X3360D1*
X3640D2*
X5682D1*
X6068D2*
X9295D1*
X79Y6811D2*
X2152D1*
X2473D2*
X3360D1*
X3640D2*
X5670D1*
X6079D2*
X9295D1*
X79Y6742D2*
X2116D1*
X2509D2*
X3360D1*
X3776D2*
X5684D1*
X6067D2*
X9295D1*
X79Y6674D2*
X2108D1*
X2517D2*
X3360D1*
X3858D2*
X5727D1*
X6022D2*
X9295D1*
X79Y6605D2*
X2126D1*
X2499D2*
X3360D1*
X3887D2*
X9295D1*
X945Y6536D2*
X2178D1*
X2447D2*
X3360D1*
X3891D2*
X7059D1*
X7360D2*
X9295D1*
X1004Y6468D2*
X3360D1*
X3949D2*
X6823D1*
X7403D2*
X9295D1*
X1032Y6399D2*
X3375D1*
X3965D2*
X6754D1*
X7415D2*
X9295D1*
X1039Y6330D2*
X3435D1*
X3965D2*
X6685D1*
X7402D2*
X9295D1*
X1039Y6262D2*
X3485D1*
X3965D2*
X6618D1*
X7007D2*
X7062D1*
X7358D2*
X9295D1*
X1039Y6193D2*
X3485D1*
X3965D2*
X6549D1*
X6938D2*
X9295D1*
X1039Y6124D2*
X3485D1*
X3965D2*
X6480D1*
X6869D2*
X9295D1*
X1039Y6056D2*
X3485D1*
X3965D2*
X6411D1*
X6800D2*
X9295D1*
X1039Y5987D2*
X3456D1*
X3965D2*
X6342D1*
X6731D2*
X8900D1*
X9179D2*
X9295D1*
X1039Y5918D2*
X3425D1*
X3965D2*
X6274D1*
X6663D2*
X8851D1*
X9228D2*
X9295D1*
X1039Y5850D2*
X3422D1*
X3965D2*
X6205D1*
X6594D2*
X8836D1*
X9245D2*
X9295D1*
X1039Y5781D2*
X3445D1*
X3965D2*
X6136D1*
X6526D2*
X8844D1*
X9236D2*
X9295D1*
X1028Y5712D2*
X1123D1*
X3965D2*
X6067D1*
X6457D2*
X8883D1*
X9198D2*
X9295D1*
X996Y5643D2*
X1049D1*
X3965D2*
X5999D1*
X6388D2*
X9012D1*
X9068D2*
X9295D1*
X928Y5575D2*
X980D1*
X3965D2*
X5931D1*
X6320D2*
X9295D1*
X3965Y5506D2*
X5862D1*
X6251D2*
X9295D1*
X3965Y5437D2*
X5793D1*
X6182D2*
X9295D1*
X3965Y5369D2*
X5724D1*
X6113D2*
X9295D1*
X3965Y5300D2*
X5655D1*
X6044D2*
X9295D1*
X3965Y5231D2*
X5586D1*
X5976D2*
X6434D1*
X6546D2*
X8984D1*
X9195D2*
X9295D1*
X3960Y5163D2*
X5518D1*
X6652D2*
X8914D1*
X9266D2*
X9295D1*
X3914Y5094D2*
X5449D1*
X6687D2*
X8888D1*
X1620Y5025D2*
X3130D1*
X3995D2*
X5381D1*
X6699D2*
X8888D1*
X1551Y4957D2*
X3199D1*
X4063D2*
X5312D1*
X6768D2*
X8914D1*
X9265D2*
X9296D1*
X1515Y4888D2*
X3267D1*
X4131D2*
X5243D1*
X5882D2*
X6356D1*
X6837D2*
X8986D1*
X9194D2*
X9295D1*
X1515Y4819D2*
X2596D1*
X2904D2*
X3370D1*
X4200D2*
X5175D1*
X5813D2*
X6516D1*
X6905D2*
X9295D1*
X1515Y4751D2*
X2555D1*
X2945D2*
X3880D1*
X4269D2*
X5106D1*
X5746D2*
X6585D1*
X6974D2*
X9295D1*
X1515Y4682D2*
X2546D1*
X2954D2*
X3949D1*
X4338D2*
X5037D1*
X5677D2*
X6654D1*
X7043D2*
X9295D1*
X1515Y4613D2*
X2560D1*
X2940D2*
X4017D1*
X4396D2*
X4876D1*
X5608D2*
X6723D1*
X7112D2*
X9295D1*
X1515Y4544D2*
X2607D1*
X2893D2*
X4086D1*
X4410D2*
X4833D1*
X5539D2*
X6790D1*
X7181D2*
X9295D1*
X1515Y4476D2*
X4130D1*
X4410D2*
X4821D1*
X5470D2*
X6859D1*
X7248D2*
X7909D1*
X8190D2*
X9295D1*
X1515Y4407D2*
X4130D1*
X4669D2*
X4833D1*
X5402D2*
X6928D1*
X8239D2*
X9295D1*
X1515Y4338D2*
X4130D1*
X5333D2*
X6997D1*
X8351D2*
X9295D1*
X1515Y4270D2*
X4092D1*
X5264D2*
X6411D1*
X8448D2*
X9295D1*
X1515Y4201D2*
X4068D1*
X5196D2*
X6331D1*
X8482D2*
X9295D1*
X1039Y4132D2*
X1061D1*
X1515D2*
X4069D1*
X4669D2*
X6146D1*
X8488D2*
X9295D1*
X1039Y4064D2*
X1061D1*
X1515D2*
X4097D1*
X4444D2*
X6106D1*
X8469D2*
X9295D1*
X1039Y3995D2*
X1061D1*
X1515D2*
X4171D1*
X4369D2*
X6096D1*
X6515D2*
X8154D1*
X8413D2*
X9295D1*
X1039Y3926D2*
X1061D1*
X1515D2*
X6110D1*
X6491D2*
X9295D1*
X1039Y3858D2*
X1061D1*
X1515D2*
X6156D1*
X6445D2*
X9295D1*
X1039Y3789D2*
X1061D1*
X1515D2*
X5507D1*
X5742D2*
X9295D1*
X1031Y3720D2*
X1059D1*
X1515D2*
X2115D1*
X2426D2*
X5445D1*
X5805D2*
X9295D1*
X1001Y3652D2*
X1060D1*
X1515D2*
X2075D1*
X2464D2*
X5422D1*
X5828D2*
X9295D1*
X939Y3583D2*
X1060D1*
X1515D2*
X2065D1*
X2474D2*
X5425D1*
X5826D2*
X9295D1*
X79Y3514D2*
X368D1*
X652D2*
X1060D1*
X1515D2*
X2081D1*
X2460D2*
X5454D1*
X5796D2*
X9295D1*
X79Y3445D2*
X320D1*
X700D2*
X1060D1*
X1515D2*
X2128D1*
X2412D2*
X5535D1*
X5715D2*
X9295D1*
X79Y3377D2*
X306D1*
X714D2*
X1060D1*
X1515D2*
X9295D1*
X79Y3308D2*
X315D1*
X705D2*
X1054D1*
X1515D2*
X4044D1*
X4207D2*
X5468D1*
X5632D2*
X9295D1*
X79Y3239D2*
X355D1*
X665D2*
X985D1*
X1515D2*
X3957D1*
X8526D2*
X9295D1*
X79Y3171D2*
X916D1*
X1548D2*
X3926D1*
X8595D2*
X9295D1*
X79Y3102D2*
X847D1*
X1575D2*
X3922D1*
X8680D2*
X9295D1*
X79Y3033D2*
X779D1*
X1577D2*
X3943D1*
X8712D2*
X9295D1*
X79Y2965D2*
X710D1*
X1099D2*
X1196D1*
X1553D2*
X4002D1*
X8716D2*
X9295D1*
X79Y2896D2*
X641D1*
X1031D2*
X1262D1*
X1489D2*
X7734D1*
X8141D2*
X8330D1*
X8694D2*
X9295D1*
X79Y2827D2*
X572D1*
X962D2*
X7739D1*
X8137D2*
X8389D1*
X8635D2*
X9295D1*
X79Y2759D2*
X504D1*
X893D2*
X7770D1*
X8104D2*
X9295D1*
X79Y2690D2*
X436D1*
X825D2*
X7861D1*
X8014D2*
X9295D1*
X79Y2621D2*
X376D1*
X756D2*
X9295D1*
X79Y2553D2*
X360D1*
X687D2*
X9295D1*
X79Y2484D2*
X360D1*
X640D2*
X7489D1*
X7752D2*
X9295D1*
X79Y2415D2*
X360D1*
X698D2*
X7435D1*
X7805D2*
X9295D1*
X79Y2346D2*
X331D1*
X729D2*
X7416D1*
X7824D2*
X9295D1*
X79Y2278D2*
X326D1*
X733D2*
X7423D1*
X7817D2*
X9295D1*
X79Y2209D2*
X347D1*
X712D2*
X7457D1*
X7783D2*
X9295D1*
X79Y2140D2*
X406D1*
X653D2*
X7557D1*
X7683D2*
X9295D1*
X79Y2072D2*
X9295D1*
X79Y2003D2*
X9295D1*
X79Y1934D2*
X9295D1*
X953Y1866D2*
X8459D1*
X983Y1797D2*
X8396D1*
X983Y1728D2*
X8392D1*
X983Y1660D2*
X8392D1*
X983Y1591D2*
X8392D1*
X983Y1522D2*
X8392D1*
X983Y1454D2*
X4604D1*
X5896D2*
X8392D1*
X983Y1385D2*
X4559D1*
X5941D2*
X8392D1*
X983Y1316D2*
X4545D1*
X5955D2*
X8392D1*
X983Y1247D2*
X4556D1*
X5944D2*
X8392D1*
X983Y1179D2*
X4583D1*
X5916D2*
X8392D1*
X983Y1110D2*
X4552D1*
X5949D2*
X8392D1*
X983Y1041D2*
X4546D1*
X5953D2*
X8392D1*
X979Y973D2*
X4567D1*
X5933D2*
X8392D1*
X987Y904D2*
X4568D1*
X5933D2*
X8402D1*
X988Y835D2*
X4547D1*
X5953D2*
X8396D1*
X988Y767D2*
X4550D1*
X5949D2*
X8396D1*
X988Y698D2*
X4582D1*
X5918D2*
X8396D1*
X988Y629D2*
X4557D1*
X5943D2*
X8396D1*
X988Y561D2*
X4545D1*
X5955D2*
X8396D1*
X988Y492D2*
X4558D1*
X5941D2*
X8396D1*
X988Y423D2*
X4579D1*
X5921D2*
X8396D1*
X988Y355D2*
X4549D1*
X5950D2*
X8396D1*
X988Y286D2*
X4547D1*
X5952D2*
X8396D1*
X988Y217D2*
X4570D1*
X5931D2*
X8396D1*
X988Y148D2*
X4632D1*
X5867D2*
X8396D1*
X983Y80D2*
X8396D1*
X5408Y9303D2*
X5407Y8766D1*
X5401Y8729D1*
X5390Y8693D1*
X5376Y8664D1*
X5356Y8632D1*
X5330Y8604D1*
X5306Y8582D1*
X5275Y8562D1*
X5240Y8546D1*
X5209Y8537D1*
X5172Y8531D1*
X5115Y8530D1*
X4579Y8531D1*
X4542Y8536D1*
X4505Y8548D1*
X4476Y8562D1*
X4445Y8582D1*
X4416Y8607D1*
X4395Y8632D1*
X4375Y8662D1*
X4355Y8632D1*
X4330Y8604D1*
X4306Y8582D1*
X4275Y8562D1*
X4240Y8546D1*
X4209Y8537D1*
X4172Y8531D1*
X4115Y8530D1*
X3579Y8531D1*
X3542Y8536D1*
X3505Y8548D1*
X3476Y8562D1*
X3448Y8579D1*
X3425Y8546D1*
X3407Y8529D1*
X3408Y7530D1*
X3594Y7344D1*
X3615Y7316D1*
X3628Y7284D1*
X3633Y7250D1*
Y6752D1*
X3665Y6759D1*
X3700Y6760D1*
X3735Y6755D1*
X3768Y6743D1*
X3799Y6726D1*
X3826Y6704D1*
X3848Y6678D1*
X3866Y6647D1*
X3878Y6615D1*
X3885Y6563D1*
X3883Y6535D1*
X3919Y6499D1*
X3940Y6471D1*
X3953Y6439D1*
X3958Y6405D1*
Y5200D1*
X3953Y5165D1*
X3940Y5133D1*
X3919Y5106D1*
X3893Y5081D1*
X3910Y5078D1*
X3942Y5065D1*
X3969Y5044D1*
X4364Y4649D1*
X4385Y4621D1*
X4398Y4589D1*
X4403Y4555D1*
Y4429D1*
X4431Y4447D1*
X4464Y4460D1*
X4498Y4467D1*
X4533D1*
X4567Y4462D1*
X4600Y4451D1*
X4631Y4434D1*
X4666Y4402D1*
X4840Y4403D1*
X4829Y4449D1*
X4827Y4484D1*
X4832Y4518D1*
X4843Y4552D1*
X4859Y4582D1*
X4880Y4610D1*
X4906Y4633D1*
X4936Y4652D1*
X4969Y4665D1*
X5003Y4672D1*
X5035D1*
X6856Y6494D1*
X6884Y6515D1*
X6916Y6528D1*
X6950Y6533D1*
X7063D1*
X7091Y6558D1*
X7121Y6577D1*
X7154Y6590D1*
X7188Y6597D1*
X7223D1*
X7257Y6592D1*
X7290Y6581D1*
X7321Y6564D1*
X7348Y6542D1*
X7371Y6515D1*
X7389Y6485D1*
X7401Y6452D1*
X7408Y6400D1*
X7405Y6365D1*
X7396Y6331D1*
X7381Y6300D1*
X7360Y6271D1*
X7335Y6247D1*
X7306Y6227D1*
X7275Y6213D1*
X7241Y6205D1*
X7206Y6202D1*
X7171Y6206D1*
X7137Y6216D1*
X7106Y6232D1*
X7078Y6253D1*
X7064Y6268D1*
X7005Y6267D1*
X5911Y5173D1*
X6344D1*
X6371Y5198D1*
X6401Y5217D1*
X6434Y5230D1*
X6468Y5237D1*
X6503D1*
X6537Y5232D1*
X6570Y5221D1*
X6601Y5204D1*
X6628Y5182D1*
X6651Y5155D1*
X6669Y5125D1*
X6681Y5092D1*
X6688Y5040D1*
X6687Y5030D1*
X7254Y4463D1*
X7903D1*
X7931Y4488D1*
X7961Y4507D1*
X7994Y4520D1*
X8028Y4527D1*
X8063D1*
X8097Y4522D1*
X8130Y4511D1*
X8161Y4494D1*
X8188Y4472D1*
X8211Y4445D1*
X8229Y4415D1*
X8241Y4382D1*
X8247Y4344D1*
X8297Y4347D1*
X8332Y4342D1*
X8365Y4331D1*
X8395Y4314D1*
X8422Y4292D1*
X8445Y4265D1*
X8463Y4235D1*
X8475Y4202D1*
X8482Y4150D1*
X8479Y4115D1*
X8470Y4081D1*
X8455Y4050D1*
X8434Y4021D1*
X8409Y3997D1*
X8381Y3977D1*
X8349Y3963D1*
X8315Y3955D1*
X8280Y3952D1*
X8245Y3956D1*
X8212Y3966D1*
X8180Y3982D1*
X8152Y4003D1*
X8138Y4018D1*
X6531Y4017D1*
X6497Y3984D1*
X6495Y3965D1*
X6486Y3931D1*
X6471Y3900D1*
X6450Y3871D1*
X6425Y3847D1*
X6396Y3827D1*
X6365Y3813D1*
X6331Y3805D1*
X6296Y3802D1*
X6261Y3806D1*
X6227Y3816D1*
X6196Y3832D1*
X6168Y3853D1*
X6144Y3878D1*
X6125Y3907D1*
X6112Y3940D1*
X6104Y3974D1*
X6102Y4009D1*
X6107Y4043D1*
X6118Y4077D1*
X6134Y4107D1*
X6155Y4135D1*
X6181Y4158D1*
X6211Y4177D1*
X6244Y4190D1*
X6278Y4197D1*
X6313D1*
X6331Y4195D1*
X6381Y4244D1*
X6409Y4265D1*
X6441Y4278D1*
X6475Y4283D1*
X7060D1*
X6661Y4682D1*
X6499Y4843D1*
X6486Y4842D1*
X6451Y4846D1*
X6417Y4856D1*
X6386Y4872D1*
X6358Y4893D1*
X6344Y4908D1*
X5894Y4907D1*
X5686Y4699D1*
X5164Y4176D1*
X5136Y4155D1*
X5104Y4142D1*
X5070Y4137D1*
X4666D1*
X4645Y4117D1*
X4616Y4097D1*
X4585Y4083D1*
X4551Y4075D1*
X4516Y4072D1*
X4481Y4076D1*
X4448Y4086D1*
X4441Y4070D1*
X4420Y4041D1*
X4395Y4017D1*
X4366Y3997D1*
X4335Y3983D1*
X4301Y3975D1*
X4266Y3972D1*
X4231Y3976D1*
X4197Y3986D1*
X4166Y4002D1*
X4138Y4023D1*
X4114Y4048D1*
X4095Y4077D1*
X4082Y4110D1*
X4074Y4144D1*
X4072Y4179D1*
X4077Y4213D1*
X4088Y4247D1*
X4104Y4277D1*
X4125Y4305D1*
X4138Y4316D1*
X4137Y4499D1*
X3820Y4818D1*
X3400Y4817D1*
X3365Y4822D1*
X3333Y4835D1*
X3306Y4856D1*
X3120Y5042D1*
X1630D1*
X1507Y4919D1*
X1508Y4100D1*
Y3209D1*
X1536Y3178D1*
X1554Y3147D1*
X1566Y3115D1*
X1573Y3062D1*
X1570Y3028D1*
X1561Y2994D1*
X1546Y2962D1*
X1525Y2934D1*
X1500Y2909D1*
X1471Y2890D1*
X1440Y2876D1*
X1406Y2867D1*
X1371Y2865D1*
X1336Y2869D1*
X1302Y2878D1*
X1271Y2894D1*
X1243Y2915D1*
X1219Y2941D1*
X1200Y2970D1*
X1187Y3002D1*
X1179Y3036D1*
X1178Y3050D1*
X633Y2505D1*
Y2469D1*
X668Y2442D1*
X691Y2415D1*
X709Y2385D1*
X721Y2352D1*
X728Y2300D1*
X725Y2265D1*
X716Y2231D1*
X701Y2200D1*
X680Y2171D1*
X655Y2147D1*
X626Y2127D1*
X595Y2113D1*
X561Y2105D1*
X526Y2102D1*
X491Y2106D1*
X457Y2116D1*
X426Y2132D1*
X398Y2153D1*
X374Y2178D1*
X355Y2207D1*
X342Y2240D1*
X334Y2274D1*
X332Y2309D1*
X337Y2343D1*
X348Y2377D1*
X367Y2412D1*
Y2560D1*
X372Y2595D1*
X385Y2627D1*
X406Y2654D1*
X1067Y3315D1*
Y4204D1*
X1033Y4171D1*
Y3785D1*
X1031Y3755D1*
X1023Y3718D1*
X1013Y3688D1*
X996Y3654D1*
X974Y3623D1*
X952Y3600D1*
X923Y3576D1*
X890Y3557D1*
X860Y3544D1*
X824Y3534D1*
X786Y3530D1*
X627D1*
X648Y3512D1*
X671Y3485D1*
X689Y3455D1*
X701Y3422D1*
X708Y3370D1*
X705Y3335D1*
X696Y3301D1*
X681Y3270D1*
X660Y3241D1*
X635Y3217D1*
X606Y3197D1*
X575Y3183D1*
X541Y3175D1*
X506Y3172D1*
X471Y3176D1*
X437Y3186D1*
X406Y3202D1*
X378Y3223D1*
X354Y3248D1*
X335Y3277D1*
X322Y3310D1*
X314Y3344D1*
X312Y3379D1*
X317Y3413D1*
X328Y3447D1*
X344Y3477D1*
X365Y3505D1*
X394Y3530D1*
X209D1*
X177Y3534D1*
X141Y3544D1*
X106Y3559D1*
X78Y3576D1*
X73Y3580D1*
X72Y1898D1*
X869D1*
X903Y1893D1*
X934Y1876D1*
X958Y1851D1*
X974Y1814D1*
X977Y1756D1*
Y1003D1*
X968Y963D1*
X965Y950D1*
X978Y917D1*
X980Y859D1*
Y100D1*
X982Y72D1*
X8404D1*
X8402Y151D1*
Y869D1*
X8411Y909D1*
X8414Y922D1*
X8401Y955D1*
X8398Y1013D1*
Y1766D1*
X8404Y1800D1*
X8420Y1831D1*
X8446Y1855D1*
X8483Y1871D1*
X8541Y1873D1*
X9300D1*
X9303Y1927D1*
Y7752D1*
X8531D1*
X8497Y7757D1*
X8466Y7774D1*
X8442Y7799D1*
X8426Y7836D1*
X8423Y7894D1*
Y8647D1*
X8432Y8687D1*
X8435Y8700D1*
X8422Y8733D1*
X8420Y8791D1*
Y9490D1*
X7357D1*
X7370Y9471D1*
X7387Y9438D1*
X7400Y9402D1*
X7406Y9370D1*
X7408Y9332D1*
X7407Y8771D1*
X7403Y8739D1*
X7394Y8703D1*
X7378Y8668D1*
X7362Y8641D1*
X7338Y8611D1*
X7310Y8586D1*
X7284Y8567D1*
X7250Y8550D1*
X7214Y8538D1*
X7183Y8532D1*
X7145Y8530D1*
X6584D1*
X6552Y8534D1*
X6516Y8544D1*
X6481Y8559D1*
X6453Y8576D1*
X6424Y8599D1*
X6398Y8627D1*
X6380Y8654D1*
X6363Y8687D1*
X6350Y8723D1*
X6344Y8755D1*
X6342Y8793D1*
X6343Y9354D1*
X6347Y9386D1*
X6356Y9422D1*
X6372Y9457D1*
X6388Y9484D1*
X6392Y9490D1*
X5357D1*
X5377Y9460D1*
X5388Y9437D1*
X5400Y9402D1*
X5406Y9370D1*
X5408Y9332D1*
Y9303D1*
X4695Y8278D2*
X4686Y8244D1*
X4671Y8212D1*
X4650Y8184D1*
X4625Y8159D1*
X4596Y8140D1*
X4565Y8126D1*
X4531Y8117D1*
X4496Y8115D1*
X4461Y8119D1*
X4427Y8128D1*
X4396Y8144D1*
X4368Y8165D1*
X4344Y8191D1*
X4325Y8220D1*
X4312Y8252D1*
X4304Y8286D1*
X4302Y8321D1*
X4307Y8356D1*
X4318Y8389D1*
X4334Y8420D1*
X4355Y8448D1*
X4381Y8471D1*
X4411Y8489D1*
X4444Y8502D1*
X4478Y8509D1*
X4513Y8510D1*
X4547Y8505D1*
X4580Y8493D1*
X4611Y8476D1*
X4638Y8454D1*
X4661Y8428D1*
X4679Y8397D1*
X4691Y8365D1*
X4698Y8313D1*
X4695Y8278D1*
X2507Y6653D2*
X2498Y6619D1*
X2483Y6587D1*
X2463Y6559D1*
X2438Y6534D1*
X2409Y6515D1*
X2377Y6501D1*
X2343Y6492D1*
X2308Y6490D1*
X2273Y6494D1*
X2240Y6503D1*
X2209Y6519D1*
X2181Y6540D1*
X2157Y6566D1*
X2138Y6595D1*
X2124Y6627D1*
X2116Y6661D1*
X2115Y6696D1*
X2119Y6731D1*
X2130Y6764D1*
X2146Y6795D1*
X2168Y6823D1*
X2194Y6846D1*
X2224Y6864D1*
X2256Y6877D1*
X2290Y6884D1*
X2325Y6885D1*
X2360Y6880D1*
X2393Y6868D1*
X2424Y6851D1*
X2451Y6829D1*
X2473Y6803D1*
X2491Y6772D1*
X2503Y6740D1*
X2510Y6688D1*
X2507Y6653D1*
X6070Y6778D2*
X6061Y6744D1*
X6046Y6712D1*
X6025Y6684D1*
X6000Y6659D1*
X5971Y6640D1*
X5940Y6626D1*
X5906Y6617D1*
X5871Y6615D1*
X5836Y6619D1*
X5802Y6628D1*
X5771Y6644D1*
X5743Y6665D1*
X5719Y6691D1*
X5700Y6720D1*
X5687Y6752D1*
X5679Y6786D1*
X5677Y6821D1*
X5682Y6856D1*
X5693Y6889D1*
X5709Y6920D1*
X5730Y6948D1*
X5756Y6971D1*
X5786Y6989D1*
X5819Y7002D1*
X5853Y7009D1*
X5888Y7010D1*
X5922Y7005D1*
X5955Y6993D1*
X5986Y6976D1*
X6013Y6954D1*
X6036Y6928D1*
X6054Y6897D1*
X6066Y6865D1*
X6073Y6813D1*
X6070Y6778D1*
X5820Y3590D2*
X5811Y3556D1*
X5796Y3525D1*
X5775Y3496D1*
X5750Y3472D1*
X5721Y3452D1*
X5690Y3438D1*
X5656Y3430D1*
X5621Y3427D1*
X5586Y3431D1*
X5552Y3441D1*
X5521Y3457D1*
X5493Y3478D1*
X5469Y3503D1*
X5450Y3532D1*
X5437Y3565D1*
X5429Y3599D1*
X5427Y3634D1*
X5432Y3668D1*
X5443Y3702D1*
X5459Y3732D1*
X5480Y3760D1*
X5506Y3783D1*
X5536Y3802D1*
X5569Y3815D1*
X5603Y3822D1*
X5638D1*
X5672Y3817D1*
X5705Y3806D1*
X5736Y3789D1*
X5763Y3767D1*
X5786Y3740D1*
X5804Y3710D1*
X5816Y3677D1*
X5823Y3625D1*
X5820Y3590D1*
X8132Y2840D2*
X8123Y2806D1*
X8108Y2775D1*
X8088Y2746D1*
X8063Y2722D1*
X8034Y2702D1*
X8002Y2688D1*
X7968Y2680D1*
X7933Y2677D1*
X7898Y2681D1*
X7865Y2691D1*
X7834Y2707D1*
X7806Y2728D1*
X7782Y2753D1*
X7763Y2782D1*
X7749Y2815D1*
X7741Y2849D1*
X7740Y2884D1*
X7744Y2918D1*
X7752Y2942D1*
X5624D1*
X5581Y2930D1*
X5546Y2927D1*
X5511Y2931D1*
X5475Y2942D1*
X4199D1*
X4156Y2930D1*
X4121Y2927D1*
X4086Y2931D1*
X4052Y2941D1*
X4021Y2957D1*
X3993Y2978D1*
X3969Y3003D1*
X3950Y3032D1*
X3937Y3065D1*
X3929Y3099D1*
X3927Y3134D1*
X3932Y3168D1*
X3943Y3202D1*
X3959Y3232D1*
X3980Y3260D1*
X4006Y3283D1*
X4036Y3302D1*
X4069Y3315D1*
X4103Y3322D1*
X4138D1*
X4172Y3317D1*
X4200Y3307D1*
X5476Y3308D1*
X5494Y3315D1*
X5528Y3322D1*
X5563D1*
X5597Y3317D1*
X5625Y3307D1*
X8375Y3308D1*
X8410Y3304D1*
X8443Y3295D1*
X8474Y3278D1*
X8504Y3254D1*
X8589Y3170D1*
X8624Y3151D1*
X8651Y3129D1*
X8673Y3103D1*
X8691Y3072D1*
X8703Y3040D1*
X8710Y2988D1*
X8707Y2953D1*
X8698Y2919D1*
X8683Y2887D1*
X8663Y2859D1*
X8638Y2834D1*
X8609Y2815D1*
X8577Y2801D1*
X8543Y2792D1*
X8508Y2790D1*
X8473Y2794D1*
X8440Y2803D1*
X8409Y2819D1*
X8381Y2840D1*
X8357Y2866D1*
X8338Y2895D1*
X8331Y2910D1*
X8299Y2943D1*
X8122Y2942D1*
X8128Y2927D1*
X8135Y2875D1*
X8132Y2840D1*
X9285Y5025D2*
X9276Y4991D1*
X9261Y4960D1*
X9240Y4931D1*
X9215Y4907D1*
X9186Y4887D1*
X9155Y4873D1*
X9121Y4865D1*
X9086Y4862D1*
X9051Y4866D1*
X9017Y4876D1*
X8986Y4892D1*
X8958Y4913D1*
X8934Y4938D1*
X8915Y4967D1*
X8902Y5000D1*
X8894Y5034D1*
X8892Y5069D1*
X8897Y5103D1*
X8908Y5137D1*
X8924Y5167D1*
X8945Y5195D1*
X8971Y5218D1*
X9001Y5237D1*
X9034Y5250D1*
X9068Y5257D1*
X9103D1*
X9137Y5252D1*
X9170Y5241D1*
X9201Y5224D1*
X9228Y5202D1*
X9251Y5175D1*
X9269Y5145D1*
X9281Y5112D1*
X9288Y5060D1*
X9285Y5025D1*
X2465Y3555D2*
X2456Y3521D1*
X2441Y3490D1*
X2420Y3461D1*
X2395Y3437D1*
X2366Y3417D1*
X2335Y3403D1*
X2301Y3395D1*
X2266Y3392D1*
X2231Y3396D1*
X2197Y3406D1*
X2166Y3422D1*
X2138Y3443D1*
X2114Y3468D1*
X2095Y3497D1*
X2082Y3530D1*
X2074Y3564D1*
X2072Y3599D1*
X2077Y3633D1*
X2088Y3667D1*
X2104Y3697D1*
X2125Y3725D1*
X2151Y3748D1*
X2181Y3767D1*
X2214Y3780D1*
X2248Y3787D1*
X2283D1*
X2317Y3782D1*
X2350Y3771D1*
X2381Y3754D1*
X2408Y3732D1*
X2431Y3705D1*
X2449Y3675D1*
X2461Y3642D1*
X2468Y3590D1*
X2465Y3555D1*
X9235Y5805D2*
X9226Y5771D1*
X9211Y5740D1*
X9190Y5711D1*
X9165Y5687D1*
X9136Y5667D1*
X9105Y5653D1*
X9071Y5645D1*
X9036Y5642D1*
X9001Y5646D1*
X8967Y5656D1*
X8936Y5672D1*
X8908Y5693D1*
X8884Y5718D1*
X8865Y5747D1*
X8852Y5780D1*
X8844Y5814D1*
X8842Y5849D1*
X8847Y5883D1*
X8858Y5917D1*
X8874Y5947D1*
X8895Y5975D1*
X8921Y5998D1*
X8951Y6017D1*
X8984Y6030D1*
X9018Y6037D1*
X9053D1*
X9087Y6032D1*
X9120Y6021D1*
X9151Y6004D1*
X9178Y5982D1*
X9201Y5955D1*
X9219Y5925D1*
X9231Y5892D1*
X9238Y5840D1*
X9235Y5805D1*
X4597Y1188D2*
X4575Y1220D1*
X4562Y1252D1*
X4554Y1286D1*
X4552Y1321D1*
X4557Y1356D1*
X4568Y1389D1*
X4584Y1420D1*
X4605Y1448D1*
X4631Y1471D1*
X4661Y1489D1*
X4694Y1502D1*
X4728Y1509D1*
X4763Y1510D1*
X4797Y1505D1*
X4830Y1493D1*
X4861Y1476D1*
X4874Y1466D1*
X4911Y1489D1*
X4944Y1502D1*
X4978Y1509D1*
X5013Y1510D1*
X5047Y1505D1*
X5080Y1493D1*
X5111Y1476D1*
X5124Y1466D1*
X5161Y1489D1*
X5194Y1502D1*
X5228Y1509D1*
X5263Y1510D1*
X5297Y1505D1*
X5330Y1493D1*
X5361Y1476D1*
X5374Y1466D1*
X5411Y1489D1*
X5444Y1502D1*
X5478Y1509D1*
X5513Y1510D1*
X5547Y1505D1*
X5580Y1493D1*
X5611Y1476D1*
X5624Y1466D1*
X5661Y1489D1*
X5694Y1502D1*
X5728Y1509D1*
X5763Y1510D1*
X5797Y1505D1*
X5830Y1493D1*
X5861Y1476D1*
X5888Y1454D1*
X5911Y1428D1*
X5929Y1397D1*
X5941Y1365D1*
X5948Y1313D1*
X5945Y1278D1*
X5936Y1244D1*
X5921Y1212D1*
X5903Y1188D1*
X5929Y1147D1*
X5941Y1115D1*
X5948Y1062D1*
X5945Y1028D1*
X5936Y994D1*
X5921Y962D1*
X5903Y938D1*
X5929Y897D1*
X5941Y865D1*
X5948Y813D1*
X5945Y778D1*
X5936Y744D1*
X5921Y712D1*
X5903Y688D1*
X5929Y647D1*
X5941Y615D1*
X5948Y562D1*
X5945Y528D1*
X5936Y494D1*
X5921Y462D1*
X5903Y438D1*
X5929Y397D1*
X5941Y365D1*
X5948Y313D1*
X5945Y278D1*
X5936Y244D1*
X5921Y212D1*
X5900Y184D1*
X5875Y159D1*
X5846Y140D1*
X5815Y126D1*
X5781Y117D1*
X5746Y115D1*
X5711Y119D1*
X5677Y128D1*
X5646Y144D1*
X5626Y159D1*
X5596Y140D1*
X5565Y126D1*
X5531Y117D1*
X5496Y115D1*
X5461Y119D1*
X5427Y128D1*
X5396Y144D1*
X5376Y159D1*
X5346Y140D1*
X5315Y126D1*
X5281Y117D1*
X5246Y115D1*
X5211Y119D1*
X5177Y128D1*
X5146Y144D1*
X5126Y159D1*
X5096Y140D1*
X5065Y126D1*
X5031Y117D1*
X4996Y115D1*
X4961Y119D1*
X4927Y128D1*
X4896Y144D1*
X4876Y159D1*
X4846Y140D1*
X4815Y126D1*
X4781Y117D1*
X4746Y115D1*
X4711Y119D1*
X4677Y128D1*
X4646Y144D1*
X4618Y165D1*
X4594Y191D1*
X4575Y220D1*
X4562Y252D1*
X4554Y286D1*
X4552Y321D1*
X4557Y356D1*
X4568Y389D1*
X4584Y420D1*
X4597Y436D1*
X4575Y470D1*
X4562Y502D1*
X4554Y536D1*
X4552Y571D1*
X4557Y606D1*
X4568Y639D1*
X4584Y670D1*
X4597Y686D1*
X4575Y720D1*
X4562Y752D1*
X4554Y786D1*
X4552Y821D1*
X4557Y856D1*
X4568Y889D1*
X4584Y920D1*
X4597Y936D1*
X4575Y970D1*
X4562Y1002D1*
X4554Y1036D1*
X4552Y1071D1*
X4557Y1106D1*
X4568Y1139D1*
X4584Y1170D1*
X4597Y1186D1*
X5695Y8105D2*
X5686Y8071D1*
X5671Y8040D1*
X5650Y8011D1*
X5625Y7987D1*
X5596Y7967D1*
X5565Y7953D1*
X5531Y7945D1*
X5496Y7942D1*
X5461Y7946D1*
X5427Y7956D1*
X5396Y7972D1*
X5368Y7993D1*
X5344Y8018D1*
X5325Y8047D1*
X5312Y8080D1*
X5304Y8114D1*
X5302Y8149D1*
X5307Y8183D1*
X5318Y8217D1*
X5334Y8247D1*
X5355Y8275D1*
X5381Y8298D1*
X5411Y8317D1*
X5444Y8330D1*
X5478Y8337D1*
X5513D1*
X5547Y8332D1*
X5580Y8321D1*
X5611Y8304D1*
X5638Y8282D1*
X5661Y8255D1*
X5679Y8225D1*
X5691Y8192D1*
X5698Y8140D1*
X5695Y8105D1*
X3883Y7283D2*
X3851Y7275D1*
X3816Y7272D1*
X3781Y7276D1*
X3747Y7286D1*
X3716Y7302D1*
X3688Y7323D1*
X3664Y7348D1*
X3645Y7377D1*
X3632Y7410D1*
X3624Y7444D1*
X3622Y7479D1*
X3627Y7513D1*
X3638Y7547D1*
X3654Y7577D1*
X3675Y7605D1*
X3701Y7628D1*
X3731Y7647D1*
X3764Y7660D1*
X3798Y7667D1*
X3833D1*
X3867Y7662D1*
X3900Y7651D1*
X3931Y7634D1*
X3958Y7612D1*
X3981Y7585D1*
X3999Y7555D1*
X4005Y7538D1*
X4048Y7547D1*
X4083D1*
X4117Y7542D1*
X4150Y7531D1*
X4181Y7514D1*
X4208Y7492D1*
X4231Y7465D1*
X4249Y7435D1*
X4261Y7402D1*
X4268Y7350D1*
X4265Y7315D1*
X4256Y7281D1*
X4241Y7250D1*
X4220Y7221D1*
X4195Y7197D1*
X4166Y7177D1*
X4135Y7163D1*
X4101Y7155D1*
X4066Y7152D1*
X4031Y7156D1*
X3997Y7166D1*
X3966Y7182D1*
X3938Y7203D1*
X3914Y7228D1*
X3895Y7257D1*
X3885Y7283D1*
X2945Y4653D2*
X2936Y4619D1*
X2921Y4587D1*
X2900Y4559D1*
X2875Y4534D1*
X2846Y4515D1*
X2815Y4501D1*
X2781Y4492D1*
X2746Y4490D1*
X2711Y4494D1*
X2677Y4503D1*
X2646Y4519D1*
X2618Y4540D1*
X2594Y4566D1*
X2575Y4595D1*
X2562Y4627D1*
X2554Y4661D1*
X2552Y4696D1*
X2557Y4731D1*
X2568Y4764D1*
X2584Y4795D1*
X2605Y4823D1*
X2631Y4846D1*
X2661Y4864D1*
X2694Y4877D1*
X2728Y4884D1*
X2763Y4885D1*
X2797Y4880D1*
X2830Y4868D1*
X2861Y4851D1*
X2888Y4829D1*
X2911Y4803D1*
X2929Y4772D1*
X2941Y4740D1*
X2948Y4688D1*
X2945Y4653D1*
X7815Y2295D2*
X7806Y2261D1*
X7791Y2230D1*
X7770Y2201D1*
X7745Y2177D1*
X7716Y2157D1*
X7685Y2143D1*
X7651Y2135D1*
X7616Y2132D1*
X7581Y2136D1*
X7547Y2146D1*
X7516Y2162D1*
X7488Y2183D1*
X7464Y2208D1*
X7445Y2237D1*
X7432Y2270D1*
X7424Y2304D1*
X7422Y2339D1*
X7427Y2373D1*
X7438Y2407D1*
X7454Y2437D1*
X7475Y2465D1*
X7501Y2488D1*
X7531Y2507D1*
X7564Y2520D1*
X7598Y2527D1*
X7633D1*
X7667Y2522D1*
X7700Y2511D1*
X7731Y2494D1*
X7758Y2472D1*
X7781Y2445D1*
X7799Y2415D1*
X7811Y2382D1*
X7818Y2330D1*
X7815Y2295D1*
X1235Y5733D2*
X3478D1*
X3483Y5738D1*
X3469Y5753D1*
X3450Y5782D1*
X3437Y5815D1*
X3429Y5849D1*
X3427Y5884D1*
X3432Y5918D1*
X3443Y5952D1*
X3459Y5982D1*
X3480Y6010D1*
X3492Y6020D1*
Y6281D1*
X3406Y6366D1*
X3385Y6394D1*
X3372Y6426D1*
X3367Y6460D1*
Y7196D1*
X3181Y7381D1*
X3160Y7409D1*
X3147Y7441D1*
X3142Y7475D1*
Y8528D1*
X3119Y8553D1*
X3100Y8582D1*
X3087Y8615D1*
X3079Y8649D1*
X3077Y8684D1*
X3082Y8718D1*
X3093Y8752D1*
X3109Y8782D1*
X3130Y8810D1*
X3156Y8833D1*
X3186Y8852D1*
X3219Y8865D1*
X3253Y8872D1*
X3288D1*
X3322Y8867D1*
X3342Y8861D1*
X3343Y9359D1*
X3349Y9396D1*
X3360Y9432D1*
X3374Y9461D1*
X3392Y9490D1*
X971D1*
X973Y9284D1*
Y8706D1*
X964Y8666D1*
X961Y8653D1*
X974Y8620D1*
X977Y8562D1*
Y7809D1*
X971Y7775D1*
X955Y7744D1*
X929Y7720D1*
X892Y7704D1*
X834Y7702D1*
X75D1*
X72Y7635D1*
Y6545D1*
X91Y6558D1*
X125Y6575D1*
X161Y6587D1*
X192Y6593D1*
X230Y6595D1*
X791D1*
X823Y6591D1*
X859Y6581D1*
X894Y6566D1*
X922Y6549D1*
X951Y6526D1*
X977Y6498D1*
X995Y6471D1*
X1012Y6438D1*
X1025Y6402D1*
X1031Y6370D1*
X1033Y6332D1*
X1032Y5771D1*
X1028Y5739D1*
X1019Y5703D1*
X1003Y5668D1*
X987Y5641D1*
X963Y5611D1*
X935Y5586D1*
X909Y5567D1*
X901Y5562D1*
X931Y5543D1*
X944Y5532D1*
X1106Y5694D1*
X1134Y5715D1*
X1166Y5728D1*
X1200Y5733D1*
X1235D1*
G36*
X775Y3638D2*
X225D1*
X209D1*
X194Y3641D1*
X179Y3645D1*
X164Y3650D1*
X150Y3658D1*
X137Y3666D1*
X125Y3676D1*
X114Y3687D1*
X104Y3699D1*
X95Y3713D1*
X88Y3726D1*
X82Y3741D1*
X78Y3756D1*
X76Y3772D1*
X75Y3788D1*
Y4338D1*
X76Y4353D1*
X78Y4369D1*
X82Y4384D1*
X88Y4399D1*
X95Y4413D1*
X104Y4426D1*
X114Y4438D1*
X125Y4449D1*
X137Y4459D1*
X150Y4467D1*
X164Y4475D1*
X179Y4480D1*
X194Y4484D1*
X209Y4487D1*
X225Y4488D1*
X775D1*
X791Y4487D1*
X806Y4484D1*
X821Y4480D1*
X836Y4475D1*
X850Y4467D1*
X863Y4459D1*
X875Y4449D1*
X886Y4438D1*
X896Y4426D1*
X905Y4413D1*
X912Y4399D1*
X918Y4384D1*
X922Y4369D1*
X924Y4353D1*
X925Y4338D1*
Y3788D1*
X924Y3772D1*
X922Y3756D1*
X918Y3741D1*
X912Y3726D1*
X905Y3713D1*
X896Y3699D1*
X886Y3687D1*
X875Y3676D1*
X863Y3666D1*
X850Y3658D1*
X836Y3650D1*
X821Y3645D1*
X806Y3641D1*
X791Y3638D1*
X775D1*
G37*
G36*
X925Y5338D2*
Y4788D1*
X924Y4772D1*
X922Y4756D1*
X918Y4741D1*
X912Y4726D1*
X905Y4713D1*
X896Y4699D1*
X886Y4687D1*
X875Y4676D1*
X863Y4666D1*
X850Y4658D1*
X836Y4650D1*
X821Y4645D1*
X806Y4641D1*
X791Y4638D1*
X775D1*
X225D1*
X209D1*
X194Y4641D1*
X179Y4645D1*
X164Y4650D1*
X150Y4658D1*
X137Y4666D1*
X125Y4676D1*
X114Y4687D1*
X104Y4699D1*
X95Y4713D1*
X88Y4726D1*
X82Y4741D1*
X78Y4756D1*
X76Y4772D1*
X75Y4788D1*
Y5338D1*
X76Y5353D1*
X78Y5369D1*
X82Y5384D1*
X88Y5399D1*
X95Y5413D1*
X104Y5426D1*
X114Y5438D1*
X125Y5449D1*
X137Y5459D1*
X150Y5467D1*
X164Y5475D1*
X179Y5480D1*
X194Y5484D1*
X209Y5487D1*
X225Y5488D1*
X775D1*
X791Y5487D1*
X806Y5484D1*
X821Y5480D1*
X836Y5475D1*
X850Y5467D1*
X863Y5459D1*
X875Y5449D1*
X886Y5438D1*
X896Y5426D1*
X905Y5413D1*
X912Y5399D1*
X918Y5384D1*
X922Y5369D1*
X924Y5353D1*
X925Y5338D1*
G37*
G36*
X225Y5638D2*
X775D1*
X791D1*
X806Y5641D1*
X821Y5645D1*
X836Y5650D1*
X850Y5658D1*
X863Y5666D1*
X875Y5676D1*
X886Y5687D1*
X896Y5699D1*
X905Y5713D1*
X912Y5726D1*
X918Y5741D1*
X922Y5756D1*
X924Y5772D1*
X925Y5788D1*
Y6338D1*
X924Y6353D1*
X922Y6369D1*
X918Y6384D1*
X912Y6399D1*
X905Y6413D1*
X896Y6426D1*
X886Y6438D1*
X875Y6449D1*
X863Y6459D1*
X850Y6467D1*
X836Y6475D1*
X821Y6480D1*
X806Y6484D1*
X791Y6487D1*
X775Y6488D1*
X225D1*
X209Y6487D1*
X194Y6484D1*
X179Y6480D1*
X164Y6475D1*
X150Y6467D1*
X137Y6459D1*
X125Y6449D1*
X114Y6438D1*
X104Y6426D1*
X95Y6413D1*
X88Y6399D1*
X82Y6384D1*
X78Y6369D1*
X76Y6353D1*
X75Y6338D1*
Y5788D1*
X76Y5772D1*
X78Y5756D1*
X82Y5741D1*
X88Y5726D1*
X95Y5713D1*
X104Y5699D1*
X114Y5687D1*
X125Y5676D1*
X137Y5666D1*
X150Y5658D1*
X164Y5650D1*
X179Y5645D1*
X194Y5641D1*
X209Y5638D1*
X225D1*
G37*
G36*
X925Y6788D2*
Y7338D1*
X924Y7353D1*
X922Y7369D1*
X918Y7384D1*
X912Y7399D1*
X905Y7413D1*
X896Y7426D1*
X886Y7438D1*
X875Y7449D1*
X863Y7459D1*
X850Y7467D1*
X836Y7475D1*
X821Y7480D1*
X806Y7484D1*
X791Y7487D1*
X775Y7488D1*
X225D1*
X209Y7487D1*
X194Y7484D1*
X179Y7480D1*
X164Y7475D1*
X150Y7467D1*
X137Y7459D1*
X125Y7449D1*
X114Y7438D1*
X104Y7426D1*
X95Y7413D1*
X88Y7399D1*
X82Y7384D1*
X78Y7369D1*
X76Y7353D1*
X75Y7338D1*
Y6788D1*
X76Y6772D1*
X78Y6756D1*
X82Y6741D1*
X88Y6726D1*
X95Y6713D1*
X104Y6699D1*
X114Y6687D1*
X125Y6676D1*
X137Y6666D1*
X150Y6658D1*
X164Y6650D1*
X179Y6645D1*
X194Y6641D1*
X209Y6638D1*
X225D1*
X775D1*
X791D1*
X806Y6641D1*
X821Y6645D1*
X836Y6650D1*
X850Y6658D1*
X863Y6666D1*
X875Y6676D1*
X886Y6687D1*
X896Y6699D1*
X905Y6713D1*
X912Y6726D1*
X918Y6741D1*
X922Y6756D1*
X924Y6772D1*
X925Y6788D1*
G37*
G36*
X3450Y8788D2*
Y9338D1*
X3451Y9353D1*
X3453Y9369D1*
X3457Y9384D1*
X3463Y9399D1*
X3470Y9413D1*
X3479Y9426D1*
X3489Y9438D1*
X3500Y9449D1*
X3512Y9459D1*
X3525Y9467D1*
X3539Y9475D1*
X3554Y9480D1*
X3569Y9484D1*
X3584Y9487D1*
X3600Y9488D1*
X4150D1*
X4166Y9487D1*
X4181Y9484D1*
X4196Y9480D1*
X4211Y9475D1*
X4225Y9467D1*
X4238Y9459D1*
X4250Y9449D1*
X4261Y9438D1*
X4271Y9426D1*
X4280Y9413D1*
X4287Y9399D1*
X4293Y9384D1*
X4297Y9369D1*
X4299Y9353D1*
X4300Y9338D1*
Y8788D1*
X4299Y8772D1*
X4297Y8756D1*
X4293Y8741D1*
X4287Y8726D1*
X4280Y8713D1*
X4271Y8699D1*
X4261Y8687D1*
X4250Y8676D1*
X4238Y8666D1*
X4225Y8658D1*
X4211Y8650D1*
X4196Y8645D1*
X4181Y8641D1*
X4166Y8638D1*
X4150D1*
X3600D1*
X3584D1*
X3569Y8641D1*
X3554Y8645D1*
X3539Y8650D1*
X3525Y8658D1*
X3512Y8666D1*
X3500Y8676D1*
X3489Y8687D1*
X3479Y8699D1*
X3470Y8713D1*
X3463Y8726D1*
X3457Y8741D1*
X3453Y8756D1*
X3451Y8772D1*
X3450Y8788D1*
G37*
G36*
X5150Y8638D2*
X4600D1*
X4584D1*
X4569Y8641D1*
X4554Y8645D1*
X4539Y8650D1*
X4525Y8658D1*
X4512Y8666D1*
X4500Y8676D1*
X4489Y8687D1*
X4479Y8699D1*
X4470Y8713D1*
X4463Y8726D1*
X4457Y8741D1*
X4453Y8756D1*
X4451Y8772D1*
X4450Y8788D1*
Y9338D1*
X4451Y9353D1*
X4453Y9369D1*
X4457Y9384D1*
X4463Y9399D1*
X4470Y9413D1*
X4479Y9426D1*
X4489Y9438D1*
X4500Y9449D1*
X4512Y9459D1*
X4525Y9467D1*
X4539Y9475D1*
X4554Y9480D1*
X4569Y9484D1*
X4584Y9487D1*
X4600Y9488D1*
X5150D1*
X5166Y9487D1*
X5181Y9484D1*
X5196Y9480D1*
X5211Y9475D1*
X5225Y9467D1*
X5238Y9459D1*
X5250Y9449D1*
X5261Y9438D1*
X5271Y9426D1*
X5280Y9413D1*
X5287Y9399D1*
X5293Y9384D1*
X5297Y9369D1*
X5299Y9353D1*
X5300Y9338D1*
Y8788D1*
X5299Y8772D1*
X5297Y8756D1*
X5293Y8741D1*
X5287Y8726D1*
X5280Y8713D1*
X5271Y8699D1*
X5261Y8687D1*
X5250Y8676D1*
X5238Y8666D1*
X5225Y8658D1*
X5211Y8650D1*
X5196Y8645D1*
X5181Y8641D1*
X5166Y8638D1*
X5150D1*
G37*
G36*
X5450Y9338D2*
Y8788D1*
X5451Y8772D1*
X5453Y8756D1*
X5457Y8741D1*
X5463Y8726D1*
X5470Y8713D1*
X5479Y8699D1*
X5489Y8687D1*
X5500Y8676D1*
X5512Y8666D1*
X5525Y8658D1*
X5539Y8650D1*
X5554Y8645D1*
X5569Y8641D1*
X5584Y8638D1*
X5600D1*
X6150D1*
X6166D1*
X6181Y8641D1*
X6196Y8645D1*
X6211Y8650D1*
X6225Y8658D1*
X6238Y8666D1*
X6250Y8676D1*
X6261Y8687D1*
X6271Y8699D1*
X6280Y8713D1*
X6287Y8726D1*
X6293Y8741D1*
X6297Y8756D1*
X6299Y8772D1*
X6300Y8788D1*
Y9338D1*
X6299Y9353D1*
X6297Y9369D1*
X6293Y9384D1*
X6287Y9399D1*
X6280Y9413D1*
X6271Y9426D1*
X6261Y9438D1*
X6250Y9449D1*
X6238Y9459D1*
X6225Y9467D1*
X6211Y9475D1*
X6196Y9480D1*
X6181Y9484D1*
X6166Y9487D1*
X6150Y9488D1*
X5600D1*
X5584Y9487D1*
X5569Y9484D1*
X5554Y9480D1*
X5539Y9475D1*
X5525Y9467D1*
X5512Y9459D1*
X5500Y9449D1*
X5489Y9438D1*
X5479Y9426D1*
X5470Y9413D1*
X5463Y9399D1*
X5457Y9384D1*
X5453Y9369D1*
X5451Y9353D1*
X5450Y9338D1*
G37*
G36*
X6600Y8638D2*
X7150D1*
X7166D1*
X7181Y8641D1*
X7196Y8645D1*
X7211Y8650D1*
X7225Y8658D1*
X7238Y8666D1*
X7250Y8676D1*
X7261Y8687D1*
X7271Y8699D1*
X7280Y8713D1*
X7287Y8726D1*
X7293Y8741D1*
X7297Y8756D1*
X7299Y8772D1*
X7300Y8788D1*
Y9338D1*
X7299Y9353D1*
X7297Y9369D1*
X7293Y9384D1*
X7287Y9399D1*
X7280Y9413D1*
X7271Y9426D1*
X7261Y9438D1*
X7250Y9449D1*
X7238Y9459D1*
X7225Y9467D1*
X7211Y9475D1*
X7196Y9480D1*
X7181Y9484D1*
X7166Y9487D1*
X7150Y9488D1*
X6600D1*
X6584Y9487D1*
X6569Y9484D1*
X6554Y9480D1*
X6539Y9475D1*
X6525Y9467D1*
X6512Y9459D1*
X6500Y9449D1*
X6489Y9438D1*
X6479Y9426D1*
X6470Y9413D1*
X6463Y9399D1*
X6457Y9384D1*
X6453Y9369D1*
X6451Y9353D1*
X6450Y9338D1*
Y8788D1*
X6451Y8772D1*
X6453Y8756D1*
X6457Y8741D1*
X6463Y8726D1*
X6470Y8713D1*
X6479Y8699D1*
X6489Y8687D1*
X6500Y8676D1*
X6512Y8666D1*
X6525Y8658D1*
X6539Y8650D1*
X6554Y8645D1*
X6569Y8641D1*
X6584Y8638D1*
X6600D1*
G37*
G36*
X4375Y337D2*
Y1287D1*
X4374Y1303D1*
X4372Y1319D1*
X4368Y1334D1*
X4362Y1349D1*
X4355Y1362D1*
X4346Y1376D1*
X4336Y1388D1*
X4325Y1399D1*
X4313Y1409D1*
X4300Y1417D1*
X4286Y1425D1*
X4271Y1430D1*
X4256Y1434D1*
X4241Y1437D1*
X4225D1*
X3275D1*
X3259D1*
X3244Y1434D1*
X3229Y1430D1*
X3214Y1425D1*
X3200Y1417D1*
X3187Y1409D1*
X3175Y1399D1*
X3164Y1388D1*
X3154Y1376D1*
X3145Y1362D1*
X3138Y1349D1*
X3132Y1334D1*
X3128Y1319D1*
X3126Y1303D1*
X3125Y1287D1*
Y337D1*
X3126Y322D1*
X3128Y306D1*
X3132Y291D1*
X3138Y276D1*
X3145Y262D1*
X3154Y249D1*
X3164Y237D1*
X3175Y226D1*
X3187Y216D1*
X3200Y208D1*
X3214Y200D1*
X3229Y195D1*
X3244Y191D1*
X3259Y188D1*
X3275Y187D1*
X4225D1*
X4241Y188D1*
X4256Y191D1*
X4271Y195D1*
X4286Y200D1*
X4300Y208D1*
X4313Y216D1*
X4325Y226D1*
X4336Y237D1*
X4346Y249D1*
X4355Y262D1*
X4362Y276D1*
X4368Y291D1*
X4372Y306D1*
X4374Y322D1*
X4375Y337D1*
G37*
G36*
X8531Y8647D2*
X9319D1*
Y7859D1*
X8531D1*
Y8647D1*
G37*
G36*
X9315Y8756D2*
X8527D1*
Y9544D1*
X9315D1*
Y8756D1*
G37*
G36*
X81Y8597D2*
X869D1*
Y7809D1*
X81D1*
Y8597D1*
G37*
G36*
X865Y8706D2*
X77D1*
Y9494D1*
X865D1*
Y8706D1*
G37*
G36*
X9294Y978D2*
X8506D1*
Y1766D1*
X9294D1*
Y978D1*
G37*
G36*
X8510Y869D2*
X9298D1*
Y81D1*
X8510D1*
Y869D1*
G37*
G36*
X869Y1003D2*
X81D1*
Y1791D1*
X869D1*
Y1003D1*
G37*
G36*
X85Y894D2*
X873D1*
Y106D1*
X85D1*
Y894D1*
G37*
M02*
