G04 DipTrace Beta 2.3.5.2*
%INLulfroMiniBrush.G3L*%
%MOIN*%
%ADD13C,0.015*%
%ADD18C,0.005*%
%ADD19C,0.007*%
%ADD44C,0.018*%
%FSLAX44Y44*%
G04*
G70*
G90*
G75*
G01*
%LNInner2*%
%LPD*%
X5550Y3125D2*
D13*
X5400Y3275D1*
Y8040D1*
X5500Y8140D1*
X500Y6063D2*
X830D1*
X2363D1*
X3525Y7225D1*
Y7550D1*
X4015Y8040D1*
X5400D1*
X820Y6060D2*
Y6063D1*
X3820Y7470D2*
D18*
X3812D1*
Y7062D1*
X3438Y6688D1*
Y5375D1*
X2750Y4688D1*
X7620Y2330D2*
X5790D1*
X5210Y2910D1*
Y7540D1*
X5150Y7600D1*
X4320D1*
X4070Y7350D1*
X510Y3370D2*
D13*
X578Y3438D1*
X1188D1*
X1340Y3590D1*
X2270D1*
X5625Y3625D2*
X6375Y2875D1*
X7938D1*
X2312Y6688D2*
X3937Y8313D1*
X4500D1*
X5875Y6813D2*
X6187Y7125D1*
Y8375D1*
X6125Y8438D1*
X4625D1*
X4500Y8313D1*
X9040Y5840D2*
X8818Y6062D1*
X6438D1*
X5875Y6625D1*
Y6813D1*
X9040Y5840D2*
X8813Y5613D1*
Y5187D1*
X8940Y5060D1*
X9090D1*
X9188Y4962D1*
Y3500D1*
X9000Y3313D1*
X8063D1*
X7938Y3188D1*
Y2875D1*
Y2250D1*
X7500Y1812D1*
X5313D1*
X4313Y2812D1*
X3938D1*
X3160Y3590D1*
X2270D1*
D44*
X5500Y8140D3*
X8513Y2988D3*
X530Y2300D3*
X7210Y6400D3*
X5025Y4475D3*
X3820Y7470D3*
X2750Y4688D3*
X3275Y8675D3*
X3625Y5875D3*
X7620Y2330D3*
X4070Y7350D3*
X3625Y5600D3*
X8050Y4330D3*
X4520Y4270D3*
X4500Y8313D3*
X2312Y6688D3*
X5875Y6813D3*
X5625Y3625D3*
X7938Y2875D3*
X9090Y5060D3*
X510Y3370D3*
X2270Y3590D3*
X4125Y3125D3*
X5550D3*
X3687Y6563D3*
X9040Y5840D3*
X7910Y6330D3*
X5600Y9350D3*
X6150D3*
Y8775D3*
X5600D3*
X5700Y7190D3*
X7430Y7970D3*
X6700Y3425D3*
X5000Y6250D3*
X2975Y6275D3*
X9050Y5325D3*
X3650Y5275D3*
X6490Y5040D3*
X6300Y4000D3*
X8284Y4150D3*
X1375Y3062D3*
X4270Y4170D3*
X725Y1675D3*
X475D3*
X225D3*
Y1475D3*
X475D3*
X725D3*
Y1175D3*
X225D3*
X8250Y6688D3*
X8125Y7375D3*
X7875Y7125D3*
X8375Y7375D3*
X7875D3*
X8000Y6688D3*
X7500Y6563D3*
X8500Y6688D3*
X225Y7925D3*
X475D3*
X725D3*
Y8125D3*
X475D3*
X225D3*
Y8425D3*
X725D3*
X8675Y7975D3*
X8925D3*
X9175D3*
Y8175D3*
X8925D3*
X8675D3*
Y8475D3*
X9175D3*
X9150Y1650D3*
X8900D3*
X8650D3*
Y1450D3*
X8900D3*
X9150D3*
Y1150D3*
X8650D3*
X7875Y6875D3*
X8875Y7625D3*
X2000Y1562D3*
X8625Y7375D3*
Y7125D3*
Y6875D3*
X2250Y1562D3*
X2500D3*
X3500D3*
X2250Y1313D3*
X2750Y1562D3*
X3000D3*
X3250D3*
X2500Y1062D3*
X2750D3*
X3000D3*
Y1313D3*
X3250Y1000D3*
Y1313D3*
X3563D3*
X3938D3*
X4250D3*
Y1000D3*
X3250Y625D3*
Y313D3*
X3563D3*
X3938D3*
X4250D3*
Y625D3*
X4750Y1313D3*
X5000D3*
X5250D3*
X5500D3*
X5750D3*
Y1062D3*
Y813D3*
Y562D3*
Y313D3*
X5500D3*
X5250D3*
X5000D3*
X4750D3*
Y562D3*
Y813D3*
Y1063D3*
X5563Y1125D3*
X4938D3*
Y500D3*
X5563D3*
X8875Y7375D3*
X9125D3*
Y7625D3*
X8625D3*
X6250Y438D3*
X7000Y688D3*
Y438D3*
X6125Y688D3*
X6187Y1000D3*
X6375Y688D3*
X6688D3*
X6250Y187D3*
X7000D3*
X7250Y438D3*
Y187D3*
X7500D3*
X2870Y9190D3*
X2900Y8940D3*
X2187Y8938D3*
X2438D3*
X2688D3*
X2937Y8625D3*
X2438Y8375D3*
X2688D3*
X2187D3*
X2937Y8125D3*
Y8375D3*
X2187Y8688D3*
Y9187D3*
X8625Y4188D3*
X8938D3*
X1060Y2320D3*
Y2130D3*
X1688Y3188D3*
Y2875D3*
X2000D3*
Y3188D3*
X187Y7625D3*
X500D3*
X813D3*
X2125Y7437D3*
X250Y6813D3*
X750D3*
Y7312D3*
X250D3*
X2875Y2563D3*
X3250D3*
X3625D3*
X4540Y9070D3*
X5200D3*
X4870Y9380D3*
Y8740D3*
X500Y6380D3*
X820Y6060D3*
X500Y5740D3*
X180Y6060D3*
X979Y9421D2*
D19*
X3349D1*
X5401D2*
X6350D1*
X7401D2*
X8412D1*
X979Y9353D2*
X3336D1*
X5414D2*
X6337D1*
X7414D2*
X8412D1*
X979Y9284D2*
X3335D1*
X5414D2*
X6335D1*
X7415D2*
X8412D1*
X979Y9215D2*
X3335D1*
X5414D2*
X6335D1*
X7415D2*
X8412D1*
X979Y9147D2*
X3335D1*
X5414D2*
X6335D1*
X7415D2*
X8412D1*
X979Y9078D2*
X3335D1*
X5414D2*
X6335D1*
X7415D2*
X8412D1*
X979Y9009D2*
X3335D1*
X5414D2*
X6335D1*
X7415D2*
X8412D1*
X979Y8940D2*
X3335D1*
X5414D2*
X6335D1*
X7415D2*
X8412D1*
X979Y8872D2*
X3250D1*
X3300D2*
X3335D1*
X5414D2*
X6335D1*
X7415D2*
X8412D1*
X979Y8803D2*
X3118D1*
X5414D2*
X6335D1*
X7415D2*
X8412D1*
X979Y8734D2*
X3079D1*
X5409D2*
X6341D1*
X7409D2*
X8415D1*
X971Y8666D2*
X3071D1*
X5384D2*
X6366D1*
X7384D2*
X8418D1*
X983Y8597D2*
X3086D1*
X4330D2*
X4419D1*
X6221D2*
X6420D1*
X7331D2*
X8417D1*
X983Y8528D2*
X3135D1*
X3415D2*
X4451D1*
X6299D2*
X8417D1*
X983Y8460D2*
X3822D1*
X6356D2*
X8417D1*
X983Y8391D2*
X3751D1*
X6377D2*
X8417D1*
X983Y8322D2*
X3682D1*
X6377D2*
X8417D1*
X983Y8254D2*
X3613D1*
X4707D2*
X5331D1*
X5669D2*
X5997D1*
X6377D2*
X8417D1*
X983Y8185D2*
X3544D1*
X5700D2*
X5997D1*
X6377D2*
X8417D1*
X983Y8116D2*
X3476D1*
X5703D2*
X5997D1*
X6377D2*
X8417D1*
X983Y8048D2*
X3407D1*
X5682D2*
X5997D1*
X6377D2*
X8417D1*
X983Y7979D2*
X3339D1*
X5621D2*
X5997D1*
X6377D2*
X8417D1*
X983Y7910D2*
X3270D1*
X5589D2*
X5997D1*
X6377D2*
X8417D1*
X983Y7841D2*
X3201D1*
X4082D2*
X5210D1*
X5589D2*
X5997D1*
X6377D2*
X8418D1*
X977Y7773D2*
X3133D1*
X4013D2*
X5210D1*
X5589D2*
X5997D1*
X6377D2*
X8461D1*
X898Y7704D2*
X3064D1*
X3944D2*
X4231D1*
X5589D2*
X5997D1*
X6377D2*
X9295D1*
X79Y7635D2*
X2995D1*
X3936D2*
X4161D1*
X5589D2*
X5997D1*
X6377D2*
X9295D1*
X79Y7567D2*
X2926D1*
X3999D2*
X4092D1*
X5589D2*
X5997D1*
X6377D2*
X9295D1*
X79Y7498D2*
X2857D1*
X5589D2*
X5997D1*
X6377D2*
X9295D1*
X79Y7429D2*
X2789D1*
X4343D2*
X5070D1*
X5589D2*
X5997D1*
X6377D2*
X9295D1*
X79Y7361D2*
X2721D1*
X3251D2*
X3335D1*
X4276D2*
X5070D1*
X5589D2*
X5997D1*
X6377D2*
X9295D1*
X79Y7292D2*
X2652D1*
X3182D2*
X3327D1*
X4266D2*
X5070D1*
X5589D2*
X5997D1*
X6377D2*
X9295D1*
X79Y7223D2*
X2583D1*
X3114D2*
X3258D1*
X4229D2*
X5070D1*
X5589D2*
X5997D1*
X6377D2*
X9295D1*
X79Y7155D2*
X2514D1*
X3045D2*
X3190D1*
X3952D2*
X4033D1*
X4107D2*
X5070D1*
X5589D2*
X5952D1*
X6377D2*
X9295D1*
X79Y7086D2*
X2446D1*
X2976D2*
X3121D1*
X3952D2*
X5070D1*
X5589D2*
X5883D1*
X6373D2*
X9295D1*
X79Y7017D2*
X2377D1*
X2907D2*
X3052D1*
X3944D2*
X5070D1*
X5589D2*
X5815D1*
X6342D2*
X9295D1*
X79Y6949D2*
X2308D1*
X2838D2*
X2983D1*
X3893D2*
X5070D1*
X5589D2*
X5725D1*
X6276D2*
X9295D1*
X79Y6880D2*
X2239D1*
X2771D2*
X2914D1*
X3824D2*
X5070D1*
X5589D2*
X5682D1*
X6207D2*
X9295D1*
X79Y6811D2*
X2152D1*
X2702D2*
X2846D1*
X3756D2*
X5070D1*
X5589D2*
X5670D1*
X6139D2*
X9295D1*
X79Y6742D2*
X2116D1*
X2633D2*
X2777D1*
X3776D2*
X5070D1*
X5589D2*
X5684D1*
X6071D2*
X9295D1*
X79Y6674D2*
X2108D1*
X2564D2*
X2709D1*
X3239D2*
X3298D1*
X3858D2*
X5070D1*
X5589D2*
X5686D1*
X6091D2*
X9295D1*
X79Y6605D2*
X2126D1*
X2499D2*
X2640D1*
X3171D2*
X3298D1*
X3887D2*
X5070D1*
X5589D2*
X5687D1*
X6160D2*
X9295D1*
X945Y6536D2*
X2178D1*
X2447D2*
X2571D1*
X3102D2*
X3298D1*
X3891D2*
X5070D1*
X5589D2*
X5709D1*
X6229D2*
X7059D1*
X7360D2*
X9295D1*
X1004Y6468D2*
X2503D1*
X3033D2*
X3298D1*
X3868D2*
X5070D1*
X5589D2*
X5767D1*
X6298D2*
X7017D1*
X7403D2*
X9295D1*
X1032Y6399D2*
X2434D1*
X2964D2*
X3298D1*
X3805D2*
X5070D1*
X5589D2*
X5836D1*
X6366D2*
X7005D1*
X7415D2*
X9295D1*
X1039Y6330D2*
X2365D1*
X2895D2*
X3298D1*
X3577D2*
X5070D1*
X5589D2*
X5904D1*
X6435D2*
X7018D1*
X7402D2*
X9295D1*
X1039Y6262D2*
X2296D1*
X2828D2*
X3298D1*
X3577D2*
X5070D1*
X5589D2*
X5973D1*
X6504D2*
X7062D1*
X7358D2*
X9295D1*
X2759Y6193D2*
X3298D1*
X3577D2*
X5070D1*
X5589D2*
X6041D1*
X8953D2*
X9295D1*
X2690Y6124D2*
X3298D1*
X3577D2*
X5070D1*
X5589D2*
X6110D1*
X9021D2*
X9295D1*
X2621Y6056D2*
X3298D1*
X3712D2*
X5070D1*
X5589D2*
X6179D1*
X9089D2*
X9295D1*
X2552Y5987D2*
X3298D1*
X3794D2*
X5070D1*
X5589D2*
X6248D1*
X9179D2*
X9295D1*
X2482Y5918D2*
X3298D1*
X3825D2*
X5070D1*
X5589D2*
X6318D1*
X9228D2*
X9295D1*
X1039Y5850D2*
X3298D1*
X3828D2*
X5070D1*
X5589D2*
X8765D1*
X9245D2*
X9295D1*
X1039Y5781D2*
X3298D1*
X3805D2*
X5070D1*
X5589D2*
X8715D1*
X9236D2*
X9295D1*
X1028Y5712D2*
X3298D1*
X3794D2*
X5070D1*
X5589D2*
X8652D1*
X9198D2*
X9295D1*
X996Y5643D2*
X3298D1*
X3825D2*
X5070D1*
X5589D2*
X8626D1*
X9109D2*
X9295D1*
X928Y5575D2*
X3298D1*
X3828D2*
X5070D1*
X5589D2*
X8622D1*
X9040D2*
X9295D1*
X977Y5506D2*
X3298D1*
X3806D2*
X5070D1*
X5589D2*
X8622D1*
X9002D2*
X9295D1*
X1020Y5437D2*
X3298D1*
X3769D2*
X5070D1*
X5589D2*
X8622D1*
X9002D2*
X9295D1*
X1038Y5369D2*
X3237D1*
X3831D2*
X5070D1*
X5589D2*
X8622D1*
X9002D2*
X9295D1*
X1039Y5300D2*
X3168D1*
X3853D2*
X5070D1*
X5589D2*
X8622D1*
X9002D2*
X9295D1*
X1039Y5231D2*
X3099D1*
X3850D2*
X5070D1*
X5589D2*
X6434D1*
X6546D2*
X8622D1*
X9195D2*
X9295D1*
X1039Y5163D2*
X3030D1*
X3419D2*
X3481D1*
X3820D2*
X5070D1*
X5589D2*
X6328D1*
X6652D2*
X8625D1*
X9266D2*
X9295D1*
X1039Y5094D2*
X2962D1*
X3351D2*
X3564D1*
X3736D2*
X5070D1*
X5589D2*
X6293D1*
X6687D2*
X8649D1*
X1039Y5025D2*
X2893D1*
X3283D2*
X5070D1*
X5589D2*
X6286D1*
X6694D2*
X8709D1*
X1039Y4957D2*
X2824D1*
X3214D2*
X5070D1*
X5589D2*
X6304D1*
X6676D2*
X8778D1*
X1039Y4888D2*
X2756D1*
X3145D2*
X5070D1*
X5589D2*
X6356D1*
X6623D2*
X8872D1*
X1039Y4819D2*
X2596D1*
X3076D2*
X5070D1*
X5589D2*
X8998D1*
X1037Y4751D2*
X2555D1*
X3008D2*
X5070D1*
X5589D2*
X8998D1*
X1017Y4682D2*
X2546D1*
X2954D2*
X5070D1*
X5589D2*
X8998D1*
X971Y4613D2*
X2560D1*
X2940D2*
X4876D1*
X5589D2*
X8998D1*
X935Y4544D2*
X2607D1*
X2893D2*
X4833D1*
X5589D2*
X8998D1*
X999Y4476D2*
X4821D1*
X5589D2*
X7909D1*
X8190D2*
X8998D1*
X1029Y4407D2*
X4371D1*
X4669D2*
X4833D1*
X5589D2*
X7861D1*
X8239D2*
X8998D1*
X1039Y4338D2*
X4160D1*
X4712D2*
X4875D1*
X5589D2*
X7846D1*
X8351D2*
X8998D1*
X1039Y4270D2*
X4092D1*
X4725D2*
X5070D1*
X5589D2*
X7855D1*
X8448D2*
X8998D1*
X1039Y4201D2*
X4068D1*
X4712D2*
X5070D1*
X5589D2*
X7893D1*
X8482D2*
X8998D1*
X1039Y4132D2*
X4069D1*
X4669D2*
X5070D1*
X5589D2*
X6146D1*
X6453D2*
X8039D1*
X8488D2*
X8998D1*
X1039Y4064D2*
X4097D1*
X4444D2*
X5070D1*
X5589D2*
X6106D1*
X6494D2*
X8100D1*
X8469D2*
X8998D1*
X1039Y3995D2*
X4171D1*
X4369D2*
X5070D1*
X5589D2*
X6096D1*
X6505D2*
X8154D1*
X8413D2*
X8998D1*
X1039Y3926D2*
X5070D1*
X5589D2*
X6110D1*
X6491D2*
X8998D1*
X1039Y3858D2*
X5070D1*
X5589D2*
X6156D1*
X6445D2*
X8998D1*
X1039Y3789D2*
X5070D1*
X5742D2*
X8998D1*
X1031Y3720D2*
X1205D1*
X3295D2*
X5070D1*
X5805D2*
X8998D1*
X1001Y3652D2*
X1136D1*
X3363D2*
X5070D1*
X5864D2*
X8998D1*
X3432Y3583D2*
X5070D1*
X5933D2*
X8998D1*
X79Y3514D2*
X368D1*
X3501D2*
X5070D1*
X6002D2*
X8936D1*
X79Y3445D2*
X320D1*
X3570D2*
X5070D1*
X6069D2*
X7930D1*
X79Y3377D2*
X306D1*
X1393D2*
X3108D1*
X3638D2*
X5070D1*
X6138D2*
X7861D1*
X79Y3308D2*
X315D1*
X1324D2*
X3177D1*
X3707D2*
X4044D1*
X4207D2*
X5070D1*
X5632D2*
X5677D1*
X6207D2*
X7793D1*
X9261D2*
X9295D1*
X79Y3239D2*
X355D1*
X665D2*
X1280D1*
X1470D2*
X3246D1*
X3776D2*
X3957D1*
X4293D2*
X5070D1*
X5718D2*
X5745D1*
X6276D2*
X7755D1*
X9192D2*
X9295D1*
X79Y3171D2*
X1202D1*
X1548D2*
X3314D1*
X3845D2*
X3926D1*
X4324D2*
X5070D1*
X5749D2*
X5814D1*
X6345D2*
X7747D1*
X9122D2*
X9295D1*
X79Y3102D2*
X1174D1*
X1575D2*
X3382D1*
X4328D2*
X5070D1*
X5753D2*
X5883D1*
X6413D2*
X7747D1*
X8127D2*
X8345D1*
X8680D2*
X9295D1*
X79Y3033D2*
X1173D1*
X1577D2*
X3451D1*
X4307D2*
X5070D1*
X5733D2*
X5952D1*
X8127D2*
X8313D1*
X8712D2*
X9295D1*
X79Y2965D2*
X1196D1*
X1553D2*
X3520D1*
X4420D2*
X5070D1*
X5350D2*
X5428D1*
X5672D2*
X6020D1*
X8127D2*
X8310D1*
X8716D2*
X9295D1*
X79Y2896D2*
X1262D1*
X1489D2*
X3589D1*
X4494D2*
X5071D1*
X5419D2*
X6088D1*
X8141D2*
X8330D1*
X8694D2*
X9295D1*
X79Y2827D2*
X3658D1*
X4563D2*
X5099D1*
X5488D2*
X6157D1*
X8137D2*
X8389D1*
X8635D2*
X9295D1*
X79Y2759D2*
X3726D1*
X4632D2*
X5167D1*
X5556D2*
X6226D1*
X8127D2*
X9295D1*
X79Y2690D2*
X3795D1*
X4700D2*
X5235D1*
X5624D2*
X7747D1*
X8127D2*
X9295D1*
X79Y2621D2*
X4239D1*
X4769D2*
X5304D1*
X5693D2*
X7747D1*
X8127D2*
X9295D1*
X79Y2553D2*
X4308D1*
X4838D2*
X5373D1*
X5762D2*
X7747D1*
X8127D2*
X9295D1*
X79Y2484D2*
X450D1*
X609D2*
X4375D1*
X4907D2*
X5442D1*
X5831D2*
X7489D1*
X8127D2*
X9295D1*
X79Y2415D2*
X362D1*
X698D2*
X4444D1*
X4976D2*
X5511D1*
X8127D2*
X9295D1*
X79Y2346D2*
X331D1*
X729D2*
X4513D1*
X5043D2*
X5579D1*
X8127D2*
X9295D1*
X79Y2278D2*
X326D1*
X733D2*
X4582D1*
X5112D2*
X5647D1*
X8127D2*
X9295D1*
X79Y2209D2*
X347D1*
X712D2*
X4651D1*
X5181D2*
X5728D1*
X8122D2*
X9295D1*
X79Y2140D2*
X406D1*
X653D2*
X4719D1*
X5250D2*
X7557D1*
X8091D2*
X9295D1*
X79Y2072D2*
X4788D1*
X5319D2*
X7494D1*
X8025D2*
X9295D1*
X79Y2003D2*
X4857D1*
X5387D2*
X7425D1*
X7956D2*
X9295D1*
X79Y1934D2*
X4926D1*
X7887D2*
X9295D1*
X953Y1866D2*
X4994D1*
X7818D2*
X8459D1*
X983Y1797D2*
X5062D1*
X7749D2*
X8396D1*
X983Y1728D2*
X5131D1*
X7682D2*
X8392D1*
X983Y1660D2*
X5206D1*
X7607D2*
X8392D1*
X983Y1591D2*
X8392D1*
X983Y1522D2*
X8392D1*
X983Y1454D2*
X4604D1*
X5896D2*
X8392D1*
X983Y1385D2*
X4559D1*
X5941D2*
X8392D1*
X983Y1316D2*
X4545D1*
X5955D2*
X8392D1*
X983Y1247D2*
X4556D1*
X5944D2*
X8392D1*
X983Y1179D2*
X4583D1*
X5916D2*
X8392D1*
X983Y1110D2*
X4552D1*
X5949D2*
X8392D1*
X983Y1041D2*
X4546D1*
X5953D2*
X8392D1*
X979Y973D2*
X4567D1*
X5933D2*
X8392D1*
X987Y904D2*
X4568D1*
X5933D2*
X8402D1*
X988Y835D2*
X4547D1*
X5953D2*
X8396D1*
X988Y767D2*
X4550D1*
X5949D2*
X8396D1*
X988Y698D2*
X4582D1*
X5918D2*
X8396D1*
X988Y629D2*
X4557D1*
X5943D2*
X8396D1*
X988Y561D2*
X4545D1*
X5955D2*
X8396D1*
X988Y492D2*
X4558D1*
X5941D2*
X8396D1*
X988Y423D2*
X4579D1*
X5921D2*
X8396D1*
X988Y355D2*
X4549D1*
X5950D2*
X8396D1*
X988Y286D2*
X4547D1*
X5952D2*
X8396D1*
X988Y217D2*
X4570D1*
X5931D2*
X8396D1*
X988Y148D2*
X4632D1*
X5867D2*
X8396D1*
X983Y80D2*
X8396D1*
X393Y3530D2*
X204Y3531D1*
X167Y3536D1*
X130Y3548D1*
X101Y3562D1*
X73Y3580D1*
X72Y1898D1*
X869D1*
X903Y1893D1*
X934Y1876D1*
X958Y1851D1*
X974Y1814D1*
X977Y1756D1*
Y1003D1*
X968Y963D1*
X965Y950D1*
X978Y917D1*
X980Y859D1*
Y100D1*
X982Y72D1*
X8404D1*
X8402Y151D1*
Y869D1*
X8411Y909D1*
X8414Y922D1*
X8401Y955D1*
X8398Y1013D1*
Y1766D1*
X8404Y1800D1*
X8420Y1831D1*
X8446Y1855D1*
X8483Y1871D1*
X8541Y1873D1*
X9300D1*
X9303Y1927D1*
Y3357D1*
X9129Y3183D1*
X9102Y3161D1*
X9072Y3144D1*
X9038Y3134D1*
X9000Y3130D1*
X8651Y3129D1*
X8673Y3103D1*
X8691Y3072D1*
X8703Y3040D1*
X8710Y2988D1*
X8707Y2953D1*
X8698Y2919D1*
X8683Y2887D1*
X8663Y2859D1*
X8638Y2834D1*
X8609Y2815D1*
X8577Y2801D1*
X8543Y2792D1*
X8508Y2790D1*
X8473Y2794D1*
X8440Y2803D1*
X8409Y2819D1*
X8381Y2840D1*
X8357Y2866D1*
X8338Y2895D1*
X8324Y2927D1*
X8316Y2961D1*
X8315Y2996D1*
X8319Y3031D1*
X8330Y3064D1*
X8346Y3095D1*
X8377Y3131D1*
X8195Y3130D1*
X8137D1*
X8120Y3083D1*
Y2950D1*
X8128Y2927D1*
X8135Y2875D1*
X8132Y2840D1*
X8120Y2800D1*
Y2250D1*
X8117Y2215D1*
X8107Y2182D1*
X8091Y2151D1*
X8067Y2121D1*
X7629Y1683D1*
X7602Y1661D1*
X7572Y1644D1*
X7538Y1634D1*
X7500Y1630D1*
X5313D1*
X5278Y1633D1*
X5244Y1643D1*
X5213Y1659D1*
X5183Y1683D1*
X4237Y2629D1*
X3938Y2630D1*
X3903Y2633D1*
X3869Y2643D1*
X3838Y2659D1*
X3808Y2683D1*
X3084Y3408D1*
X2565Y3407D1*
X2345D1*
X2301Y3395D1*
X2266Y3392D1*
X2231Y3396D1*
X2195Y3407D1*
X1416D1*
X1317Y3308D1*
X1290Y3286D1*
X1259Y3269D1*
X1226Y3259D1*
X1188Y3255D1*
X670D1*
X660Y3241D1*
X635Y3217D1*
X606Y3197D1*
X575Y3183D1*
X541Y3175D1*
X506Y3172D1*
X471Y3176D1*
X437Y3186D1*
X406Y3202D1*
X378Y3223D1*
X354Y3248D1*
X335Y3277D1*
X322Y3310D1*
X314Y3344D1*
X312Y3379D1*
X317Y3413D1*
X328Y3447D1*
X344Y3477D1*
X365Y3505D1*
X394Y3530D1*
X1033Y6303D2*
Y6245D1*
X1250D1*
X2288D1*
X2530Y6489D1*
X3343Y7302D1*
X3342Y7458D1*
X2494Y6611D1*
X2483Y6587D1*
X2463Y6559D1*
X2438Y6534D1*
X2409Y6515D1*
X2377Y6501D1*
X2343Y6492D1*
X2308Y6490D1*
X2273Y6494D1*
X2240Y6503D1*
X2209Y6519D1*
X2181Y6540D1*
X2157Y6566D1*
X2138Y6595D1*
X2124Y6627D1*
X2116Y6661D1*
X2115Y6696D1*
X2119Y6731D1*
X2130Y6764D1*
X2146Y6795D1*
X2168Y6823D1*
X2194Y6846D1*
X2235Y6869D1*
X3808Y8442D1*
X3835Y8464D1*
X3866Y8481D1*
X3899Y8491D1*
X3937Y8495D1*
X4424D1*
X4486Y8557D1*
X4466Y8567D1*
X4436Y8589D1*
X4412Y8611D1*
X4389Y8640D1*
X4375Y8662D1*
X4355Y8632D1*
X4330Y8604D1*
X4306Y8582D1*
X4275Y8562D1*
X4240Y8546D1*
X4209Y8537D1*
X4172Y8531D1*
X4115Y8530D1*
X3579Y8531D1*
X3542Y8536D1*
X3505Y8548D1*
X3476Y8562D1*
X3448Y8579D1*
X3425Y8546D1*
X3400Y8522D1*
X3371Y8502D1*
X3340Y8488D1*
X3306Y8480D1*
X3271Y8477D1*
X3236Y8481D1*
X3202Y8491D1*
X3171Y8507D1*
X3143Y8528D1*
X3119Y8553D1*
X3100Y8582D1*
X3087Y8615D1*
X3079Y8649D1*
X3077Y8684D1*
X3082Y8718D1*
X3093Y8752D1*
X3109Y8782D1*
X3130Y8810D1*
X3156Y8833D1*
X3186Y8852D1*
X3219Y8865D1*
X3253Y8872D1*
X3288D1*
X3322Y8867D1*
X3342Y8860D1*
X3343Y9359D1*
X3349Y9396D1*
X3360Y9432D1*
X3374Y9461D1*
X3392Y9490D1*
X971D1*
X973Y9284D1*
Y8706D1*
X964Y8666D1*
X961Y8653D1*
X974Y8620D1*
X977Y8562D1*
Y7809D1*
X971Y7775D1*
X955Y7744D1*
X929Y7720D1*
X892Y7704D1*
X834Y7702D1*
X75D1*
X72Y7635D1*
Y6545D1*
X91Y6558D1*
X125Y6575D1*
X161Y6587D1*
X192Y6593D1*
X230Y6595D1*
X791D1*
X823Y6591D1*
X859Y6581D1*
X894Y6566D1*
X922Y6549D1*
X951Y6526D1*
X977Y6498D1*
X995Y6471D1*
X1012Y6438D1*
X1025Y6402D1*
X1031Y6370D1*
X1033Y6332D1*
Y6303D1*
X5408Y9303D2*
X5407Y8766D1*
X5401Y8729D1*
X5390Y8693D1*
X5376Y8664D1*
X5356Y8632D1*
X5346Y8620D1*
X6125D1*
X6160Y8617D1*
X6193Y8607D1*
X6224Y8591D1*
X6254Y8567D1*
X6317Y8504D1*
X6339Y8477D1*
X6356Y8447D1*
X6366Y8413D1*
X6370Y8375D1*
Y7125D1*
X6367Y7090D1*
X6357Y7057D1*
X6341Y7026D1*
X6317Y6996D1*
X6058Y6737D1*
Y6700D1*
X6514Y6245D1*
X7033D1*
X7086D1*
X7054Y6278D1*
X7035Y6307D1*
X7022Y6340D1*
X7014Y6374D1*
X7012Y6409D1*
X7017Y6443D1*
X7028Y6477D1*
X7044Y6507D1*
X7065Y6535D1*
X7091Y6558D1*
X7121Y6577D1*
X7154Y6590D1*
X7188Y6597D1*
X7223D1*
X7257Y6592D1*
X7290Y6581D1*
X7321Y6564D1*
X7348Y6542D1*
X7371Y6515D1*
X7389Y6485D1*
X7401Y6452D1*
X7408Y6400D1*
X7405Y6365D1*
X7396Y6331D1*
X7381Y6300D1*
X7360Y6271D1*
X7333Y6245D1*
X8818D1*
X8852Y6242D1*
X8886Y6232D1*
X8917Y6216D1*
X8947Y6192D1*
X9116Y6022D1*
X9151Y6004D1*
X9178Y5982D1*
X9201Y5955D1*
X9219Y5925D1*
X9231Y5892D1*
X9238Y5840D1*
X9235Y5805D1*
X9226Y5771D1*
X9211Y5740D1*
X9190Y5711D1*
X9165Y5687D1*
X9136Y5667D1*
X9117Y5659D1*
X8995Y5537D1*
Y5264D1*
X9034Y5250D1*
X9068Y5257D1*
X9103D1*
X9137Y5252D1*
X9170Y5241D1*
X9201Y5224D1*
X9228Y5202D1*
X9251Y5175D1*
X9272Y5136D1*
X9303Y5106D1*
Y6372D1*
Y7752D1*
X8531D1*
X8497Y7757D1*
X8466Y7774D1*
X8442Y7799D1*
X8426Y7836D1*
X8423Y7894D1*
Y8647D1*
X8432Y8687D1*
X8435Y8700D1*
X8422Y8733D1*
X8420Y8791D1*
Y9490D1*
X7357D1*
X7370Y9471D1*
X7387Y9438D1*
X7400Y9402D1*
X7406Y9370D1*
X7408Y9332D1*
X7407Y8771D1*
X7403Y8739D1*
X7394Y8703D1*
X7378Y8668D1*
X7362Y8641D1*
X7338Y8611D1*
X7310Y8586D1*
X7284Y8567D1*
X7250Y8550D1*
X7214Y8538D1*
X7183Y8532D1*
X7145Y8530D1*
X6584D1*
X6552Y8534D1*
X6516Y8544D1*
X6481Y8559D1*
X6453Y8576D1*
X6424Y8599D1*
X6398Y8627D1*
X6380Y8654D1*
X6363Y8687D1*
X6350Y8723D1*
X6344Y8755D1*
X6342Y8793D1*
X6343Y9354D1*
X6347Y9386D1*
X6356Y9422D1*
X6372Y9457D1*
X6388Y9484D1*
X6392Y9490D1*
X5357D1*
X5377Y9460D1*
X5388Y9437D1*
X5400Y9402D1*
X5406Y9370D1*
X5408Y9332D1*
Y9303D1*
X5692Y6739D2*
X5687Y6752D1*
X5679Y6786D1*
X5677Y6821D1*
X5682Y6856D1*
X5693Y6889D1*
X5709Y6920D1*
X5730Y6948D1*
X5756Y6971D1*
X5797Y6994D1*
X6005Y7201D1*
Y8255D1*
X5660D1*
X5679Y8225D1*
X5691Y8192D1*
X5698Y8140D1*
X5695Y8105D1*
X5686Y8071D1*
X5671Y8040D1*
X5650Y8011D1*
X5625Y7987D1*
X5596Y7967D1*
X5583Y7961D1*
Y7340D1*
Y3817D1*
X5603Y3822D1*
X5638D1*
X5672Y3817D1*
X5705Y3806D1*
X5736Y3789D1*
X5763Y3767D1*
X5786Y3740D1*
X5807Y3701D1*
X6451Y3057D1*
X7754Y3058D1*
X7755Y3188D1*
X7758Y3222D1*
X7768Y3256D1*
X7784Y3287D1*
X7808Y3317D1*
X7933Y3442D1*
X7960Y3464D1*
X7991Y3481D1*
X8024Y3491D1*
X8063Y3495D1*
X8925D1*
X9005Y3576D1*
Y4877D1*
X8940D1*
X8905Y4881D1*
X8872Y4890D1*
X8841Y4907D1*
X8811Y4931D1*
X8683Y5058D1*
X8661Y5085D1*
X8644Y5116D1*
X8634Y5149D1*
X8630Y5187D1*
Y5613D1*
X8633Y5647D1*
X8643Y5681D1*
X8659Y5712D1*
X8683Y5742D1*
X8781Y5840D1*
X8741Y5880D1*
X6438D1*
X6403Y5883D1*
X6369Y5893D1*
X6338Y5909D1*
X6308Y5933D1*
X5746Y6496D1*
X5724Y6523D1*
X5707Y6553D1*
X5696Y6587D1*
X5692Y6625D1*
Y6738D1*
X2196Y3773D2*
X2214Y3780D1*
X2248Y3787D1*
X2283D1*
X2317Y3782D1*
X2345Y3772D1*
X3160Y3773D1*
X3195Y3769D1*
X3228Y3760D1*
X3259Y3743D1*
X3289Y3719D1*
X3933Y3075D1*
X3929Y3099D1*
X3927Y3134D1*
X3932Y3168D1*
X3943Y3202D1*
X3959Y3232D1*
X3980Y3260D1*
X4006Y3283D1*
X4036Y3302D1*
X4069Y3315D1*
X4103Y3322D1*
X4138D1*
X4172Y3317D1*
X4205Y3306D1*
X4236Y3289D1*
X4263Y3267D1*
X4286Y3240D1*
X4304Y3210D1*
X4316Y3177D1*
X4323Y3125D1*
X4320Y3090D1*
X4311Y3056D1*
X4296Y3025D1*
X4275Y2996D1*
X4313Y2995D1*
X4347Y2992D1*
X4381Y2982D1*
X4412Y2966D1*
X4442Y2942D1*
X5388Y1996D1*
X6293Y1995D1*
X7425D1*
X7568Y2139D1*
X7547Y2146D1*
X7516Y2162D1*
X7488Y2183D1*
X7474Y2198D1*
X5790Y2197D1*
X5755Y2202D1*
X5723Y2215D1*
X5696Y2236D1*
X5116Y2816D1*
X5095Y2844D1*
X5082Y2876D1*
X5077Y2910D1*
Y4285D1*
X5056Y4280D1*
X5021Y4277D1*
X4986Y4281D1*
X4952Y4291D1*
X4921Y4307D1*
X4893Y4328D1*
X4869Y4353D1*
X4850Y4382D1*
X4837Y4415D1*
X4829Y4449D1*
X4827Y4484D1*
X4832Y4518D1*
X4843Y4552D1*
X4859Y4582D1*
X4880Y4610D1*
X4906Y4633D1*
X4936Y4652D1*
X4969Y4665D1*
X5003Y4672D1*
X5038D1*
X5078Y4665D1*
X5077Y7468D1*
X4375Y7467D1*
X4268Y7360D1*
X4265Y7315D1*
X4256Y7281D1*
X4241Y7250D1*
X4220Y7221D1*
X4195Y7197D1*
X4166Y7177D1*
X4135Y7163D1*
X4101Y7155D1*
X4066Y7152D1*
X4031Y7156D1*
X3997Y7166D1*
X3966Y7182D1*
X3944Y7198D1*
X3945Y7062D1*
X3941Y7028D1*
X3927Y6996D1*
X3906Y6969D1*
X3698Y6761D1*
X3735Y6755D1*
X3768Y6743D1*
X3799Y6726D1*
X3826Y6704D1*
X3848Y6678D1*
X3866Y6647D1*
X3878Y6615D1*
X3885Y6563D1*
X3882Y6528D1*
X3873Y6494D1*
X3858Y6462D1*
X3838Y6434D1*
X3813Y6409D1*
X3784Y6390D1*
X3752Y6376D1*
X3718Y6367D1*
X3683Y6365D1*
X3648Y6369D1*
X3615Y6378D1*
X3584Y6394D1*
X3571Y6404D1*
X3570Y6065D1*
X3603Y6072D1*
X3638D1*
X3672Y6067D1*
X3705Y6056D1*
X3736Y6039D1*
X3763Y6017D1*
X3786Y5990D1*
X3804Y5960D1*
X3816Y5927D1*
X3823Y5875D1*
X3820Y5840D1*
X3811Y5806D1*
X3796Y5775D1*
X3767Y5738D1*
X3786Y5715D1*
X3804Y5685D1*
X3816Y5652D1*
X3823Y5600D1*
X3820Y5565D1*
X3811Y5531D1*
X3796Y5500D1*
X3775Y5471D1*
X3749Y5446D1*
X3788Y5417D1*
X3811Y5390D1*
X3829Y5360D1*
X3841Y5327D1*
X3848Y5275D1*
X3845Y5240D1*
X3836Y5206D1*
X3821Y5175D1*
X3800Y5146D1*
X3775Y5122D1*
X3746Y5102D1*
X3715Y5088D1*
X3681Y5080D1*
X3646Y5077D1*
X3611Y5081D1*
X3577Y5091D1*
X3546Y5107D1*
X3518Y5128D1*
X3494Y5153D1*
X3475Y5182D1*
X3463Y5212D1*
X3309Y5058D1*
X2947Y4697D1*
X2945Y4653D1*
X2936Y4619D1*
X2921Y4587D1*
X2900Y4559D1*
X2875Y4534D1*
X2846Y4515D1*
X2815Y4501D1*
X2781Y4492D1*
X2746Y4490D1*
X2711Y4494D1*
X2677Y4503D1*
X2646Y4519D1*
X2618Y4540D1*
X2594Y4566D1*
X2575Y4595D1*
X2562Y4627D1*
X2554Y4661D1*
X2552Y4696D1*
X2557Y4731D1*
X2568Y4764D1*
X2584Y4795D1*
X2605Y4823D1*
X2631Y4846D1*
X2661Y4864D1*
X2694Y4877D1*
X2728Y4884D1*
X2760Y4885D1*
X3305Y5430D1*
Y6688D1*
X3309Y6722D1*
X3323Y6754D1*
X3344Y6781D1*
X3680Y7118D1*
X3678Y7126D1*
X3654Y7096D1*
X2492Y5933D1*
X2465Y5911D1*
X2434Y5894D1*
X2401Y5884D1*
X2363Y5880D1*
X1033Y5879D1*
X1032Y5766D1*
X1026Y5729D1*
X1015Y5693D1*
X1001Y5664D1*
X981Y5632D1*
X955Y5604D1*
X931Y5582D1*
X901Y5562D1*
X931Y5543D1*
X959Y5518D1*
X980Y5494D1*
X1001Y5462D1*
X1016Y5427D1*
X1026Y5397D1*
X1032Y5360D1*
X1033Y5303D1*
X1032Y4766D1*
X1026Y4729D1*
X1015Y4693D1*
X1001Y4664D1*
X981Y4632D1*
X955Y4604D1*
X931Y4582D1*
X901Y4562D1*
X931Y4543D1*
X959Y4518D1*
X980Y4494D1*
X1001Y4462D1*
X1016Y4427D1*
X1026Y4397D1*
X1032Y4360D1*
X1033Y4303D1*
X1032Y3766D1*
X1026Y3729D1*
X1015Y3693D1*
X1001Y3664D1*
X981Y3632D1*
X970Y3620D1*
X1112D1*
X1211Y3719D1*
X1238Y3741D1*
X1268Y3758D1*
X1302Y3769D1*
X1340Y3773D1*
X2194D1*
X5745Y3090D2*
X5736Y3056D1*
X5721Y3025D1*
X5700Y2996D1*
X5675Y2972D1*
X5646Y2952D1*
X5615Y2938D1*
X5581Y2930D1*
X5546Y2927D1*
X5511Y2931D1*
X5477Y2941D1*
X5446Y2957D1*
X5418Y2978D1*
X5394Y3003D1*
X5375Y3032D1*
X5369Y3047D1*
X5343Y3060D1*
Y2965D1*
X5845Y2463D1*
X6945D1*
X7473D1*
X7501Y2488D1*
X7531Y2507D1*
X7564Y2520D1*
X7598Y2527D1*
X7633D1*
X7667Y2522D1*
X7700Y2511D1*
X7731Y2494D1*
X7756Y2474D1*
X7755Y2693D1*
X7343Y2692D1*
X6375D1*
X6340Y2696D1*
X6307Y2705D1*
X6276Y2722D1*
X6246Y2746D1*
X5583Y3409D1*
Y3351D1*
X5626Y3308D1*
X5661Y3289D1*
X5688Y3267D1*
X5711Y3240D1*
X5729Y3210D1*
X5741Y3177D1*
X5748Y3125D1*
X5745Y3090D1*
X6685Y5005D2*
X6676Y4971D1*
X6661Y4940D1*
X6640Y4911D1*
X6615Y4887D1*
X6586Y4867D1*
X6555Y4853D1*
X6521Y4845D1*
X6486Y4842D1*
X6451Y4846D1*
X6417Y4856D1*
X6386Y4872D1*
X6358Y4893D1*
X6334Y4918D1*
X6315Y4947D1*
X6302Y4980D1*
X6294Y5014D1*
X6292Y5049D1*
X6297Y5083D1*
X6308Y5117D1*
X6324Y5147D1*
X6345Y5175D1*
X6371Y5198D1*
X6401Y5217D1*
X6434Y5230D1*
X6468Y5237D1*
X6503D1*
X6537Y5232D1*
X6570Y5221D1*
X6601Y5204D1*
X6628Y5182D1*
X6651Y5155D1*
X6669Y5125D1*
X6681Y5092D1*
X6688Y5040D1*
X6685Y5005D1*
X6495Y3965D2*
X6486Y3931D1*
X6471Y3900D1*
X6450Y3871D1*
X6425Y3847D1*
X6396Y3827D1*
X6365Y3813D1*
X6331Y3805D1*
X6296Y3802D1*
X6261Y3806D1*
X6227Y3816D1*
X6196Y3832D1*
X6168Y3853D1*
X6144Y3878D1*
X6125Y3907D1*
X6112Y3940D1*
X6104Y3974D1*
X6102Y4009D1*
X6107Y4043D1*
X6118Y4077D1*
X6134Y4107D1*
X6155Y4135D1*
X6181Y4158D1*
X6211Y4177D1*
X6244Y4190D1*
X6278Y4197D1*
X6313D1*
X6347Y4192D1*
X6380Y4181D1*
X6411Y4164D1*
X6438Y4142D1*
X6461Y4115D1*
X6479Y4085D1*
X6491Y4052D1*
X6498Y4000D1*
X6495Y3965D1*
X8479Y4115D2*
X8470Y4081D1*
X8455Y4050D1*
X8434Y4021D1*
X8409Y3997D1*
X8381Y3977D1*
X8349Y3963D1*
X8315Y3955D1*
X8280Y3952D1*
X8245Y3956D1*
X8212Y3966D1*
X8180Y3982D1*
X8152Y4003D1*
X8128Y4028D1*
X8109Y4057D1*
X8096Y4090D1*
X8088Y4136D1*
X8046Y4132D1*
X8011Y4136D1*
X7977Y4146D1*
X7946Y4162D1*
X7918Y4183D1*
X7894Y4208D1*
X7875Y4237D1*
X7862Y4270D1*
X7854Y4304D1*
X7852Y4339D1*
X7857Y4373D1*
X7868Y4407D1*
X7884Y4437D1*
X7905Y4465D1*
X7931Y4488D1*
X7961Y4507D1*
X7994Y4520D1*
X8028Y4527D1*
X8063D1*
X8097Y4522D1*
X8130Y4511D1*
X8161Y4494D1*
X8188Y4472D1*
X8211Y4445D1*
X8229Y4415D1*
X8241Y4382D1*
X8247Y4344D1*
X8297Y4347D1*
X8332Y4342D1*
X8365Y4331D1*
X8395Y4314D1*
X8422Y4292D1*
X8445Y4265D1*
X8463Y4235D1*
X8475Y4202D1*
X8482Y4150D1*
X8479Y4115D1*
X1570Y3028D2*
X1561Y2994D1*
X1546Y2962D1*
X1525Y2934D1*
X1500Y2909D1*
X1471Y2890D1*
X1440Y2876D1*
X1406Y2867D1*
X1371Y2865D1*
X1336Y2869D1*
X1302Y2878D1*
X1271Y2894D1*
X1243Y2915D1*
X1219Y2941D1*
X1200Y2970D1*
X1187Y3002D1*
X1179Y3036D1*
X1177Y3071D1*
X1182Y3106D1*
X1193Y3139D1*
X1209Y3170D1*
X1230Y3197D1*
X1256Y3221D1*
X1286Y3239D1*
X1319Y3252D1*
X1353Y3259D1*
X1388Y3260D1*
X1422Y3255D1*
X1455Y3243D1*
X1486Y3226D1*
X1513Y3204D1*
X1536Y3178D1*
X1554Y3147D1*
X1566Y3115D1*
X1573Y3062D1*
X1570Y3028D1*
X4449Y4087D2*
X4441Y4070D1*
X4420Y4041D1*
X4395Y4017D1*
X4366Y3997D1*
X4335Y3983D1*
X4301Y3975D1*
X4266Y3972D1*
X4231Y3976D1*
X4197Y3986D1*
X4166Y4002D1*
X4138Y4023D1*
X4114Y4048D1*
X4095Y4077D1*
X4082Y4110D1*
X4074Y4144D1*
X4072Y4179D1*
X4077Y4213D1*
X4088Y4247D1*
X4104Y4277D1*
X4125Y4305D1*
X4151Y4328D1*
X4181Y4347D1*
X4214Y4360D1*
X4248Y4367D1*
X4283D1*
X4317Y4362D1*
X4341Y4354D1*
X4354Y4377D1*
X4375Y4405D1*
X4401Y4428D1*
X4431Y4447D1*
X4464Y4460D1*
X4498Y4467D1*
X4533D1*
X4567Y4462D1*
X4600Y4451D1*
X4631Y4434D1*
X4658Y4412D1*
X4681Y4385D1*
X4699Y4355D1*
X4711Y4322D1*
X4718Y4270D1*
X4715Y4235D1*
X4706Y4201D1*
X4691Y4170D1*
X4670Y4141D1*
X4645Y4117D1*
X4616Y4097D1*
X4585Y4083D1*
X4551Y4075D1*
X4516Y4072D1*
X4481Y4076D1*
X4448Y4086D1*
X4597Y1188D2*
X4575Y1220D1*
X4562Y1252D1*
X4554Y1286D1*
X4552Y1321D1*
X4557Y1356D1*
X4568Y1389D1*
X4584Y1420D1*
X4605Y1448D1*
X4631Y1471D1*
X4661Y1489D1*
X4694Y1502D1*
X4728Y1509D1*
X4763Y1510D1*
X4797Y1505D1*
X4830Y1493D1*
X4861Y1476D1*
X4874Y1466D1*
X4911Y1489D1*
X4944Y1502D1*
X4978Y1509D1*
X5013Y1510D1*
X5047Y1505D1*
X5080Y1493D1*
X5111Y1476D1*
X5124Y1466D1*
X5161Y1489D1*
X5194Y1502D1*
X5228Y1509D1*
X5263Y1510D1*
X5297Y1505D1*
X5330Y1493D1*
X5361Y1476D1*
X5374Y1466D1*
X5411Y1489D1*
X5444Y1502D1*
X5478Y1509D1*
X5513Y1510D1*
X5547Y1505D1*
X5580Y1493D1*
X5611Y1476D1*
X5624Y1466D1*
X5661Y1489D1*
X5694Y1502D1*
X5728Y1509D1*
X5763Y1510D1*
X5797Y1505D1*
X5830Y1493D1*
X5861Y1476D1*
X5888Y1454D1*
X5911Y1428D1*
X5929Y1397D1*
X5941Y1365D1*
X5948Y1313D1*
X5945Y1278D1*
X5936Y1244D1*
X5921Y1212D1*
X5903Y1188D1*
X5929Y1147D1*
X5941Y1115D1*
X5948Y1062D1*
X5945Y1028D1*
X5936Y994D1*
X5921Y962D1*
X5903Y938D1*
X5929Y897D1*
X5941Y865D1*
X5948Y813D1*
X5945Y778D1*
X5936Y744D1*
X5921Y712D1*
X5903Y688D1*
X5929Y647D1*
X5941Y615D1*
X5948Y562D1*
X5945Y528D1*
X5936Y494D1*
X5921Y462D1*
X5903Y438D1*
X5929Y397D1*
X5941Y365D1*
X5948Y313D1*
X5945Y278D1*
X5936Y244D1*
X5921Y212D1*
X5900Y184D1*
X5875Y159D1*
X5846Y140D1*
X5815Y126D1*
X5781Y117D1*
X5746Y115D1*
X5711Y119D1*
X5677Y128D1*
X5646Y144D1*
X5626Y159D1*
X5596Y140D1*
X5565Y126D1*
X5531Y117D1*
X5496Y115D1*
X5461Y119D1*
X5427Y128D1*
X5396Y144D1*
X5376Y159D1*
X5346Y140D1*
X5315Y126D1*
X5281Y117D1*
X5246Y115D1*
X5211Y119D1*
X5177Y128D1*
X5146Y144D1*
X5126Y159D1*
X5096Y140D1*
X5065Y126D1*
X5031Y117D1*
X4996Y115D1*
X4961Y119D1*
X4927Y128D1*
X4896Y144D1*
X4876Y159D1*
X4846Y140D1*
X4815Y126D1*
X4781Y117D1*
X4746Y115D1*
X4711Y119D1*
X4677Y128D1*
X4646Y144D1*
X4618Y165D1*
X4594Y191D1*
X4575Y220D1*
X4562Y252D1*
X4554Y286D1*
X4552Y321D1*
X4557Y356D1*
X4568Y389D1*
X4584Y420D1*
X4597Y436D1*
X4575Y470D1*
X4562Y502D1*
X4554Y536D1*
X4552Y571D1*
X4557Y606D1*
X4568Y639D1*
X4584Y670D1*
X4597Y686D1*
X4575Y720D1*
X4562Y752D1*
X4554Y786D1*
X4552Y821D1*
X4557Y856D1*
X4568Y889D1*
X4584Y920D1*
X4597Y936D1*
X4575Y970D1*
X4562Y1002D1*
X4554Y1036D1*
X4552Y1071D1*
X4557Y1106D1*
X4568Y1139D1*
X4584Y1170D1*
X4597Y1186D1*
X5217Y7715D2*
Y7857D1*
X4091D1*
X3888Y7655D1*
X3900Y7651D1*
X3931Y7634D1*
X3958Y7612D1*
X3981Y7585D1*
X3999Y7555D1*
X4005Y7538D1*
X4048Y7547D1*
X4080D1*
X4226Y7694D1*
X4254Y7715D1*
X4286Y7728D1*
X4320Y7733D1*
X5150D1*
X5185Y7728D1*
X5218Y7714D1*
X5188Y7727D1*
X5321Y8223D2*
X5340Y8255D1*
X4700D1*
X4715Y8223D1*
X5320D1*
X725Y2265D2*
X716Y2231D1*
X701Y2200D1*
X680Y2171D1*
X655Y2147D1*
X626Y2127D1*
X595Y2113D1*
X561Y2105D1*
X526Y2102D1*
X491Y2106D1*
X457Y2116D1*
X426Y2132D1*
X398Y2153D1*
X374Y2178D1*
X355Y2207D1*
X342Y2240D1*
X334Y2274D1*
X332Y2309D1*
X337Y2343D1*
X348Y2377D1*
X364Y2407D1*
X385Y2435D1*
X411Y2458D1*
X441Y2477D1*
X474Y2490D1*
X508Y2497D1*
X543D1*
X577Y2492D1*
X610Y2481D1*
X641Y2464D1*
X668Y2442D1*
X691Y2415D1*
X709Y2385D1*
X721Y2352D1*
X728Y2300D1*
X725Y2265D1*
G36*
X775Y3638D2*
X225D1*
X209D1*
X194Y3641D1*
X179Y3645D1*
X164Y3650D1*
X150Y3658D1*
X137Y3666D1*
X125Y3676D1*
X114Y3687D1*
X104Y3699D1*
X95Y3713D1*
X88Y3726D1*
X82Y3741D1*
X78Y3756D1*
X76Y3772D1*
X75Y3788D1*
Y4338D1*
X76Y4353D1*
X78Y4369D1*
X82Y4384D1*
X88Y4399D1*
X95Y4413D1*
X104Y4426D1*
X114Y4438D1*
X125Y4449D1*
X137Y4459D1*
X150Y4467D1*
X164Y4475D1*
X179Y4480D1*
X194Y4484D1*
X209Y4487D1*
X225Y4488D1*
X775D1*
X791Y4487D1*
X806Y4484D1*
X821Y4480D1*
X836Y4475D1*
X850Y4467D1*
X863Y4459D1*
X875Y4449D1*
X886Y4438D1*
X896Y4426D1*
X905Y4413D1*
X912Y4399D1*
X918Y4384D1*
X922Y4369D1*
X924Y4353D1*
X925Y4338D1*
Y3788D1*
X924Y3772D1*
X922Y3756D1*
X918Y3741D1*
X912Y3726D1*
X905Y3713D1*
X896Y3699D1*
X886Y3687D1*
X875Y3676D1*
X863Y3666D1*
X850Y3658D1*
X836Y3650D1*
X821Y3645D1*
X806Y3641D1*
X791Y3638D1*
X775D1*
G37*
G36*
X925Y5338D2*
Y4788D1*
X924Y4772D1*
X922Y4756D1*
X918Y4741D1*
X912Y4726D1*
X905Y4713D1*
X896Y4699D1*
X886Y4687D1*
X875Y4676D1*
X863Y4666D1*
X850Y4658D1*
X836Y4650D1*
X821Y4645D1*
X806Y4641D1*
X791Y4638D1*
X775D1*
X225D1*
X209D1*
X194Y4641D1*
X179Y4645D1*
X164Y4650D1*
X150Y4658D1*
X137Y4666D1*
X125Y4676D1*
X114Y4687D1*
X104Y4699D1*
X95Y4713D1*
X88Y4726D1*
X82Y4741D1*
X78Y4756D1*
X76Y4772D1*
X75Y4788D1*
Y5338D1*
X76Y5353D1*
X78Y5369D1*
X82Y5384D1*
X88Y5399D1*
X95Y5413D1*
X104Y5426D1*
X114Y5438D1*
X125Y5449D1*
X137Y5459D1*
X150Y5467D1*
X164Y5475D1*
X179Y5480D1*
X194Y5484D1*
X209Y5487D1*
X225Y5488D1*
X775D1*
X791Y5487D1*
X806Y5484D1*
X821Y5480D1*
X836Y5475D1*
X850Y5467D1*
X863Y5459D1*
X875Y5449D1*
X886Y5438D1*
X896Y5426D1*
X905Y5413D1*
X912Y5399D1*
X918Y5384D1*
X922Y5369D1*
X924Y5353D1*
X925Y5338D1*
G37*
G36*
X225Y5638D2*
X775D1*
X791D1*
X806Y5641D1*
X821Y5645D1*
X836Y5650D1*
X850Y5658D1*
X863Y5666D1*
X875Y5676D1*
X886Y5687D1*
X896Y5699D1*
X905Y5713D1*
X912Y5726D1*
X918Y5741D1*
X922Y5756D1*
X924Y5772D1*
X925Y5788D1*
Y6338D1*
X924Y6353D1*
X922Y6369D1*
X918Y6384D1*
X912Y6399D1*
X905Y6413D1*
X896Y6426D1*
X886Y6438D1*
X875Y6449D1*
X863Y6459D1*
X850Y6467D1*
X836Y6475D1*
X821Y6480D1*
X806Y6484D1*
X791Y6487D1*
X775Y6488D1*
X225D1*
X209Y6487D1*
X194Y6484D1*
X179Y6480D1*
X164Y6475D1*
X150Y6467D1*
X137Y6459D1*
X125Y6449D1*
X114Y6438D1*
X104Y6426D1*
X95Y6413D1*
X88Y6399D1*
X82Y6384D1*
X78Y6369D1*
X76Y6353D1*
X75Y6338D1*
Y5788D1*
X76Y5772D1*
X78Y5756D1*
X82Y5741D1*
X88Y5726D1*
X95Y5713D1*
X104Y5699D1*
X114Y5687D1*
X125Y5676D1*
X137Y5666D1*
X150Y5658D1*
X164Y5650D1*
X179Y5645D1*
X194Y5641D1*
X209Y5638D1*
X225D1*
G37*
G36*
X925Y6788D2*
Y7338D1*
X924Y7353D1*
X922Y7369D1*
X918Y7384D1*
X912Y7399D1*
X905Y7413D1*
X896Y7426D1*
X886Y7438D1*
X875Y7449D1*
X863Y7459D1*
X850Y7467D1*
X836Y7475D1*
X821Y7480D1*
X806Y7484D1*
X791Y7487D1*
X775Y7488D1*
X225D1*
X209Y7487D1*
X194Y7484D1*
X179Y7480D1*
X164Y7475D1*
X150Y7467D1*
X137Y7459D1*
X125Y7449D1*
X114Y7438D1*
X104Y7426D1*
X95Y7413D1*
X88Y7399D1*
X82Y7384D1*
X78Y7369D1*
X76Y7353D1*
X75Y7338D1*
Y6788D1*
X76Y6772D1*
X78Y6756D1*
X82Y6741D1*
X88Y6726D1*
X95Y6713D1*
X104Y6699D1*
X114Y6687D1*
X125Y6676D1*
X137Y6666D1*
X150Y6658D1*
X164Y6650D1*
X179Y6645D1*
X194Y6641D1*
X209Y6638D1*
X225D1*
X775D1*
X791D1*
X806Y6641D1*
X821Y6645D1*
X836Y6650D1*
X850Y6658D1*
X863Y6666D1*
X875Y6676D1*
X886Y6687D1*
X896Y6699D1*
X905Y6713D1*
X912Y6726D1*
X918Y6741D1*
X922Y6756D1*
X924Y6772D1*
X925Y6788D1*
G37*
G36*
X3450Y8788D2*
Y9338D1*
X3451Y9353D1*
X3453Y9369D1*
X3457Y9384D1*
X3463Y9399D1*
X3470Y9413D1*
X3479Y9426D1*
X3489Y9438D1*
X3500Y9449D1*
X3512Y9459D1*
X3525Y9467D1*
X3539Y9475D1*
X3554Y9480D1*
X3569Y9484D1*
X3584Y9487D1*
X3600Y9488D1*
X4150D1*
X4166Y9487D1*
X4181Y9484D1*
X4196Y9480D1*
X4211Y9475D1*
X4225Y9467D1*
X4238Y9459D1*
X4250Y9449D1*
X4261Y9438D1*
X4271Y9426D1*
X4280Y9413D1*
X4287Y9399D1*
X4293Y9384D1*
X4297Y9369D1*
X4299Y9353D1*
X4300Y9338D1*
Y8788D1*
X4299Y8772D1*
X4297Y8756D1*
X4293Y8741D1*
X4287Y8726D1*
X4280Y8713D1*
X4271Y8699D1*
X4261Y8687D1*
X4250Y8676D1*
X4238Y8666D1*
X4225Y8658D1*
X4211Y8650D1*
X4196Y8645D1*
X4181Y8641D1*
X4166Y8638D1*
X4150D1*
X3600D1*
X3584D1*
X3569Y8641D1*
X3554Y8645D1*
X3539Y8650D1*
X3525Y8658D1*
X3512Y8666D1*
X3500Y8676D1*
X3489Y8687D1*
X3479Y8699D1*
X3470Y8713D1*
X3463Y8726D1*
X3457Y8741D1*
X3453Y8756D1*
X3451Y8772D1*
X3450Y8788D1*
G37*
G36*
X5150Y8638D2*
X4600D1*
X4584D1*
X4569Y8641D1*
X4554Y8645D1*
X4539Y8650D1*
X4525Y8658D1*
X4512Y8666D1*
X4500Y8676D1*
X4489Y8687D1*
X4479Y8699D1*
X4470Y8713D1*
X4463Y8726D1*
X4457Y8741D1*
X4453Y8756D1*
X4451Y8772D1*
X4450Y8788D1*
Y9338D1*
X4451Y9353D1*
X4453Y9369D1*
X4457Y9384D1*
X4463Y9399D1*
X4470Y9413D1*
X4479Y9426D1*
X4489Y9438D1*
X4500Y9449D1*
X4512Y9459D1*
X4525Y9467D1*
X4539Y9475D1*
X4554Y9480D1*
X4569Y9484D1*
X4584Y9487D1*
X4600Y9488D1*
X5150D1*
X5166Y9487D1*
X5181Y9484D1*
X5196Y9480D1*
X5211Y9475D1*
X5225Y9467D1*
X5238Y9459D1*
X5250Y9449D1*
X5261Y9438D1*
X5271Y9426D1*
X5280Y9413D1*
X5287Y9399D1*
X5293Y9384D1*
X5297Y9369D1*
X5299Y9353D1*
X5300Y9338D1*
Y8788D1*
X5299Y8772D1*
X5297Y8756D1*
X5293Y8741D1*
X5287Y8726D1*
X5280Y8713D1*
X5271Y8699D1*
X5261Y8687D1*
X5250Y8676D1*
X5238Y8666D1*
X5225Y8658D1*
X5211Y8650D1*
X5196Y8645D1*
X5181Y8641D1*
X5166Y8638D1*
X5150D1*
G37*
G36*
X5450Y9338D2*
Y8788D1*
X5451Y8772D1*
X5453Y8756D1*
X5457Y8741D1*
X5463Y8726D1*
X5470Y8713D1*
X5479Y8699D1*
X5489Y8687D1*
X5500Y8676D1*
X5512Y8666D1*
X5525Y8658D1*
X5539Y8650D1*
X5554Y8645D1*
X5569Y8641D1*
X5584Y8638D1*
X5600D1*
X6150D1*
X6166D1*
X6181Y8641D1*
X6196Y8645D1*
X6211Y8650D1*
X6225Y8658D1*
X6238Y8666D1*
X6250Y8676D1*
X6261Y8687D1*
X6271Y8699D1*
X6280Y8713D1*
X6287Y8726D1*
X6293Y8741D1*
X6297Y8756D1*
X6299Y8772D1*
X6300Y8788D1*
Y9338D1*
X6299Y9353D1*
X6297Y9369D1*
X6293Y9384D1*
X6287Y9399D1*
X6280Y9413D1*
X6271Y9426D1*
X6261Y9438D1*
X6250Y9449D1*
X6238Y9459D1*
X6225Y9467D1*
X6211Y9475D1*
X6196Y9480D1*
X6181Y9484D1*
X6166Y9487D1*
X6150Y9488D1*
X5600D1*
X5584Y9487D1*
X5569Y9484D1*
X5554Y9480D1*
X5539Y9475D1*
X5525Y9467D1*
X5512Y9459D1*
X5500Y9449D1*
X5489Y9438D1*
X5479Y9426D1*
X5470Y9413D1*
X5463Y9399D1*
X5457Y9384D1*
X5453Y9369D1*
X5451Y9353D1*
X5450Y9338D1*
G37*
G36*
X6600Y8638D2*
X7150D1*
X7166D1*
X7181Y8641D1*
X7196Y8645D1*
X7211Y8650D1*
X7225Y8658D1*
X7238Y8666D1*
X7250Y8676D1*
X7261Y8687D1*
X7271Y8699D1*
X7280Y8713D1*
X7287Y8726D1*
X7293Y8741D1*
X7297Y8756D1*
X7299Y8772D1*
X7300Y8788D1*
Y9338D1*
X7299Y9353D1*
X7297Y9369D1*
X7293Y9384D1*
X7287Y9399D1*
X7280Y9413D1*
X7271Y9426D1*
X7261Y9438D1*
X7250Y9449D1*
X7238Y9459D1*
X7225Y9467D1*
X7211Y9475D1*
X7196Y9480D1*
X7181Y9484D1*
X7166Y9487D1*
X7150Y9488D1*
X6600D1*
X6584Y9487D1*
X6569Y9484D1*
X6554Y9480D1*
X6539Y9475D1*
X6525Y9467D1*
X6512Y9459D1*
X6500Y9449D1*
X6489Y9438D1*
X6479Y9426D1*
X6470Y9413D1*
X6463Y9399D1*
X6457Y9384D1*
X6453Y9369D1*
X6451Y9353D1*
X6450Y9338D1*
Y8788D1*
X6451Y8772D1*
X6453Y8756D1*
X6457Y8741D1*
X6463Y8726D1*
X6470Y8713D1*
X6479Y8699D1*
X6489Y8687D1*
X6500Y8676D1*
X6512Y8666D1*
X6525Y8658D1*
X6539Y8650D1*
X6554Y8645D1*
X6569Y8641D1*
X6584Y8638D1*
X6600D1*
G37*
G36*
X4375Y337D2*
Y1287D1*
X4374Y1303D1*
X4372Y1319D1*
X4368Y1334D1*
X4362Y1349D1*
X4355Y1362D1*
X4346Y1376D1*
X4336Y1388D1*
X4325Y1399D1*
X4313Y1409D1*
X4300Y1417D1*
X4286Y1425D1*
X4271Y1430D1*
X4256Y1434D1*
X4241Y1437D1*
X4225D1*
X3275D1*
X3259D1*
X3244Y1434D1*
X3229Y1430D1*
X3214Y1425D1*
X3200Y1417D1*
X3187Y1409D1*
X3175Y1399D1*
X3164Y1388D1*
X3154Y1376D1*
X3145Y1362D1*
X3138Y1349D1*
X3132Y1334D1*
X3128Y1319D1*
X3126Y1303D1*
X3125Y1287D1*
Y337D1*
X3126Y322D1*
X3128Y306D1*
X3132Y291D1*
X3138Y276D1*
X3145Y262D1*
X3154Y249D1*
X3164Y237D1*
X3175Y226D1*
X3187Y216D1*
X3200Y208D1*
X3214Y200D1*
X3229Y195D1*
X3244Y191D1*
X3259Y188D1*
X3275Y187D1*
X4225D1*
X4241Y188D1*
X4256Y191D1*
X4271Y195D1*
X4286Y200D1*
X4300Y208D1*
X4313Y216D1*
X4325Y226D1*
X4336Y237D1*
X4346Y249D1*
X4355Y262D1*
X4362Y276D1*
X4368Y291D1*
X4372Y306D1*
X4374Y322D1*
X4375Y337D1*
G37*
G36*
X8531Y8647D2*
X9319D1*
Y7859D1*
X8531D1*
Y8647D1*
G37*
G36*
X9315Y8756D2*
X8527D1*
Y9544D1*
X9315D1*
Y8756D1*
G37*
G36*
X81Y8597D2*
X869D1*
Y7809D1*
X81D1*
Y8597D1*
G37*
G36*
X865Y8706D2*
X77D1*
Y9494D1*
X865D1*
Y8706D1*
G37*
G36*
X9294Y978D2*
X8506D1*
Y1766D1*
X9294D1*
Y978D1*
G37*
G36*
X8510Y869D2*
X9298D1*
Y81D1*
X8510D1*
Y869D1*
G37*
G36*
X869Y1003D2*
X81D1*
Y1791D1*
X869D1*
Y1003D1*
G37*
G36*
X85Y894D2*
X873D1*
Y106D1*
X85D1*
Y894D1*
G37*
M02*
