G04 DipTrace Beta 2.3.5.2*
%INLulfroMiniBrush.GTS*%
%MOIN*%
%ADD21R,0.025X0.05*%
%ADD22R,0.05X0.025*%
%ADD25R,0.0354X0.0276*%
%ADD26R,0.0276X0.0354*%
%ADD29R,0.0394X0.0433*%
%ADD30R,0.0433X0.0394*%
%ADD31R,0.0315X0.0315*%
%ADD32R,0.0472X0.0315*%
%ADD36R,0.0472X0.0217*%
%ADD42R,0.058X0.011*%
%ADD43R,0.011X0.058*%
%ADD53O,0.0158X0.0375*%
%ADD55O,0.0375X0.0158*%
%ADD57R,0.126X0.0512*%
%ADD61R,0.0453X0.0296*%
%ADD63R,0.0296X0.0453*%
%FSLAX44Y44*%
G04*
G70*
G90*
G75*
G01*
%LNTopMask*%
%LPD*%
D21*
X5375Y8250D3*
X5021D3*
X4658D3*
G36*
X776Y3618D2*
X224D1*
X207D1*
X190Y3621D1*
X172Y3626D1*
X156Y3632D1*
X140Y3640D1*
X125Y3650D1*
X111Y3661D1*
X99Y3674D1*
X87Y3688D1*
X78Y3702D1*
X70Y3718D1*
X63Y3735D1*
X59Y3752D1*
X56Y3770D1*
X55Y3787D1*
Y4338D1*
X56Y4355D1*
X59Y4373D1*
X63Y4390D1*
X70Y4407D1*
X78Y4423D1*
X87Y4437D1*
X99Y4451D1*
X111Y4464D1*
X125Y4475D1*
X140Y4485D1*
X156Y4493D1*
X172Y4499D1*
X190Y4504D1*
X207Y4507D1*
X224Y4508D1*
X776D1*
X793Y4507D1*
X810Y4504D1*
X828Y4499D1*
X844Y4493D1*
X860Y4485D1*
X875Y4475D1*
X889Y4464D1*
X901Y4451D1*
X913Y4437D1*
X922Y4423D1*
X930Y4407D1*
X937Y4390D1*
X941Y4373D1*
X944Y4355D1*
X945Y4338D1*
Y3787D1*
X944Y3770D1*
X941Y3752D1*
X937Y3735D1*
X930Y3718D1*
X922Y3702D1*
X913Y3688D1*
X901Y3674D1*
X889Y3661D1*
X875Y3650D1*
X860Y3640D1*
X844Y3632D1*
X828Y3626D1*
X810Y3621D1*
X793Y3618D1*
X776D1*
G37*
G36*
X945Y5338D2*
Y4787D1*
X944Y4770D1*
X941Y4752D1*
X937Y4735D1*
X930Y4718D1*
X922Y4702D1*
X913Y4688D1*
X901Y4674D1*
X889Y4661D1*
X875Y4650D1*
X860Y4640D1*
X844Y4632D1*
X828Y4626D1*
X810Y4621D1*
X793Y4618D1*
X776D1*
X224D1*
X207D1*
X190Y4621D1*
X172Y4626D1*
X156Y4632D1*
X140Y4640D1*
X125Y4650D1*
X111Y4661D1*
X99Y4674D1*
X87Y4688D1*
X78Y4702D1*
X70Y4718D1*
X63Y4735D1*
X59Y4752D1*
X56Y4770D1*
X55Y4787D1*
Y5338D1*
X56Y5355D1*
X59Y5373D1*
X63Y5390D1*
X70Y5407D1*
X78Y5423D1*
X87Y5437D1*
X99Y5451D1*
X111Y5464D1*
X125Y5475D1*
X140Y5485D1*
X156Y5493D1*
X172Y5499D1*
X190Y5504D1*
X207Y5507D1*
X224Y5508D1*
X776D1*
X793Y5507D1*
X810Y5504D1*
X828Y5499D1*
X844Y5493D1*
X860Y5485D1*
X875Y5475D1*
X889Y5464D1*
X901Y5451D1*
X913Y5437D1*
X922Y5423D1*
X930Y5407D1*
X937Y5390D1*
X941Y5373D1*
X944Y5355D1*
X945Y5338D1*
G37*
G36*
X224Y5618D2*
X776D1*
X793D1*
X810Y5621D1*
X828Y5626D1*
X844Y5632D1*
X860Y5640D1*
X875Y5650D1*
X889Y5661D1*
X901Y5674D1*
X913Y5688D1*
X922Y5702D1*
X930Y5718D1*
X937Y5735D1*
X941Y5752D1*
X944Y5770D1*
X945Y5787D1*
Y6338D1*
X944Y6355D1*
X941Y6373D1*
X937Y6390D1*
X930Y6407D1*
X922Y6423D1*
X913Y6437D1*
X901Y6451D1*
X889Y6464D1*
X875Y6475D1*
X860Y6485D1*
X844Y6493D1*
X828Y6499D1*
X810Y6504D1*
X793Y6507D1*
X776Y6508D1*
X224D1*
X207Y6507D1*
X190Y6504D1*
X172Y6499D1*
X156Y6493D1*
X140Y6485D1*
X125Y6475D1*
X111Y6464D1*
X99Y6451D1*
X87Y6437D1*
X78Y6423D1*
X70Y6407D1*
X63Y6390D1*
X59Y6373D1*
X56Y6355D1*
X55Y6338D1*
Y5787D1*
X56Y5770D1*
X59Y5752D1*
X63Y5735D1*
X70Y5718D1*
X78Y5702D1*
X87Y5688D1*
X99Y5674D1*
X111Y5661D1*
X125Y5650D1*
X140Y5640D1*
X156Y5632D1*
X172Y5626D1*
X190Y5621D1*
X207Y5618D1*
X224D1*
G37*
G36*
X945Y6787D2*
Y7338D1*
X944Y7355D1*
X941Y7373D1*
X937Y7390D1*
X930Y7407D1*
X922Y7423D1*
X913Y7437D1*
X901Y7451D1*
X889Y7464D1*
X875Y7475D1*
X860Y7485D1*
X844Y7493D1*
X828Y7499D1*
X810Y7504D1*
X793Y7507D1*
X776Y7508D1*
X224D1*
X207Y7507D1*
X190Y7504D1*
X172Y7499D1*
X156Y7493D1*
X140Y7485D1*
X125Y7475D1*
X111Y7464D1*
X99Y7451D1*
X87Y7437D1*
X78Y7423D1*
X70Y7407D1*
X63Y7390D1*
X59Y7373D1*
X56Y7355D1*
X55Y7338D1*
Y6787D1*
X56Y6770D1*
X59Y6752D1*
X63Y6735D1*
X70Y6718D1*
X78Y6702D1*
X87Y6688D1*
X99Y6674D1*
X111Y6661D1*
X125Y6650D1*
X140Y6640D1*
X156Y6632D1*
X172Y6626D1*
X190Y6621D1*
X207Y6618D1*
X224D1*
X776D1*
X793D1*
X810Y6621D1*
X828Y6626D1*
X844Y6632D1*
X860Y6640D1*
X875Y6650D1*
X889Y6661D1*
X901Y6674D1*
X913Y6688D1*
X922Y6702D1*
X930Y6718D1*
X937Y6735D1*
X941Y6752D1*
X944Y6770D1*
X945Y6787D1*
G37*
G36*
X3430Y8787D2*
Y9338D1*
X3431Y9355D1*
X3434Y9373D1*
X3438Y9390D1*
X3445Y9407D1*
X3453Y9423D1*
X3462Y9437D1*
X3474Y9451D1*
X3486Y9464D1*
X3500Y9475D1*
X3515Y9485D1*
X3531Y9493D1*
X3547Y9499D1*
X3565Y9504D1*
X3582Y9507D1*
X3599Y9508D1*
X4151D1*
X4168Y9507D1*
X4185Y9504D1*
X4203Y9499D1*
X4219Y9493D1*
X4235Y9485D1*
X4250Y9475D1*
X4264Y9464D1*
X4276Y9451D1*
X4288Y9437D1*
X4297Y9423D1*
X4305Y9407D1*
X4312Y9390D1*
X4316Y9373D1*
X4319Y9355D1*
X4320Y9338D1*
Y8787D1*
X4319Y8770D1*
X4316Y8752D1*
X4312Y8735D1*
X4305Y8718D1*
X4297Y8702D1*
X4288Y8688D1*
X4276Y8674D1*
X4264Y8661D1*
X4250Y8650D1*
X4235Y8640D1*
X4219Y8632D1*
X4203Y8626D1*
X4185Y8621D1*
X4168Y8618D1*
X4151D1*
X3599D1*
X3582D1*
X3565Y8621D1*
X3547Y8626D1*
X3531Y8632D1*
X3515Y8640D1*
X3500Y8650D1*
X3486Y8661D1*
X3474Y8674D1*
X3462Y8688D1*
X3453Y8702D1*
X3445Y8718D1*
X3438Y8735D1*
X3434Y8752D1*
X3431Y8770D1*
X3430Y8787D1*
G37*
G36*
X5151Y8618D2*
X4599D1*
X4582D1*
X4565Y8621D1*
X4547Y8626D1*
X4531Y8632D1*
X4515Y8640D1*
X4500Y8650D1*
X4486Y8661D1*
X4474Y8674D1*
X4462Y8688D1*
X4453Y8702D1*
X4445Y8718D1*
X4438Y8735D1*
X4434Y8752D1*
X4431Y8770D1*
X4430Y8787D1*
Y9338D1*
X4431Y9355D1*
X4434Y9373D1*
X4438Y9390D1*
X4445Y9407D1*
X4453Y9423D1*
X4462Y9437D1*
X4474Y9451D1*
X4486Y9464D1*
X4500Y9475D1*
X4515Y9485D1*
X4531Y9493D1*
X4547Y9499D1*
X4565Y9504D1*
X4582Y9507D1*
X4599Y9508D1*
X5151D1*
X5168Y9507D1*
X5185Y9504D1*
X5203Y9499D1*
X5219Y9493D1*
X5235Y9485D1*
X5250Y9475D1*
X5264Y9464D1*
X5276Y9451D1*
X5288Y9437D1*
X5297Y9423D1*
X5305Y9407D1*
X5312Y9390D1*
X5316Y9373D1*
X5319Y9355D1*
X5320Y9338D1*
Y8787D1*
X5319Y8770D1*
X5316Y8752D1*
X5312Y8735D1*
X5305Y8718D1*
X5297Y8702D1*
X5288Y8688D1*
X5276Y8674D1*
X5264Y8661D1*
X5250Y8650D1*
X5235Y8640D1*
X5219Y8632D1*
X5203Y8626D1*
X5185Y8621D1*
X5168Y8618D1*
X5151D1*
G37*
G36*
X5430Y9338D2*
Y8787D1*
X5431Y8770D1*
X5434Y8752D1*
X5438Y8735D1*
X5445Y8718D1*
X5453Y8702D1*
X5462Y8688D1*
X5474Y8674D1*
X5486Y8661D1*
X5500Y8650D1*
X5515Y8640D1*
X5531Y8632D1*
X5547Y8626D1*
X5565Y8621D1*
X5582Y8618D1*
X5599D1*
X6151D1*
X6168D1*
X6185Y8621D1*
X6203Y8626D1*
X6219Y8632D1*
X6235Y8640D1*
X6250Y8650D1*
X6264Y8661D1*
X6276Y8674D1*
X6288Y8688D1*
X6297Y8702D1*
X6305Y8718D1*
X6312Y8735D1*
X6316Y8752D1*
X6319Y8770D1*
X6320Y8787D1*
Y9338D1*
X6319Y9355D1*
X6316Y9373D1*
X6312Y9390D1*
X6305Y9407D1*
X6297Y9423D1*
X6288Y9437D1*
X6276Y9451D1*
X6264Y9464D1*
X6250Y9475D1*
X6235Y9485D1*
X6219Y9493D1*
X6203Y9499D1*
X6185Y9504D1*
X6168Y9507D1*
X6151Y9508D1*
X5599D1*
X5582Y9507D1*
X5565Y9504D1*
X5547Y9499D1*
X5531Y9493D1*
X5515Y9485D1*
X5500Y9475D1*
X5486Y9464D1*
X5474Y9451D1*
X5462Y9437D1*
X5453Y9423D1*
X5445Y9407D1*
X5438Y9390D1*
X5434Y9373D1*
X5431Y9355D1*
X5430Y9338D1*
G37*
G36*
X6599Y8618D2*
X7151D1*
X7168D1*
X7185Y8621D1*
X7203Y8626D1*
X7219Y8632D1*
X7235Y8640D1*
X7250Y8650D1*
X7264Y8661D1*
X7276Y8674D1*
X7288Y8688D1*
X7297Y8702D1*
X7305Y8718D1*
X7312Y8735D1*
X7316Y8752D1*
X7319Y8770D1*
X7320Y8787D1*
Y9338D1*
X7319Y9355D1*
X7316Y9373D1*
X7312Y9390D1*
X7305Y9407D1*
X7297Y9423D1*
X7288Y9437D1*
X7276Y9451D1*
X7264Y9464D1*
X7250Y9475D1*
X7235Y9485D1*
X7219Y9493D1*
X7203Y9499D1*
X7185Y9504D1*
X7168Y9507D1*
X7151Y9508D1*
X6599D1*
X6582Y9507D1*
X6565Y9504D1*
X6547Y9499D1*
X6531Y9493D1*
X6515Y9485D1*
X6500Y9475D1*
X6486Y9464D1*
X6474Y9451D1*
X6462Y9437D1*
X6453Y9423D1*
X6445Y9407D1*
X6438Y9390D1*
X6434Y9373D1*
X6431Y9355D1*
X6430Y9338D1*
Y8787D1*
X6431Y8770D1*
X6434Y8752D1*
X6438Y8735D1*
X6445Y8718D1*
X6453Y8702D1*
X6462Y8688D1*
X6474Y8674D1*
X6486Y8661D1*
X6500Y8650D1*
X6515Y8640D1*
X6531Y8632D1*
X6547Y8626D1*
X6565Y8621D1*
X6582Y8618D1*
X6599D1*
G37*
G36*
X4605Y337D2*
Y1288D1*
X4606Y1305D1*
X4609Y1323D1*
X4613Y1340D1*
X4620Y1357D1*
X4628Y1373D1*
X4637Y1387D1*
X4649Y1401D1*
X4661Y1414D1*
X4675Y1425D1*
X4690Y1435D1*
X4706Y1443D1*
X4722Y1449D1*
X4740Y1454D1*
X4757Y1457D1*
X4774D1*
X5726D1*
X5743D1*
X5760Y1454D1*
X5778Y1449D1*
X5794Y1443D1*
X5810Y1435D1*
X5825Y1425D1*
X5839Y1414D1*
X5851Y1401D1*
X5863Y1387D1*
X5872Y1373D1*
X5880Y1357D1*
X5887Y1340D1*
X5891Y1323D1*
X5894Y1305D1*
X5895Y1288D1*
Y337D1*
X5894Y320D1*
X5891Y302D1*
X5887Y285D1*
X5880Y268D1*
X5872Y252D1*
X5863Y238D1*
X5851Y224D1*
X5839Y211D1*
X5825Y200D1*
X5810Y190D1*
X5794Y182D1*
X5778Y176D1*
X5760Y171D1*
X5743Y168D1*
X5726Y167D1*
X4774D1*
X4757Y168D1*
X4740Y171D1*
X4722Y176D1*
X4706Y182D1*
X4690Y190D1*
X4675Y200D1*
X4661Y211D1*
X4649Y224D1*
X4637Y238D1*
X4628Y252D1*
X4620Y268D1*
X4613Y285D1*
X4609Y302D1*
X4606Y320D1*
X4605Y337D1*
G37*
G36*
X4395D2*
Y1288D1*
X4394Y1305D1*
X4391Y1323D1*
X4387Y1340D1*
X4380Y1357D1*
X4372Y1373D1*
X4363Y1387D1*
X4351Y1401D1*
X4339Y1414D1*
X4325Y1425D1*
X4310Y1435D1*
X4294Y1443D1*
X4278Y1449D1*
X4260Y1454D1*
X4243Y1457D1*
X4226D1*
X3274D1*
X3257D1*
X3240Y1454D1*
X3222Y1449D1*
X3206Y1443D1*
X3190Y1435D1*
X3175Y1425D1*
X3161Y1414D1*
X3149Y1401D1*
X3137Y1387D1*
X3128Y1373D1*
X3120Y1357D1*
X3113Y1340D1*
X3109Y1323D1*
X3106Y1305D1*
X3105Y1288D1*
Y337D1*
X3106Y320D1*
X3109Y302D1*
X3113Y285D1*
X3120Y268D1*
X3128Y252D1*
X3137Y238D1*
X3149Y224D1*
X3161Y211D1*
X3175Y200D1*
X3190Y190D1*
X3206Y182D1*
X3222Y176D1*
X3240Y171D1*
X3257Y168D1*
X3274Y167D1*
X4226D1*
X4243Y168D1*
X4260Y171D1*
X4278Y176D1*
X4294Y182D1*
X4310Y190D1*
X4325Y200D1*
X4339Y211D1*
X4351Y224D1*
X4363Y238D1*
X4372Y252D1*
X4380Y268D1*
X4387Y285D1*
X4391Y302D1*
X4394Y320D1*
X4395Y337D1*
G37*
D22*
X500Y3000D3*
Y2646D3*
D25*
X1875Y6938D3*
Y7449D3*
X1940Y3990D3*
Y3478D3*
D26*
X8438Y2625D3*
X8949D3*
D25*
X7182Y3318D3*
Y2807D3*
X9110Y5010D3*
Y4498D3*
D26*
X6674Y4194D3*
X7186D3*
D25*
X9000Y6438D3*
Y6950D3*
X9040Y6042D3*
Y5530D3*
D26*
X7375Y3750D3*
X6863D3*
D29*
X5937Y1875D3*
Y2544D3*
D30*
Y3062D3*
X6607D3*
D25*
X6100Y7130D3*
Y7642D3*
X2375Y6938D3*
Y7449D3*
D26*
X5926Y3625D3*
X6437D3*
D31*
X7938Y2000D3*
Y2591D3*
D32*
X8250Y8375D3*
Y9084D3*
D31*
X4250Y7687D3*
Y8278D3*
D32*
X1190Y8330D3*
Y9039D3*
X8050Y1150D3*
Y441D3*
X1150Y1175D3*
Y466D3*
D63*
X7500Y7000D3*
X8248D3*
X7874Y7906D3*
D61*
X2600Y7900D3*
Y8648D3*
X1694Y8274D3*
X6627Y1120D3*
Y372D3*
X7532Y746D3*
X2688Y563D3*
Y1311D3*
X1782Y937D3*
D36*
X8938Y3125D3*
Y3499D3*
Y3873D3*
X7914D3*
Y3125D3*
D57*
X3313Y2062D3*
X3312Y3010D3*
G36*
X8511Y8667D2*
X9339D1*
Y7839D1*
X8511D1*
Y8667D1*
G37*
G36*
X9335Y8736D2*
X8507D1*
Y9564D1*
X9335D1*
Y8736D1*
G37*
G36*
X61Y8617D2*
X889D1*
Y7789D1*
X61D1*
Y8617D1*
G37*
G36*
X885Y8686D2*
X57D1*
Y9514D1*
X885D1*
Y8686D1*
G37*
G36*
X9314Y958D2*
X8486D1*
Y1786D1*
X9314D1*
Y958D1*
G37*
G36*
X8490Y889D2*
X9318D1*
Y61D1*
X8490D1*
Y889D1*
G37*
G36*
X889Y983D2*
X61D1*
Y1811D1*
X889D1*
Y983D1*
G37*
G36*
X65Y914D2*
X893D1*
Y86D1*
X65D1*
Y914D1*
G37*
D55*
X8540Y4850D3*
Y5047D3*
Y5244D3*
Y5441D3*
Y5637D3*
Y5834D3*
D53*
X8284Y6090D3*
X8087D3*
X7890D3*
X7694D3*
X7497D3*
X7300D3*
D55*
X7044Y5834D3*
Y5637D3*
Y5441D3*
Y5244D3*
Y5047D3*
Y4850D3*
D53*
X7300Y4594D3*
X7497D3*
X7694D3*
X7890D3*
X8087D3*
X8284D3*
D29*
X7063Y7625D3*
Y6956D3*
D26*
X5187Y7687D3*
X4676D3*
D25*
X6280Y4230D3*
Y4742D3*
X6470Y5200D3*
Y5712D3*
X3812Y8187D3*
Y7676D3*
D26*
X7125Y8313D3*
X6613D3*
X8938Y2125D3*
X8426D3*
D25*
X1125Y2563D3*
Y3074D3*
D26*
X812Y2125D3*
X301D3*
D30*
X2500Y9250D3*
X1831D3*
X7313Y1812D3*
X6643D3*
X2313Y1937D3*
X1643D3*
D29*
X6550Y7625D3*
Y6956D3*
X3275Y8350D3*
Y7681D3*
D30*
X7313Y2312D3*
X6643D3*
X2313Y2438D3*
X1643D3*
D21*
X8500Y3313D3*
X8146D3*
G36*
X4437Y2903D2*
Y2911D1*
X4435Y2919D1*
X4431Y2926D1*
X4426Y2933D1*
X4420Y2939D1*
X4414Y2944D1*
X4406Y2947D1*
X4398Y2949D1*
X4391Y2950D1*
X4109D1*
X4102Y2949D1*
X4094Y2947D1*
X4086Y2944D1*
X4080Y2939D1*
X4074Y2933D1*
X4069Y2926D1*
X4065Y2919D1*
X4063Y2911D1*
Y2903D1*
Y2847D1*
Y2839D1*
X4065Y2831D1*
X4069Y2824D1*
X4074Y2817D1*
X4080Y2811D1*
X4086Y2806D1*
X4094Y2803D1*
X4102Y2801D1*
X4109Y2800D1*
X4391D1*
X4398Y2801D1*
X4406Y2803D1*
X4414Y2806D1*
X4420Y2811D1*
X4426Y2817D1*
X4431Y2824D1*
X4435Y2831D1*
X4437Y2839D1*
Y2847D1*
Y2903D1*
G37*
G36*
Y2707D2*
Y2714D1*
X4435Y2722D1*
X4431Y2730D1*
X4426Y2736D1*
X4420Y2742D1*
X4414Y2747D1*
X4406Y2750D1*
X4398Y2753D1*
X4391D1*
X4109D1*
X4102D1*
X4094Y2750D1*
X4086Y2747D1*
X4080Y2742D1*
X4074Y2736D1*
X4069Y2730D1*
X4065Y2722D1*
X4063Y2714D1*
Y2707D1*
Y2650D1*
Y2642D1*
X4065Y2634D1*
X4069Y2627D1*
X4074Y2620D1*
X4080Y2614D1*
X4086Y2609D1*
X4094Y2606D1*
X4102Y2604D1*
X4109Y2603D1*
X4391D1*
X4398Y2604D1*
X4406Y2606D1*
X4414Y2609D1*
X4420Y2614D1*
X4426Y2620D1*
X4431Y2627D1*
X4435Y2634D1*
X4437Y2642D1*
Y2650D1*
Y2707D1*
G37*
G36*
Y2510D2*
Y2517D1*
X4435Y2525D1*
X4431Y2533D1*
X4426Y2539D1*
X4420Y2545D1*
X4414Y2550D1*
X4406Y2554D1*
X4398Y2556D1*
X4391D1*
X4109D1*
X4102D1*
X4094Y2554D1*
X4086Y2550D1*
X4080Y2545D1*
X4074Y2539D1*
X4069Y2533D1*
X4065Y2525D1*
X4063Y2517D1*
Y2510D1*
Y2453D1*
Y2445D1*
X4065Y2437D1*
X4069Y2430D1*
X4074Y2423D1*
X4080Y2417D1*
X4086Y2412D1*
X4094Y2409D1*
X4102Y2407D1*
X4109Y2406D1*
X4391D1*
X4398Y2407D1*
X4406Y2409D1*
X4414Y2412D1*
X4420Y2417D1*
X4426Y2423D1*
X4431Y2430D1*
X4435Y2437D1*
X4437Y2445D1*
Y2453D1*
Y2510D1*
G37*
G36*
Y2313D2*
Y2320D1*
X4435Y2328D1*
X4431Y2336D1*
X4426Y2343D1*
X4420Y2349D1*
X4414Y2353D1*
X4406Y2357D1*
X4398Y2359D1*
X4391Y2360D1*
X4109D1*
X4102Y2359D1*
X4094Y2357D1*
X4086Y2353D1*
X4080Y2349D1*
X4074Y2343D1*
X4069Y2336D1*
X4065Y2328D1*
X4063Y2320D1*
Y2313D1*
Y2256D1*
Y2249D1*
X4065Y2241D1*
X4069Y2233D1*
X4074Y2226D1*
X4080Y2220D1*
X4086Y2216D1*
X4094Y2212D1*
X4102Y2210D1*
X4109Y2209D1*
X4391D1*
X4398Y2210D1*
X4406Y2212D1*
X4414Y2216D1*
X4420Y2220D1*
X4426Y2226D1*
X4431Y2233D1*
X4435Y2241D1*
X4437Y2249D1*
Y2256D1*
Y2313D1*
G37*
G36*
Y2116D2*
Y2123D1*
X4435Y2131D1*
X4431Y2139D1*
X4426Y2146D1*
X4420Y2152D1*
X4414Y2156D1*
X4406Y2160D1*
X4398Y2162D1*
X4391Y2163D1*
X4109D1*
X4102Y2162D1*
X4094Y2160D1*
X4086Y2156D1*
X4080Y2152D1*
X4074Y2146D1*
X4069Y2139D1*
X4065Y2131D1*
X4063Y2123D1*
Y2116D1*
Y2059D1*
Y2052D1*
X4065Y2044D1*
X4069Y2036D1*
X4074Y2029D1*
X4080Y2024D1*
X4086Y2019D1*
X4094Y2015D1*
X4102Y2013D1*
X4109Y2012D1*
X4391D1*
X4398Y2013D1*
X4406Y2015D1*
X4414Y2019D1*
X4420Y2024D1*
X4426Y2029D1*
X4431Y2036D1*
X4435Y2044D1*
X4437Y2052D1*
Y2059D1*
Y2116D1*
G37*
G36*
X5224Y2059D2*
X5225Y2052D1*
X5227Y2044D1*
X5230Y2036D1*
X5235Y2029D1*
X5241Y2024D1*
X5248Y2019D1*
X5255Y2015D1*
X5263Y2013D1*
X5271Y2012D1*
X5552D1*
X5559Y2013D1*
X5567Y2015D1*
X5575Y2019D1*
X5582Y2024D1*
X5588Y2029D1*
X5592Y2036D1*
X5596Y2044D1*
X5598Y2052D1*
X5599Y2059D1*
Y2116D1*
X5598Y2123D1*
X5596Y2131D1*
X5592Y2139D1*
X5588Y2146D1*
X5582Y2152D1*
X5575Y2156D1*
X5567Y2160D1*
X5559Y2162D1*
X5552Y2163D1*
X5271D1*
X5263Y2162D1*
X5255Y2160D1*
X5248Y2156D1*
X5241Y2152D1*
X5235Y2146D1*
X5230Y2139D1*
X5227Y2131D1*
X5225Y2123D1*
X5224Y2116D1*
Y2059D1*
G37*
G36*
Y2256D2*
X5225Y2249D1*
X5227Y2241D1*
X5230Y2233D1*
X5235Y2226D1*
X5241Y2220D1*
X5248Y2216D1*
X5255Y2212D1*
X5263Y2210D1*
X5271Y2209D1*
X5552D1*
X5559Y2210D1*
X5567Y2212D1*
X5575Y2216D1*
X5582Y2220D1*
X5588Y2226D1*
X5592Y2233D1*
X5596Y2241D1*
X5598Y2249D1*
X5599Y2256D1*
Y2313D1*
X5598Y2320D1*
X5596Y2328D1*
X5592Y2336D1*
X5588Y2343D1*
X5582Y2349D1*
X5575Y2353D1*
X5567Y2357D1*
X5559Y2359D1*
X5552Y2360D1*
X5271D1*
X5263Y2359D1*
X5255Y2357D1*
X5248Y2353D1*
X5241Y2349D1*
X5235Y2343D1*
X5230Y2336D1*
X5227Y2328D1*
X5225Y2320D1*
X5224Y2313D1*
Y2256D1*
G37*
G36*
Y2453D2*
X5225Y2445D1*
X5227Y2437D1*
X5230Y2430D1*
X5235Y2423D1*
X5241Y2417D1*
X5248Y2412D1*
X5255Y2409D1*
X5263Y2407D1*
X5271Y2406D1*
X5552D1*
X5559Y2407D1*
X5567Y2409D1*
X5575Y2412D1*
X5582Y2417D1*
X5588Y2423D1*
X5592Y2430D1*
X5596Y2437D1*
X5598Y2445D1*
X5599Y2453D1*
Y2510D1*
X5598Y2517D1*
X5596Y2525D1*
X5592Y2533D1*
X5588Y2539D1*
X5582Y2545D1*
X5575Y2550D1*
X5567Y2554D1*
X5559Y2556D1*
X5552D1*
X5271D1*
X5263D1*
X5255Y2554D1*
X5248Y2550D1*
X5241Y2545D1*
X5235Y2539D1*
X5230Y2533D1*
X5227Y2525D1*
X5225Y2517D1*
X5224Y2510D1*
Y2453D1*
G37*
G36*
Y2650D2*
X5225Y2642D1*
X5227Y2634D1*
X5230Y2627D1*
X5235Y2620D1*
X5241Y2614D1*
X5248Y2609D1*
X5255Y2606D1*
X5263Y2604D1*
X5271Y2603D1*
X5552D1*
X5559Y2604D1*
X5567Y2606D1*
X5575Y2609D1*
X5582Y2614D1*
X5588Y2620D1*
X5592Y2627D1*
X5596Y2634D1*
X5598Y2642D1*
X5599Y2650D1*
Y2707D1*
X5598Y2714D1*
X5596Y2722D1*
X5592Y2730D1*
X5588Y2736D1*
X5582Y2742D1*
X5575Y2747D1*
X5567Y2750D1*
X5559Y2753D1*
X5552D1*
X5271D1*
X5263D1*
X5255Y2750D1*
X5248Y2747D1*
X5241Y2742D1*
X5235Y2736D1*
X5230Y2730D1*
X5227Y2722D1*
X5225Y2714D1*
X5224Y2707D1*
Y2650D1*
G37*
G36*
Y2847D2*
X5225Y2839D1*
X5227Y2831D1*
X5230Y2824D1*
X5235Y2817D1*
X5241Y2811D1*
X5248Y2806D1*
X5255Y2803D1*
X5263Y2801D1*
X5271Y2800D1*
X5552D1*
X5559Y2801D1*
X5567Y2803D1*
X5575Y2806D1*
X5582Y2811D1*
X5588Y2817D1*
X5592Y2824D1*
X5596Y2831D1*
X5598Y2839D1*
X5599Y2847D1*
Y2903D1*
X5598Y2911D1*
X5596Y2919D1*
X5592Y2926D1*
X5588Y2933D1*
X5582Y2939D1*
X5575Y2944D1*
X5567Y2947D1*
X5559Y2949D1*
X5552Y2950D1*
X5271D1*
X5263Y2949D1*
X5255Y2947D1*
X5248Y2944D1*
X5241Y2939D1*
X5235Y2933D1*
X5230Y2926D1*
X5227Y2919D1*
X5225Y2911D1*
X5224Y2903D1*
Y2847D1*
G37*
G36*
X5176Y1989D2*
Y2974D1*
X4486D1*
Y1989D1*
X5176D1*
G37*
G36*
X5014Y1713D2*
Y3249D1*
X4864D1*
Y1713D1*
X5014D1*
G37*
G36*
X4798D2*
Y3249D1*
X4647D1*
Y1713D1*
X4798D1*
G37*
D42*
X2313Y6438D3*
Y6241D3*
Y6044D3*
Y5847D3*
Y5650D3*
Y5453D3*
Y5256D3*
Y5060D3*
Y4863D3*
Y4666D3*
Y4469D3*
Y4272D3*
D43*
X2890Y3695D3*
X3087D3*
X3284D3*
X3480D3*
X3677D3*
X3874D3*
X4071D3*
X4268D3*
X4465D3*
X4661D3*
X4858D3*
X5055D3*
D42*
X5633Y4272D3*
Y4469D3*
Y4666D3*
Y4863D3*
Y5060D3*
Y5256D3*
Y5453D3*
Y5650D3*
Y5847D3*
Y6044D3*
Y6241D3*
Y6438D3*
D43*
X5055Y7015D3*
X4858D3*
X4661D3*
X4465D3*
X4268D3*
X4071D3*
X3874D3*
X3677D3*
X3480D3*
X3284D3*
X3087D3*
X2890D3*
G36*
X1865Y5882D2*
Y6158D1*
X1195D1*
Y5882D1*
X1865D1*
G37*
G36*
Y5410D2*
Y5685D1*
X1195D1*
Y5410D1*
X1865D1*
G37*
G36*
Y4937D2*
Y5213D1*
X1195D1*
Y4937D1*
X1865D1*
G37*
M02*
